<?xml version="1.0" encoding="UTF-8" standalone="no"?>
<svg
   width="55.950375mm"
   height="17.389423mm"
   viewBox="0 0 660.83049 205.3872"
   version="1.2"
   id="svg1060"
   sodipodi:docname="fightboard-v3-b-m.svg"
   inkscape:version="1.4.4 (dcaf3e7d9e, 2026-05-05)"
   xml:space="preserve"
   xmlns:inkscape="http://www.inkscape.org/namespaces/inkscape"
   xmlns:sodipodi="http://sodipodi.sourceforge.net/DTD/sodipodi-0.dtd"
   xmlns="http://www.w3.org/2000/svg"
   xmlns:svg="http://www.w3.org/2000/svg"><sodipodi:namedview
     id="namedview1060"
     pagecolor="#ffffff"
     bordercolor="#000000"
     borderopacity="0.25"
     inkscape:showpageshadow="2"
     inkscape:pageopacity="0.0"
     inkscape:pagecheckerboard="0"
     inkscape:deskcolor="#d1d1d1"
     inkscape:document-units="mm"
     inkscape:zoom="4.550433"
     inkscape:cx="44.171621"
     inkscape:cy="31.315701"
     inkscape:window-width="2560"
     inkscape:window-height="1440"
     inkscape:window-x="0"
     inkscape:window-y="0"
     inkscape:window-maximized="0"
     inkscape:current-layer="svg1060"
     showgrid="false" /><defs
     id="defs1"><marker
       id="DistanceX"
       orient="auto"
       refX="0"
       refY="0"
       style="overflow:visible"><path
         d="M 3,-3 -3,3 M 0,-5 V 5"
         style="stroke:#000000;stroke-width:0.5"
         id="path1" /></marker><pattern
       id="Hatch"
       patternUnits="userSpaceOnUse"
       width="8"
       height="8"
       x="0"
       y="0"><path
         d="M8 4 l-4,4"
         stroke="#000000"
         stroke-width="0.25"
         linecap="square"
         id="path2" /><path
         d="M6 2 l-4,4"
         stroke="#000000"
         stroke-width="0.25"
         linecap="square"
         id="path3" /><path
         d="M4 0 l-4,4"
         stroke="#000000"
         stroke-width="0.25"
         linecap="square"
         id="path4" /></pattern><symbol
       id="*MODEL_SPACE" /><symbol
       id="*PAPER_SPACE" /></defs><path
     fill="none"
     fill-opacity="1"
     fill-rule="evenodd"
     stroke="#000000"
     stroke-width="0.937501"
     stroke-linecap="round"
     stroke-linejoin="bevel"
     stroke-dasharray="none"
     stroke-opacity="1"
     d="M 641.94023,1.181105 H 18.890228 l -0.44,0.005 -0.43,0.016 -0.43,0.027 -0.44,0.037 -0.43,0.048 -0.43,0.059 -0.43,0.069 -0.43,0.079 -0.42,0.09 -0.42,0.101 -0.43,0.111 -0.41,0.121 -0.42,0.131 -0.41,0.141 -0.41,0.152 -0.4,0.161 -0.4,0.172 -0.39,0.181 -0.4,0.19 -0.38,0.201 -0.38,0.209 -0.3799999,0.219 -0.37,0.228 -0.36,0.237 -0.36,0.246 -0.35,0.255 -0.35,0.263 -0.34,0.272 -0.33,0.28 -0.33,0.288 -0.32,0.296 -0.31,0.303 -0.3,0.311 -0.3,0.319 -0.28,0.326 -0.28,0.332 -0.28,0.34 -0.26,0.346 -0.25,0.352 -0.25,0.359 -0.24,0.364 -0.22,0.37 -0.22,0.376 -0.21,0.381 -0.2,0.386 -0.19,0.39 -0.19,0.396 -0.17,0.399 -0.16,0.404 -0.15,0.407 -0.14,0.412 -0.13,0.414 -0.12,0.418 -0.11,0.42 -0.1,0.423 -0.09,0.425 -0.08,0.428 -0.07,0.429 -0.06,0.431 -0.05,0.432 -0.04,0.433 -0.02,0.434 -0.02,0.434 v 0.435 167.597005 0.435 l 0.02,0.434 0.02,0.434 0.04,0.433 0.05,0.432 0.06,0.431 0.07,0.429 0.08,0.428 0.09,0.425 0.1,0.423 0.11,0.421 0.12,0.417 0.13,0.415 0.14,0.411 0.15,0.407 0.16,0.404 0.17,0.4 0.19,0.395 0.19,0.391 0.2,0.385 0.21,0.381 0.22,0.376 0.22,0.37 0.24,0.365 0.25,0.358 0.25,0.352 0.26,0.346 0.28,0.34 0.28,0.332 0.28,0.326 0.3,0.319 0.3,0.311 0.31,0.303 0.32,0.296 0.33,0.288 0.33,0.28 0.34,0.272 0.35,0.263 0.35,0.255 0.36,0.246 0.36,0.237 0.37,0.228 0.3799999,0.219 0.38,0.21 0.38,0.2 0.4,0.191 0.39,0.181 0.4,0.171 0.4,0.161 0.41,0.152 0.41,0.141 0.42,0.131 0.41,0.122 0.43,0.11 0.42,0.101 0.42,0.09 0.43,0.079 0.43,0.07 0.43,0.058 0.43,0.048 0.44,0.037 0.43,0.027 0.43,0.016 0.44,0.005 H 641.94023 l 0.43,-0.005 0.44,-0.016 0.43,-0.027 0.43,-0.037 0.44,-0.048 0.43,-0.058 0.43,-0.07 0.42,-0.079 0.43,-0.09 0.42,-0.101 0.42,-0.11 0.42,-0.122 0.41,-0.131 0.42,-0.141 0.4,-0.152 0.41,-0.161 0.4,-0.171 0.39,-0.181 0.39,-0.191 0.39,-0.2 0.38,-0.21 0.37,-0.219 0.38,-0.228 0.36,-0.237 0.36,-0.246 0.35,-0.255 0.35,-0.263 0.34,-0.272 0.33,-0.28 0.32,-0.288 0.32,-0.296 0.31,-0.303 0.31,-0.311 0.29,-0.319 0.29,-0.326 0.28,-0.332 0.27,-0.34 0.27,-0.346 0.25,-0.352 0.25,-0.358 0.23,-0.365 0.23,-0.37 0.22,-0.376 0.21,-0.381 0.2,-0.385 0.19,-0.391 0.18,-0.395 0.17,-0.4 0.17,-0.404 0.15,-0.407 0.14,-0.411 0.13,-0.415 0.12,-0.417 0.11,-0.421 0.1,-0.423 0.09,-0.425 0.08,-0.428 0.07,-0.429 0.06,-0.431 0.05,-0.432 0.03,-0.433 0.03,-0.434 0.02,-0.434 v -0.435 -167.597005 -0.435 l -0.02,-0.434 -0.03,-0.434 -0.03,-0.433 -0.05,-0.432 -0.06,-0.431 -0.07,-0.429 -0.08,-0.428 -0.09,-0.425 -0.1,-0.423 -0.11,-0.42 -0.12,-0.418 -0.13,-0.414 -0.14,-0.412 -0.15,-0.407 -0.17,-0.404 -0.17,-0.399 -0.18,-0.396 -0.19,-0.39 -0.2,-0.386 -0.21,-0.381 -0.22,-0.376 -0.23,-0.37 -0.23,-0.364 -0.25,-0.359 -0.25,-0.352 -0.27,-0.346 -0.27,-0.34 -0.28,-0.332 -0.29,-0.326 -0.29,-0.319 -0.31,-0.311 -0.31,-0.303 -0.32,-0.296 -0.32,-0.288 -0.33,-0.28 -0.34,-0.272 -0.35,-0.263 -0.35,-0.255 -0.36,-0.246 -0.36,-0.237 -0.38,-0.228 -0.37,-0.219 -0.38,-0.209 -0.39,-0.201 -0.39,-0.19 -0.39,-0.181 -0.4,-0.172 -0.41,-0.161 -0.4,-0.152 -0.42,-0.141 -0.41,-0.131 -0.42,-0.121 -0.42,-0.111 -0.42,-0.101 -0.43,-0.09 -0.42,-0.079 -0.43,-0.069 -0.43,-0.059 -0.44,-0.048 -0.43,-0.037 -0.43,-0.027 -0.44,-0.016 z"
     id="case"
     style="display:inline;fill:#2b303b;fill-opacity:1;stroke-width:2.36221;stroke-dasharray:none" /><path
     fill="none"
     fill-opacity="1"
     fill-rule="evenodd"
     stroke="#000000"
     stroke-width="0.937501"
     stroke-linecap="round"
     stroke-linejoin="bevel"
     stroke-dasharray="none"
     stroke-opacity="1"
     d="m 360.78023,66.448115 0.01,-0.159 0.01,-0.158 0.01,-0.158 0.03,-0.157 0.03,-0.156 0.03,-0.154 0.05,-0.153 0.05,-0.151 0.05,-0.148 0.06,-0.146 0.07,-0.143 0.08,-0.141 0.08,-0.137 0.08,-0.133 0.1,-0.13 0.09,-0.125 0.11,-0.122 0.1,-0.116 0.11,-0.113 0.12,-0.107 0.12,-0.102 0.13,-0.098 0.13,-0.091 0.13,-0.086 0.14,-0.081 0.14,-0.074 0.14,-0.069 0.15,-0.062 0.15,-0.056 0.15,-0.05 0.15,-0.043 0.15,-0.037 0.16,-0.03 0.16,-0.023 0.16,-0.017 0.15,-0.01 0.16,-0.004 0.16,0.004 0.16,0.01 0.16,0.017 0.15,0.023 0.16,0.03 0.15,0.037 0.16,0.043 0.15,0.05 0.15,0.056 0.14,0.062 0.15,0.069 0.14,0.074 0.13,0.081 0.14,0.086 0.13,0.091 0.12,0.098 0.12,0.102 0.12,0.107 0.11,0.113 0.11,0.116 0.1,0.122 0.1,0.125 0.09,0.13 0.09,0.133 0.08,0.137 0.07,0.141 0.07,0.143 0.06,0.146 0.06,0.148 0.05,0.151 0.04,0.153 0.04,0.154 0.03,0.156 0.02,0.157 0.02,0.158 0.01,0.158 v 0.159 0.159 l -0.01,0.158 -0.02,0.158 -0.02,0.157 -0.03,0.156 -0.04,0.154 -0.04,0.153 -0.05,0.151 -0.06,0.149 -0.06,0.146 -0.07,0.143 -0.07,0.14 -0.08,0.137 -0.09,0.133 -0.09,0.13 -0.1,0.126 -0.1,0.121 -0.11,0.117 -0.11,0.112 -0.12,0.107 -0.12,0.103 -0.12,0.097 -0.13,0.092 -0.14,0.086 -0.13,0.08 -0.14,0.074 -0.15,0.069 -0.14,0.062 -0.15,0.056 -0.15,0.05 -0.16,0.043 -0.15,0.037 -0.16,0.03 -0.15,0.024 -0.16,0.016 -0.16,0.01 -0.16,0.004 -0.16,-0.004 -0.15,-0.01 -0.16,-0.016 -0.16,-0.024 -0.16,-0.03 -0.15,-0.037 -0.15,-0.043 -0.15,-0.05 -0.15,-0.056 -0.15,-0.062 -0.14,-0.069 -0.14,-0.074 -0.14,-0.08 -0.13,-0.086 -0.13,-0.092 -0.13,-0.097 -0.12,-0.103 -0.12,-0.107 -0.11,-0.112 -0.1,-0.117 -0.11,-0.121 -0.09,-0.126 -0.1,-0.13 -0.08,-0.133 -0.08,-0.137 -0.08,-0.14 -0.07,-0.143 -0.06,-0.146 -0.05,-0.149 -0.05,-0.151 -0.05,-0.153 -0.03,-0.154 -0.03,-0.156 -0.03,-0.157 -0.01,-0.158 -0.01,-0.158 z"
     id="board_led"
     style="fill:#1c1f26;fill-opacity:1;stroke-width:2.36221;stroke-dasharray:none" /><path
     fill="none"
     fill-opacity="1"
     fill-rule="evenodd"
     stroke="#000000"
     stroke-width="0.937501"
     stroke-linecap="round"
     stroke-linejoin="bevel"
     stroke-dasharray="none"
     stroke-opacity="1"
     d="m 84.730228,177.58612 -0.01,-0.244 -0.01,-0.244 -0.01,-0.244 -0.03,-0.243 -0.03,-0.242 -0.03,-0.241 -0.05,-0.24 -0.05,-0.239 -0.05,-0.238 -0.07,-0.235 -0.07,-0.234 -0.07,-0.232 -0.08,-0.23 -0.09,-0.227 -0.1,-0.225 -0.1,-0.222 -0.11,-0.22 -0.11,-0.216 -0.12,-0.213 -0.12,-0.21 -0.13,-0.206 -0.14,-0.202 -0.14,-0.199 -0.15,-0.195 -0.15,-0.19 -0.16,-0.186 -0.16,-0.182 -0.17,-0.177 -0.17,-0.173 -0.18,-0.168 -0.18,-0.163 -0.19,-0.157 -0.19,-0.153 -0.19,-0.147 -0.2,-0.142 -0.21,-0.136 -0.2,-0.131 -0.21,-0.125 -0.21,-0.119 -0.22,-0.113 -0.22,-0.107 -0.22,-0.102 -0.23,-0.094 -0.22,-0.089 -0.23,-0.083 -0.24,-0.076 -0.23,-0.069 -0.24,-0.063 -0.23,-0.057 -0.24,-0.05 -0.24,-0.044 -0.24,-0.037 -0.25,-0.03 -0.24,-0.023 -0.24,-0.017 -0.25,-0.01 -0.24,-0.004 -0.24,0.004 -0.25,0.01 -0.24,0.017 -0.24,0.023 -0.25,0.03 -0.24,0.037 -0.24,0.044 -0.24,0.05 -0.23,0.057 -0.24,0.063 -0.23,0.069 -0.24,0.076 -0.23,0.083 -0.22,0.089 -0.23,0.094 -0.22,0.102 -0.22,0.107 -0.22,0.113 -0.21,0.119 -0.21,0.125 -0.2,0.131 -0.21,0.136 -0.2,0.142 -0.19,0.147 -0.19,0.153 -0.19,0.157 -0.18,0.163 -0.18,0.168 -0.17,0.173 -0.17,0.177 -0.16,0.182 -0.16,0.186 -0.15,0.19 -0.15,0.195 -0.14,0.199 -0.13,0.202 -0.14,0.206 -0.12,0.21 -0.12,0.213 -0.11,0.216 -0.11,0.22 -0.1,0.222 -0.1,0.225 -0.08,0.227 -0.09,0.23 -0.07,0.232 -0.07,0.234 -0.07,0.235 -0.05,0.238 -0.05,0.239 -0.05,0.24 -0.03,0.241 -0.03,0.242 -0.03,0.243 -0.01,0.244 -0.01,0.244 -0.01,0.244 0.01,0.244 0.01,0.244 0.01,0.243 0.03,0.243 0.03,0.242 0.03,0.241 0.05,0.241 0.05,0.239 0.05,0.237 0.07,0.236 0.07,0.234 0.07,0.232 0.09,0.229 0.08,0.228 0.1,0.225 0.1,0.222 0.11,0.219 0.11,0.216 0.12,0.213 0.12,0.21 0.14,0.206 0.13,0.203 0.14,0.198 0.15,0.195 0.15,0.19 0.16,0.187 0.16,0.181 0.17,0.178 0.17,0.172 0.18,0.168 0.18,0.163 0.19,0.158 0.19,0.152 0.19,0.147 0.2,0.142 0.21,0.137 0.2,0.13 0.21,0.125 0.21,0.119 0.22,0.113 0.22,0.108 0.22,0.101 0.23,0.095 0.22,0.088 0.23,0.083 0.24,0.076 0.23,0.07 0.24,0.063 0.23,0.056 0.24,0.05 0.24,0.044 0.24,0.037 0.25,0.03 0.24,0.024 0.24,0.016 0.25,0.01 0.24,0.004 0.24,-0.004 0.25,-0.01 0.24,-0.016 0.24,-0.024 0.25,-0.03 0.24,-0.037 0.24,-0.044 0.24,-0.05 0.23,-0.056 0.24,-0.063 0.23,-0.07 0.24,-0.076 0.23,-0.083 0.22,-0.088 0.23,-0.095 0.22,-0.101 0.22,-0.108 0.22,-0.113 0.21,-0.119 0.21,-0.125 0.2,-0.13 0.21,-0.137 0.2,-0.142 0.19,-0.147 0.19,-0.152 0.19,-0.158 0.18,-0.163 0.18,-0.168 0.17,-0.172 0.17,-0.178 0.16,-0.181 0.16,-0.187 0.15,-0.19 0.15,-0.195 0.14,-0.198 0.14,-0.203 0.13,-0.206 0.12,-0.21 0.12,-0.213 0.11,-0.216 0.11,-0.219 0.1,-0.222 0.1,-0.225 0.09,-0.228 0.08,-0.229 0.07,-0.232 0.07,-0.234 0.07,-0.236 0.05,-0.237 0.05,-0.239 0.05,-0.241 0.03,-0.241 0.03,-0.242 0.03,-0.243 0.01,-0.243 0.01,-0.244 z"
     id="pin07"
     style="fill:#1c1f26;fill-opacity:1;stroke-width:2.36221;stroke-dasharray:none" /><path
     fill="none"
     fill-opacity="1"
     fill-rule="evenodd"
     stroke="#000000"
     stroke-width="0.937501"
     stroke-linecap="round"
     stroke-linejoin="bevel"
     stroke-dasharray="none"
     stroke-opacity="1"
     d="m 39.560228,177.58612 -0.01,-0.244 -0.01,-0.244 -0.01,-0.244 -0.03,-0.243 -0.03,-0.242 -0.03,-0.241 -0.05,-0.24 -0.05,-0.239 -0.05,-0.238 -0.07,-0.235 -0.07,-0.234 -0.07,-0.232 -0.09,-0.23 -0.08,-0.227 -0.1,-0.225 -0.1,-0.222 -0.11,-0.22 -0.11,-0.216 -0.12,-0.213 -0.13,-0.21 -0.13,-0.206 -0.13,-0.202 -0.14,-0.199 -0.15,-0.195 -0.15,-0.19 -0.16,-0.186 -0.16,-0.182 -0.17,-0.177 -0.17,-0.173 -0.18,-0.168 -0.18,-0.163 -0.19,-0.157 -0.19,-0.153 -0.2,-0.147 -0.19,-0.142 -0.21,-0.136 -0.2,-0.131 -0.21,-0.125 -0.22,-0.119 -0.21,-0.113 -0.22,-0.107 -0.22,-0.102 -0.23,-0.094 -0.23,-0.089 -0.23,-0.083 -0.23,-0.076 -0.23,-0.069 -0.24,-0.063 -0.23,-0.057 -0.24,-0.05 -0.24,-0.044 -0.24,-0.037 -0.25,-0.03 -0.24,-0.023 -0.24,-0.017 -0.25,-0.01 -0.24,-0.004 -0.25,0.004 -0.24,0.01 -0.24,0.017 -0.25,0.023 -0.24,0.03 -0.24,0.037 -0.24,0.044 -0.24,0.05 -0.24,0.057 -0.23,0.063 -0.23,0.069 -0.24,0.076 -0.23,0.083 -0.22,0.089 -0.23,0.094 -0.22,0.102 -0.22,0.107 -0.22,0.113 -0.21,0.119 -0.21,0.125 -0.21,0.131 -0.2,0.136 -0.2,0.142 -0.19,0.147 -0.19,0.153 -0.19,0.157 -0.18,0.163 -0.18,0.168 -0.17,0.173 -0.17,0.177 -0.16,0.182 -0.16,0.186 -0.15,0.19 -0.15,0.195 -0.14,0.199 -0.14,0.202 -0.13,0.206 -0.12,0.21 -0.12,0.213 -0.11,0.216 -0.11,0.22 -0.1,0.222 -0.1,0.225 -0.09,0.227 -0.08,0.23 -0.07,0.232 -0.07,0.234 -0.07,0.235 -0.05,0.238 -0.05,0.239 -0.05,0.24 -0.03,0.241 -0.03,0.242 -0.03,0.243 -0.01,0.244 -0.01,0.244 -0.01,0.244 0.01,0.244 0.01,0.244 0.01,0.243 0.03,0.243 0.03,0.242 0.03,0.241 0.05,0.241 0.05,0.239 0.05,0.237 0.07,0.236 0.07,0.234 0.07,0.232 0.08,0.229 0.09,0.228 0.1,0.225 0.1,0.222 0.11,0.219 0.11,0.216 0.12,0.213 0.12,0.21 0.13,0.206 0.14,0.203 0.14,0.198 0.15,0.195 0.15,0.19 0.16,0.187 0.16,0.181 0.17,0.178 0.17,0.172 0.18,0.168 0.18,0.163 0.19,0.158 0.19,0.152 0.19,0.147 0.2,0.142 0.2,0.137 0.21,0.13 0.21,0.125 0.21,0.119 0.22,0.113 0.22,0.108 0.22,0.101 0.23,0.095 0.22,0.088 0.23,0.083 0.24,0.076 0.23,0.07 0.23,0.063 0.24,0.056 0.24,0.05 0.24,0.044 0.24,0.037 0.24,0.03 0.25,0.024 0.24,0.016 0.24,0.01 0.25,0.004 0.24,-0.004 0.25,-0.01 0.24,-0.016 0.24,-0.024 0.25,-0.03 0.24,-0.037 0.24,-0.044 0.24,-0.05 0.23,-0.056 0.24,-0.063 0.23,-0.07 0.23,-0.076 0.23,-0.083 0.23,-0.088 0.23,-0.095 0.22,-0.101 0.22,-0.108 0.21,-0.113 0.22,-0.119 0.21,-0.125 0.2,-0.13 0.21,-0.137 0.19,-0.142 0.2,-0.147 0.19,-0.152 0.19,-0.158 0.18,-0.163 0.18,-0.168 0.17,-0.172 0.17,-0.178 0.16,-0.181 0.16,-0.187 0.15,-0.19 0.15,-0.195 0.14,-0.198 0.13,-0.203 0.13,-0.206 0.13,-0.21 0.12,-0.213 0.11,-0.216 0.11,-0.219 0.1,-0.222 0.1,-0.225 0.08,-0.228 0.09,-0.229 0.07,-0.232 0.07,-0.234 0.07,-0.236 0.05,-0.237 0.05,-0.239 0.05,-0.241 0.03,-0.241 0.03,-0.242 0.03,-0.243 0.01,-0.243 0.01,-0.244 z"
     id="pin08"
     style="fill:#1c1f26;fill-opacity:1;stroke-width:2.36221;stroke-dasharray:none" /><path
     fill="none"
     fill-opacity="1"
     fill-rule="evenodd"
     stroke="#000000"
     stroke-width="0.937501"
     stroke-linecap="round"
     stroke-linejoin="bevel"
     stroke-dasharray="none"
     stroke-opacity="1"
     d="m 220.24023,177.58612 v -0.244 l -0.01,-0.244 -0.02,-0.244 -0.02,-0.243 -0.03,-0.242 -0.04,-0.241 -0.04,-0.24 -0.05,-0.239 -0.06,-0.238 -0.06,-0.235 -0.07,-0.234 -0.08,-0.232 -0.08,-0.23 -0.09,-0.227 -0.09,-0.225 -0.11,-0.222 -0.1,-0.22 -0.12,-0.216 -0.11,-0.213 -0.13,-0.21 -0.13,-0.206 -0.14,-0.202 -0.14,-0.199 -0.15,-0.195 -0.15,-0.19 -0.16,-0.186 -0.16,-0.182 -0.17,-0.177 -0.17,-0.173 -0.18,-0.168 -0.18,-0.163 -0.18,-0.157 -0.2,-0.153 -0.19,-0.147 -0.2,-0.142 -0.2,-0.136 -0.21,-0.131 -0.21,-0.125 -0.21,-0.119 -0.22,-0.113 -0.22,-0.107 -0.22,-0.102 -0.22,-0.094 -0.23,-0.089 -0.23,-0.083 -0.23,-0.076 -0.24,-0.069 -0.23,-0.063 -0.24,-0.057 -0.24,-0.05 -0.24,-0.044 -0.24,-0.037 -0.24,-0.03 -0.24,-0.023 -0.25,-0.017 -0.24,-0.01 -0.25,-0.004 -0.24,0.004 -0.24,0.01 -0.25,0.017 -0.24,0.023 -0.24,0.03 -0.24,0.037 -0.24,0.044 -0.24,0.05 -0.24,0.057 -0.24,0.063 -0.23,0.069 -0.23,0.076 -0.23,0.083 -0.23,0.089 -0.22,0.094 -0.23,0.102 -0.21,0.107 -0.22,0.113 -0.21,0.119 -0.21,0.125 -0.21,0.131 -0.2,0.136 -0.2,0.142 -0.2,0.147 -0.19,0.153 -0.18,0.157 -0.18,0.163 -0.18,0.168 -0.17,0.173 -0.17,0.177 -0.16,0.182 -0.16,0.186 -0.15,0.19 -0.15,0.195 -0.14,0.199 -0.14,0.202 -0.13,0.206 -0.13,0.21 -0.11,0.213 -0.12,0.216 -0.11,0.22 -0.1,0.222 -0.09,0.225 -0.09,0.227 -0.08,0.23 -0.08,0.232 -0.07,0.234 -0.06,0.235 -0.06,0.238 -0.05,0.239 -0.04,0.24 -0.04,0.241 -0.03,0.242 -0.02,0.243 -0.02,0.244 -0.01,0.244 v 0.244 0.244 l 0.01,0.244 0.02,0.243 0.02,0.243 0.03,0.242 0.04,0.241 0.04,0.241 0.05,0.239 0.06,0.237 0.06,0.236 0.07,0.234 0.08,0.232 0.08,0.229 0.09,0.228 0.09,0.225 0.1,0.222 0.11,0.219 0.12,0.216 0.11,0.213 0.13,0.21 0.13,0.206 0.14,0.203 0.14,0.198 0.15,0.195 0.15,0.19 0.16,0.187 0.16,0.181 0.17,0.178 0.17,0.172 0.18,0.168 0.18,0.163 0.18,0.158 0.19,0.152 0.2,0.147 0.2,0.142 0.2,0.137 0.21,0.13 0.21,0.125 0.21,0.119 0.22,0.113 0.21,0.108 0.23,0.101 0.22,0.095 0.23,0.088 0.23,0.083 0.23,0.076 0.23,0.07 0.24,0.063 0.24,0.056 0.24,0.05 0.24,0.044 0.24,0.037 0.24,0.03 0.24,0.024 0.25,0.016 0.24,0.01 0.24,0.004 0.25,-0.004 0.24,-0.01 0.25,-0.016 0.24,-0.024 0.24,-0.03 0.24,-0.037 0.24,-0.044 0.24,-0.05 0.24,-0.056 0.23,-0.063 0.24,-0.07 0.23,-0.076 0.23,-0.083 0.23,-0.088 0.22,-0.095 0.22,-0.101 0.22,-0.108 0.22,-0.113 0.21,-0.119 0.21,-0.125 0.21,-0.13 0.2,-0.137 0.2,-0.142 0.19,-0.147 0.2,-0.152 0.18,-0.158 0.18,-0.163 0.18,-0.168 0.17,-0.172 0.17,-0.178 0.16,-0.181 0.16,-0.187 0.15,-0.19 0.15,-0.195 0.14,-0.198 0.14,-0.203 0.13,-0.206 0.13,-0.21 0.11,-0.213 0.12,-0.216 0.1,-0.219 0.11,-0.222 0.09,-0.225 0.09,-0.228 0.08,-0.229 0.08,-0.232 0.07,-0.234 0.06,-0.236 0.06,-0.237 0.05,-0.239 0.04,-0.241 0.04,-0.241 0.03,-0.242 0.02,-0.243 0.02,-0.243 0.01,-0.244 z"
     id="pin04"
     style="fill:#1c1f26;fill-opacity:1;stroke-width:2.36221;stroke-dasharray:none" /><path
     fill="none"
     fill-opacity="1"
     fill-rule="evenodd"
     stroke="#000000"
     stroke-width="0.937501"
     stroke-linecap="round"
     stroke-linejoin="bevel"
     stroke-dasharray="none"
     stroke-opacity="1"
     d="m 354.09023,66.448115 v -0.221 l -0.01,-0.221 -0.02,-0.22 -0.02,-0.22 -0.03,-0.219 -0.04,-0.218 -0.04,-0.217 -0.05,-0.215 -0.06,-0.214 -0.06,-0.212 -0.07,-0.209 -0.08,-0.208 -0.08,-0.205 -0.09,-0.203 -0.09,-0.2 -0.1,-0.197 -0.11,-0.194 -0.11,-0.191 -0.12,-0.187 -0.12,-0.183 -0.13,-0.18 -0.13,-0.175 -0.14,-0.172 -0.15,-0.167 -0.15,-0.163 -0.15,-0.158 -0.16,-0.153 -0.17,-0.149 -0.16,-0.143 -0.18,-0.138 -0.17,-0.133 -0.18,-0.127 -0.19,-0.122 -0.19,-0.117 -0.19,-0.11 -0.19,-0.105 -0.2,-0.099 -0.2,-0.092 -0.2,-0.087 -0.21,-0.08 -0.21,-0.074 -0.21,-0.068 -0.21,-0.061 -0.21,-0.055 -0.22,-0.048 -0.22,-0.042 -0.22,-0.035 -0.21,-0.028 -0.22,-0.022 -0.23,-0.015 -0.22,-0.008 -0.22,-0.002 -0.22,0.005 -0.22,0.012 -0.22,0.018 -0.22,0.025 -0.22,0.032 -0.22,0.038 -0.21,0.045 -0.22,0.052 -0.21,0.058 -0.21,0.064 -0.21,0.071 -0.21,0.077 -0.2,0.084 -0.2,0.089 -0.2,0.096 -0.2,0.102 -0.19,0.107 -0.19,0.114 -0.19,0.119 -0.18,0.125 -0.18,0.13 -0.17,0.135 -0.18,0.141 -0.16,0.146 -0.16,0.151 -0.16,0.156 -0.15,0.16 -0.15,0.165 -0.14,0.169 -0.14,0.174 -0.13,0.177 -0.13,0.182 -0.12,0.185 -0.11,0.189 -0.11,0.192 -0.1,0.196 -0.1,0.198 -0.09,0.202 -0.09,0.204 -0.08,0.206 -0.07,0.209 -0.06,0.211 -0.06,0.213 -0.06,0.215 -0.04,0.216 -0.04,0.217 -0.04,0.219 -0.02,0.219 -0.02,0.22 -0.02,0.221 v 0.221 0.221 0.221 l 0.02,0.22 0.02,0.22 0.02,0.22 0.04,0.218 0.04,0.218 0.04,0.216 0.06,0.214 0.06,0.213 0.06,0.211 0.07,0.209 0.08,0.206 0.09,0.205 0.09,0.201 0.1,0.198 0.1,0.196 0.11,0.192 0.11,0.189 0.12,0.185 0.13,0.182 0.13,0.178 0.14,0.173 0.14,0.169 0.15,0.165 0.15,0.161 0.16,0.155 0.16,0.151 0.16,0.146 0.18,0.141 0.17,0.136 0.18,0.13 0.18,0.125 0.19,0.119 0.19,0.113 0.19,0.108 0.2,0.101 0.2,0.096 0.2,0.09 0.2,0.083 0.21,0.077 0.21,0.071 0.21,0.065 0.21,0.058 0.22,0.051 0.21,0.045 0.22,0.038 0.22,0.032 0.22,0.025 0.22,0.019 0.22,0.011 0.22,0.005 0.22,-0.001 0.22,-0.009 0.23,-0.015 0.22,-0.021 0.21,-0.029 0.22,-0.035 0.22,-0.042 0.22,-0.048 0.21,-0.055 0.21,-0.061 0.21,-0.068 0.21,-0.074 0.21,-0.08 0.2,-0.086 0.2,-0.093 0.2,-0.099 0.19,-0.104 0.19,-0.111 0.19,-0.116 0.19,-0.122 0.18,-0.128 0.17,-0.133 0.18,-0.138 0.16,-0.143 0.17,-0.148 0.16,-0.154 0.15,-0.158 0.15,-0.163 0.15,-0.167 0.14,-0.171 0.13,-0.176 0.13,-0.179 0.12,-0.184 0.12,-0.187 0.11,-0.191 0.11,-0.193 0.1,-0.197 0.09,-0.2 0.09,-0.203 0.08,-0.205 0.08,-0.208 0.07,-0.21 0.06,-0.212 0.06,-0.214 0.05,-0.215 0.04,-0.217 0.04,-0.218 0.03,-0.219 0.02,-0.22 0.02,-0.22 0.01,-0.221 z"
     id="boot"
     style="fill:#1c1f26;fill-opacity:1;stroke-width:2.36221;stroke-dasharray:none" /><path
     fill="none"
     fill-opacity="1"
     fill-rule="evenodd"
     stroke="#000000"
     stroke-width="0.937501"
     stroke-linecap="round"
     stroke-linejoin="bevel"
     stroke-dasharray="none"
     stroke-opacity="1"
     d="m 129.90023,177.58612 v -0.244 l -0.01,-0.244 -0.02,-0.244 -0.02,-0.243 -0.03,-0.242 -0.04,-0.241 -0.05,-0.24 -0.05,-0.239 -0.05,-0.238 -0.07,-0.235 -0.06,-0.234 -0.08,-0.232 -0.08,-0.23 -0.09,-0.227 -0.1,-0.225 -0.1,-0.222 -0.11,-0.22 -0.11,-0.216 -0.12,-0.213 -0.12,-0.21 -0.13,-0.206 -0.14,-0.202 -0.14,-0.199 -0.15,-0.195 -0.15,-0.19 -0.16,-0.186 -0.16,-0.182 -0.17,-0.177 -0.17,-0.173 -0.18,-0.168 -0.18,-0.163 -0.19,-0.157 -0.19,-0.153 -0.19,-0.147 -0.2,-0.142 -0.2,-0.136 -0.21,-0.131 -0.21,-0.125 -0.21,-0.119 -0.22,-0.113 -0.22,-0.107 -0.22,-0.102 -0.23,-0.094 -0.22,-0.089 -0.23,-0.083 -0.23,-0.076 -0.24,-0.069 -0.23,-0.063 -0.24,-0.057 -0.24,-0.05 -0.24,-0.044 -0.24,-0.037 -0.24,-0.03 -0.25,-0.023 -0.24,-0.017 -0.24,-0.01 -0.25,-0.004 -0.24,0.004 -0.25,0.01 -0.24,0.017 -0.24,0.023 -0.24,0.03 -0.25,0.037 -0.24,0.044 -0.24,0.05 -0.23,0.057 -0.24,0.063 -0.23,0.069 -0.23,0.076 -0.23,0.083 -0.23,0.089 -0.23,0.094 -0.22,0.102 -0.22,0.107 -0.21,0.113 -0.22,0.119 -0.21,0.125 -0.2,0.131 -0.21,0.136 -0.19,0.142 -0.2,0.147 -0.19,0.153 -0.19,0.157 -0.18,0.163 -0.17,0.168 -0.18,0.173 -0.16,0.177 -0.17,0.182 -0.16,0.186 -0.15,0.19 -0.14,0.195 -0.15,0.199 -0.13,0.202 -0.13,0.206 -0.13,0.21 -0.12,0.213 -0.11,0.216 -0.11,0.22 -0.1,0.222 -0.09,0.225 -0.09,0.227 -0.09,0.23 -0.07,0.232 -0.07,0.234 -0.06,0.235 -0.06,0.238 -0.05,0.239 -0.04,0.24 -0.04,0.241 -0.03,0.242 -0.03,0.243 -0.01,0.244 -0.01,0.244 -0.01,0.244 0.01,0.244 0.01,0.244 0.01,0.243 0.03,0.243 0.03,0.242 0.04,0.241 0.04,0.241 0.05,0.239 0.06,0.237 0.06,0.236 0.07,0.234 0.07,0.232 0.09,0.229 0.09,0.228 0.09,0.225 0.1,0.222 0.11,0.219 0.11,0.216 0.12,0.213 0.13,0.21 0.13,0.206 0.13,0.203 0.15,0.198 0.14,0.195 0.15,0.19 0.16,0.187 0.17,0.181 0.16,0.178 0.18,0.172 0.17,0.168 0.18,0.163 0.19,0.158 0.19,0.152 0.2,0.147 0.19,0.142 0.21,0.137 0.2,0.13 0.21,0.125 0.22,0.119 0.21,0.113 0.22,0.108 0.22,0.101 0.23,0.095 0.23,0.088 0.23,0.083 0.23,0.076 0.23,0.07 0.24,0.063 0.23,0.056 0.24,0.05 0.24,0.044 0.25,0.037 0.24,0.03 0.24,0.024 0.24,0.016 0.25,0.01 0.24,0.004 0.25,-0.004 0.24,-0.01 0.24,-0.016 0.25,-0.024 0.24,-0.03 0.24,-0.037 0.24,-0.044 0.24,-0.05 0.24,-0.056 0.23,-0.063 0.24,-0.07 0.23,-0.076 0.23,-0.083 0.22,-0.088 0.23,-0.095 0.22,-0.101 0.22,-0.108 0.22,-0.113 0.21,-0.119 0.21,-0.125 0.21,-0.13 0.2,-0.137 0.2,-0.142 0.19,-0.147 0.19,-0.152 0.19,-0.158 0.18,-0.163 0.18,-0.168 0.17,-0.172 0.17,-0.178 0.16,-0.181 0.16,-0.187 0.15,-0.19 0.15,-0.195 0.14,-0.198 0.14,-0.203 0.13,-0.206 0.12,-0.21 0.12,-0.213 0.11,-0.216 0.11,-0.219 0.1,-0.222 0.1,-0.225 0.09,-0.228 0.08,-0.229 0.08,-0.232 0.06,-0.234 0.07,-0.236 0.05,-0.237 0.05,-0.239 0.05,-0.241 0.04,-0.241 0.03,-0.242 0.02,-0.243 0.02,-0.243 0.01,-0.244 z"
     id="pin06"
     style="fill:#1c1f26;fill-opacity:1;stroke-width:2.36221;stroke-dasharray:none" /><path
     fill="none"
     fill-opacity="1"
     fill-rule="evenodd"
     stroke="#000000"
     stroke-width="0.937501"
     stroke-linecap="round"
     stroke-linejoin="bevel"
     stroke-dasharray="none"
     stroke-opacity="1"
     d="m 374.95023,66.448115 0.01,-0.221 0.01,-0.221 0.01,-0.22 0.03,-0.22 0.03,-0.219 0.03,-0.218 0.05,-0.217 0.05,-0.215 0.05,-0.214 0.07,-0.212 0.07,-0.209 0.07,-0.208 0.08,-0.205 0.09,-0.203 0.1,-0.2 0.1,-0.197 0.1,-0.194 0.11,-0.191 0.12,-0.187 0.13,-0.183 0.12,-0.18 0.14,-0.175 0.14,-0.172 0.14,-0.167 0.15,-0.163 0.16,-0.158 0.16,-0.153 0.16,-0.149 0.17,-0.143 0.17,-0.138 0.18,-0.133 0.18,-0.127 0.18,-0.122 0.19,-0.117 0.19,-0.11 0.2,-0.105 0.19,-0.099 0.2,-0.092 0.21,-0.087 0.2,-0.08 0.21,-0.074 0.21,-0.068 0.22,-0.061 0.21,-0.055 0.21,-0.048 0.22,-0.042 0.22,-0.035 0.22,-0.028 0.22,-0.022 0.22,-0.015 0.22,-0.008 0.22,-0.002 0.22,0.005 0.22,0.012 0.22,0.018 0.22,0.025 0.22,0.032 0.22,0.038 0.22,0.045 0.21,0.052 0.21,0.058 0.22,0.064 0.21,0.071 0.2,0.077 0.21,0.084 0.2,0.089 0.2,0.096 0.19,0.102 0.2,0.107 0.19,0.114 0.18,0.119 0.19,0.125 0.17,0.13 0.18,0.135 0.17,0.141 0.17,0.146 0.16,0.151 0.15,0.156 0.16,0.16 0.14,0.165 0.15,0.169 0.13,0.174 0.13,0.177 0.13,0.182 0.12,0.185 0.12,0.189 0.1,0.192 0.11,0.196 0.1,0.198 0.09,0.202 0.08,0.204 0.08,0.206 0.07,0.209 0.07,0.211 0.06,0.213 0.05,0.215 0.05,0.216 0.04,0.217 0.03,0.219 0.03,0.219 0.02,0.22 0.01,0.221 0.01,0.221 v 0.221 l -0.01,0.221 -0.01,0.22 -0.02,0.22 -0.03,0.22 -0.03,0.218 -0.04,0.218 -0.05,0.216 -0.05,0.214 -0.06,0.213 -0.07,0.211 -0.07,0.209 -0.08,0.206 -0.08,0.205 -0.09,0.201 -0.1,0.198 -0.11,0.196 -0.1,0.192 -0.12,0.189 -0.12,0.185 -0.13,0.182 -0.13,0.178 -0.13,0.173 -0.15,0.169 -0.14,0.165 -0.16,0.161 -0.15,0.155 -0.16,0.151 -0.17,0.146 -0.17,0.141 -0.18,0.136 -0.17,0.13 -0.19,0.125 -0.18,0.119 -0.19,0.113 -0.2,0.108 -0.19,0.101 -0.2,0.096 -0.2,0.09 -0.21,0.083 -0.2,0.077 -0.21,0.071 -0.22,0.065 -0.21,0.058 -0.21,0.051 -0.22,0.045 -0.22,0.038 -0.22,0.032 -0.22,0.025 -0.22,0.019 -0.22,0.011 -0.22,0.005 -0.22,-0.001 -0.22,-0.009 -0.22,-0.015 -0.22,-0.021 -0.22,-0.029 -0.22,-0.035 -0.22,-0.042 -0.21,-0.048 -0.21,-0.055 -0.22,-0.061 -0.21,-0.068 -0.21,-0.074 -0.2,-0.08 -0.21,-0.086 -0.2,-0.093 -0.19,-0.099 -0.2,-0.104 -0.19,-0.111 -0.19,-0.116 -0.18,-0.122 -0.18,-0.128 -0.18,-0.133 -0.17,-0.138 -0.17,-0.143 -0.16,-0.148 -0.16,-0.154 -0.16,-0.158 -0.15,-0.163 -0.14,-0.167 -0.14,-0.171 -0.14,-0.176 -0.12,-0.179 -0.13,-0.184 -0.12,-0.187 -0.11,-0.191 -0.1,-0.193 -0.1,-0.197 -0.1,-0.2 -0.09,-0.203 -0.08,-0.205 -0.07,-0.208 -0.07,-0.21 -0.07,-0.212 -0.05,-0.214 -0.05,-0.215 -0.05,-0.217 -0.03,-0.218 -0.03,-0.219 -0.03,-0.22 -0.01,-0.22 -0.01,-0.221 z"
     id="reset"
     style="fill:#1c1f26;fill-opacity:1;stroke-width:2.36221;stroke-dasharray:none" /><path
     fill="none"
     fill-opacity="1"
     fill-rule="evenodd"
     stroke="#000000"
     stroke-width="0.937501"
     stroke-linecap="round"
     stroke-linejoin="bevel"
     stroke-dasharray="none"
     stroke-opacity="1"
     d="m 175.07023,177.58612 v -0.244 l -0.01,-0.244 -0.02,-0.244 -0.02,-0.243 -0.03,-0.242 -0.04,-0.241 -0.04,-0.24 -0.05,-0.239 -0.06,-0.238 -0.06,-0.235 -0.07,-0.234 -0.08,-0.232 -0.08,-0.23 -0.09,-0.227 -0.1,-0.225 -0.1,-0.222 -0.1,-0.22 -0.12,-0.216 -0.12,-0.213 -0.12,-0.21 -0.13,-0.206 -0.14,-0.202 -0.14,-0.199 -0.15,-0.195 -0.15,-0.19 -0.16,-0.186 -0.16,-0.182 -0.17,-0.177 -0.17,-0.173 -0.18,-0.168 -0.18,-0.163 -0.19,-0.157 -0.19,-0.153 -0.19,-0.147 -0.2,-0.142 -0.2,-0.136 -0.21,-0.131 -0.21,-0.125 -0.21,-0.119 -0.22,-0.113 -0.22,-0.107 -0.22,-0.102 -0.22,-0.094 -0.23,-0.089 -0.23,-0.083 -0.23,-0.076 -0.24,-0.069 -0.23,-0.063 -0.24,-0.057 -0.24,-0.05 -0.24,-0.044 -0.24,-0.037 -0.24,-0.03 -0.25,-0.023 -0.24,-0.017 -0.24,-0.01 -0.25,-0.004 -0.24,0.004 -0.24,0.01 -0.25,0.017 -0.24,0.023 -0.24,0.03 -0.24,0.037 -0.24,0.044 -0.24,0.05 -0.24,0.057 -0.24,0.063 -0.23,0.069 -0.23,0.076 -0.23,0.083 -0.23,0.089 -0.22,0.094 -0.23,0.102 -0.22,0.107 -0.21,0.113 -0.22,0.119 -0.2,0.125 -0.21,0.131 -0.2,0.136 -0.2,0.142 -0.2,0.147 -0.19,0.153 -0.18,0.157 -0.19,0.163 -0.17,0.168 -0.18,0.173 -0.16,0.177 -0.17,0.182 -0.15,0.186 -0.16,0.19 -0.14,0.195 -0.15,0.199 -0.13,0.202 -0.13,0.206 -0.13,0.21 -0.12,0.213 -0.11,0.216 -0.11,0.22 -0.1,0.222 -0.09,0.225 -0.09,0.227 -0.08,0.23 -0.08,0.232 -0.07,0.234 -0.06,0.235 -0.06,0.238 -0.05,0.239 -0.04,0.24 -0.04,0.241 -0.03,0.242 -0.02,0.243 -0.02,0.244 -0.01,0.244 v 0.244 0.244 l 0.01,0.244 0.02,0.243 0.02,0.243 0.03,0.242 0.04,0.241 0.04,0.241 0.05,0.239 0.06,0.237 0.06,0.236 0.07,0.234 0.08,0.232 0.08,0.229 0.09,0.228 0.09,0.225 0.1,0.222 0.11,0.219 0.11,0.216 0.12,0.213 0.13,0.21 0.13,0.206 0.13,0.203 0.15,0.198 0.14,0.195 0.16,0.19 0.15,0.187 0.17,0.181 0.16,0.178 0.18,0.172 0.17,0.168 0.19,0.163 0.18,0.158 0.19,0.152 0.2,0.147 0.2,0.142 0.2,0.137 0.21,0.13 0.2,0.125 0.22,0.119 0.21,0.113 0.22,0.108 0.23,0.101 0.22,0.095 0.23,0.088 0.23,0.083 0.23,0.076 0.23,0.07 0.24,0.063 0.24,0.056 0.24,0.05 0.24,0.044 0.24,0.037 0.24,0.03 0.24,0.024 0.25,0.016 0.24,0.01 0.24,0.004 0.25,-0.004 0.24,-0.01 0.24,-0.016 0.25,-0.024 0.24,-0.03 0.24,-0.037 0.24,-0.044 0.24,-0.05 0.24,-0.056 0.23,-0.063 0.24,-0.07 0.23,-0.076 0.23,-0.083 0.23,-0.088 0.22,-0.095 0.22,-0.101 0.22,-0.108 0.22,-0.113 0.21,-0.119 0.21,-0.125 0.21,-0.13 0.2,-0.137 0.2,-0.142 0.19,-0.147 0.19,-0.152 0.19,-0.158 0.18,-0.163 0.18,-0.168 0.17,-0.172 0.17,-0.178 0.16,-0.181 0.16,-0.187 0.15,-0.19 0.15,-0.195 0.14,-0.198 0.14,-0.203 0.13,-0.206 0.12,-0.21 0.12,-0.213 0.12,-0.216 0.1,-0.219 0.1,-0.222 0.1,-0.225 0.09,-0.228 0.08,-0.229 0.08,-0.232 0.07,-0.234 0.06,-0.236 0.06,-0.237 0.05,-0.239 0.04,-0.241 0.04,-0.241 0.03,-0.242 0.02,-0.243 0.02,-0.243 0.01,-0.244 z"
     id="pin05"
     style="fill:#1c1f26;fill-opacity:1;stroke-width:2.36221;stroke-dasharray:none" /><path
     fill="none"
     fill-opacity="1"
     fill-rule="evenodd"
     stroke="#000000"
     stroke-width="0.937501"
     stroke-linecap="round"
     stroke-linejoin="bevel"
     stroke-dasharray="none"
     stroke-opacity="1"
     d="m 225.79023,20.470115 v 51.962 0.147 l -0.01,0.148 -0.02,0.147 -0.02,0.146 -0.03,0.144 -0.03,0.144 -0.04,0.142 -0.05,0.14 -0.06,0.137 -0.05,0.135 -0.07,0.133 -0.07,0.129 -0.08,0.127 -0.08,0.122 -0.09,0.12 -0.09,0.115 -0.1,0.111 -0.1,0.106 -0.11,0.103 -0.11,0.097 -0.11,0.092 -0.12,0.088 -0.12,0.082 -0.13,0.077 -0.13,0.071 -0.13,0.065 -0.14,0.059 -0.14,0.054 -0.14,0.047 -0.14,0.042 -0.14,0.035 -0.15,0.029 -0.14,0.022 -0.15,0.016 -0.15,0.01 -0.14,0.003 h -51.96 l -0.15,-0.003 -0.15,-0.01 -0.15,-0.016 -0.14,-0.022 -0.15,-0.029 -0.14,-0.035 -0.14,-0.042 -0.14,-0.047 -0.14,-0.054 -0.14,-0.059 -0.13,-0.065 -0.13,-0.071 -0.12,-0.077 -0.13,-0.082 -0.12,-0.088 -0.11,-0.092 -0.11,-0.097 -0.11,-0.103 -0.1,-0.106 -0.1,-0.111 -0.09,-0.115 -0.09,-0.12 -0.08,-0.122 -0.08,-0.127 -0.07,-0.129 -0.06,-0.133 -0.06,-0.135 -0.06,-0.137 -0.04,-0.14 -0.04,-0.142 -0.04,-0.144 -0.03,-0.144 -0.02,-0.146 -0.02,-0.147 -0.01,-0.148 v -0.147 -51.962 -0.148 l 0.01,-0.147 0.02,-0.147 0.02,-0.146 0.03,-0.145 0.04,-0.143 0.04,-0.142 0.04,-0.14 0.06,-0.138 0.06,-0.135 0.06,-0.132 0.07,-0.13 0.08,-0.126 0.08,-0.123 0.09,-0.119 0.09,-0.115 0.1,-0.111 0.1,-0.107 0.11,-0.102 0.11,-0.098 0.11,-0.092 0.12,-0.087 0.13,-0.082 0.12,-0.077 0.13,-0.071 0.13,-0.065 0.14,-0.06 0.14,-0.053 0.14,-0.048 0.14,-0.041 0.14,-0.035 0.15,-0.029 0.14,-0.023 0.15,-0.016 0.15,-0.009 0.15,-0.004 h 51.96 l 0.14,0.004 0.15,0.009 0.15,0.016 0.14,0.023 0.15,0.029 0.14,0.035 0.14,0.041 0.14,0.048 0.14,0.053 0.14,0.06 0.13,0.065 0.13,0.071 0.13,0.077 0.12,0.082 0.12,0.087 0.11,0.092 0.11,0.098 0.11,0.102 0.1,0.107 0.1,0.111 0.09,0.115 0.09,0.119 0.08,0.123 0.08,0.126 0.07,0.13 0.07,0.132 0.05,0.135 0.06,0.138 0.05,0.14 0.04,0.142 0.03,0.143 0.03,0.145 0.02,0.146 0.02,0.147 0.01,0.147 z"
     id="pin28"
     style="fill:#1c1f26;stroke-width:2.36221;stroke-dasharray:none;fill-opacity:1" /><path
     fill="none"
     fill-opacity="1"
     fill-rule="evenodd"
     stroke="#000000"
     stroke-width="0.937501"
     stroke-linecap="round"
     stroke-linejoin="bevel"
     stroke-dasharray="none"
     stroke-opacity="1"
     d="m 242.05023,109.92712 v -51.962005 -0.148 l 0.01,-0.147 0.02,-0.147 0.02,-0.146 0.03,-0.145 0.04,-0.143 0.04,-0.142 0.04,-0.14 0.06,-0.138 0.06,-0.135 0.06,-0.132 0.07,-0.13 0.08,-0.126 0.08,-0.123 0.09,-0.119 0.09,-0.115 0.1,-0.111 0.1,-0.107 0.11,-0.102 0.11,-0.097 0.11,-0.093 0.12,-0.087 0.13,-0.082 0.12,-0.077 0.13,-0.071 0.13,-0.065 0.14,-0.06 0.14,-0.053 0.14,-0.048 0.14,-0.041 0.14,-0.035 0.15,-0.029 0.14,-0.022 0.15,-0.017 0.15,-0.009 0.15,-0.003 h 51.96 l 0.15,0.003 0.14,0.009 0.15,0.017 0.15,0.022 0.14,0.029 0.14,0.035 0.15,0.041 0.14,0.048 0.13,0.053 0.14,0.06 0.13,0.065 0.13,0.071 0.13,0.077 0.12,0.082 0.12,0.087 0.11,0.093 0.11,0.097 0.11,0.102 0.1,0.107 0.1,0.111 0.09,0.115 0.09,0.119 0.08,0.123 0.08,0.126 0.07,0.13 0.07,0.132 0.06,0.135 0.05,0.138 0.05,0.14 0.04,0.142 0.03,0.143 0.03,0.145 0.02,0.146 0.02,0.147 0.01,0.147 v 0.148 51.962005 0.148 l -0.01,0.147 -0.02,0.147 -0.02,0.146 -0.03,0.145 -0.03,0.143 -0.04,0.142 -0.05,0.14 -0.05,0.137 -0.06,0.136 -0.07,0.132 -0.07,0.13 -0.08,0.126 -0.08,0.123 -0.09,0.119 -0.09,0.115 -0.1,0.111 -0.1,0.107 -0.11,0.102 -0.11,0.097 -0.11,0.093 -0.12,0.087 -0.12,0.082 -0.13,0.077 -0.13,0.071 -0.13,0.065 -0.14,0.06 -0.13,0.053 -0.14,0.048 -0.15,0.041 -0.14,0.035 -0.14,0.029 -0.15,0.022 -0.15,0.016 -0.14,0.01 -0.15,0.003 h -51.96 l -0.15,-0.003 -0.15,-0.01 -0.15,-0.016 -0.14,-0.022 -0.15,-0.029 -0.14,-0.035 -0.14,-0.041 -0.14,-0.048 -0.14,-0.053 -0.14,-0.06 -0.13,-0.065 -0.13,-0.071 -0.12,-0.077 -0.13,-0.082 -0.12,-0.087 -0.11,-0.093 -0.11,-0.097 -0.11,-0.102 -0.1,-0.107 -0.1,-0.111 -0.09,-0.115 -0.09,-0.119 -0.08,-0.123 -0.08,-0.126 -0.07,-0.13 -0.06,-0.132 -0.06,-0.136 -0.06,-0.137 -0.04,-0.14 -0.04,-0.142 -0.04,-0.143 -0.03,-0.145 -0.02,-0.146 -0.02,-0.147 -0.01,-0.147 z"
     id="pin15"
     style="fill:#1c1f26;fill-opacity:1;stroke-width:2.36221;stroke-dasharray:none" /><path
     fill="none"
     fill-opacity="1"
     fill-rule="evenodd"
     stroke="#000000"
     stroke-width="0.937501"
     stroke-linecap="round"
     stroke-linejoin="bevel"
     stroke-dasharray="none"
     stroke-opacity="1"
     d="M 147.42023,150.80812 H 95.450228 l -0.14,-0.004 -0.15,-0.009 -0.15,-0.016 -0.14,-0.023 -0.15,-0.029 -0.14,-0.035 -0.14,-0.041 -0.14,-0.048 -0.14,-0.053 -0.14,-0.06 -0.13,-0.065 -0.13,-0.071 -0.12,-0.077 -0.13,-0.082 -0.12,-0.087 -0.11,-0.092 -0.11,-0.098 -0.11,-0.102 -0.1,-0.107 -0.1,-0.111 -0.09,-0.115 -0.09,-0.119 -0.08,-0.123 -0.08,-0.126 -0.07,-0.13 -0.06,-0.132 -0.06,-0.135 -0.06,-0.138 -0.04,-0.14 -0.05,-0.142 -0.03,-0.143 -0.03,-0.145 -0.02,-0.146 -0.02,-0.147 -0.01,-0.147 v -0.148 -51.962005 -0.147 l 0.01,-0.148 0.02,-0.147 0.02,-0.146 0.03,-0.145 0.03,-0.143 0.05,-0.142 0.04,-0.14 0.06,-0.137 0.06,-0.135 0.06,-0.133 0.07,-0.129 0.08,-0.127 0.08,-0.123 0.09,-0.119 0.09,-0.115 0.1,-0.111 0.1,-0.107 0.11,-0.102 0.11,-0.097 0.11,-0.093 0.12,-0.087 0.13,-0.082 0.12,-0.077 0.13,-0.071 0.13,-0.065 0.14,-0.059 0.14,-0.054 0.14,-0.047 0.14,-0.042 0.14,-0.035 0.15,-0.029 0.14,-0.022 0.15,-0.016 0.15,-0.01 0.14,-0.003 h 51.970002 l 0.14,0.003 0.15,0.01 0.15,0.016 0.14,0.022 0.15,0.029 0.14,0.035 0.14,0.042 0.14,0.047 0.14,0.054 0.14,0.059 0.13,0.065 0.13,0.071 0.13,0.077 0.12,0.082 0.12,0.087 0.11,0.093 0.11,0.097 0.11,0.102 0.1,0.107 0.1,0.111 0.09,0.115 0.09,0.119 0.08,0.123 0.08,0.127 0.07,0.129 0.06,0.133 0.06,0.135 0.06,0.137 0.05,0.14 0.04,0.142 0.03,0.143 0.03,0.145 0.02,0.146 0.02,0.147 0.01,0.148 v 0.147 51.962005 0.148 l -0.01,0.147 -0.02,0.147 -0.02,0.146 -0.03,0.145 -0.03,0.143 -0.04,0.142 -0.05,0.14 -0.06,0.138 -0.06,0.135 -0.06,0.132 -0.07,0.13 -0.08,0.126 -0.08,0.123 -0.09,0.119 -0.09,0.115 -0.1,0.111 -0.1,0.107 -0.11,0.102 -0.11,0.098 -0.11,0.092 -0.12,0.087 -0.12,0.082 -0.13,0.077 -0.13,0.071 -0.13,0.065 -0.14,0.06 -0.14,0.053 -0.14,0.048 -0.14,0.041 -0.14,0.035 -0.15,0.029 -0.14,0.023 -0.15,0.016 -0.15,0.009 z"
     id="pin13"
     style="fill:#1c1f26;stroke-width:2.36221;stroke-dasharray:none;fill-opacity:1" /><path
     fill="none"
     fill-opacity="1"
     fill-rule="evenodd"
     stroke="#000000"
     stroke-width="0.937501"
     stroke-linecap="round"
     stroke-linejoin="bevel"
     stroke-dasharray="none"
     stroke-opacity="1"
     d="m 167.06023,147.42212 v -51.962005 -0.147 l 0.01,-0.148 0.02,-0.147 0.02,-0.146 0.03,-0.145 0.04,-0.143 0.04,-0.142 0.04,-0.14 0.06,-0.137 0.06,-0.135 0.06,-0.133 0.07,-0.129 0.08,-0.127 0.08,-0.123 0.09,-0.119 0.09,-0.115 0.1,-0.111 0.1,-0.107 0.11,-0.102 0.11,-0.097 0.11,-0.093 0.12,-0.087 0.13,-0.082 0.12,-0.077 0.13,-0.071 0.13,-0.065 0.14,-0.059 0.14,-0.054 0.14,-0.047 0.14,-0.042 0.14,-0.035 0.15,-0.029 0.14,-0.022 0.15,-0.016 0.15,-0.01 0.15,-0.003 h 51.96 l 0.14,0.003 0.15,0.01 0.15,0.016 0.14,0.022 0.15,0.029 0.14,0.035 0.14,0.042 0.14,0.047 0.14,0.054 0.14,0.059 0.13,0.065 0.13,0.071 0.13,0.077 0.12,0.082 0.12,0.087 0.11,0.093 0.11,0.097 0.11,0.102 0.1,0.107 0.1,0.111 0.09,0.115 0.09,0.119 0.08,0.123 0.08,0.127 0.07,0.129 0.07,0.133 0.05,0.135 0.06,0.137 0.05,0.14 0.04,0.142 0.03,0.143 0.03,0.145 0.02,0.146 0.02,0.147 0.01,0.148 v 0.147 51.962005 0.148 l -0.01,0.147 -0.02,0.147 -0.02,0.146 -0.03,0.145 -0.03,0.143 -0.04,0.142 -0.05,0.14 -0.06,0.138 -0.05,0.135 -0.07,0.132 -0.07,0.13 -0.08,0.126 -0.08,0.123 -0.09,0.119 -0.09,0.115 -0.1,0.111 -0.1,0.107 -0.11,0.102 -0.11,0.098 -0.11,0.092 -0.12,0.087 -0.12,0.082 -0.13,0.077 -0.13,0.071 -0.13,0.065 -0.14,0.06 -0.14,0.053 -0.14,0.048 -0.14,0.041 -0.14,0.035 -0.15,0.029 -0.14,0.023 -0.15,0.016 -0.15,0.009 -0.14,0.004 h -51.96 l -0.15,-0.004 -0.15,-0.009 -0.15,-0.016 -0.14,-0.023 -0.15,-0.029 -0.14,-0.035 -0.14,-0.041 -0.14,-0.048 -0.14,-0.053 -0.14,-0.06 -0.13,-0.065 -0.13,-0.071 -0.12,-0.077 -0.13,-0.082 -0.12,-0.087 -0.11,-0.092 -0.11,-0.098 -0.11,-0.102 -0.1,-0.107 -0.1,-0.111 -0.09,-0.115 -0.09,-0.119 -0.08,-0.123 -0.08,-0.126 -0.07,-0.13 -0.06,-0.132 -0.06,-0.135 -0.06,-0.138 -0.04,-0.14 -0.04,-0.142 -0.04,-0.143 -0.03,-0.145 -0.02,-0.146 -0.02,-0.147 -0.01,-0.147 z"
     id="pin12"
     style="fill:#1c1f26;stroke-width:2.36221;stroke-dasharray:none;fill-opacity:1" /><path
     fill="none"
     fill-opacity="1"
     fill-rule="evenodd"
     stroke="#000000"
     stroke-width="0.937501"
     stroke-linecap="round"
     stroke-linejoin="bevel"
     stroke-dasharray="none"
     stroke-opacity="1"
     d="m 72.430228,150.80812 h -51.97 l -0.14,-0.004 -0.15,-0.009 -0.15,-0.016 -0.14,-0.023 -0.15,-0.029 -0.14,-0.035 -0.14,-0.041 -0.14,-0.048 -0.14,-0.053 -0.14,-0.06 -0.13,-0.065 -0.13,-0.071 -0.12,-0.077 -0.13,-0.082 -0.12,-0.087 -0.11,-0.092 -0.11,-0.098 -0.11,-0.102 -0.1,-0.107 -0.1,-0.111 -0.09,-0.115 -0.09,-0.119 -0.08,-0.123 -0.08,-0.126 -0.07,-0.13 -0.06,-0.132 -0.06,-0.135 -0.06,-0.138 -0.04,-0.14 -0.05,-0.142 -0.03,-0.143 -0.03,-0.145 -0.02,-0.146 -0.02,-0.147 -0.01,-0.147 v -0.148 -51.962005 -0.147 l 0.01,-0.148 0.02,-0.147 0.02,-0.146 0.03,-0.145 0.03,-0.143 0.05,-0.142 0.04,-0.14 0.06,-0.137 0.06,-0.135 0.06,-0.133 0.07,-0.129 0.08,-0.127 0.08,-0.123 0.09,-0.119 0.09,-0.115 0.1,-0.111 0.1,-0.107 0.11,-0.102 0.11,-0.097 0.11,-0.093 0.12,-0.087 0.13,-0.082 0.12,-0.077 0.13,-0.071 0.13,-0.065 0.14,-0.059 0.14,-0.054 0.14,-0.047 0.14,-0.042 0.14,-0.035 0.15,-0.029 0.14,-0.022 0.15,-0.016 0.15,-0.01 0.14,-0.003 h 51.97 l 0.14,0.003 0.15,0.01 0.15,0.016 0.14,0.022 0.15,0.029 0.14,0.035 0.14,0.042 0.14,0.047 0.14,0.054 0.14,0.059 0.13,0.065 0.13,0.071 0.12,0.077 0.13,0.082 0.12,0.087 0.11,0.093 0.11,0.097 0.11,0.102 0.1,0.107 0.1,0.111 0.09,0.115 0.09,0.119 0.08,0.123 0.08,0.127 0.07,0.129 0.06,0.133 0.06,0.135 0.06,0.137 0.04,0.14 0.05,0.142 0.03,0.143 0.03,0.145 0.02,0.146 0.02,0.147 0.01,0.148 v 0.147 51.962005 0.148 l -0.01,0.147 -0.02,0.147 -0.02,0.146 -0.03,0.145 -0.03,0.143 -0.05,0.142 -0.04,0.14 -0.06,0.138 -0.06,0.135 -0.06,0.132 -0.07,0.13 -0.08,0.126 -0.08,0.123 -0.09,0.119 -0.09,0.115 -0.1,0.111 -0.1,0.107 -0.11,0.102 -0.11,0.098 -0.11,0.092 -0.12,0.087 -0.13,0.082 -0.12,0.077 -0.13,0.071 -0.13,0.065 -0.14,0.06 -0.14,0.053 -0.14,0.048 -0.14,0.041 -0.14,0.035 -0.15,0.029 -0.14,0.023 -0.15,0.016 -0.15,0.009 z"
     id="pin14"
     style="fill:#1c1f26;fill-opacity:1;stroke-width:2.36221;stroke-dasharray:none" /><path
     fill="none"
     fill-opacity="1"
     fill-rule="evenodd"
     stroke="#000000"
     stroke-width="0.937501"
     stroke-linecap="round"
     stroke-linejoin="bevel"
     stroke-dasharray="none"
     stroke-opacity="1"
     d="M 147.42023,75.817115 H 95.450228 l -0.14,-0.003 -0.15,-0.01 -0.15,-0.016 -0.14,-0.022 -0.15,-0.029 -0.14,-0.035 -0.14,-0.042 -0.14,-0.047 -0.14,-0.054 -0.14,-0.059 -0.13,-0.065 -0.13,-0.071 -0.12,-0.077 -0.13,-0.082 -0.12,-0.088 -0.11,-0.092 -0.11,-0.097 -0.11,-0.103 -0.1,-0.106 -0.1,-0.111 -0.09,-0.115 -0.09,-0.12 -0.08,-0.122 -0.08,-0.127 -0.07,-0.129 -0.06,-0.133 -0.06,-0.135 -0.06,-0.137 -0.04,-0.14 -0.05,-0.142 -0.03,-0.144 -0.03,-0.144 -0.02,-0.146 -0.02,-0.147 -0.01,-0.148 v -0.147 -51.962 -0.148 l 0.01,-0.147 0.02,-0.147 0.02,-0.146 0.03,-0.145 0.03,-0.143 0.05,-0.142 0.04,-0.14 0.06,-0.138 0.06,-0.135 0.06,-0.132 0.07,-0.13 0.08,-0.126 0.08,-0.123 0.09,-0.119 0.09,-0.115 0.1,-0.111 0.1,-0.107 0.11,-0.102 0.11,-0.098 0.11,-0.092 0.12,-0.087 0.13,-0.082 0.12,-0.077 0.13,-0.071 0.13,-0.065 0.14,-0.06 0.14,-0.053 0.14,-0.048 0.14,-0.041 0.14,-0.035 0.15,-0.029 0.14,-0.023 0.15,-0.016 0.15,-0.009 0.14,-0.004 h 51.970002 l 0.14,0.004 0.15,0.009 0.15,0.016 0.14,0.023 0.15,0.029 0.14,0.035 0.14,0.041 0.14,0.048 0.14,0.053 0.14,0.06 0.13,0.065 0.13,0.071 0.13,0.077 0.12,0.082 0.12,0.087 0.11,0.092 0.11,0.098 0.11,0.102 0.1,0.107 0.1,0.111 0.09,0.115 0.09,0.119 0.08,0.123 0.08,0.126 0.07,0.13 0.06,0.132 0.06,0.135 0.06,0.138 0.05,0.14 0.04,0.142 0.03,0.143 0.03,0.145 0.02,0.146 0.02,0.147 0.01,0.147 v 0.148 51.962 0.147 l -0.01,0.148 -0.02,0.147 -0.02,0.146 -0.03,0.144 -0.03,0.144 -0.04,0.142 -0.05,0.14 -0.06,0.137 -0.06,0.135 -0.06,0.133 -0.07,0.129 -0.08,0.127 -0.08,0.122 -0.09,0.12 -0.09,0.115 -0.1,0.111 -0.1,0.106 -0.11,0.103 -0.11,0.097 -0.11,0.092 -0.12,0.088 -0.12,0.082 -0.13,0.077 -0.13,0.071 -0.13,0.065 -0.14,0.059 -0.14,0.054 -0.14,0.047 -0.14,0.042 -0.14,0.035 -0.15,0.029 -0.14,0.022 -0.15,0.016 -0.15,0.01 z"
     id="pin27"
     style="fill:#1c1f26;fill-opacity:1;stroke-width:2.36221;stroke-dasharray:none" /><path
     fill="none"
     fill-opacity="1"
     fill-rule="evenodd"
     stroke="#000000"
     stroke-width="0.937501"
     stroke-linecap="round"
     stroke-linejoin="bevel"
     stroke-dasharray="none"
     stroke-opacity="1"
     d="m 588.11023,132.81512 -18.31,-48.630005 -0.05,-0.139 -0.04,-0.142 -0.03,-0.143 -0.04,-0.144 -0.02,-0.146 -0.02,-0.147 -0.01,-0.147 v -0.148 -0.147 l 0.01,-0.148 0.01,-0.147 0.02,-0.146 0.03,-0.145 0.03,-0.144 0.04,-0.142 0.05,-0.141 0.05,-0.138 0.06,-0.136 0.06,-0.133 0.07,-0.13 0.08,-0.127 0.08,-0.124 0.08,-0.12 0.1,-0.116 0.09,-0.112 0.1,-0.108 0.11,-0.104 0.11,-0.098 0.11,-0.094 0.12,-0.088 0.12,-0.084 0.13,-0.078 0.13,-0.072 0.13,-0.067 0.13,-0.061 0.14,-0.055 48.63,-18.307 0.14,-0.049 0.14,-0.043 0.14,-0.037 0.15,-0.03 0.14,-0.024 0.15,-0.018 0.15,-0.011 0.15,-0.005 0.14,0.001 0.15,0.008 0.15,0.015 0.14,0.021 0.15,0.027 0.14,0.033 0.14,0.04 0.15,0.046 0.13,0.052 0.14,0.058 0.13,0.064 0.13,0.07 0.13,0.075 0.12,0.081 0.12,0.086 0.12,0.091 0.11,0.096 0.11,0.101 0.1,0.106 0.1,0.11 0.1,0.114 0.08,0.118 0.09,0.122 0.08,0.125 0.07,0.129 0.06,0.132 0.07,0.134 0.05,0.137 18.31,48.630005 0.05,0.14 0.04,0.141 0.04,0.143 0.03,0.145 0.02,0.145 0.02,0.147 0.01,0.147 v 0.148 0.148 0.147 l -0.02,0.147 -0.02,0.146 -0.03,0.145 -0.03,0.144 -0.04,0.143 -0.05,0.14 -0.05,0.138 -0.06,0.136 -0.06,0.133 -0.07,0.13 -0.08,0.128 -0.08,0.123 -0.08,0.12 -0.09,0.117 -0.1,0.112 -0.1,0.107 -0.11,0.104 -0.11,0.098 -0.11,0.094 -0.12,0.089 -0.12,0.083 -0.13,0.078 -0.12,0.073 -0.14,0.066 -0.13,0.061 -0.14,0.055 -48.63,18.308 -0.14,0.049 -0.14,0.042 -0.14,0.037 -0.15,0.031 -0.14,0.024 -0.15,0.017 -0.15,0.012 -0.14,0.004 -0.15,-10e-4 -0.15,-0.008 -0.15,-0.015 -0.14,-0.021 -0.15,-0.027 -0.14,-0.033 -0.14,-0.04 -0.14,-0.046 -0.14,-0.052 -0.14,-0.058 -0.13,-0.064 -0.13,-0.069 -0.13,-0.076 -0.12,-0.08 -0.12,-0.086 -0.12,-0.092 -0.11,-0.096 -0.11,-0.101 -0.1,-0.105 -0.1,-0.11 -0.09,-0.114 -0.09,-0.119 -0.09,-0.122 -0.07,-0.125 -0.08,-0.129 -0.06,-0.131 -0.06,-0.135 z"
     id="pin03"
     style="fill:#1c1f26;fill-opacity:1;stroke-width:2.36221;stroke-dasharray:none" /><path
     fill="none"
     fill-opacity="1"
     fill-rule="evenodd"
     stroke="#000000"
     stroke-width="0.937501"
     stroke-linecap="round"
     stroke-linejoin="bevel"
     stroke-dasharray="none"
     stroke-opacity="1"
     d="m 554.59023,89.913115 18.31,48.630005 0.04,0.139 0.05,0.142 0.03,0.143 0.03,0.144 0.03,0.146 0.02,0.147 0.01,0.147 v 0.148 0.147 l -0.01,0.148 -0.01,0.147 -0.02,0.146 -0.03,0.145 -0.03,0.144 -0.04,0.142 -0.05,0.141 -0.05,0.138 -0.06,0.136 -0.06,0.133 -0.07,0.13 -0.08,0.127 -0.08,0.124 -0.08,0.12 -0.1,0.116 -0.09,0.112 -0.1,0.108 -0.11,0.103 -0.11,0.099 -0.11,0.094 -0.12,0.088 -0.12,0.084 -0.13,0.078 -0.13,0.072 -0.13,0.067 -0.13,0.061 -0.14,0.055 -48.63,18.307 -0.14,0.049 -0.14,0.043 -0.14,0.037 -0.15,0.03 -0.14,0.024 -0.15,0.018 -0.15,0.011 -0.15,0.005 -0.14,-0.001 -0.15,-0.009 -0.15,-0.014 -0.14,-0.021 -0.15,-0.027 -0.14,-0.034 -0.15,-0.039 -0.14,-0.046 -0.13,-0.052 -0.14,-0.058 -0.13,-0.064 -0.13,-0.07 -0.13,-0.075 -0.12,-0.081 -0.12,-0.086 -0.12,-0.091 -0.11,-0.096 -0.11,-0.101 -0.1,-0.106 -0.1,-0.11 -0.1,-0.114 -0.08,-0.118 -0.09,-0.122 -0.08,-0.125 -0.07,-0.129 -0.06,-0.132 -0.07,-0.134 -0.05,-0.137 -18.31,-48.63 -0.05,-0.14 -0.04,-0.141 -0.04,-0.143 -0.03,-0.145 -0.02,-0.145 -0.02,-0.147 -0.01,-0.147 -0.01,-0.148 0.01,-0.148 v -0.147 l 0.02,-0.147 0.02,-0.146 0.03,-0.146 0.03,-0.143 0.04,-0.143 0.05,-0.14 0.05,-0.138 0.06,-0.136 0.06,-0.133 0.07,-0.131 0.08,-0.127 0.08,-0.123 0.08,-0.12 0.09,-0.117 0.1,-0.112 0.1,-0.108 0.11,-0.103 0.11,-0.098 0.11,-0.094 0.12,-0.089 0.12,-0.083 0.13,-0.078 0.12,-0.073 0.14,-0.066 0.13,-0.061 0.14,-0.055 48.63,-18.308005 0.14,-0.049 0.14,-0.043 0.14,-0.036 0.15,-0.031 0.14,-0.024 0.15,-0.017 0.15,-0.012 0.14,-0.005 0.15,0.002 0.15,0.008 0.15,0.015 0.14,0.02 0.15,0.028 0.14,0.033 0.14,0.04 0.14,0.046 0.14,0.052 0.14,0.058 0.13,0.064 0.13,0.069 0.13,0.076 0.12,0.08 0.12,0.086 0.12,0.092 0.11,0.096 0.11,0.101 0.1,0.105 0.1,0.11 0.09,0.114 0.09,0.118 0.09,0.122 0.07,0.126 0.08,0.129 0.06,0.131 0.06,0.135 z"
     id="pin02"
     style="fill:#1c1f26;fill-opacity:1;stroke-width:2.36221;stroke-dasharray:none" /><path
     fill="none"
     fill-opacity="1"
     fill-rule="evenodd"
     stroke="#000000"
     stroke-width="0.937501"
     stroke-linecap="round"
     stroke-linejoin="bevel"
     stroke-dasharray="none"
     stroke-opacity="1"
     d="m 245.44023,129.57012 h 51.96 l 0.15,0.003 0.14,0.01 0.15,0.016 0.15,0.023 0.14,0.028 0.14,0.035 0.15,0.042 0.14,0.047 0.13,0.054 0.14,0.059 0.13,0.066 0.13,0.071 0.13,0.076 0.12,0.082 0.12,0.088 0.11,0.092 0.11,0.097 0.11,0.103 0.1,0.106 0.1,0.111 0.09,0.116 0.09,0.119 0.08,0.122 0.08,0.127 0.07,0.129 0.07,0.133 0.06,0.135 0.05,0.138 0.05,0.139 0.04,0.142 0.03,0.144 0.03,0.145 0.02,0.146 0.02,0.146 0.01,0.148 v 0.147 51.962 0.148 l -0.01,0.147 -0.02,0.147 -0.02,0.146 -0.03,0.145 -0.03,0.144 -0.04,0.141 -0.05,0.14 -0.05,0.138 -0.06,0.135 -0.07,0.133 -0.07,0.129 -0.08,0.126 -0.08,0.123 -0.09,0.119 -0.09,0.115 -0.1,0.112 -0.1,0.106 -0.11,0.102 -0.11,0.098 -0.11,0.092 -0.12,0.088 -0.12,0.082 -0.13,0.076 -0.13,0.071 -0.13,0.066 -0.14,0.059 -0.13,0.054 -0.14,0.047 -0.15,0.041 -0.14,0.036 -0.14,0.028 -0.15,0.023 -0.15,0.016 -0.14,0.01 -0.15,0.003 h -51.96 l -0.15,-0.003 -0.15,-0.01 -0.15,-0.016 -0.14,-0.023 -0.15,-0.028 -0.14,-0.036 -0.14,-0.041 -0.14,-0.047 -0.14,-0.054 -0.14,-0.059 -0.13,-0.066 -0.13,-0.071 -0.12,-0.076 -0.13,-0.082 -0.12,-0.088 -0.11,-0.092 -0.11,-0.098 -0.11,-0.102 -0.1,-0.106 -0.1,-0.112 -0.09,-0.115 -0.09,-0.119 -0.08,-0.123 -0.08,-0.126 -0.07,-0.129 -0.06,-0.133 -0.06,-0.135 -0.06,-0.138 -0.04,-0.14 -0.04,-0.141 -0.04,-0.144 -0.03,-0.145 -0.02,-0.146 -0.02,-0.147 -0.01,-0.147 v -0.148 -51.962 -0.147 l 0.01,-0.148 0.02,-0.146 0.02,-0.146 0.03,-0.145 0.04,-0.144 0.04,-0.142 0.04,-0.139 0.06,-0.138 0.06,-0.135 0.06,-0.133 0.07,-0.129 0.08,-0.127 0.08,-0.122 0.09,-0.119 0.09,-0.116 0.1,-0.111 0.1,-0.106 0.11,-0.103 0.11,-0.097 0.11,-0.092 0.12,-0.088 0.13,-0.082 0.12,-0.076 0.13,-0.071 0.13,-0.066 0.14,-0.059 0.14,-0.054 0.14,-0.047 0.14,-0.042 0.14,-0.035 0.15,-0.028 0.14,-0.023 0.15,-0.016 0.15,-0.01 z"
     id="pin09"
     style="fill:#1c1f26;fill-opacity:1;stroke-width:2.36221;stroke-dasharray:none" /><path
     fill="none"
     fill-opacity="1"
     fill-rule="evenodd"
     stroke="#000000"
     stroke-width="0.937501"
     stroke-linecap="round"
     stroke-linejoin="bevel"
     stroke-dasharray="none"
     stroke-opacity="1"
     d="m 484.41023,116.33412 18.3,48.63 0.05,0.139 0.05,0.141 0.03,0.143 0.03,0.145 0.03,0.146 0.01,0.146 0.02,0.148 v 0.147 0.148 l -0.01,0.147 -0.01,0.147 -0.02,0.147 -0.03,0.145 -0.04,0.144 -0.03,0.142 -0.05,0.14 -0.05,0.138 -0.06,0.136 -0.06,0.133 -0.07,0.131 -0.08,0.127 -0.08,0.124 -0.09,0.12 -0.09,0.116 -0.09,0.112 -0.1,0.108 -0.11,0.103 -0.11,0.099 -0.11,0.093 -0.12,0.089 -0.12,0.083 -0.13,0.078 -0.13,0.073 -0.13,0.067 -0.13,0.061 -0.14,0.055 -48.63,18.307 -0.14,0.049 -0.14,0.043 -0.15,0.036 -0.14,0.031 -0.15,0.024 -0.14,0.018 -0.15,0.011 -0.15,0.005 -0.15,-0.002 -0.14,-0.008 -0.15,-0.014 -0.15,-0.021 -0.14,-0.027 -0.14,-0.034 -0.15,-0.04 -0.14,-0.046 -0.14,-0.052 -0.13,-0.058 -0.13,-0.064 -0.14,-0.069 -0.12,-0.075 -0.13,-0.081 -0.12,-0.086 -0.11,-0.091 -0.11,-0.096 -0.11,-0.101 -0.11,-0.106 -0.09,-0.11 -0.1,-0.114 -0.09,-0.118 -0.08,-0.122 -0.08,-0.126 -0.07,-0.128 -0.07,-0.132 -0.06,-0.135 -0.05,-0.137 -18.31,-48.63 -0.05,-0.139 -0.04,-0.141 -0.04,-0.144 -0.03,-0.144 -0.02,-0.146 -0.02,-0.146 -0.01,-0.148 -0.01,-0.147 v -0.148 l 0.01,-0.148 0.02,-0.147 0.02,-0.146 0.03,-0.145 0.03,-0.144 0.04,-0.142 0.04,-0.14 0.06,-0.139 0.05,-0.135 0.07,-0.134 0.07,-0.13 0.07,-0.127 0.08,-0.124 0.09,-0.12 0.09,-0.116 0.1,-0.112 0.1,-0.108 0.1,-0.103 0.11,-0.099 0.12,-0.094 0.12,-0.088 0.12,-0.084 0.12,-0.078 0.13,-0.072 0.13,-0.067 0.14,-0.061 0.14,-0.055 48.63,-18.307 0.13,-0.049 0.15,-0.043 0.14,-0.037 0.14,-0.03 0.15,-0.024 0.15,-0.018 0.14,-0.011 0.15,-0.005 0.15,0.002 0.15,0.008 0.14,0.014 0.15,0.021 0.14,0.027 0.15,0.034 0.14,0.04 0.14,0.046 0.14,0.052 0.14,0.058 0.13,0.063 0.13,0.07 0.13,0.075 0.12,0.081 0.12,0.086 0.12,0.091 0.11,0.096 0.11,0.101 0.1,0.106 0.1,0.11 0.09,0.114 0.09,0.118 0.08,0.122 0.08,0.125 0.07,0.129 0.07,0.132 0.06,0.134 z"
     id="pin01"
     style="fill:#1c1f26;fill-opacity:1;stroke-width:2.36221;stroke-dasharray:none" /><path
     fill="none"
     fill-opacity="1"
     fill-rule="evenodd"
     stroke="#000000"
     stroke-width="0.937501"
     stroke-linecap="round"
     stroke-linejoin="bevel"
     stroke-dasharray="none"
     stroke-opacity="1"
     d="m 528.17023,19.731115 18.31,48.63 0.04,0.139 0.05,0.142 0.03,0.143 0.03,0.144 0.03,0.146 0.02,0.147 0.01,0.147 v 0.147 0.148 l -0.01,0.148 -0.01,0.147 -0.02,0.146 -0.03,0.145 -0.03,0.144 -0.04,0.142 -0.05,0.141 -0.05,0.138 -0.06,0.136 -0.06,0.133 -0.07,0.13 -0.08,0.127 -0.08,0.124 -0.08,0.12 -0.1,0.116 -0.09,0.112 -0.1,0.108 -0.11,0.103 -0.11,0.099 -0.11,0.094 -0.12,0.088 -0.12,0.084 -0.13,0.078 -0.13,0.072 -0.13,0.067 -0.13,0.061 -0.14,0.055 -48.63,18.307 -0.14,0.049 -0.14,0.043 -0.14,0.037 -0.15,0.03 -0.14,0.024 -0.15,0.018 -0.15,0.011 -0.15,0.005 -0.14,-0.002 -0.15,-0.008 -0.15,-0.014 -0.14,-0.021 -0.15,-0.027 -0.14,-0.034 -0.15,-0.039 -0.14,-0.046 -0.13,-0.052 -0.14,-0.058 -0.13,-0.064 -0.13,-0.07 -0.13,-0.075 -0.12,-0.081 -0.12,-0.086 -0.12,-0.091 -0.11,-0.096 -0.11,-0.101 -0.1,-0.106 -0.1,-0.11 -0.1,-0.114 -0.08,-0.118 -0.09,-0.122 -0.08,-0.125 -0.07,-0.129 -0.07,-0.132 -0.06,-0.134 -0.05,-0.137 -18.31,-48.63 -0.05,-0.14 -0.04,-0.141 -0.04,-0.143 -0.03,-0.145 -0.02,-0.145 -0.02,-0.147 -0.01,-0.147 -0.01,-0.148 0.01,-0.148 v -0.147 l 0.02,-0.147 0.02,-0.146 0.03,-0.146 0.03,-0.143 0.04,-0.143 0.05,-0.14 0.05,-0.138 0.06,-0.136 0.06,-0.133 0.07,-0.131 0.07,-0.127 0.09,-0.123 0.08,-0.12 0.09,-0.117 0.1,-0.112 0.1,-0.108 0.11,-0.103 0.11,-0.099 0.11,-0.093 0.12,-0.089 0.12,-0.083 0.12,-0.078 0.13,-0.073 0.14,-0.067 0.13,-0.06 0.14,-0.056 48.63,-18.307 0.14,-0.049 0.14,-0.043 0.14,-0.036 0.15,-0.031 0.14,-0.024 0.15,-0.018 0.14,-0.011 0.15,-0.005 0.15,0.002 0.15,0.008 0.14,0.014 0.15,0.021 0.15,0.028 0.14,0.033 0.14,0.04 0.14,0.046 0.14,0.052 0.14,0.058 0.13,0.064 0.13,0.069 0.13,0.076 0.12,0.08 0.12,0.086 0.12,0.091 0.11,0.097 0.11,0.101 0.1,0.105 0.1,0.11 0.09,0.114 0.09,0.118 0.08,0.122 0.08,0.126 0.08,0.128 0.06,0.132 0.06,0.135 z"
     id="pin00"
     style="fill:#1c1f26;fill-opacity:1;stroke-width:2.36221;stroke-dasharray:none" /><path
     fill="none"
     fill-opacity="1"
     fill-rule="evenodd"
     stroke="#000000"
     stroke-width="0.937501"
     stroke-linecap="round"
     stroke-linejoin="bevel"
     stroke-dasharray="none"
     stroke-opacity="1"
     d="m 72.430228,75.817115 h -51.97 l -0.14,-0.003 -0.15,-0.01 -0.15,-0.016 -0.14,-0.022 -0.15,-0.029 -0.14,-0.035 -0.14,-0.042 -0.14,-0.047 -0.14,-0.054 -0.14,-0.059 -0.13,-0.065 -0.13,-0.071 -0.12,-0.077 -0.13,-0.082 -0.12,-0.088 -0.11,-0.092 -0.11,-0.097 -0.11,-0.103 -0.1,-0.106 -0.1,-0.111 -0.09,-0.115 -0.09,-0.12 -0.08,-0.122 -0.08,-0.127 -0.07,-0.129 -0.06,-0.133 -0.06,-0.135 -0.06,-0.137 -0.04,-0.14 -0.05,-0.142 -0.03,-0.144 -0.03,-0.144 -0.02,-0.146 -0.02,-0.147 -0.01,-0.148 v -0.147 -51.962 -0.148 l 0.01,-0.147 0.02,-0.147 0.02,-0.146 0.03,-0.145 0.03,-0.143 0.05,-0.142 0.04,-0.14 0.06,-0.138 0.06,-0.135 0.06,-0.132 0.07,-0.13 0.08,-0.126 0.08,-0.123 0.09,-0.119 0.09,-0.115 0.1,-0.111 0.1,-0.107 0.11,-0.102 0.11,-0.098 0.11,-0.092 0.12,-0.087 0.13,-0.082 0.12,-0.077 0.13,-0.071 0.13,-0.065 0.14,-0.06 0.14,-0.053 0.14,-0.048 0.14,-0.041 0.14,-0.035 0.15,-0.029 0.14,-0.023 0.15,-0.016 0.15,-0.009 0.14,-0.004 h 51.97 l 0.14,0.004 0.15,0.009 0.15,0.016 0.14,0.023 0.15,0.029 0.14,0.035 0.14,0.041 0.14,0.048 0.14,0.053 0.14,0.06 0.13,0.065 0.13,0.071 0.12,0.077 0.13,0.082 0.12,0.087 0.11,0.092 0.11,0.098 0.11,0.102 0.1,0.107 0.1,0.111 0.09,0.115 0.09,0.119 0.08,0.123 0.08,0.126 0.07,0.13 0.06,0.132 0.06,0.135 0.06,0.138 0.04,0.14 0.05,0.142 0.03,0.143 0.03,0.145 0.02,0.146 0.02,0.147 0.01,0.147 v 0.148 51.962 0.147 l -0.01,0.148 -0.02,0.147 -0.02,0.146 -0.03,0.144 -0.03,0.144 -0.05,0.142 -0.04,0.14 -0.06,0.137 -0.06,0.135 -0.06,0.133 -0.07,0.129 -0.08,0.127 -0.08,0.122 -0.09,0.12 -0.09,0.115 -0.1,0.111 -0.1,0.106 -0.11,0.103 -0.11,0.097 -0.11,0.092 -0.12,0.088 -0.13,0.082 -0.12,0.077 -0.13,0.071 -0.13,0.065 -0.14,0.059 -0.14,0.054 -0.14,0.047 -0.14,0.042 -0.14,0.035 -0.15,0.029 -0.14,0.022 -0.15,0.016 -0.15,0.01 z"
     id="pin26"
     style="fill:#1c1f26;fill-opacity:1;stroke-width:2.36221;stroke-dasharray:none" /></svg>
