<?xml version="1.0" encoding="UTF-8" standalone="no"?>
<svg
   viewBox="0 0 634.21886 196.93581"
   width="634.21887"
   height="196.93581"
   version="1.1"
   id="svg169"
   sodipodi:docname="fightboard-v3.svg"
   inkscape:version="1.4.4 (dcaf3e7d9e, 2026-05-05)"
   xmlns:inkscape="http://www.inkscape.org/namespaces/inkscape"
   xmlns:sodipodi="http://sodipodi.sourceforge.net/DTD/sodipodi-0.dtd"
   xmlns="http://www.w3.org/2000/svg"
   xmlns:svg="http://www.w3.org/2000/svg">
  <sodipodi:namedview
     id="namedview169"
     pagecolor="#ffffff"
     bordercolor="#000000"
     borderopacity="0.25"
     inkscape:showpageshadow="2"
     inkscape:pageopacity="0.0"
     inkscape:pagecheckerboard="0"
     inkscape:deskcolor="#d1d1d1"
     inkscape:zoom="2.3382935"
     inkscape:cx="340.4192"
     inkscape:cy="109.69538"
     inkscape:window-width="2560"
     inkscape:window-height="1440"
     inkscape:window-x="0"
     inkscape:window-y="0"
     inkscape:window-maximized="0"
     inkscape:current-layer="svg169" />
  <desc
     id="desc1">fbmx.dxf - scale = 1.000000, origin = (0.000000, 0.000000), method = manual</desc>
  <defs
     id="defs4">
    <marker
       id="DistanceX"
       orient="auto"
       refX="0"
       refY="0"
       style="overflow:visible">
      <path
         d="M 3,-3 -3,3 M 0,-5 V 5"
         style="stroke:#000000;stroke-width:0.5"
         id="path1" />
    </marker>
    <pattern
       id="Hatch"
       patternUnits="userSpaceOnUse"
       width="8"
       height="8"
       x="0"
       y="0">
      <path
         d="M8 4 l-4,4"
         stroke="#000000"
         stroke-width="0.25"
         linecap="square"
         id="path2" />
      <path
         d="M6 2 l-4,4"
         stroke="#000000"
         stroke-width="0.25"
         linecap="square"
         id="path3" />
      <path
         d="M4 0 l-4,4"
         stroke="#000000"
         stroke-width="0.25"
         linecap="square"
         id="path4" />
    </pattern>
    <symbol
       id="*MODEL_SPACE" />
    <symbol
       id="*PAPER_SPACE" />
  </defs>
  <path
     fill="none"
     stroke="#000000"
     stroke-width="2"
     stroke-dasharray="none"
     d="m 633.2189,18.0079 v 160.92 A 17.0079,17.0079 0 0 1 616.211,195.9358 H 18.0079 A 17.0079,17.0079 0 0 1 1,178.9279 V 18.0079 A 17.0079,17.0079 0 0 1 18.0079,1 h 598.203 a 17.0079,17.0079 0 0 1 17.0079,17.0079 z"
     id="case"
     style="display:inline;fill:#2b303b;fill-opacity:1" />
  <path
     fill="none"
     stroke="#000000"
     stroke-width="2"
     stroke-dasharray="none"
     d="m 200.2679,180.0187 a 3.250394,3.250394 0 0 0 4.18716,-1.8968 l 17.577,-46.69 a 3.250394,3.250394 0 0 0 -1.8968,-4.1871 l -46.691,-17.58 a 3.250394,3.250394 0 0 0 -4.18715,1.8968 l -17.578,46.69 a 3.250394,3.250394 0 0 0 1.89679,4.1872 l 46.691,17.58 z"
     id="pin26"
     style="fill:#1c1f26;fill-opacity:1" />
  <path
     fill="none"
     stroke="#000000"
     stroke-width="2"
     stroke-dasharray="none"
     d="m 84.29697,132.8874 a 3.250394,3.250394 0 0 0 1.8968,4.1871 l 46.691,17.57 a 3.250394,3.250394 0 0 0 4.18715,-1.8968 l 17.577,-46.69 a 3.250394,3.250394 0 0 0 -1.8968,-4.1872 l -46.691,-17.58 a 3.250394,3.250394 0 0 0 -4.18715,1.8968 l -17.577,46.69 z"
     id="pin27"
     style="fill:#1c1f26;fill-opacity:1" />
  <path
     fill="none"
     stroke="#000000"
     stroke-width="2"
     stroke-dasharray="none"
     d="m 614.73658,170.3731 a 9.86457,9.86457 0 0 0 -19.72914,0 9.86457,9.86457 0 0 0 19.72914,0 z"
     id="pin13"
     style="fill:#1c1f26;fill-opacity:1" />
  <path
     fill="none"
     stroke="#000000"
     stroke-width="2"
     stroke-dasharray="none"
     d="m 484.62634,170.3731 a 9.864567,9.864567 0 0 0 -19.72913,0 9.864567,9.864567 0 0 0 19.72913,0 z"
     id="pin10"
     style="fill:#1c1f26;fill-opacity:1" />
  <path
     fill="none"
     stroke="#000000"
     stroke-width="2"
     stroke-dasharray="none"
     d="m 561.55862,141.4125 a 3.250394,3.250394 0 0 0 3.2504,3.2504 h 49.89 a 3.250394,3.250394 0 0 0 3.2504,-3.2504 v -49.89 a 3.250394,3.250394 0 0 0 -3.2504,-3.2504 h -49.89 a 3.250394,3.250394 0 0 0 -3.2504,3.2504 z"
     id="pin08"
     style="fill:#1c1f26;fill-opacity:1" />
  <path
     fill="none"
     stroke="#000000"
     stroke-width="2"
     stroke-dasharray="none"
     d="m 441.25626,170.3731 a 9.864567,9.864567 0 0 0 -19.72913,0 9.864567,9.864567 0 0 0 19.72913,0 z"
     id="pin09"
     style="fill:#1c1f26;fill-opacity:1" />
  <path
     fill="none"
     stroke="#000000"
     stroke-width="2"
     stroke-dasharray="none"
     d="m 561.55862,69.4125 a 3.250394,3.250394 0 0 0 3.2504,3.2504 h 49.89 a 3.250394,3.250394 0 0 0 3.2504,-3.2504 v -49.89 a 3.250394,3.250394 0 0 0 -3.2504,-3.2504 h -49.89 a 3.250394,3.250394 0 0 0 -3.2504,3.2504 z"
     id="pin04"
     style="fill:#1c1f26;fill-opacity:1" />
  <path
     fill="none"
     stroke="#000000"
     stroke-width="2"
     stroke-dasharray="none"
     d="m 571.3665,170.3731 a 9.86457,9.86457 0 0 0 -19.72914,0 9.86457,9.86457 0 0 0 19.72914,0 z"
     id="pin12"
     style="fill:#1c1f26;fill-opacity:1" />
  <path
     fill="none"
     stroke="#000000"
     stroke-width="2"
     stroke-dasharray="none"
     d="m 489.55862,141.4125 a 3.250394,3.250394 0 0 0 3.2504,3.2504 h 49.89 a 3.250394,3.250394 0 0 0 3.2504,-3.2504 v -49.89 a 3.250394,3.250394 0 0 0 -3.2504,-3.2504 h -49.89 a 3.250394,3.250394 0 0 0 -3.2504,3.2504 z"
     id="pin07"
     style="fill:#1c1f26;fill-opacity:1" />
  <path
     fill="none"
     stroke="#000000"
     stroke-width="2"
     stroke-dasharray="none"
     d="m 401.9492,105.4079 v -49.89 a 3.250394,3.250394 0 0 0 -3.25039,-3.2504 H 348.809 a 3.250394,3.250394 0 0 0 -3.25039,3.2504 v 49.89 a 3.250394,3.250394 0 0 0 3.25039,3.2504 h 49.8898 a 3.250394,3.250394 0 0 0 3.25039,-3.2504 z"
     id="pin01"
     style="fill:#1c1f26;fill-opacity:1" />
  <path
     fill="none"
     stroke="#000000"
     stroke-width="2"
     stroke-dasharray="none"
     d="m 178.1189,34.4979 -46.691,-17.58 a 3.250394,3.250394 0 0 0 -4.18716,1.8968 l -17.577,46.69 a 3.250394,3.250394 0 0 0 1.8968,4.1872 l 46.691,17.58 a 3.250394,3.250394 0 0 0 4.18715,-1.8968 l 17.577,-46.69 a 3.250394,3.250394 0 0 0 -1.89679,-4.1872 z"
     id="pin29"
     style="fill:#1c1f26;fill-opacity:1" />
  <path
     fill="none"
     stroke="#000000"
     stroke-width="2"
     stroke-dasharray="none"
     d="m 85.3683,76.5135 -46.691,-17.58 a 3.250394,3.250394 0 0 0 -4.18716,1.8968 l -17.577,46.69 a 3.250394,3.250394 0 0 0 1.8968,4.1872 l 46.691,17.58 a 3.250394,3.250394 0 0 0 4.18715,-1.8968 l 17.577,-46.69 A 3.250394,3.250394 0 0 0 85.3683,76.5135 Z"
     id="pin28"
     style="display:inline;fill:#1c1f26;fill-opacity:1" />
  <path
     fill="none"
     stroke="#000000"
     stroke-width="2"
     stroke-dasharray="none"
     d="m 489.55862,69.4125 a 3.250394,3.250394 0 0 0 3.2504,3.2504 h 49.89 a 3.250394,3.250394 0 0 0 3.2504,-3.2504 v -49.89 a 3.250394,3.250394 0 0 0 -3.2504,-3.2504 h -49.89 a 3.250394,3.250394 0 0 0 -3.2504,3.2504 z"
     id="pin03"
     style="fill:#1c1f26;fill-opacity:1" />
  <path
     fill="none"
     stroke="#000000"
     stroke-width="2"
     stroke-dasharray="none"
     d="m 473.94918,91.5227 a 3.250394,3.250394 0 0 0 -3.2504,-3.2504 H 420.809 a 3.250394,3.250394 0 0 0 -3.25039,3.2504 v 49.89 a 3.250394,3.250394 0 0 0 3.25039,3.2504 h 49.8898 a 3.250394,3.250394 0 0 0 3.2504,-3.2504 v -49.89 z"
     id="pin06"
     style="fill:#1c1f26;fill-opacity:1" />
  <path
     fill="none"
     stroke="#000000"
     stroke-width="2"
     stroke-dasharray="none"
     d="m 417.5586,19.5179 v 49.89 a 3.250394,3.250394 0 0 0 3.25039,3.2504 h 49.88981 a 3.250394,3.250394 0 0 0 3.2504,-3.2504 v -49.89 a 3.250394,3.250394 0 0 0 -3.2504,-3.2504 H 420.809 a 3.250394,3.250394 0 0 0 -3.25039,3.2504 z"
     id="pin02"
     style="fill:#1c1f26;fill-opacity:1" />
  <path
     fill="none"
     stroke="#000000"
     stroke-width="2"
     stroke-dasharray="none"
     d="m 288.89636,63.6676 a 4.535433,4.535433 0 0 0 -9.07087,0 4.535433,4.535433 0 0 0 9.07087,0 z"
     id="board-led"
     style="fill:#1c1f26;fill-opacity:1" />
  <path
     fill="none"
     stroke="#000000"
     stroke-width="2"
     stroke-dasharray="none"
     d="m 401.94918,127.5227 a 3.250394,3.250394 0 0 0 -3.2504,-3.2504 H 348.809 a 3.250394,3.250394 0 0 0 -3.25039,3.2504 v 49.89 a 3.250394,3.250394 0 0 0 3.25039,3.2504 h 49.8898 a 3.250394,3.250394 0 0 0 3.25039,-3.2504 v -49.89 z"
     id="pin05"
     style="fill:#1c1f26;fill-opacity:1" />
  <path
     fill="none"
     stroke="#000000"
     stroke-width="2"
     stroke-dasharray="none"
     d="m 244.6759,163.5079 h 79.3701 a 5.669291,5.669291 0 0 0 5.66929,-5.6693 v -37.8 a 5.669291,5.669291 0 0 0 -5.66929,-5.6693 h -79.3701 a 5.669291,5.669291 0 0 0 -5.66929,5.6693 v 37.8 a 5.669291,5.669291 0 0 0 5.66929,5.6693 z"
     id="oled"
     style="fill:#1c1f26;fill-opacity:1"
     inkscape:label="oled" />
  <path
     fill="none"
     stroke="#000000"
     stroke-width="2"
     stroke-dasharray="none"
     d="m 527.99642,170.3731 a 9.864567,9.864567 0 0 0 -19.72913,0 9.864567,9.864567 0 0 0 19.72913,0 z"
     id="pin11"
     style="fill:#1c1f26;fill-opacity:1" />
  <path
     fill="none"
     stroke="#000000"
     stroke-width="2"
     stroke-dasharray="none"
     d="m 276.04597,63.6676 a 8.6929135,8.6929135 0 0 0 -17.38583,0 8.6929135,8.6929135 0 0 0 17.38583,0 z"
     id="boot"
     style="fill:#1c1f26;fill-opacity:1" />
  <path
     fill="none"
     stroke="#000000"
     stroke-width="2"
     stroke-dasharray="none"
     d="m 310.06171,63.6676 a 8.6929135,8.6929135 0 0 0 -17.38582,0 8.6929135,8.6929135 0 0 0 17.38582,0 z"
     id="reset"
     style="fill:#1c1f26;fill-opacity:1"
     inkscape:label="reset" />
</svg>
