<?xml version="1.0" encoding="UTF-8" standalone="no"?>
<svg
   viewBox="0 0 599.99999 186.31025"
   width="600"
   height="186.31024"
   version="1.1"
   id="svg169"
   sodipodi:docname="fightboard-v3.svg"
   inkscape:version="1.4.4 (dcaf3e7d9e, 2026-05-05)"
   xml:space="preserve"
   xmlns:inkscape="http://www.inkscape.org/namespaces/inkscape"
   xmlns:sodipodi="http://sodipodi.sourceforge.net/DTD/sodipodi-0.dtd"
   xmlns="http://www.w3.org/2000/svg"
   xmlns:svg="http://www.w3.org/2000/svg"><sodipodi:namedview
     id="namedview169"
     pagecolor="#ffffff"
     bordercolor="#000000"
     borderopacity="0.25"
     inkscape:showpageshadow="2"
     inkscape:pageopacity="0.0"
     inkscape:pagecheckerboard="0"
     inkscape:deskcolor="#d1d1d1"
     inkscape:zoom="2.3382935"
     inkscape:cx="308.55836"
     inkscape:cy="124.66356"
     inkscape:window-width="2560"
     inkscape:window-height="1440"
     inkscape:window-x="0"
     inkscape:window-y="0"
     inkscape:window-maximized="0"
     inkscape:current-layer="svg169" /><desc
     id="desc1">fbmx.dxf - scale = 1.000000, origin = (0.000000, 0.000000), method = manual</desc><defs
     id="defs4"><marker
       id="DistanceX"
       orient="auto"
       refX="0"
       refY="0"
       style="overflow:visible"><path
         d="M 3,-3 -3,3 M 0,-5 V 5"
         style="stroke:#000000;stroke-width:0.5"
         id="path1" /></marker><pattern
       id="Hatch"
       patternUnits="userSpaceOnUse"
       width="8"
       height="8"
       x="0"
       y="0"><path
         d="M8 4 l-4,4"
         stroke="#000000"
         stroke-width="0.25"
         linecap="square"
         id="path2" /><path
         d="M6 2 l-4,4"
         stroke="#000000"
         stroke-width="0.25"
         linecap="square"
         id="path3" /><path
         d="M4 0 l-4,4"
         stroke="#000000"
         stroke-width="0.25"
         linecap="square"
         id="path4" /></pattern><symbol
       id="*MODEL_SPACE" /><symbol
       id="*PAPER_SPACE" /></defs><path
     fill="none"
     stroke="#000000"
     stroke-width="1.89209"
     stroke-dasharray="none"
     d="M 599.05395,17.036294 V 169.27395 A 16.090249,16.090249 0 0 1 582.96371,185.3642 H 17.036294 A 16.090249,16.090249 0 0 1 0.94604498,169.27395 V 17.036294 A 16.090249,16.090249 0 0 1 17.036294,0.94604498 H 582.96361 A 16.090249,16.090249 0 0 1 599.05386,17.036294 Z"
     id="case"
     style="display:inline;fill:#2b303b;fill-opacity:1;stroke-width:2;stroke-dasharray:none" /><path
     fill="none"
     stroke="#000000"
     stroke-width="1.89209"
     stroke-dasharray="none"
     d="m 189.46257,170.3059 a 3.0750209,3.0750209 0 0 0 3.96124,-1.79446 l 16.62864,-44.17087 a 3.0750209,3.0750209 0 0 0 -1.79446,-3.96119 L 164.08618,103.7479 a 3.0750209,3.0750209 0 0 0 -3.96124,1.79446 l -16.62959,44.17087 a 3.0750209,3.0750209 0 0 0 1.79445,3.96128 l 44.17182,16.63148 z"
     id="pin26"
     style="fill:#1c1f26;fill-opacity:1;stroke-width:2;stroke-dasharray:none" /><path
     fill="none"
     stroke="#000000"
     stroke-width="1.89209"
     stroke-dasharray="none"
     d="m 79.748777,125.71754 a 3.0750209,3.0750209 0 0 0 1.794459,3.96119 l 44.171814,16.62202 a 3.0750209,3.0750209 0 0 0 3.96124,-1.79446 l 16.62864,-44.17087 a 3.0750209,3.0750209 0 0 0 -1.79446,-3.961283 L 100.33866,79.742656 a 3.0750209,3.0750209 0 0 0 -3.96124,1.794459 L 79.748777,125.70799 Z"
     id="pin27"
     style="fill:#1c1f26;fill-opacity:1;stroke-width:2;stroke-dasharray:none" /><path
     fill="none"
     stroke="#000000"
     stroke-width="1.89209"
     stroke-dasharray="none"
     d="m 581.56884,161.18072 a 9.332335,9.332335 0 0 0 -18.66467,0 9.332335,9.332335 0 0 0 18.66467,0 z"
     id="pin13"
     style="fill:#1c1f26;fill-opacity:1;stroke-width:2;stroke-dasharray:none" /><path
     fill="none"
     stroke="#000000"
     stroke-width="1.89209"
     stroke-dasharray="none"
     d="m 458.47862,161.18072 a 9.3323302,9.3323302 0 0 0 -18.66466,0 9.3323302,9.3323302 0 0 0 18.66466,0 z"
     id="pin10"
     style="fill:#1c1f26;fill-opacity:1;stroke-width:2;stroke-dasharray:none" /><path
     fill="none"
     stroke="#000000"
     stroke-width="1.89209"
     stroke-dasharray="none"
     d="m 531.26006,133.78267 a 3.0750209,3.0750209 0 0 0 3.07503,3.07503 h 47.19821 a 3.0750209,3.0750209 0 0 0 3.07503,-3.07503 V 86.584457 a 3.0750209,3.0750209 0 0 0 -3.07503,-3.075026 h -47.19821 a 3.0750209,3.0750209 0 0 0 -3.07503,3.075026 z"
     id="pin08"
     style="fill:#1c1f26;fill-opacity:1;stroke-width:2;stroke-dasharray:none" /><path
     fill="none"
     stroke="#000000"
     stroke-width="1.89209"
     stroke-dasharray="none"
     d="m 417.44854,161.18072 a 9.3323302,9.3323302 0 0 0 -18.66465,0 9.3323302,9.3323302 0 0 0 18.66465,0 z"
     id="pin09"
     style="fill:#1c1f26;fill-opacity:1;stroke-width:2;stroke-dasharray:none" /><path
     fill="none"
     stroke="#000000"
     stroke-width="1.89209"
     stroke-dasharray="none"
     d="m 531.26006,65.667389 a 3.0750209,3.0750209 0 0 0 3.07503,3.075027 h 47.19821 a 3.0750209,3.0750209 0 0 0 3.07503,-3.075027 V 18.469174 a 3.0750209,3.0750209 0 0 0 -3.07503,-3.075026 h -47.19821 a 3.0750209,3.0750209 0 0 0 -3.07503,3.075026 z"
     id="pin04"
     style="fill:#1c1f26;fill-opacity:1;stroke-width:2;stroke-dasharray:none" /><path
     fill="none"
     stroke="#000000"
     stroke-width="1.89209"
     stroke-dasharray="none"
     d="m 540.53876,161.18072 a 9.332333,9.332333 0 0 0 -18.66466,0 9.332333,9.332333 0 0 0 18.66466,0 z"
     id="pin12"
     style="fill:#1c1f26;fill-opacity:1;stroke-width:2;stroke-dasharray:none" /><path
     fill="none"
     stroke="#000000"
     stroke-width="1.89209"
     stroke-dasharray="none"
     d="m 463.14478,133.78267 a 3.0750209,3.0750209 0 0 0 3.07503,3.07503 h 47.19821 a 3.0750209,3.0750209 0 0 0 3.07503,-3.07503 V 86.584457 a 3.0750209,3.0750209 0 0 0 -3.07503,-3.075026 h -47.19821 a 3.0750209,3.0750209 0 0 0 -3.07503,3.075026 z"
     id="pin07"
     style="fill:#1c1f26;fill-opacity:1;stroke-width:2;stroke-dasharray:none" /><path
     fill="none"
     stroke="#000000"
     stroke-width="1.89209"
     stroke-dasharray="none"
     d="M 380.26227,99.720679 V 52.522464 a 3.0750209,3.0750209 0 0 0 -3.07501,-3.075027 h -47.19804 a 3.0750209,3.0750209 0 0 0 -3.07502,3.075027 v 47.198215 a 3.0750209,3.0750209 0 0 0 3.07502,3.075031 h 47.19803 a 3.0750209,3.0750209 0 0 0 3.07501,-3.075031 z"
     id="pin01"
     style="fill:#1c1f26;fill-opacity:1;stroke-width:2;stroke-dasharray:none" /><path
     fill="none"
     stroke="#000000"
     stroke-width="1.89209"
     stroke-dasharray="none"
     d="M 168.5086,32.636586 124.33679,16.005104 a 3.0750209,3.0750209 0 0 0 -3.96125,1.794459 L 103.7469,61.970432 a 3.0750209,3.0750209 0 0 0 1.79446,3.961282 l 44.17181,16.631482 a 3.0750209,3.0750209 0 0 0 3.96124,-1.794459 l 16.62864,-44.170869 a 3.0750209,3.0750209 0 0 0 -1.79445,-3.961282 z"
     id="pin29"
     style="fill:#1c1f26;fill-opacity:1;stroke-width:2;stroke-dasharray:none" /><path
     fill="none"
     stroke="#000000"
     stroke-width="1.89209"
     stroke-dasharray="none"
     d="M 80.762304,72.385259 36.590488,55.753777 a 3.0750209,3.0750209 0 0 0 -3.961244,1.79446 L 16.000601,101.71911 a 3.0750209,3.0750209 0 0 0 1.794459,3.96128 l 44.171815,16.63148 a 3.0750209,3.0750209 0 0 0 3.961235,-1.79446 L 82.556753,76.346541 a 3.0750209,3.0750209 0 0 0 -1.794449,-3.961282 z"
     id="pin28"
     style="display:inline;fill:#1c1f26;fill-opacity:1;stroke-width:2;stroke-dasharray:none" /><path
     fill="none"
     stroke="#000000"
     stroke-width="1.89209"
     stroke-dasharray="none"
     d="m 463.14478,65.667389 a 3.0750209,3.0750209 0 0 0 3.07503,3.075027 h 47.19821 a 3.0750209,3.0750209 0 0 0 3.07503,-3.075027 V 18.469174 a 3.0750209,3.0750209 0 0 0 -3.07503,-3.075026 h -47.19821 a 3.0750209,3.0750209 0 0 0 -3.07503,3.075026 z"
     id="pin03"
     style="fill:#1c1f26;fill-opacity:1;stroke-width:2;stroke-dasharray:none" /><path
     fill="none"
     stroke="#000000"
     stroke-width="1.89209"
     stroke-dasharray="none"
     d="M 448.37754,86.584647 A 3.0750209,3.0750209 0 0 0 445.30251,83.50962 H 398.1045 a 3.0750209,3.0750209 0 0 0 -3.07501,3.075027 v 47.198213 a 3.0750209,3.0750209 0 0 0 3.07501,3.07503 h 47.19803 a 3.0750209,3.0750209 0 0 0 3.07503,-3.07503 V 86.584647 Z"
     id="pin06"
     style="fill:#1c1f26;fill-opacity:1;stroke-width:2;stroke-dasharray:none" /><path
     fill="none"
     stroke="#000000"
     stroke-width="1.89209"
     stroke-dasharray="none"
     d="m 395.02948,18.464822 v 47.198215 a 3.0750209,3.0750209 0 0 0 3.07501,3.075027 h 47.19804 a 3.0750209,3.0750209 0 0 0 3.07503,-3.075027 V 18.464822 a 3.0750209,3.0750209 0 0 0 -3.07503,-3.075026 H 398.1045 a 3.0750209,3.0750209 0 0 0 -3.07501,3.075026 z"
     id="pin02"
     style="fill:#1c1f26;fill-opacity:1;stroke-width:2;stroke-dasharray:none" /><path
     fill="none"
     stroke="#000000"
     stroke-width="1.89209"
     stroke-dasharray="none"
     d="m 273.30913,60.232452 a 4.29073,4.29073 0 0 0 -8.58146,0 4.29073,4.29073 0 0 0 8.58146,0 z"
     id="board-led"
     style="display:inline;fill:#1c1f26;fill-opacity:1;stroke-width:2;stroke-dasharray:none" /><path
     fill="none"
     stroke="#000000"
     stroke-width="1.89209"
     stroke-dasharray="none"
     d="m 380.26225,120.64229 a 3.0750209,3.0750209 0 0 0 -3.07502,-3.07503 h -47.19801 a 3.0750209,3.0750209 0 0 0 -3.07502,3.07503 v 47.19821 a 3.0750209,3.0750209 0 0 0 3.07502,3.07503 h 47.19803 a 3.0750209,3.0750209 0 0 0 3.07501,-3.07503 v -47.19821 z"
     id="pin05"
     style="fill:#1c1f26;fill-opacity:1;stroke-width:2;stroke-dasharray:none" /><path
     fill="none"
     stroke="#000000"
     stroke-width="1.89209"
     stroke-dasharray="none"
     d="m 231.47456,154.68593 h 75.08773 a 5.3634078,5.3634078 0 0 0 5.36341,-5.36342 v -35.76052 a 5.3634078,5.3634078 0 0 0 -5.36341,-5.36342 h -75.08773 a 5.3634078,5.3634078 0 0 0 -5.36341,5.36342 v 35.76052 a 5.3634078,5.3634078 0 0 0 5.36341,5.36342 z"
     id="oled"
     style="fill:#000000;fill-opacity:1;stroke-width:2;stroke-dasharray:none"
     inkscape:label="oled" /><path
     fill="none"
     stroke="#000000"
     stroke-width="1.89209"
     stroke-dasharray="none"
     d="m 499.50869,161.18072 a 9.3323302,9.3323302 0 0 0 -18.66466,0 9.3323302,9.3323302 0 0 0 18.66466,0 z"
     id="pin11"
     style="fill:#1c1f26;fill-opacity:1;stroke-width:2;stroke-dasharray:none" /><path
     fill="none"
     stroke="#000000"
     stroke-width="1.89209"
     stroke-dasharray="none"
     d="m 261.15208,60.232452 a 8.223895,8.223895 0 0 0 -16.44779,0 8.223895,8.223895 0 0 0 16.44779,0 z"
     id="boot"
     style="fill:#1c1f26;fill-opacity:1;stroke-width:2;stroke-dasharray:none" /><path
     fill="none"
     stroke="#000000"
     stroke-width="1.89209"
     stroke-dasharray="none"
     d="m 293.33252,60.232452 a 8.2238926,8.2238926 0 0 0 -16.44778,0 8.2238926,8.2238926 0 0 0 16.44778,0 z"
     id="reset"
     style="fill:#1c1f26;fill-opacity:1;stroke-width:2;stroke-dasharray:none"
     inkscape:label="reset" /><path
     fill="none"
     stroke="#000000"
     d="m 277.50305,139.92698 a 11.999091,11.999091 0 1 0 0,-16.96927 l -16.96927,16.96908 a 11.9991,11.9991 0 1 1 0,-16.96928"
     id="path7"
     style="stroke:#d8dee9;stroke-width:2;stroke-linecap:round;stroke-dasharray:none;stroke-opacity:1" /></svg>
