<?xml version="1.0" encoding="UTF-8" standalone="no"?>
<svg
   width="55.82975mm"
   height="17.268799mm"
   viewBox="0 0 659.40579 203.9625"
   version="1.2"
   id="svg1060"
   sodipodi:docname="fightboard-v3-merged.svg"
   inkscape:version="1.4.4 (dcaf3e7d9e, 2026-05-05)"
   xmlns:inkscape="http://www.inkscape.org/namespaces/inkscape"
   xmlns:sodipodi="http://sodipodi.sourceforge.net/DTD/sodipodi-0.dtd"
   xmlns="http://www.w3.org/2000/svg"
   xmlns:svg="http://www.w3.org/2000/svg">
  <sodipodi:namedview
     id="namedview1060"
     pagecolor="#ffffff"
     bordercolor="#000000"
     borderopacity="0.25"
     inkscape:showpageshadow="2"
     inkscape:pageopacity="0.0"
     inkscape:pagecheckerboard="0"
     inkscape:deskcolor="#d1d1d1"
     inkscape:document-units="mm"
     inkscape:zoom="6.4352839"
     inkscape:cx="105.43435"
     inkscape:cy="-4.7394957"
     inkscape:window-width="2560"
     inkscape:window-height="1440"
     inkscape:window-x="0"
     inkscape:window-y="0"
     inkscape:window-maximized="0"
     inkscape:current-layer="svg1060" />
  <defs
     id="defs1" />
  <path
     fill="none"
     transform="translate(-1328.3921,-628.55926)"
     fill-opacity="1"
     fill-rule="evenodd"
     stroke="#000000"
     stroke-width="0.937501"
     stroke-linecap="round"
     stroke-linejoin="bevel"
     stroke-dasharray="none"
     stroke-opacity="1"
     d="M 1346.57,629.028 1969.62,629.028 1970.06,629.033 1970.49,629.049 1970.92,629.076 1971.36,629.113 1971.79,629.161 1972.22,629.22 1972.65,629.289 1973.08,629.368 1973.5,629.458 1973.92,629.559 1974.35,629.67 1974.76,629.791 1975.18,629.922 1975.59,630.063 1976,630.215 1976.4,630.376 1976.8,630.548 1977.19,630.729 1977.59,630.919 1977.97,631.12 1978.35,631.329 1978.73,631.548 1979.1,631.776 1979.46,632.013 1979.82,632.259 1980.17,632.514 1980.52,632.777 1980.86,633.049 1981.19,633.329 1981.52,633.617 1981.84,633.913 1982.15,634.216 1982.45,634.527 1982.75,634.846 1983.03,635.172 1983.31,635.504 1983.59,635.844 1983.85,636.19 1984.1,636.542 1984.35,636.901 1984.59,637.265 1984.81,637.635 1985.03,638.011 1985.24,638.392 1985.44,638.778 1985.63,639.168 1985.82,639.564 1985.99,639.963 1986.15,640.367 1986.3,640.774 1986.44,641.186 1986.57,641.6 1986.69,642.018 1986.8,642.438 1986.9,642.861 1986.99,643.286 1987.07,643.714 1987.14,644.143 1987.2,644.574 1987.25,645.006 1987.29,645.439 1987.31,645.873 1987.33,646.307 1987.33,646.742 1987.33,814.339 1987.33,814.774 1987.31,815.208 1987.29,815.642 1987.25,816.075 1987.2,816.507 1987.14,816.938 1987.07,817.367 1986.99,817.795 1986.9,818.22 1986.8,818.643 1986.69,819.064 1986.57,819.481 1986.44,819.896 1986.3,820.307 1986.15,820.714 1985.99,821.118 1985.82,821.518 1985.63,821.913 1985.44,822.304 1985.24,822.689 1985.03,823.07 1984.81,823.446 1984.59,823.816 1984.35,824.181 1984.1,824.539 1983.85,824.891 1983.59,825.237 1983.31,825.577 1983.03,825.909 1982.75,826.235 1982.45,826.554 1982.15,826.865 1981.84,827.168 1981.52,827.464 1981.19,827.752 1980.86,828.032 1980.52,828.304 1980.17,828.567 1979.82,828.822 1979.46,829.068 1979.1,829.305 1978.73,829.533 1978.35,829.752 1977.97,829.962 1977.59,830.162 1977.19,830.353 1976.8,830.534 1976.4,830.705 1976,830.866 1975.59,831.018 1975.18,831.159 1974.76,831.29 1974.35,831.412 1973.92,831.522 1973.5,831.623 1973.08,831.713 1972.65,831.792 1972.22,831.862 1971.79,831.92 1971.36,831.968 1970.92,832.005 1970.49,832.032 1970.06,832.048 1969.62,832.053 1346.57,832.053 1346.14,832.048 1345.7,832.032 1345.27,832.005 1344.84,831.968 1344.4,831.92 1343.97,831.862 1343.54,831.792 1343.12,831.713 1342.69,831.623 1342.27,831.522 1341.85,831.412 1341.43,831.29 1341.02,831.159 1340.6,831.018 1340.2,830.866 1339.79,830.705 1339.39,830.534 1339,830.353 1338.61,830.162 1338.22,829.962 1337.84,829.752 1337.47,829.533 1337.09,829.305 1336.73,829.068 1336.37,828.822 1336.02,828.567 1335.67,828.304 1335.33,828.032 1335,827.752 1334.68,827.464 1334.36,827.168 1334.05,826.865 1333.74,826.554 1333.45,826.235 1333.16,825.909 1332.88,825.577 1332.61,825.237 1332.34,824.891 1332.09,824.539 1331.84,824.181 1331.61,823.816 1331.38,823.446 1331.16,823.07 1330.95,822.689 1330.75,822.304 1330.56,821.913 1330.38,821.518 1330.21,821.118 1330.04,820.714 1329.89,820.307 1329.75,819.896 1329.62,819.481 1329.5,819.064 1329.39,818.643 1329.29,818.22 1329.2,817.795 1329.12,817.367 1329.05,816.938 1328.99,816.507 1328.94,816.075 1328.91,815.642 1328.88,815.208 1328.86,814.774 1328.86,814.339 1328.86,646.742 1328.86,646.307 1328.88,645.873 1328.91,645.439 1328.94,645.006 1328.99,644.574 1329.05,644.143 1329.12,643.714 1329.2,643.286 1329.29,642.861 1329.39,642.438 1329.5,642.018 1329.62,641.6 1329.75,641.186 1329.89,640.774 1330.04,640.367 1330.21,639.963 1330.38,639.564 1330.56,639.168 1330.75,638.778 1330.95,638.392 1331.16,638.011 1331.38,637.635 1331.61,637.265 1331.84,636.901 1332.09,636.542 1332.34,636.19 1332.61,635.844 1332.88,635.504 1333.16,635.172 1333.45,634.846 1333.74,634.527 1334.05,634.216 1334.36,633.913 1334.68,633.617 1335,633.329 1335.33,633.049 1335.67,632.777 1336.02,632.514 1336.37,632.259 1336.73,632.013 1337.09,631.776 1337.47,631.548 1337.84,631.329 1338.22,631.12 1338.61,630.919 1339,630.729 1339.39,630.548 1339.79,630.376 1340.2,630.215 1340.6,630.063 1341.02,629.922 1341.43,629.791 1341.85,629.67 1342.27,629.559 1342.69,629.458 1343.12,629.368 1343.54,629.289 1343.97,629.22 1344.4,629.161 1344.84,629.113 1345.27,629.076 1345.7,629.049 1346.14,629.033 Z"
     id="case"
     style="fill:#2b303b;fill-opacity:1" />
  <path
     fill="none"
     transform="translate(-1328.3921,-628.55925)"
     fill-opacity="1"
     fill-rule="evenodd"
     stroke="#000000"
     stroke-width="0.937501"
     stroke-linecap="round"
     stroke-linejoin="bevel"
     stroke-dasharray="none"
     stroke-opacity="1"
     d="M 1627.73,694.295 1627.72,694.136 1627.71,693.978 1627.7,693.82 1627.67,693.663 1627.64,693.507 1627.61,693.353 1627.56,693.2 1627.51,693.049 1627.46,692.901 1627.4,692.755 1627.33,692.612 1627.25,692.471 1627.17,692.334 1627.09,692.201 1626.99,692.071 1626.9,691.946 1626.79,691.824 1626.69,691.708 1626.58,691.595 1626.46,691.488 1626.34,691.386 1626.21,691.288 1626.08,691.197 1625.95,691.111 1625.81,691.03 1625.67,690.956 1625.53,690.887 1625.38,690.825 1625.23,690.769 1625.08,690.719 1624.93,690.676 1624.78,690.639 1624.62,690.609 1624.46,690.586 1624.3,690.569 1624.15,690.559 1623.99,690.555 1623.83,690.559 1623.67,690.569 1623.51,690.586 1623.36,690.609 1623.2,690.639 1623.05,690.676 1622.89,690.719 1622.74,690.769 1622.59,690.825 1622.45,690.887 1622.3,690.956 1622.16,691.03 1622.03,691.111 1621.89,691.197 1621.76,691.288 1621.64,691.386 1621.52,691.488 1621.4,691.595 1621.29,691.708 1621.18,691.824 1621.08,691.946 1620.98,692.071 1620.89,692.201 1620.8,692.334 1620.72,692.471 1620.65,692.612 1620.58,692.755 1620.52,692.901 1620.46,693.049 1620.41,693.2 1620.37,693.353 1620.33,693.507 1620.3,693.663 1620.28,693.82 1620.26,693.978 1620.25,694.136 1620.25,694.295 1620.25,694.454 1620.26,694.612 1620.28,694.77 1620.3,694.927 1620.33,695.083 1620.37,695.237 1620.41,695.39 1620.46,695.541 1620.52,695.69 1620.58,695.836 1620.65,695.979 1620.72,696.119 1620.8,696.256 1620.89,696.389 1620.98,696.519 1621.08,696.645 1621.18,696.766 1621.29,696.883 1621.4,696.995 1621.52,697.102 1621.64,697.205 1621.76,697.302 1621.89,697.394 1622.03,697.48 1622.16,697.56 1622.3,697.634 1622.45,697.703 1622.59,697.765 1622.74,697.821 1622.89,697.871 1623.05,697.914 1623.2,697.951 1623.36,697.981 1623.51,698.005 1623.67,698.021 1623.83,698.031 1623.99,698.035 1624.15,698.031 1624.3,698.021 1624.46,698.005 1624.62,697.981 1624.78,697.951 1624.93,697.914 1625.08,697.871 1625.23,697.821 1625.38,697.765 1625.53,697.703 1625.67,697.634 1625.81,697.56 1625.95,697.48 1626.08,697.394 1626.21,697.302 1626.34,697.205 1626.46,697.102 1626.58,696.995 1626.69,696.883 1626.79,696.766 1626.9,696.645 1626.99,696.519 1627.09,696.389 1627.17,696.256 1627.25,696.119 1627.33,695.979 1627.4,695.836 1627.46,695.69 1627.51,695.541 1627.56,695.39 1627.61,695.237 1627.64,695.083 1627.67,694.927 1627.7,694.77 1627.71,694.612 1627.72,694.454 Z"
     id="board_led"
     style="fill:#1c1f26;fill-opacity:1" />
  <path
     fill="none"
     transform="translate(-1328.3921,-628.55925)"
     fill-opacity="1"
     fill-rule="evenodd"
     stroke="#000000"
     stroke-width="0.937501"
     stroke-linecap="round"
     stroke-linejoin="bevel"
     stroke-dasharray="none"
     stroke-opacity="1"
     d="M 1903.78,805.433 1903.79,805.189 1903.8,804.945 1903.81,804.701 1903.84,804.458 1903.87,804.216 1903.9,803.975 1903.95,803.735 1904,803.496 1904.05,803.258 1904.12,803.023 1904.19,802.789 1904.26,802.557 1904.34,802.327 1904.43,802.1 1904.53,801.875 1904.63,801.653 1904.74,801.433 1904.85,801.217 1904.97,801.004 1905.09,800.794 1905.22,800.588 1905.36,800.386 1905.5,800.187 1905.65,799.992 1905.8,799.802 1905.96,799.616 1906.12,799.434 1906.29,799.257 1906.46,799.084 1906.64,798.916 1906.82,798.753 1907.01,798.596 1907.2,798.443 1907.39,798.296 1907.59,798.154 1907.8,798.018 1908,797.887 1908.21,797.762 1908.42,797.643 1908.64,797.53 1908.86,797.423 1909.08,797.321 1909.31,797.227 1909.53,797.138 1909.76,797.055 1910,796.979 1910.23,796.91 1910.47,796.847 1910.7,796.79 1910.94,796.74 1911.18,796.696 1911.42,796.659 1911.67,796.629 1911.91,796.606 1912.15,796.589 1912.4,796.579 1912.64,796.575 1912.88,796.579 1913.13,796.589 1913.37,796.606 1913.61,796.629 1913.86,796.659 1914.1,796.696 1914.34,796.74 1914.58,796.79 1914.81,796.847 1915.05,796.91 1915.28,796.979 1915.52,797.055 1915.75,797.138 1915.97,797.227 1916.2,797.321 1916.42,797.423 1916.64,797.53 1916.86,797.643 1917.07,797.762 1917.28,797.887 1917.48,798.018 1917.69,798.154 1917.89,798.296 1918.08,798.443 1918.27,798.596 1918.46,798.753 1918.64,798.916 1918.82,799.084 1918.99,799.257 1919.16,799.434 1919.32,799.616 1919.48,799.802 1919.63,799.992 1919.78,800.187 1919.92,800.386 1920.05,800.588 1920.19,800.794 1920.31,801.004 1920.43,801.217 1920.54,801.433 1920.65,801.653 1920.75,801.875 1920.85,802.1 1920.93,802.327 1921.02,802.557 1921.09,802.789 1921.16,803.023 1921.23,803.258 1921.28,803.496 1921.33,803.735 1921.38,803.975 1921.41,804.216 1921.44,804.458 1921.47,804.701 1921.48,804.945 1921.49,805.189 1921.5,805.433 1921.49,805.677 1921.48,805.921 1921.47,806.164 1921.44,806.407 1921.41,806.649 1921.38,806.89 1921.33,807.131 1921.28,807.37 1921.23,807.607 1921.16,807.843 1921.09,808.077 1921.02,808.309 1920.93,808.538 1920.85,808.766 1920.75,808.991 1920.65,809.213 1920.54,809.432 1920.43,809.648 1920.31,809.861 1920.19,810.071 1920.05,810.277 1919.92,810.48 1919.78,810.678 1919.63,810.873 1919.48,811.063 1919.32,811.25 1919.16,811.431 1918.99,811.609 1918.82,811.781 1918.64,811.949 1918.46,812.112 1918.27,812.27 1918.08,812.422 1917.89,812.569 1917.69,812.711 1917.48,812.848 1917.28,812.978 1917.07,813.103 1916.86,813.222 1916.64,813.335 1916.42,813.443 1916.2,813.544 1915.97,813.639 1915.75,813.727 1915.52,813.81 1915.28,813.886 1915.05,813.956 1914.81,814.019 1914.58,814.075 1914.34,814.125 1914.1,814.169 1913.86,814.206 1913.61,814.236 1913.37,814.26 1913.13,814.276 1912.88,814.286 1912.64,814.29 1912.4,814.286 1912.15,814.276 1911.91,814.26 1911.67,814.236 1911.42,814.206 1911.18,814.169 1910.94,814.125 1910.7,814.075 1910.47,814.019 1910.23,813.956 1910,813.886 1909.76,813.81 1909.53,813.727 1909.31,813.639 1909.08,813.544 1908.86,813.443 1908.64,813.335 1908.42,813.222 1908.21,813.103 1908,812.978 1907.8,812.848 1907.59,812.711 1907.39,812.569 1907.2,812.422 1907.01,812.27 1906.82,812.112 1906.64,811.949 1906.46,811.781 1906.29,811.609 1906.12,811.431 1905.96,811.25 1905.8,811.063 1905.65,810.873 1905.5,810.678 1905.36,810.48 1905.22,810.277 1905.09,810.071 1904.97,809.861 1904.85,809.648 1904.74,809.432 1904.63,809.213 1904.53,808.991 1904.43,808.766 1904.34,808.538 1904.26,808.309 1904.19,808.077 1904.12,807.843 1904.05,807.607 1904,807.37 1903.95,807.131 1903.9,806.89 1903.87,806.649 1903.84,806.407 1903.81,806.164 1903.8,805.921 1903.79,805.677 Z"
     id="pin12"
     style="fill:#1c1f26;fill-opacity:1" />
  <path
     fill="none"
     transform="translate(-1328.3921,-628.55925)"
     fill-opacity="1"
     fill-rule="evenodd"
     stroke="#000000"
     stroke-width="0.937501"
     stroke-linecap="round"
     stroke-linejoin="bevel"
     stroke-dasharray="none"
     stroke-opacity="1"
     d="M 1948.95,805.433 1948.96,805.189 1948.97,804.945 1948.98,804.701 1949.01,804.458 1949.04,804.216 1949.07,803.975 1949.12,803.735 1949.17,803.496 1949.22,803.258 1949.29,803.023 1949.36,802.789 1949.43,802.557 1949.52,802.327 1949.6,802.1 1949.7,801.875 1949.8,801.653 1949.91,801.433 1950.02,801.217 1950.14,801.004 1950.27,800.794 1950.4,800.588 1950.53,800.386 1950.67,800.187 1950.82,799.992 1950.97,799.802 1951.13,799.616 1951.29,799.434 1951.46,799.257 1951.63,799.084 1951.81,798.916 1951.99,798.753 1952.18,798.596 1952.37,798.443 1952.57,798.296 1952.76,798.154 1952.97,798.018 1953.17,797.887 1953.38,797.762 1953.6,797.643 1953.81,797.53 1954.03,797.423 1954.25,797.321 1954.48,797.227 1954.71,797.138 1954.94,797.055 1955.17,796.979 1955.4,796.91 1955.64,796.847 1955.87,796.79 1956.11,796.74 1956.35,796.696 1956.59,796.659 1956.84,796.629 1957.08,796.606 1957.32,796.589 1957.57,796.579 1957.81,796.575 1958.06,796.579 1958.3,796.589 1958.54,796.606 1958.79,796.629 1959.03,796.659 1959.27,796.696 1959.51,796.74 1959.75,796.79 1959.99,796.847 1960.22,796.91 1960.45,796.979 1960.69,797.055 1960.92,797.138 1961.14,797.227 1961.37,797.321 1961.59,797.423 1961.81,797.53 1962.03,797.643 1962.24,797.762 1962.45,797.887 1962.66,798.018 1962.86,798.154 1963.06,798.296 1963.25,798.443 1963.44,798.596 1963.63,798.753 1963.81,798.916 1963.99,799.084 1964.16,799.257 1964.33,799.434 1964.49,799.616 1964.65,799.802 1964.8,799.992 1964.95,800.187 1965.09,800.386 1965.23,800.588 1965.36,800.794 1965.48,801.004 1965.6,801.217 1965.71,801.433 1965.82,801.653 1965.92,801.875 1966.02,802.1 1966.11,802.327 1966.19,802.557 1966.26,802.789 1966.33,803.023 1966.4,803.258 1966.45,803.496 1966.5,803.735 1966.55,803.975 1966.58,804.216 1966.61,804.458 1966.64,804.701 1966.65,804.945 1966.66,805.189 1966.67,805.433 1966.66,805.677 1966.65,805.921 1966.64,806.164 1966.61,806.407 1966.58,806.649 1966.55,806.89 1966.5,807.131 1966.45,807.37 1966.4,807.607 1966.33,807.843 1966.26,808.077 1966.19,808.309 1966.11,808.538 1966.02,808.766 1965.92,808.991 1965.82,809.213 1965.71,809.432 1965.6,809.648 1965.48,809.861 1965.36,810.071 1965.23,810.277 1965.09,810.48 1964.95,810.678 1964.8,810.873 1964.65,811.063 1964.49,811.25 1964.33,811.431 1964.16,811.609 1963.99,811.781 1963.81,811.949 1963.63,812.112 1963.44,812.27 1963.25,812.422 1963.06,812.569 1962.86,812.711 1962.66,812.848 1962.45,812.978 1962.24,813.103 1962.03,813.222 1961.81,813.335 1961.59,813.443 1961.37,813.544 1961.14,813.639 1960.92,813.727 1960.69,813.81 1960.45,813.886 1960.22,813.956 1959.99,814.019 1959.75,814.075 1959.51,814.125 1959.27,814.169 1959.03,814.206 1958.79,814.236 1958.54,814.26 1958.3,814.276 1958.06,814.286 1957.81,814.29 1957.57,814.286 1957.32,814.276 1957.08,814.26 1956.84,814.236 1956.59,814.206 1956.35,814.169 1956.11,814.125 1955.87,814.075 1955.64,814.019 1955.4,813.956 1955.17,813.886 1954.94,813.81 1954.71,813.727 1954.48,813.639 1954.25,813.544 1954.03,813.443 1953.81,813.335 1953.6,813.222 1953.38,813.103 1953.17,812.978 1952.97,812.848 1952.76,812.711 1952.57,812.569 1952.37,812.422 1952.18,812.27 1951.99,812.112 1951.81,811.949 1951.63,811.781 1951.46,811.609 1951.29,811.431 1951.13,811.25 1950.97,811.063 1950.82,810.873 1950.67,810.678 1950.53,810.48 1950.4,810.277 1950.27,810.071 1950.14,809.861 1950.02,809.648 1949.91,809.432 1949.8,809.213 1949.7,808.991 1949.6,808.766 1949.52,808.538 1949.43,808.309 1949.36,808.077 1949.29,807.843 1949.22,807.607 1949.17,807.37 1949.12,807.131 1949.07,806.89 1949.04,806.649 1949.01,806.407 1948.98,806.164 1948.97,805.921 1948.96,805.677 Z"
     id="pin13"
     style="fill:#1c1f26;fill-opacity:1" />
  <path
     fill="none"
     transform="translate(-1328.3921,-628.55925)"
     fill-opacity="1"
     fill-rule="evenodd"
     stroke="#000000"
     stroke-width="0.937501"
     stroke-linecap="round"
     stroke-linejoin="bevel"
     stroke-dasharray="none"
     stroke-opacity="1"
     d="M 1768.27,805.433 1768.27,805.189 1768.28,804.945 1768.3,804.701 1768.32,804.458 1768.35,804.216 1768.39,803.975 1768.43,803.735 1768.48,803.496 1768.54,803.258 1768.6,803.023 1768.67,802.789 1768.75,802.557 1768.83,802.327 1768.92,802.1 1769.01,801.875 1769.12,801.653 1769.22,801.433 1769.34,801.217 1769.45,801.004 1769.58,800.794 1769.71,800.588 1769.85,800.386 1769.99,800.187 1770.14,799.992 1770.29,799.802 1770.45,799.616 1770.61,799.434 1770.78,799.257 1770.95,799.084 1771.13,798.916 1771.31,798.753 1771.49,798.596 1771.69,798.443 1771.88,798.296 1772.08,798.154 1772.28,798.018 1772.49,797.887 1772.7,797.762 1772.91,797.643 1773.13,797.53 1773.35,797.423 1773.57,797.321 1773.79,797.227 1774.02,797.138 1774.25,797.055 1774.48,796.979 1774.72,796.91 1774.95,796.847 1775.19,796.79 1775.43,796.74 1775.67,796.696 1775.91,796.659 1776.15,796.629 1776.39,796.606 1776.64,796.589 1776.88,796.579 1777.13,796.575 1777.37,796.579 1777.61,796.589 1777.86,796.606 1778.1,796.629 1778.34,796.659 1778.58,796.696 1778.82,796.74 1779.06,796.79 1779.3,796.847 1779.54,796.91 1779.77,796.979 1780,797.055 1780.23,797.138 1780.46,797.227 1780.68,797.321 1780.91,797.423 1781.12,797.53 1781.34,797.643 1781.55,797.762 1781.76,797.887 1781.97,798.018 1782.17,798.154 1782.37,798.296 1782.57,798.443 1782.76,798.596 1782.94,798.753 1783.12,798.916 1783.3,799.084 1783.47,799.257 1783.64,799.434 1783.8,799.616 1783.96,799.802 1784.11,799.992 1784.26,800.187 1784.4,800.386 1784.54,800.588 1784.67,800.794 1784.8,801.004 1784.91,801.217 1785.03,801.433 1785.14,801.653 1785.24,801.875 1785.33,802.1 1785.42,802.327 1785.5,802.557 1785.58,802.789 1785.65,803.023 1785.71,803.258 1785.77,803.496 1785.82,803.735 1785.86,803.975 1785.9,804.216 1785.93,804.458 1785.95,804.701 1785.97,804.945 1785.98,805.189 1785.98,805.433 1785.98,805.677 1785.97,805.921 1785.95,806.164 1785.93,806.407 1785.9,806.649 1785.86,806.89 1785.82,807.131 1785.77,807.37 1785.71,807.607 1785.65,807.843 1785.58,808.077 1785.5,808.309 1785.42,808.538 1785.33,808.766 1785.24,808.991 1785.14,809.213 1785.03,809.432 1784.91,809.648 1784.8,809.861 1784.67,810.071 1784.54,810.277 1784.4,810.48 1784.26,810.678 1784.11,810.873 1783.96,811.063 1783.8,811.25 1783.64,811.431 1783.47,811.609 1783.3,811.781 1783.12,811.949 1782.94,812.112 1782.76,812.27 1782.57,812.422 1782.37,812.569 1782.17,812.711 1781.97,812.848 1781.76,812.978 1781.55,813.103 1781.34,813.222 1781.12,813.335 1780.91,813.443 1780.68,813.544 1780.46,813.639 1780.23,813.727 1780,813.81 1779.77,813.886 1779.54,813.956 1779.3,814.019 1779.06,814.075 1778.82,814.125 1778.58,814.169 1778.34,814.206 1778.1,814.236 1777.86,814.26 1777.61,814.276 1777.37,814.286 1777.13,814.29 1776.88,814.286 1776.64,814.276 1776.39,814.26 1776.15,814.236 1775.91,814.206 1775.67,814.169 1775.43,814.125 1775.19,814.075 1774.95,814.019 1774.72,813.956 1774.48,813.886 1774.25,813.81 1774.02,813.727 1773.79,813.639 1773.57,813.544 1773.35,813.443 1773.13,813.335 1772.91,813.222 1772.7,813.103 1772.49,812.978 1772.28,812.848 1772.08,812.711 1771.88,812.569 1771.69,812.422 1771.49,812.27 1771.31,812.112 1771.13,811.949 1770.95,811.781 1770.78,811.609 1770.61,811.431 1770.45,811.25 1770.29,811.063 1770.14,810.873 1769.99,810.678 1769.85,810.48 1769.71,810.277 1769.58,810.071 1769.45,809.861 1769.34,809.648 1769.22,809.432 1769.12,809.213 1769.01,808.991 1768.92,808.766 1768.83,808.538 1768.75,808.309 1768.67,808.077 1768.6,807.843 1768.54,807.607 1768.48,807.37 1768.43,807.131 1768.39,806.89 1768.35,806.649 1768.32,806.407 1768.3,806.164 1768.28,805.921 1768.27,805.677 Z"
     id="pin09"
     style="fill:#1c1f26;fill-opacity:1" />
  <path
     fill="none"
     transform="translate(-1328.3921,-628.55925)"
     fill-opacity="1"
     fill-rule="evenodd"
     stroke="#000000"
     stroke-width="0.937501"
     stroke-linecap="round"
     stroke-linejoin="bevel"
     stroke-dasharray="none"
     stroke-opacity="1"
     d="M 1634.42,694.295 1634.42,694.074 1634.43,693.853 1634.45,693.633 1634.47,693.413 1634.5,693.194 1634.54,692.976 1634.58,692.759 1634.63,692.544 1634.69,692.33 1634.75,692.118 1634.82,691.909 1634.9,691.701 1634.98,691.496 1635.07,691.293 1635.16,691.093 1635.26,690.896 1635.37,690.702 1635.48,690.511 1635.6,690.324 1635.72,690.141 1635.85,689.961 1635.98,689.786 1636.12,689.614 1636.27,689.447 1636.42,689.284 1636.57,689.126 1636.73,688.973 1636.9,688.824 1637.06,688.681 1637.24,688.543 1637.41,688.41 1637.59,688.283 1637.78,688.161 1637.97,688.044 1638.16,687.934 1638.35,687.829 1638.55,687.73 1638.75,687.638 1638.95,687.551 1639.16,687.471 1639.37,687.397 1639.58,687.329 1639.79,687.268 1640,687.213 1640.22,687.165 1640.44,687.123 1640.66,687.088 1640.87,687.06 1641.09,687.038 1641.32,687.023 1641.54,687.015 1641.76,687.013 1641.98,687.018 1642.2,687.03 1642.42,687.048 1642.64,687.073 1642.86,687.105 1643.08,687.143 1643.29,687.188 1643.51,687.24 1643.72,687.298 1643.93,687.362 1644.14,687.433 1644.35,687.51 1644.55,687.594 1644.75,687.683 1644.95,687.779 1645.15,687.881 1645.34,687.988 1645.53,688.102 1645.72,688.221 1645.9,688.346 1646.08,688.476 1646.25,688.611 1646.43,688.752 1646.59,688.898 1646.75,689.049 1646.91,689.205 1647.06,689.365 1647.21,689.53 1647.35,689.699 1647.49,689.873 1647.62,690.05 1647.75,690.232 1647.87,690.417 1647.98,690.606 1648.09,690.798 1648.19,690.994 1648.29,691.192 1648.38,691.394 1648.47,691.598 1648.55,691.804 1648.62,692.013 1648.68,692.224 1648.74,692.437 1648.8,692.652 1648.84,692.868 1648.88,693.085 1648.92,693.304 1648.94,693.523 1648.96,693.743 1648.98,693.964 1648.98,694.185 1648.98,694.406 1648.98,694.627 1648.96,694.847 1648.94,695.067 1648.92,695.287 1648.88,695.505 1648.84,695.723 1648.8,695.939 1648.74,696.153 1648.68,696.366 1648.62,696.577 1648.55,696.786 1648.47,696.992 1648.38,697.197 1648.29,697.398 1648.19,697.596 1648.09,697.792 1647.98,697.984 1647.87,698.173 1647.75,698.358 1647.62,698.54 1647.49,698.718 1647.35,698.891 1647.21,699.06 1647.06,699.225 1646.91,699.386 1646.75,699.541 1646.59,699.692 1646.43,699.838 1646.25,699.979 1646.08,700.115 1645.9,700.245 1645.72,700.37 1645.53,700.489 1645.34,700.602 1645.15,700.71 1644.95,700.811 1644.75,700.907 1644.55,700.997 1644.35,701.08 1644.14,701.157 1643.93,701.228 1643.72,701.293 1643.51,701.351 1643.29,701.402 1643.08,701.447 1642.86,701.485 1642.64,701.517 1642.42,701.542 1642.2,701.561 1641.98,701.572 1641.76,701.577 1641.54,701.576 1641.32,701.567 1641.09,701.552 1640.87,701.531 1640.66,701.502 1640.44,701.467 1640.22,701.425 1640,701.377 1639.79,701.322 1639.58,701.261 1639.37,701.193 1639.16,701.119 1638.95,701.039 1638.75,700.953 1638.55,700.86 1638.35,700.761 1638.16,700.657 1637.97,700.546 1637.78,700.43 1637.59,700.308 1637.41,700.18 1637.24,700.047 1637.06,699.909 1636.9,699.766 1636.73,699.618 1636.57,699.464 1636.42,699.306 1636.27,699.143 1636.12,698.976 1635.98,698.805 1635.85,698.629 1635.72,698.45 1635.6,698.266 1635.48,698.079 1635.37,697.888 1635.26,697.695 1635.16,697.498 1635.07,697.298 1634.98,697.095 1634.9,696.89 1634.82,696.682 1634.75,696.472 1634.69,696.26 1634.63,696.046 1634.58,695.831 1634.54,695.614 1634.5,695.396 1634.47,695.177 1634.45,694.957 1634.43,694.737 1634.42,694.516 Z"
     id="reset"
     style="fill:#1c1f26;fill-opacity:1" />
  <path
     fill="none"
     transform="translate(-1328.3921,-628.55925)"
     fill-opacity="1"
     fill-rule="evenodd"
     stroke="#000000"
     stroke-width="0.937501"
     stroke-linecap="round"
     stroke-linejoin="bevel"
     stroke-dasharray="none"
     stroke-opacity="1"
     d="M 1858.61,805.433 1858.61,805.189 1858.62,804.945 1858.64,804.701 1858.66,804.458 1858.69,804.216 1858.73,803.975 1858.78,803.735 1858.83,803.496 1858.88,803.258 1858.95,803.023 1859.01,802.789 1859.09,802.557 1859.17,802.327 1859.26,802.1 1859.36,801.875 1859.46,801.653 1859.57,801.433 1859.68,801.217 1859.8,801.004 1859.92,800.794 1860.05,800.588 1860.19,800.386 1860.33,800.187 1860.48,799.992 1860.63,799.802 1860.79,799.616 1860.95,799.434 1861.12,799.257 1861.29,799.084 1861.47,798.916 1861.65,798.753 1861.84,798.596 1862.03,798.443 1862.22,798.296 1862.42,798.154 1862.62,798.018 1862.83,797.887 1863.04,797.762 1863.25,797.643 1863.47,797.53 1863.69,797.423 1863.91,797.321 1864.14,797.227 1864.36,797.138 1864.59,797.055 1864.82,796.979 1865.06,796.91 1865.29,796.847 1865.53,796.79 1865.77,796.74 1866.01,796.696 1866.25,796.659 1866.49,796.629 1866.74,796.606 1866.98,796.589 1867.22,796.579 1867.47,796.575 1867.71,796.579 1867.96,796.589 1868.2,796.606 1868.44,796.629 1868.68,796.659 1868.93,796.696 1869.17,796.74 1869.41,796.79 1869.64,796.847 1869.88,796.91 1870.11,796.979 1870.34,797.055 1870.57,797.138 1870.8,797.227 1871.03,797.321 1871.25,797.423 1871.47,797.53 1871.68,797.643 1871.9,797.762 1872.11,797.887 1872.31,798.018 1872.52,798.154 1872.71,798.296 1872.91,798.443 1873.1,798.596 1873.29,798.753 1873.47,798.916 1873.64,799.084 1873.82,799.257 1873.98,799.434 1874.15,799.616 1874.31,799.802 1874.46,799.992 1874.6,800.187 1874.75,800.386 1874.88,800.588 1875.01,800.794 1875.14,801.004 1875.26,801.217 1875.37,801.433 1875.48,801.653 1875.58,801.875 1875.67,802.1 1875.76,802.327 1875.85,802.557 1875.92,802.789 1875.99,803.023 1876.05,803.258 1876.11,803.496 1876.16,803.735 1876.2,803.975 1876.24,804.216 1876.27,804.458 1876.3,804.701 1876.31,804.945 1876.32,805.189 1876.33,805.433 1876.32,805.677 1876.31,805.921 1876.3,806.164 1876.27,806.407 1876.24,806.649 1876.2,806.89 1876.16,807.131 1876.11,807.37 1876.05,807.607 1875.99,807.843 1875.92,808.077 1875.85,808.309 1875.76,808.538 1875.67,808.766 1875.58,808.991 1875.48,809.213 1875.37,809.432 1875.26,809.648 1875.14,809.861 1875.01,810.071 1874.88,810.277 1874.75,810.48 1874.6,810.678 1874.46,810.873 1874.31,811.063 1874.15,811.25 1873.98,811.431 1873.82,811.609 1873.64,811.781 1873.47,811.949 1873.29,812.112 1873.1,812.27 1872.91,812.422 1872.71,812.569 1872.52,812.711 1872.31,812.848 1872.11,812.978 1871.9,813.103 1871.68,813.222 1871.47,813.335 1871.25,813.443 1871.03,813.544 1870.8,813.639 1870.57,813.727 1870.34,813.81 1870.11,813.886 1869.88,813.956 1869.64,814.019 1869.41,814.075 1869.17,814.125 1868.93,814.169 1868.68,814.206 1868.44,814.236 1868.2,814.26 1867.96,814.276 1867.71,814.286 1867.47,814.29 1867.22,814.286 1866.98,814.276 1866.74,814.26 1866.49,814.236 1866.25,814.206 1866.01,814.169 1865.77,814.125 1865.53,814.075 1865.29,814.019 1865.06,813.956 1864.82,813.886 1864.59,813.81 1864.36,813.727 1864.14,813.639 1863.91,813.544 1863.69,813.443 1863.47,813.335 1863.25,813.222 1863.04,813.103 1862.83,812.978 1862.62,812.848 1862.42,812.711 1862.22,812.569 1862.03,812.422 1861.84,812.27 1861.65,812.112 1861.47,811.949 1861.29,811.781 1861.12,811.609 1860.95,811.431 1860.79,811.25 1860.63,811.063 1860.48,810.873 1860.33,810.678 1860.19,810.48 1860.05,810.277 1859.92,810.071 1859.8,809.861 1859.68,809.648 1859.57,809.432 1859.46,809.213 1859.36,808.991 1859.26,808.766 1859.17,808.538 1859.09,808.309 1859.01,808.077 1858.95,807.843 1858.88,807.607 1858.83,807.37 1858.78,807.131 1858.73,806.89 1858.69,806.649 1858.66,806.407 1858.64,806.164 1858.62,805.921 1858.61,805.677 Z"
     id="pin11"
     style="fill:#1c1f26;fill-opacity:1" />
  <path
     fill="none"
     transform="translate(-1328.3921,-628.55925)"
     fill-opacity="1"
     fill-rule="evenodd"
     stroke="#000000"
     stroke-width="0.937501"
     stroke-linecap="round"
     stroke-linejoin="bevel"
     stroke-dasharray="none"
     stroke-opacity="1"
     d="M 1613.56,694.295 1613.55,694.074 1613.54,693.853 1613.53,693.633 1613.5,693.413 1613.47,693.194 1613.44,692.976 1613.39,692.759 1613.34,692.544 1613.29,692.33 1613.22,692.118 1613.15,691.909 1613.08,691.701 1613,691.496 1612.91,691.293 1612.81,691.093 1612.71,690.896 1612.61,690.702 1612.5,690.511 1612.38,690.324 1612.25,690.141 1612.13,689.961 1611.99,689.786 1611.85,689.614 1611.71,689.447 1611.56,689.284 1611.4,689.126 1611.24,688.973 1611.08,688.824 1610.91,688.681 1610.74,688.543 1610.56,688.41 1610.38,688.283 1610.2,688.161 1610.01,688.044 1609.82,687.934 1609.62,687.829 1609.43,687.73 1609.23,687.638 1609.02,687.551 1608.82,687.471 1608.61,687.397 1608.4,687.329 1608.18,687.268 1607.97,687.213 1607.76,687.165 1607.54,687.123 1607.32,687.088 1607.1,687.06 1606.88,687.038 1606.66,687.023 1606.44,687.015 1606.22,687.013 1606,687.018 1605.78,687.03 1605.56,687.048 1605.34,687.073 1605.12,687.105 1604.9,687.143 1604.68,687.188 1604.47,687.24 1604.26,687.298 1604.04,687.362 1603.83,687.433 1603.63,687.51 1603.42,687.594 1603.22,687.683 1603.02,687.779 1602.83,687.881 1602.63,687.988 1602.44,688.102 1602.26,688.221 1602.07,688.346 1601.9,688.476 1601.72,688.611 1601.55,688.752 1601.38,688.898 1601.22,689.049 1601.07,689.205 1600.91,689.365 1600.77,689.53 1600.62,689.699 1600.49,689.873 1600.36,690.05 1600.23,690.232 1600.11,690.417 1599.99,690.606 1599.89,690.798 1599.78,690.994 1599.68,691.192 1599.59,691.394 1599.51,691.598 1599.43,691.804 1599.36,692.013 1599.29,692.224 1599.23,692.437 1599.18,692.652 1599.13,692.868 1599.09,693.085 1599.06,693.304 1599.03,693.523 1599.01,693.743 1599,693.964 1598.99,694.185 1598.99,694.406 1599,694.627 1599.01,694.847 1599.03,695.067 1599.06,695.287 1599.09,695.505 1599.13,695.723 1599.18,695.939 1599.23,696.153 1599.29,696.366 1599.36,696.577 1599.43,696.786 1599.51,696.992 1599.59,697.197 1599.68,697.398 1599.78,697.596 1599.89,697.792 1599.99,697.984 1600.11,698.173 1600.23,698.358 1600.36,698.54 1600.49,698.718 1600.62,698.891 1600.77,699.06 1600.91,699.225 1601.07,699.386 1601.22,699.541 1601.38,699.692 1601.55,699.838 1601.72,699.979 1601.9,700.115 1602.07,700.245 1602.26,700.37 1602.44,700.489 1602.63,700.602 1602.83,700.71 1603.02,700.811 1603.22,700.907 1603.42,700.997 1603.63,701.08 1603.83,701.157 1604.04,701.228 1604.26,701.293 1604.47,701.351 1604.68,701.402 1604.9,701.447 1605.12,701.485 1605.34,701.517 1605.56,701.542 1605.78,701.561 1606,701.572 1606.22,701.577 1606.44,701.576 1606.66,701.567 1606.88,701.552 1607.1,701.531 1607.32,701.502 1607.54,701.467 1607.76,701.425 1607.97,701.377 1608.18,701.322 1608.4,701.261 1608.61,701.193 1608.82,701.119 1609.02,701.039 1609.23,700.953 1609.43,700.86 1609.62,700.761 1609.82,700.657 1610.01,700.546 1610.2,700.43 1610.38,700.308 1610.56,700.18 1610.74,700.047 1610.91,699.909 1611.08,699.766 1611.24,699.618 1611.4,699.464 1611.56,699.306 1611.71,699.143 1611.85,698.976 1611.99,698.805 1612.13,698.629 1612.25,698.45 1612.38,698.266 1612.5,698.079 1612.61,697.888 1612.71,697.695 1612.81,697.498 1612.91,697.298 1613,697.095 1613.08,696.89 1613.15,696.682 1613.22,696.472 1613.29,696.26 1613.34,696.046 1613.39,695.831 1613.44,695.614 1613.47,695.396 1613.5,695.177 1613.53,694.957 1613.54,694.737 1613.55,694.516 Z"
     id="boot"
     style="fill:#1c1f26;fill-opacity:1" />
  <path
     fill="none"
     transform="translate(-1328.3921,-628.55925)"
     fill-opacity="1"
     fill-rule="evenodd"
     stroke="#000000"
     stroke-width="0.937501"
     stroke-linecap="round"
     stroke-linejoin="bevel"
     stroke-dasharray="none"
     stroke-opacity="1"
     d="M 1813.44,805.433 1813.44,805.189 1813.45,804.945 1813.47,804.701 1813.49,804.458 1813.52,804.216 1813.56,803.975 1813.6,803.735 1813.65,803.496 1813.71,803.258 1813.77,803.023 1813.84,802.789 1813.92,802.557 1814,802.327 1814.09,802.1 1814.19,801.875 1814.29,801.653 1814.39,801.433 1814.51,801.217 1814.63,801.004 1814.75,800.794 1814.88,800.588 1815.02,800.386 1815.16,800.187 1815.31,799.992 1815.46,799.802 1815.62,799.616 1815.78,799.434 1815.95,799.257 1816.12,799.084 1816.3,798.916 1816.48,798.753 1816.67,798.596 1816.86,798.443 1817.05,798.296 1817.25,798.154 1817.45,798.018 1817.66,797.887 1817.87,797.762 1818.08,797.643 1818.3,797.53 1818.52,797.423 1818.74,797.321 1818.96,797.227 1819.19,797.138 1819.42,797.055 1819.65,796.979 1819.89,796.91 1820.12,796.847 1820.36,796.79 1820.6,796.74 1820.84,796.696 1821.08,796.659 1821.32,796.629 1821.57,796.606 1821.81,796.589 1822.05,796.579 1822.3,796.575 1822.54,796.579 1822.78,796.589 1823.03,796.606 1823.27,796.629 1823.51,796.659 1823.75,796.696 1823.99,796.74 1824.23,796.79 1824.47,796.847 1824.71,796.91 1824.94,796.979 1825.17,797.055 1825.4,797.138 1825.63,797.227 1825.85,797.321 1826.08,797.423 1826.3,797.53 1826.51,797.643 1826.73,797.762 1826.93,797.887 1827.14,798.018 1827.34,798.154 1827.54,798.296 1827.74,798.443 1827.93,798.596 1828.11,798.753 1828.3,798.916 1828.47,799.084 1828.65,799.257 1828.81,799.434 1828.98,799.616 1829.13,799.802 1829.29,799.992 1829.43,800.187 1829.58,800.386 1829.71,800.588 1829.84,800.794 1829.97,801.004 1830.09,801.217 1830.2,801.433 1830.31,801.653 1830.41,801.875 1830.5,802.1 1830.59,802.327 1830.67,802.557 1830.75,802.789 1830.82,803.023 1830.88,803.258 1830.94,803.496 1830.99,803.735 1831.03,803.975 1831.07,804.216 1831.1,804.458 1831.12,804.701 1831.14,804.945 1831.15,805.189 1831.15,805.433 1831.15,805.677 1831.14,805.921 1831.12,806.164 1831.1,806.407 1831.07,806.649 1831.03,806.89 1830.99,807.131 1830.94,807.37 1830.88,807.607 1830.82,807.843 1830.75,808.077 1830.67,808.309 1830.59,808.538 1830.5,808.766 1830.41,808.991 1830.31,809.213 1830.2,809.432 1830.09,809.648 1829.97,809.861 1829.84,810.071 1829.71,810.277 1829.58,810.48 1829.43,810.678 1829.29,810.873 1829.13,811.063 1828.98,811.25 1828.81,811.431 1828.65,811.609 1828.47,811.781 1828.3,811.949 1828.11,812.112 1827.93,812.27 1827.74,812.422 1827.54,812.569 1827.34,812.711 1827.14,812.848 1826.93,812.978 1826.73,813.103 1826.51,813.222 1826.3,813.335 1826.08,813.443 1825.85,813.544 1825.63,813.639 1825.4,813.727 1825.17,813.81 1824.94,813.886 1824.71,813.956 1824.47,814.019 1824.23,814.075 1823.99,814.125 1823.75,814.169 1823.51,814.206 1823.27,814.236 1823.03,814.26 1822.78,814.276 1822.54,814.286 1822.3,814.29 1822.05,814.286 1821.81,814.276 1821.57,814.26 1821.32,814.236 1821.08,814.206 1820.84,814.169 1820.6,814.125 1820.36,814.075 1820.12,814.019 1819.89,813.956 1819.65,813.886 1819.42,813.81 1819.19,813.727 1818.96,813.639 1818.74,813.544 1818.52,813.443 1818.3,813.335 1818.08,813.222 1817.87,813.103 1817.66,812.978 1817.45,812.848 1817.25,812.711 1817.05,812.569 1816.86,812.422 1816.67,812.27 1816.48,812.112 1816.3,811.949 1816.12,811.781 1815.95,811.609 1815.78,811.431 1815.62,811.25 1815.46,811.063 1815.31,810.873 1815.16,810.678 1815.02,810.48 1814.88,810.277 1814.75,810.071 1814.63,809.861 1814.51,809.648 1814.39,809.432 1814.29,809.213 1814.19,808.991 1814.09,808.766 1814,808.538 1813.92,808.309 1813.84,808.077 1813.77,807.843 1813.71,807.607 1813.65,807.37 1813.6,807.131 1813.56,806.89 1813.52,806.649 1813.49,806.407 1813.47,806.164 1813.45,805.921 1813.44,805.677 Z"
     id="pin10"
     style="fill:#1c1f26;fill-opacity:1" />
  <path
     fill="none"
     transform="translate(-1328.3921,-628.55925)"
     fill-opacity="1"
     fill-rule="evenodd"
     stroke="#000000"
     stroke-width="0.937501"
     stroke-linecap="round"
     stroke-linejoin="bevel"
     stroke-dasharray="none"
     stroke-opacity="1"
     d="M 1762.72,648.317 1762.72,700.279 1762.72,700.426 1762.73,700.574 1762.75,700.721 1762.77,700.867 1762.8,701.011 1762.83,701.155 1762.87,701.297 1762.92,701.437 1762.98,701.574 1763.03,701.709 1763.1,701.842 1763.17,701.971 1763.25,702.098 1763.33,702.22 1763.42,702.34 1763.51,702.455 1763.61,702.566 1763.71,702.672 1763.82,702.775 1763.93,702.872 1764.04,702.964 1764.16,703.052 1764.28,703.134 1764.41,703.211 1764.54,703.282 1764.67,703.347 1764.81,703.406 1764.95,703.46 1765.09,703.507 1765.23,703.549 1765.37,703.584 1765.52,703.613 1765.66,703.635 1765.81,703.651 1765.96,703.661 1766.1,703.664 1818.06,703.664 1818.21,703.661 1818.36,703.651 1818.51,703.635 1818.65,703.613 1818.8,703.584 1818.94,703.549 1819.08,703.507 1819.22,703.46 1819.36,703.406 1819.5,703.347 1819.63,703.282 1819.76,703.211 1819.88,703.134 1820.01,703.052 1820.13,702.964 1820.24,702.872 1820.35,702.775 1820.46,702.672 1820.56,702.566 1820.66,702.455 1820.75,702.34 1820.84,702.22 1820.92,702.098 1821,701.971 1821.07,701.842 1821.13,701.709 1821.19,701.574 1821.25,701.437 1821.29,701.297 1821.33,701.155 1821.37,701.011 1821.4,700.867 1821.42,700.721 1821.44,700.574 1821.45,700.426 1821.45,700.279 1821.45,648.317 1821.45,648.169 1821.44,648.022 1821.42,647.875 1821.4,647.729 1821.37,647.584 1821.33,647.441 1821.29,647.299 1821.25,647.159 1821.19,647.021 1821.13,646.886 1821.07,646.754 1821,646.624 1820.92,646.498 1820.84,646.375 1820.75,646.256 1820.66,646.141 1820.56,646.03 1820.46,645.923 1820.35,645.821 1820.24,645.723 1820.13,645.631 1820.01,645.544 1819.88,645.462 1819.76,645.385 1819.63,645.314 1819.5,645.249 1819.36,645.189 1819.22,645.136 1819.08,645.088 1818.94,645.047 1818.8,645.012 1818.65,644.983 1818.51,644.96 1818.36,644.944 1818.21,644.935 1818.06,644.931 1766.1,644.931 1765.96,644.935 1765.81,644.944 1765.66,644.96 1765.52,644.983 1765.37,645.012 1765.23,645.047 1765.09,645.088 1764.95,645.136 1764.81,645.189 1764.67,645.249 1764.54,645.314 1764.41,645.385 1764.28,645.462 1764.16,645.544 1764.04,645.631 1763.93,645.723 1763.82,645.821 1763.71,645.923 1763.61,646.03 1763.51,646.141 1763.42,646.256 1763.33,646.375 1763.25,646.498 1763.17,646.624 1763.1,646.754 1763.03,646.886 1762.98,647.021 1762.92,647.159 1762.87,647.299 1762.83,647.441 1762.8,647.584 1762.77,647.729 1762.75,647.875 1762.73,648.022 1762.72,648.169 Z"
     id="pin02"
     style="fill:#c8ab37" />
  <path
     fill="none"
     transform="translate(-1328.3921,-628.55925)"
     fill-opacity="1"
     fill-rule="evenodd"
     stroke="#000000"
     stroke-width="0.937501"
     stroke-linecap="round"
     stroke-linejoin="bevel"
     stroke-dasharray="none"
     stroke-opacity="1"
     d="M 1746.46,737.774 1746.46,685.812 1746.46,685.664 1746.45,685.517 1746.43,685.37 1746.41,685.224 1746.38,685.079 1746.34,684.936 1746.3,684.794 1746.26,684.654 1746.2,684.516 1746.14,684.381 1746.08,684.249 1746.01,684.119 1745.93,683.993 1745.85,683.87 1745.76,683.751 1745.67,683.636 1745.57,683.525 1745.47,683.418 1745.36,683.316 1745.25,683.219 1745.14,683.126 1745.02,683.039 1744.89,682.957 1744.77,682.88 1744.64,682.809 1744.51,682.744 1744.37,682.684 1744.23,682.631 1744.09,682.583 1743.95,682.542 1743.81,682.507 1743.66,682.478 1743.52,682.456 1743.37,682.439 1743.22,682.43 1743.07,682.427 1691.11,682.427 1690.96,682.43 1690.82,682.439 1690.67,682.456 1690.52,682.478 1690.38,682.507 1690.24,682.542 1690.09,682.583 1689.95,682.631 1689.82,682.684 1689.68,682.744 1689.55,682.809 1689.42,682.88 1689.29,682.957 1689.17,683.039 1689.05,683.126 1688.94,683.219 1688.83,683.316 1688.72,683.418 1688.62,683.525 1688.52,683.636 1688.43,683.751 1688.34,683.87 1688.26,683.993 1688.18,684.119 1688.11,684.249 1688.04,684.381 1687.98,684.516 1687.93,684.654 1687.88,684.794 1687.84,684.936 1687.81,685.079 1687.78,685.224 1687.76,685.37 1687.74,685.517 1687.73,685.664 1687.73,685.812 1687.73,737.774 1687.73,737.922 1687.74,738.069 1687.76,738.216 1687.78,738.362 1687.81,738.507 1687.84,738.65 1687.88,738.792 1687.93,738.932 1687.98,739.069 1688.04,739.205 1688.11,739.337 1688.18,739.467 1688.26,739.593 1688.34,739.716 1688.43,739.835 1688.52,739.95 1688.62,740.061 1688.72,740.168 1688.83,740.27 1688.94,740.367 1689.05,740.46 1689.17,740.547 1689.29,740.629 1689.42,740.706 1689.55,740.777 1689.68,740.842 1689.82,740.902 1689.95,740.955 1690.09,741.003 1690.24,741.044 1690.38,741.079 1690.52,741.108 1690.67,741.13 1690.82,741.146 1690.96,741.156 1691.11,741.159 1743.07,741.159 1743.22,741.156 1743.37,741.146 1743.52,741.13 1743.66,741.108 1743.81,741.079 1743.95,741.044 1744.09,741.003 1744.23,740.955 1744.37,740.902 1744.51,740.842 1744.64,740.777 1744.77,740.706 1744.89,740.629 1745.02,740.547 1745.14,740.46 1745.25,740.367 1745.36,740.27 1745.47,740.168 1745.57,740.061 1745.67,739.95 1745.76,739.835 1745.85,739.716 1745.93,739.593 1746.01,739.467 1746.08,739.337 1746.14,739.205 1746.2,739.069 1746.26,738.932 1746.3,738.792 1746.34,738.65 1746.38,738.507 1746.41,738.362 1746.43,738.216 1746.45,738.069 1746.46,737.922 Z"
     id="pin01"
     style="fill:#5f8dd3;fill-opacity:1" />
  <path
     fill="none"
     transform="translate(-1328.3921,-628.55925)"
     fill-opacity="1"
     fill-rule="evenodd"
     stroke="#000000"
     stroke-width="0.937501"
     stroke-linecap="round"
     stroke-linejoin="bevel"
     stroke-dasharray="none"
     stroke-opacity="1"
     d="M 1841.09,778.655 1893.06,778.655 1893.2,778.651 1893.35,778.642 1893.5,778.626 1893.64,778.603 1893.79,778.574 1893.93,778.539 1894.07,778.498 1894.21,778.45 1894.35,778.397 1894.49,778.337 1894.62,778.272 1894.75,778.201 1894.87,778.124 1895,778.042 1895.12,777.955 1895.23,777.863 1895.34,777.765 1895.45,777.663 1895.55,777.556 1895.65,777.445 1895.74,777.33 1895.83,777.211 1895.91,777.088 1895.99,776.962 1896.06,776.832 1896.12,776.7 1896.18,776.565 1896.24,776.427 1896.28,776.287 1896.33,776.145 1896.36,776.002 1896.39,775.857 1896.41,775.711 1896.43,775.564 1896.44,775.417 1896.44,775.269 1896.44,723.307 1896.44,723.16 1896.43,723.012 1896.41,722.865 1896.39,722.719 1896.36,722.574 1896.33,722.431 1896.28,722.289 1896.24,722.149 1896.18,722.012 1896.12,721.877 1896.06,721.744 1895.99,721.615 1895.91,721.488 1895.83,721.365 1895.74,721.246 1895.65,721.131 1895.55,721.02 1895.45,720.913 1895.34,720.811 1895.23,720.714 1895.12,720.621 1895,720.534 1894.87,720.452 1894.75,720.375 1894.62,720.304 1894.49,720.239 1894.35,720.18 1894.21,720.126 1894.07,720.079 1893.93,720.037 1893.79,720.002 1893.64,719.973 1893.5,719.951 1893.35,719.935 1893.2,719.925 1893.06,719.922 1841.09,719.922 1840.95,719.925 1840.8,719.935 1840.65,719.951 1840.51,719.973 1840.36,720.002 1840.22,720.037 1840.08,720.079 1839.94,720.126 1839.8,720.18 1839.66,720.239 1839.53,720.304 1839.4,720.375 1839.27,720.452 1839.15,720.534 1839.03,720.621 1838.92,720.714 1838.81,720.811 1838.7,720.913 1838.6,721.02 1838.5,721.131 1838.41,721.246 1838.32,721.365 1838.24,721.488 1838.16,721.615 1838.09,721.744 1838.03,721.877 1837.97,722.012 1837.91,722.149 1837.86,722.289 1837.82,722.431 1837.79,722.574 1837.76,722.719 1837.74,722.865 1837.72,723.012 1837.71,723.16 1837.71,723.307 1837.71,775.269 1837.71,775.417 1837.72,775.564 1837.74,775.711 1837.76,775.857 1837.79,776.002 1837.82,776.145 1837.86,776.287 1837.91,776.427 1837.97,776.565 1838.03,776.7 1838.09,776.832 1838.16,776.962 1838.24,777.088 1838.32,777.211 1838.41,777.33 1838.5,777.445 1838.6,777.556 1838.7,777.663 1838.81,777.765 1838.92,777.863 1839.03,777.955 1839.15,778.042 1839.27,778.124 1839.4,778.201 1839.53,778.272 1839.66,778.337 1839.8,778.397 1839.94,778.45 1840.08,778.498 1840.22,778.539 1840.36,778.574 1840.51,778.603 1840.65,778.626 1840.8,778.642 1840.95,778.651 Z"
     id="pin07"
     style="fill:#37abc8" />
  <path
     fill="none"
     transform="translate(-1328.3921,-628.55925)"
     fill-opacity="1"
     fill-rule="evenodd"
     stroke="#000000"
     stroke-width="0.937501"
     stroke-linecap="round"
     stroke-linejoin="bevel"
     stroke-dasharray="none"
     stroke-opacity="1"
     d="M 1821.45,775.269 1821.45,723.307 1821.45,723.16 1821.44,723.012 1821.42,722.865 1821.4,722.719 1821.37,722.574 1821.33,722.431 1821.29,722.289 1821.25,722.149 1821.19,722.012 1821.13,721.877 1821.07,721.744 1821,721.615 1820.92,721.488 1820.84,721.365 1820.75,721.246 1820.66,721.131 1820.56,721.02 1820.46,720.913 1820.35,720.811 1820.24,720.714 1820.13,720.621 1820.01,720.534 1819.88,720.452 1819.76,720.375 1819.63,720.304 1819.5,720.239 1819.36,720.18 1819.22,720.126 1819.08,720.079 1818.94,720.037 1818.8,720.002 1818.65,719.973 1818.51,719.951 1818.36,719.935 1818.21,719.925 1818.06,719.922 1766.1,719.922 1765.96,719.925 1765.81,719.935 1765.66,719.951 1765.52,719.973 1765.37,720.002 1765.23,720.037 1765.09,720.079 1764.95,720.126 1764.81,720.18 1764.67,720.239 1764.54,720.304 1764.41,720.375 1764.28,720.452 1764.16,720.534 1764.04,720.621 1763.93,720.714 1763.82,720.811 1763.71,720.913 1763.61,721.02 1763.51,721.131 1763.42,721.246 1763.33,721.365 1763.25,721.488 1763.17,721.615 1763.1,721.744 1763.03,721.877 1762.98,722.012 1762.92,722.149 1762.87,722.289 1762.83,722.431 1762.8,722.574 1762.77,722.719 1762.75,722.865 1762.73,723.012 1762.72,723.16 1762.72,723.307 1762.72,775.269 1762.72,775.417 1762.73,775.564 1762.75,775.711 1762.77,775.857 1762.8,776.002 1762.83,776.145 1762.87,776.287 1762.92,776.427 1762.98,776.565 1763.03,776.7 1763.1,776.832 1763.17,776.962 1763.25,777.088 1763.33,777.211 1763.42,777.33 1763.51,777.445 1763.61,777.556 1763.71,777.663 1763.82,777.765 1763.93,777.863 1764.04,777.955 1764.16,778.042 1764.28,778.124 1764.41,778.201 1764.54,778.272 1764.67,778.337 1764.81,778.397 1764.95,778.45 1765.09,778.498 1765.23,778.539 1765.37,778.574 1765.52,778.603 1765.66,778.626 1765.81,778.642 1765.96,778.651 1766.1,778.655 1818.06,778.655 1818.21,778.651 1818.36,778.642 1818.51,778.626 1818.65,778.603 1818.8,778.574 1818.94,778.539 1819.08,778.498 1819.22,778.45 1819.36,778.397 1819.5,778.337 1819.63,778.272 1819.76,778.201 1819.88,778.124 1820.01,778.042 1820.13,777.955 1820.24,777.863 1820.35,777.765 1820.46,777.663 1820.56,777.556 1820.66,777.445 1820.75,777.33 1820.84,777.211 1820.92,777.088 1821,776.962 1821.07,776.832 1821.13,776.7 1821.19,776.565 1821.25,776.427 1821.29,776.287 1821.33,776.145 1821.37,776.002 1821.4,775.857 1821.42,775.711 1821.44,775.564 1821.45,775.417 Z"
     id="pin06"
     style="fill:#c83737" />
  <path
     fill="none"
     transform="translate(-1328.3921,-628.55925)"
     fill-opacity="1"
     fill-rule="evenodd"
     stroke="#000000"
     stroke-width="0.937501"
     stroke-linecap="round"
     stroke-linejoin="bevel"
     stroke-dasharray="none"
     stroke-opacity="1"
     d="M 1916.08,778.655 1968.05,778.655 1968.19,778.651 1968.34,778.642 1968.49,778.626 1968.63,778.603 1968.78,778.574 1968.92,778.539 1969.06,778.498 1969.2,778.45 1969.34,778.397 1969.48,778.337 1969.61,778.272 1969.74,778.201 1969.86,778.124 1969.99,778.042 1970.11,777.955 1970.22,777.863 1970.33,777.765 1970.44,777.663 1970.54,777.556 1970.64,777.445 1970.73,777.33 1970.82,777.211 1970.9,777.088 1970.98,776.962 1971.05,776.832 1971.11,776.7 1971.17,776.565 1971.23,776.427 1971.27,776.287 1971.32,776.145 1971.35,776.002 1971.38,775.857 1971.4,775.711 1971.42,775.564 1971.43,775.417 1971.43,775.269 1971.43,723.307 1971.43,723.16 1971.42,723.012 1971.4,722.865 1971.38,722.719 1971.35,722.574 1971.32,722.431 1971.27,722.289 1971.23,722.149 1971.17,722.012 1971.11,721.877 1971.05,721.744 1970.98,721.615 1970.9,721.488 1970.82,721.365 1970.73,721.246 1970.64,721.131 1970.54,721.02 1970.44,720.913 1970.33,720.811 1970.22,720.714 1970.11,720.621 1969.99,720.534 1969.86,720.452 1969.74,720.375 1969.61,720.304 1969.48,720.239 1969.34,720.18 1969.2,720.126 1969.06,720.079 1968.92,720.037 1968.78,720.002 1968.63,719.973 1968.49,719.951 1968.34,719.935 1968.19,719.925 1968.05,719.922 1916.08,719.922 1915.94,719.925 1915.79,719.935 1915.64,719.951 1915.5,719.973 1915.35,720.002 1915.21,720.037 1915.07,720.079 1914.93,720.126 1914.79,720.18 1914.65,720.239 1914.52,720.304 1914.39,720.375 1914.27,720.452 1914.14,720.534 1914.02,720.621 1913.91,720.714 1913.8,720.811 1913.69,720.913 1913.59,721.02 1913.49,721.131 1913.4,721.246 1913.31,721.365 1913.23,721.488 1913.15,721.615 1913.08,721.744 1913.02,721.877 1912.96,722.012 1912.9,722.149 1912.86,722.289 1912.81,722.431 1912.78,722.574 1912.75,722.719 1912.73,722.865 1912.71,723.012 1912.7,723.16 1912.7,723.307 1912.7,775.269 1912.7,775.417 1912.71,775.564 1912.73,775.711 1912.75,775.857 1912.78,776.002 1912.81,776.145 1912.86,776.287 1912.9,776.427 1912.96,776.565 1913.02,776.7 1913.08,776.832 1913.15,776.962 1913.23,777.088 1913.31,777.211 1913.4,777.33 1913.49,777.445 1913.59,777.556 1913.69,777.663 1913.8,777.765 1913.91,777.863 1914.02,777.955 1914.14,778.042 1914.27,778.124 1914.39,778.201 1914.52,778.272 1914.65,778.337 1914.79,778.397 1914.93,778.45 1915.07,778.498 1915.21,778.539 1915.35,778.574 1915.5,778.603 1915.64,778.626 1915.79,778.642 1915.94,778.651 Z"
     id="pin08"
     style="fill:#c837ab;fill-opacity:1" />
  <path
     fill="none"
     transform="translate(-1328.3921,-628.55925)"
     fill-opacity="1"
     fill-rule="evenodd"
     stroke="#000000"
     stroke-width="0.937501"
     stroke-linecap="round"
     stroke-linejoin="bevel"
     stroke-dasharray="none"
     stroke-opacity="1"
     d="M 1841.09,703.664 1893.06,703.664 1893.2,703.661 1893.35,703.651 1893.5,703.635 1893.64,703.613 1893.79,703.584 1893.93,703.549 1894.07,703.507 1894.21,703.46 1894.35,703.406 1894.49,703.347 1894.62,703.282 1894.75,703.211 1894.87,703.134 1895,703.052 1895.12,702.964 1895.23,702.872 1895.34,702.775 1895.45,702.672 1895.55,702.566 1895.65,702.455 1895.74,702.34 1895.83,702.22 1895.91,702.098 1895.99,701.971 1896.06,701.842 1896.12,701.709 1896.18,701.574 1896.24,701.437 1896.28,701.297 1896.33,701.155 1896.36,701.011 1896.39,700.867 1896.41,700.721 1896.43,700.574 1896.44,700.426 1896.44,700.279 1896.44,648.317 1896.44,648.169 1896.43,648.022 1896.41,647.875 1896.39,647.729 1896.36,647.584 1896.33,647.441 1896.28,647.299 1896.24,647.159 1896.18,647.021 1896.12,646.886 1896.06,646.754 1895.99,646.624 1895.91,646.498 1895.83,646.375 1895.74,646.256 1895.65,646.141 1895.55,646.03 1895.45,645.923 1895.34,645.821 1895.23,645.723 1895.12,645.631 1895,645.544 1894.87,645.462 1894.75,645.385 1894.62,645.314 1894.49,645.249 1894.35,645.189 1894.21,645.136 1894.07,645.088 1893.93,645.047 1893.79,645.012 1893.64,644.983 1893.5,644.96 1893.35,644.944 1893.2,644.935 1893.06,644.931 1841.09,644.931 1840.95,644.935 1840.8,644.944 1840.65,644.96 1840.51,644.983 1840.36,645.012 1840.22,645.047 1840.08,645.088 1839.94,645.136 1839.8,645.189 1839.66,645.249 1839.53,645.314 1839.4,645.385 1839.27,645.462 1839.15,645.544 1839.03,645.631 1838.92,645.723 1838.81,645.821 1838.7,645.923 1838.6,646.03 1838.5,646.141 1838.41,646.256 1838.32,646.375 1838.24,646.498 1838.16,646.624 1838.09,646.754 1838.03,646.886 1837.97,647.021 1837.91,647.159 1837.86,647.299 1837.82,647.441 1837.79,647.584 1837.76,647.729 1837.74,647.875 1837.72,648.022 1837.71,648.169 1837.71,648.317 1837.71,700.279 1837.71,700.426 1837.72,700.574 1837.74,700.721 1837.76,700.867 1837.79,701.011 1837.82,701.155 1837.86,701.297 1837.91,701.437 1837.97,701.574 1838.03,701.709 1838.09,701.842 1838.16,701.971 1838.24,702.098 1838.32,702.22 1838.41,702.34 1838.5,702.455 1838.6,702.566 1838.7,702.672 1838.81,702.775 1838.92,702.872 1839.03,702.964 1839.15,703.052 1839.27,703.134 1839.4,703.211 1839.53,703.282 1839.66,703.347 1839.8,703.406 1839.94,703.46 1840.08,703.507 1840.22,703.549 1840.36,703.584 1840.51,703.613 1840.65,703.635 1840.8,703.651 1840.95,703.661 Z"
     id="pin03"
     style="fill:#7137c8;fill-opacity:1" />
  <path
     fill="none"
     transform="translate(-1328.3921,-628.55925)"
     fill-opacity="1"
     fill-rule="evenodd"
     stroke="#000000"
     stroke-width="0.937501"
     stroke-linecap="round"
     stroke-linejoin="bevel"
     stroke-dasharray="none"
     stroke-opacity="1"
     d="M 1400.4,760.662 1418.71,712.032 1418.76,711.893 1418.8,711.751 1418.83,711.608 1418.87,711.464 1418.89,711.318 1418.91,711.171 1418.92,711.024 1418.92,710.876 1418.92,710.729 1418.91,710.581 1418.9,710.434 1418.88,710.288 1418.85,710.143 1418.82,709.999 1418.78,709.857 1418.73,709.716 1418.68,709.578 1418.62,709.442 1418.56,709.309 1418.49,709.179 1418.41,709.052 1418.33,708.928 1418.25,708.808 1418.15,708.692 1418.06,708.58 1417.96,708.472 1417.85,708.368 1417.74,708.27 1417.63,708.176 1417.51,708.088 1417.39,708.004 1417.26,707.926 1417.13,707.854 1417,707.787 1416.87,707.726 1416.73,707.671 1368.1,689.364 1367.96,689.315 1367.82,689.272 1367.68,689.235 1367.53,689.205 1367.39,689.181 1367.24,689.163 1367.09,689.152 1366.94,689.147 1366.8,689.148 1366.65,689.156 1366.5,689.171 1366.36,689.192 1366.21,689.219 1366.07,689.252 1365.93,689.292 1365.78,689.338 1365.65,689.39 1365.51,689.448 1365.38,689.512 1365.25,689.582 1365.12,689.657 1365,689.738 1364.88,689.824 1364.76,689.915 1364.65,690.011 1364.54,690.112 1364.44,690.218 1364.34,690.328 1364.24,690.442 1364.16,690.56 1364.07,690.682 1363.99,690.807 1363.92,690.936 1363.86,691.068 1363.79,691.202 1363.74,691.339 1345.43,739.969 1345.38,740.109 1345.34,740.25 1345.3,740.393 1345.27,740.538 1345.25,740.683 1345.23,740.83 1345.22,740.977 1345.22,741.125 1345.22,741.273 1345.22,741.42 1345.24,741.567 1345.26,741.713 1345.29,741.858 1345.32,742.002 1345.36,742.145 1345.41,742.285 1345.46,742.423 1345.52,742.559 1345.58,742.692 1345.65,742.822 1345.73,742.95 1345.81,743.073 1345.89,743.193 1345.98,743.31 1346.08,743.422 1346.18,743.529 1346.29,743.633 1346.4,743.731 1346.51,743.825 1346.63,743.914 1346.75,743.997 1346.88,744.075 1347,744.148 1347.14,744.214 1347.27,744.275 1347.41,744.33 1396.04,762.638 1396.18,762.687 1396.32,762.729 1396.46,762.766 1396.61,762.797 1396.75,762.821 1396.9,762.838 1397.05,762.85 1397.19,762.854 1397.34,762.853 1397.49,762.845 1397.64,762.83 1397.78,762.809 1397.93,762.782 1398.07,762.749 1398.21,762.709 1398.35,762.663 1398.49,762.611 1398.63,762.553 1398.76,762.489 1398.89,762.42 1399.02,762.344 1399.14,762.264 1399.26,762.178 1399.38,762.086 1399.49,761.99 1399.6,761.889 1399.7,761.784 1399.8,761.674 1399.89,761.56 1399.98,761.441 1400.07,761.319 1400.14,761.194 1400.22,761.065 1400.28,760.934 1400.34,760.799 Z"
     id="pin28"
     style="fill:#d8dee9;fill-opacity:1" />
  <path
     fill="none"
     fill-opacity="1"
     fill-rule="evenodd"
     stroke="#000000"
     stroke-width="0.937501"
     stroke-linecap="round"
     stroke-linejoin="bevel"
     stroke-dasharray="none"
     stroke-opacity="1"
     d="M 1433.92,717.76 1415.61,766.39 1415.57,766.529 1415.52,766.671 1415.49,766.814 1415.46,766.958 1415.43,767.104 1415.41,767.251 1415.4,767.398 1415.4,767.546 1415.4,767.693 1415.41,767.841 1415.42,767.988 1415.44,768.134 1415.47,768.279 1415.5,768.423 1415.54,768.565 1415.59,768.706 1415.64,768.844 1415.7,768.98 1415.76,769.113 1415.83,769.243 1415.91,769.37 1415.99,769.494 1416.07,769.614 1416.17,769.73 1416.26,769.842 1416.36,769.95 1416.47,770.053 1416.58,770.152 1416.69,770.246 1416.81,770.334 1416.93,770.418 1417.06,770.496 1417.19,770.568 1417.32,770.635 1417.45,770.696 1417.59,770.751 1466.22,789.058 1466.36,789.107 1466.5,789.15 1466.64,789.187 1466.79,789.217 1466.93,789.241 1467.08,789.259 1467.23,789.27 1467.38,789.275 1467.52,789.274 1467.67,789.265 1467.82,789.251 1467.96,789.23 1468.11,789.203 1468.25,789.169 1468.4,789.13 1468.54,789.084 1468.67,789.032 1468.81,788.974 1468.94,788.91 1469.07,788.84 1469.2,788.765 1469.32,788.684 1469.44,788.598 1469.56,788.507 1469.67,788.411 1469.78,788.31 1469.88,788.204 1469.98,788.094 1470.08,787.98 1470.16,787.862 1470.25,787.74 1470.33,787.615 1470.4,787.486 1470.46,787.354 1470.53,787.22 1470.58,787.083 1488.89,738.453 1488.94,738.313 1488.98,738.172 1489.02,738.029 1489.05,737.884 1489.07,737.739 1489.09,737.592 1489.1,737.445 1489.11,737.297 1489.1,737.149 1489.1,737.002 1489.08,736.855 1489.06,736.709 1489.03,736.563 1489,736.42 1488.96,736.277 1488.91,736.137 1488.86,735.999 1488.8,735.863 1488.74,735.73 1488.67,735.599 1488.59,735.472 1488.51,735.349 1488.43,735.229 1488.34,735.112 1488.24,735 1488.14,734.892 1488.03,734.789 1487.92,734.691 1487.81,734.597 1487.69,734.508 1487.57,734.425 1487.44,734.347 1487.32,734.274 1487.18,734.208 1487.05,734.147 1486.91,734.092 1438.28,715.784 1438.14,715.735 1438,715.692 1437.86,715.656 1437.71,715.625 1437.57,715.601 1437.42,715.584 1437.27,715.572 1437.13,715.567 1436.98,715.569 1436.83,715.577 1436.68,715.592 1436.54,715.612 1436.39,715.64 1436.25,715.673 1436.11,715.713 1435.97,715.759 1435.83,715.811 1435.69,715.869 1435.56,715.933 1435.43,716.002 1435.3,716.078 1435.18,716.158 1435.06,716.244 1434.94,716.336 1434.83,716.432 1434.72,716.533 1434.62,716.638 1434.52,716.748 1434.43,716.862 1434.34,716.98 1434.25,717.102 1434.18,717.228 1434.1,717.357 1434.04,717.488 1433.98,717.623 Z"
     id="pin27"
     style="fill:#d8dee9;fill-opacity:1"
     transform="translate(-1328.3921,-628.55925)" />
  <path
     fill="none"
     transform="translate(-1328.3921,-628.55925)"
     fill-opacity="1"
     fill-rule="evenodd"
     stroke="#000000"
     stroke-width="0.937501"
     stroke-linecap="round"
     stroke-linejoin="bevel"
     stroke-dasharray="none"
     stroke-opacity="1"
     d="M 1743.07,757.417 1691.11,757.417 1690.96,757.42 1690.82,757.43 1690.67,757.446 1690.52,757.469 1690.38,757.497 1690.24,757.532 1690.09,757.574 1689.95,757.621 1689.82,757.675 1689.68,757.734 1689.55,757.8 1689.42,757.871 1689.29,757.947 1689.17,758.029 1689.05,758.117 1688.94,758.209 1688.83,758.306 1688.72,758.409 1688.62,758.515 1688.52,758.626 1688.43,758.742 1688.34,758.861 1688.26,758.983 1688.18,759.11 1688.11,759.239 1688.04,759.372 1687.98,759.507 1687.93,759.645 1687.88,759.784 1687.84,759.926 1687.81,760.07 1687.78,760.215 1687.76,760.361 1687.74,760.507 1687.73,760.655 1687.73,760.802 1687.73,812.764 1687.73,812.912 1687.74,813.059 1687.76,813.206 1687.78,813.352 1687.81,813.497 1687.84,813.641 1687.88,813.782 1687.93,813.922 1687.98,814.06 1688.04,814.195 1688.11,814.328 1688.18,814.457 1688.26,814.583 1688.34,814.706 1688.43,814.825 1688.52,814.94 1688.62,815.052 1688.72,815.158 1688.83,815.26 1688.94,815.358 1689.05,815.45 1689.17,815.538 1689.29,815.62 1689.42,815.696 1689.55,815.767 1689.68,815.833 1689.82,815.892 1689.95,815.946 1690.09,815.993 1690.24,816.034 1690.38,816.07 1690.52,816.098 1690.67,816.121 1690.82,816.137 1690.96,816.147 1691.11,816.15 1743.07,816.15 1743.22,816.147 1743.37,816.137 1743.52,816.121 1743.66,816.098 1743.81,816.07 1743.95,816.034 1744.09,815.993 1744.23,815.946 1744.37,815.892 1744.51,815.833 1744.64,815.767 1744.77,815.696 1744.89,815.62 1745.02,815.538 1745.14,815.45 1745.25,815.358 1745.36,815.26 1745.47,815.158 1745.57,815.052 1745.67,814.94 1745.76,814.825 1745.85,814.706 1745.93,814.583 1746.01,814.457 1746.08,814.328 1746.14,814.195 1746.2,814.06 1746.26,813.922 1746.3,813.782 1746.34,813.641 1746.38,813.497 1746.41,813.352 1746.43,813.206 1746.45,813.059 1746.46,812.912 1746.46,812.764 1746.46,760.802 1746.46,760.655 1746.45,760.507 1746.43,760.361 1746.41,760.215 1746.38,760.07 1746.34,759.926 1746.3,759.784 1746.26,759.645 1746.2,759.507 1746.14,759.372 1746.08,759.239 1746.01,759.11 1745.93,758.983 1745.85,758.861 1745.76,758.742 1745.67,758.626 1745.57,758.515 1745.47,758.409 1745.36,758.306 1745.25,758.209 1745.14,758.117 1745.02,758.029 1744.89,757.947 1744.77,757.871 1744.64,757.8 1744.51,757.734 1744.37,757.675 1744.23,757.621 1744.09,757.574 1743.95,757.532 1743.81,757.497 1743.66,757.469 1743.52,757.446 1743.37,757.43 1743.22,757.42 Z"
     id="pin05"
     style="fill:#8dd35f;fill-opacity:1" />
  <path
     fill="none"
     transform="translate(-1328.3921,-628.55925)"
     fill-opacity="1"
     fill-rule="evenodd"
     stroke="#000000"
     stroke-width="0.937501"
     stroke-linecap="round"
     stroke-linejoin="bevel"
     stroke-dasharray="none"
     stroke-opacity="1"
     d="M 1504.1,744.181 1485.8,792.811 1485.75,792.95 1485.7,793.091 1485.67,793.234 1485.64,793.379 1485.61,793.525 1485.6,793.671 1485.58,793.819 1485.58,793.966 1485.58,794.114 1485.59,794.261 1485.6,794.408 1485.62,794.555 1485.65,794.7 1485.69,794.844 1485.72,794.986 1485.77,795.126 1485.82,795.264 1485.88,795.4 1485.94,795.533 1486.01,795.664 1486.09,795.791 1486.17,795.915 1486.26,796.035 1486.35,796.151 1486.44,796.263 1486.54,796.371 1486.65,796.474 1486.76,796.573 1486.87,796.666 1486.99,796.755 1487.11,796.838 1487.24,796.916 1487.37,796.989 1487.5,797.056 1487.63,797.117 1487.77,797.172 1536.4,815.479 1536.54,815.528 1536.68,815.571 1536.83,815.607 1536.97,815.638 1537.12,815.662 1537.26,815.68 1537.41,815.691 1537.56,815.696 1537.71,815.694 1537.85,815.686 1538,815.672 1538.15,815.651 1538.29,815.624 1538.43,815.59 1538.58,815.55 1538.72,815.504 1538.86,815.452 1538.99,815.394 1539.12,815.33 1539.26,815.261 1539.38,815.186 1539.51,815.105 1539.63,815.019 1539.74,814.928 1539.85,814.832 1539.96,814.731 1540.07,814.625 1540.16,814.515 1540.26,814.401 1540.35,814.283 1540.43,814.161 1540.51,814.035 1540.58,813.907 1540.65,813.775 1540.71,813.64 1540.76,813.503 1559.07,764.873 1559.12,764.734 1559.16,764.593 1559.2,764.449 1559.23,764.305 1559.25,764.159 1559.27,764.013 1559.28,763.865 1559.29,763.718 1559.29,763.57 1559.28,763.422 1559.26,763.275 1559.24,763.129 1559.21,762.984 1559.18,762.84 1559.14,762.698 1559.1,762.558 1559.04,762.419 1558.99,762.284 1558.92,762.15 1558.85,762.02 1558.78,761.893 1558.7,761.769 1558.61,761.649 1558.52,761.533 1558.42,761.421 1558.32,761.313 1558.22,761.21 1558.11,761.111 1557.99,761.017 1557.87,760.929 1557.75,760.845 1557.63,760.767 1557.5,760.695 1557.37,760.628 1557.23,760.567 1557.09,760.512 1508.46,742.205 1508.33,742.156 1508.18,742.113 1508.04,742.076 1507.9,742.046 1507.75,742.022 1507.6,742.004 1507.46,741.993 1507.31,741.988 1507.16,741.99 1507.01,741.998 1506.87,742.012 1506.72,742.033 1506.58,742.06 1506.43,742.094 1506.29,742.134 1506.15,742.18 1506.01,742.232 1505.87,742.29 1505.74,742.353 1505.61,742.423 1505.48,742.498 1505.36,742.579 1505.24,742.665 1505.12,742.756 1505.01,742.852 1504.9,742.953 1504.8,743.059 1504.7,743.169 1504.61,743.283 1504.52,743.401 1504.44,743.523 1504.36,743.648 1504.29,743.777 1504.22,743.909 1504.16,744.043 Z"
     id="pin26"
     style="fill:#d8dee9;fill-opacity:1" />
  <path
     fill="none"
     transform="translate(-1328.3921,-628.55925)"
     fill-opacity="1"
     fill-rule="evenodd"
     stroke="#000000"
     stroke-width="0.937501"
     stroke-linecap="round"
     stroke-linejoin="bevel"
     stroke-dasharray="none"
     stroke-opacity="1"
     d="M 1460.34,647.578 1442.03,696.208 1441.99,696.347 1441.94,696.489 1441.91,696.632 1441.88,696.776 1441.85,696.922 1441.83,697.069 1441.82,697.216 1441.82,697.363 1441.82,697.511 1441.83,697.659 1441.84,697.806 1441.86,697.952 1441.89,698.097 1441.92,698.241 1441.96,698.383 1442.01,698.524 1442.06,698.662 1442.12,698.798 1442.18,698.931 1442.25,699.061 1442.33,699.188 1442.41,699.312 1442.49,699.432 1442.59,699.548 1442.68,699.66 1442.78,699.768 1442.89,699.871 1443,699.97 1443.11,700.064 1443.23,700.152 1443.35,700.236 1443.48,700.314 1443.61,700.386 1443.74,700.453 1443.87,700.514 1444.01,700.569 1492.64,718.876 1492.78,718.925 1492.92,718.968 1493.06,719.005 1493.21,719.035 1493.35,719.059 1493.5,719.077 1493.65,719.088 1493.8,719.093 1493.94,719.091 1494.09,719.083 1494.24,719.069 1494.38,719.048 1494.53,719.021 1494.67,718.987 1494.82,718.948 1494.96,718.902 1495.09,718.85 1495.23,718.792 1495.36,718.728 1495.49,718.658 1495.62,718.583 1495.74,718.502 1495.86,718.416 1495.98,718.325 1496.09,718.229 1496.2,718.128 1496.3,718.022 1496.4,717.912 1496.5,717.798 1496.58,717.68 1496.67,717.558 1496.75,717.433 1496.82,717.304 1496.89,717.172 1496.95,717.038 1497,716.901 1515.31,668.271 1515.36,668.131 1515.4,667.99 1515.44,667.847 1515.47,667.702 1515.49,667.557 1515.51,667.41 1515.52,667.263 1515.53,667.115 1515.52,666.967 1515.52,666.82 1515.5,666.673 1515.48,666.527 1515.45,666.381 1515.42,666.238 1515.38,666.095 1515.33,665.955 1515.28,665.817 1515.22,665.681 1515.16,665.548 1515.09,665.417 1515.02,665.29 1514.93,665.167 1514.85,665.047 1514.76,664.93 1514.66,664.818 1514.56,664.71 1514.45,664.607 1514.34,664.508 1514.23,664.415 1514.11,664.326 1513.99,664.243 1513.87,664.165 1513.74,664.092 1513.6,664.025 1513.47,663.965 1513.33,663.909 1464.7,645.602 1464.56,645.553 1464.42,645.51 1464.28,645.474 1464.13,645.443 1463.99,645.419 1463.84,645.401 1463.7,645.39 1463.55,645.385 1463.4,645.387 1463.25,645.395 1463.11,645.409 1462.96,645.43 1462.81,645.458 1462.67,645.491 1462.53,645.531 1462.39,645.577 1462.25,645.629 1462.11,645.687 1461.98,645.751 1461.85,645.82 1461.72,645.896 1461.6,645.976 1461.48,646.062 1461.36,646.153 1461.25,646.25 1461.14,646.351 1461.04,646.456 1460.94,646.566 1460.85,646.68 1460.76,646.798 1460.68,646.92 1460.6,647.046 1460.52,647.174 1460.46,647.306 1460.4,647.441 Z"
     id="pin29"
     style="fill:#d8dee9;fill-opacity:1" />
  <path
     fill="none"
     transform="translate(-1328.3921,-628.55925)"
     fill-opacity="1"
     fill-rule="evenodd"
     stroke="#000000"
     stroke-width="0.937501"
     stroke-linecap="round"
     stroke-linejoin="bevel"
     stroke-dasharray="none"
     stroke-opacity="1"
     d="M 1916.08,703.664 1968.05,703.664 1968.19,703.661 1968.34,703.651 1968.49,703.635 1968.63,703.613 1968.78,703.584 1968.92,703.549 1969.06,703.507 1969.2,703.46 1969.34,703.406 1969.48,703.347 1969.61,703.282 1969.74,703.211 1969.86,703.134 1969.99,703.052 1970.11,702.964 1970.22,702.872 1970.33,702.775 1970.44,702.672 1970.54,702.566 1970.64,702.455 1970.73,702.34 1970.82,702.22 1970.9,702.098 1970.98,701.971 1971.05,701.842 1971.11,701.709 1971.17,701.574 1971.23,701.437 1971.27,701.297 1971.32,701.155 1971.35,701.011 1971.38,700.867 1971.4,700.721 1971.42,700.574 1971.43,700.426 1971.43,700.279 1971.43,648.317 1971.43,648.169 1971.42,648.022 1971.4,647.875 1971.38,647.729 1971.35,647.584 1971.32,647.441 1971.27,647.299 1971.23,647.159 1971.17,647.021 1971.11,646.886 1971.05,646.754 1970.98,646.624 1970.9,646.498 1970.82,646.375 1970.73,646.256 1970.64,646.141 1970.54,646.03 1970.44,645.923 1970.33,645.821 1970.22,645.723 1970.11,645.631 1969.99,645.544 1969.86,645.462 1969.74,645.385 1969.61,645.314 1969.48,645.249 1969.34,645.189 1969.2,645.136 1969.06,645.088 1968.92,645.047 1968.78,645.012 1968.63,644.983 1968.49,644.96 1968.34,644.944 1968.19,644.935 1968.05,644.931 1916.08,644.931 1915.94,644.935 1915.79,644.944 1915.64,644.96 1915.5,644.983 1915.35,645.012 1915.21,645.047 1915.07,645.088 1914.93,645.136 1914.79,645.189 1914.65,645.249 1914.52,645.314 1914.39,645.385 1914.27,645.462 1914.14,645.544 1914.02,645.631 1913.91,645.723 1913.8,645.821 1913.69,645.923 1913.59,646.03 1913.49,646.141 1913.4,646.256 1913.31,646.375 1913.23,646.498 1913.15,646.624 1913.08,646.754 1913.02,646.886 1912.96,647.021 1912.9,647.159 1912.86,647.299 1912.81,647.441 1912.78,647.584 1912.75,647.729 1912.73,647.875 1912.71,648.022 1912.7,648.169 1912.7,648.317 1912.7,700.279 1912.7,700.426 1912.71,700.574 1912.73,700.721 1912.75,700.867 1912.78,701.011 1912.81,701.155 1912.86,701.297 1912.9,701.437 1912.96,701.574 1913.02,701.709 1913.08,701.842 1913.15,701.971 1913.23,702.098 1913.31,702.22 1913.4,702.34 1913.49,702.455 1913.59,702.566 1913.69,702.672 1913.8,702.775 1913.91,702.872 1914.02,702.964 1914.14,703.052 1914.27,703.134 1914.39,703.211 1914.52,703.282 1914.65,703.347 1914.79,703.406 1914.93,703.46 1915.07,703.507 1915.21,703.549 1915.35,703.584 1915.5,703.613 1915.64,703.635 1915.79,703.651 1915.94,703.661 Z"
     id="pin04"
     style="fill:#c87137;fill-opacity:1" />
</svg>
