<?xml version="1.0" encoding="UTF-8" standalone="no"?>
<svg
   width="599.85522mm"
   height="186.33578mm"
   viewBox="0 0 7084.8967 2200.8196"
   version="1.2"
   id="svg1060"
   sodipodi:docname="fightboard-v3-m.svg"
   inkscape:version="1.4.4 (dcaf3e7d9e, 2026-05-05)"
   xml:space="preserve"
   xmlns:inkscape="http://www.inkscape.org/namespaces/inkscape"
   xmlns:sodipodi="http://sodipodi.sourceforge.net/DTD/sodipodi-0.dtd"
   xmlns="http://www.w3.org/2000/svg"
   xmlns:svg="http://www.w3.org/2000/svg"><sodipodi:namedview
     id="namedview1060"
     pagecolor="#ffffff"
     bordercolor="#000000"
     borderopacity="0.25"
     inkscape:showpageshadow="2"
     inkscape:pageopacity="0.0"
     inkscape:pagecheckerboard="0"
     inkscape:deskcolor="#d1d1d1"
     inkscape:document-units="mm"
     inkscape:zoom="0.40220525"
     inkscape:cx="911.22628"
     inkscape:cy="896.30853"
     inkscape:window-width="2560"
     inkscape:window-height="1440"
     inkscape:window-x="0"
     inkscape:window-y="0"
     inkscape:window-maximized="0"
     inkscape:current-layer="svg1060"
     showgrid="false" /><defs
     id="defs1"><marker
       id="DistanceX"
       orient="auto"
       refX="0"
       refY="0"
       style="overflow:visible"><path
         d="M 3,-3 -3,3 M 0,-5 V 5"
         style="stroke:#000000;stroke-width:0.5"
         id="path1" /></marker><pattern
       id="Hatch"
       patternUnits="userSpaceOnUse"
       width="8"
       height="8"
       x="0"
       y="0"><path
         d="M8 4 l-4,4"
         stroke="#000000"
         stroke-width="0.25"
         linecap="square"
         id="path2" /><path
         d="M6 2 l-4,4"
         stroke="#000000"
         stroke-width="0.25"
         linecap="square"
         id="path3" /><path
         d="M4 0 l-4,4"
         stroke="#000000"
         stroke-width="0.25"
         linecap="square"
         id="path4" /></pattern><symbol
       id="*MODEL_SPACE" /><symbol
       id="*PAPER_SPACE" /></defs><path
     fill="none"
     fill-opacity="1"
     fill-rule="evenodd"
     stroke="#000000"
     stroke-width="0.937501"
     stroke-linecap="round"
     stroke-linejoin="bevel"
     stroke-dasharray="none"
     stroke-opacity="1"
     d="M 6883.1762,11.811042 H 201.72019 l -4.71847,0.05362 -4.61123,0.17158 -4.61123,0.289543 -4.71847,0.39678 -4.61122,0.514741 -4.61123,0.632704 -4.61123,0.739941 -4.61123,0.84718 -4.50399,0.965141 -4.50399,1.083102 -4.61123,1.190341 -4.39675,1.297578 -4.504,1.404816 -4.39675,1.512054 -4.39675,1.630016 -4.28952,1.72653 -4.28951,1.844491 -4.18228,1.941006 -4.28951,2.03752 -4.07504,2.155481 -4.07504,2.241272 -4.07504,2.348509 -3.9678,2.445024 -3.860562,2.541538 -3.860564,2.638051 -3.753326,2.734566 -3.753325,2.820357 -3.646088,2.91687 -3.53885,3.002661 -3.53885,3.08845 -3.431612,3.174242 -3.324375,3.249307 -3.217136,3.335098 -3.217137,3.420889 -3.00266,3.495955 -3.002661,3.560297 -3.00266,3.646088 -2.788185,3.710431 -2.680947,3.774773 -2.680947,3.84984 -2.573709,3.903455 -2.359234,3.9678 -2.359233,4.03215 -2.251995,4.08576 -2.144758,4.13938 -2.03752,4.18228 -2.037519,4.24662 -1.823044,4.27879 -1.715806,4.33241 -1.608569,4.36458 -1.50133,4.4182 -1.394092,4.43965 -1.286855,4.48254 -1.179617,4.504 -1.072378,4.53616 -0.965141,4.55761 -0.857903,4.58978 -0.750665,4.6005 -0.643428,4.62196 -0.536189,4.63267 -0.428952,4.6434 -0.214475,4.65413 -0.214476,4.65412 v 4.66485 1797.27468 4.6649 l 0.214476,4.6541 0.214475,4.6541 0.428952,4.6434 0.536189,4.6327 0.643428,4.622 0.750665,4.6005 0.857903,4.5897 0.965141,4.5577 1.072378,4.5361 1.179617,4.5147 1.286855,4.4719 1.394092,4.4503 1.50133,4.4075 1.608569,4.3646 1.715806,4.3324 1.823044,4.2895 2.037519,4.2359 2.03752,4.193 2.144758,4.1287 2.251995,4.0857 2.359233,4.0322 2.359234,3.9678 2.573709,3.9142 2.680947,3.8391 2.680947,3.7747 2.788185,3.7105 3.00266,3.6461 3.002661,3.5603 3.00266,3.4959 3.217137,3.4209 3.217136,3.3351 3.324375,3.2493 3.431612,3.1743 3.53885,3.0884 3.53885,3.0027 3.646088,2.9168 3.753325,2.8204 3.753326,2.7346 3.860564,2.638 3.860562,2.5415 3.9678,2.4451 4.07504,2.3485 4.07504,2.252 4.07504,2.1447 4.28951,2.0483 4.18228,1.941 4.28951,1.8338 4.28952,1.7265 4.39675,1.63 4.39675,1.512 4.504,1.4049 4.39675,1.3083 4.61123,1.1796 4.50399,1.0831 4.50399,0.9651 4.61123,0.8472 4.61123,0.7507 4.61123,0.622 4.61122,0.5147 4.71847,0.3968 4.61123,0.2895 4.61123,0.1716 4.71847,0.054 H 6883.1762 l 4.6112,-0.054 4.7185,-0.1716 4.6112,-0.2895 4.6113,-0.3968 4.7184,-0.5147 4.6113,-0.622 4.6112,-0.7507 4.504,-0.8472 4.6112,-0.9651 4.504,-1.0831 4.504,-1.1796 4.504,-1.3083 4.3967,-1.4049 4.504,-1.512 4.2895,-1.63 4.3968,-1.7265 4.2895,-1.8338 4.1823,-1.941 4.1823,-2.0483 4.1822,-2.1447 4.0751,-2.252 3.9678,-2.3485 4.075,-2.4451 3.8606,-2.5415 3.8605,-2.638 3.7534,-2.7346 3.7533,-2.8204 3.6461,-2.9168 3.5388,-3.0027 3.4317,-3.0884 3.4316,-3.1743 3.3243,-3.2493 3.3244,-3.3351 3.1099,-3.4209 3.1099,-3.4959 3.0027,-3.5603 2.8954,-3.6461 2.8954,-3.7105 2.681,-3.7747 2.6809,-3.8391 2.4665,-3.9142 2.4665,-3.9678 2.3592,-4.0322 2.252,-4.0857 2.1447,-4.1287 2.0376,-4.193 1.9302,-4.2359 1.8231,-4.2895 1.823,-4.3324 1.6086,-4.3646 1.5013,-4.4075 1.3941,-4.4503 1.2869,-4.4719 1.1796,-4.5147 1.0724,-4.5361 0.9651,-4.5577 0.8579,-4.5897 0.7507,-4.6005 0.6434,-4.622 0.5362,-4.6327 0.3217,-4.6434 0.3217,-4.6541 0.2145,-4.6541 v -4.6649 -1797.27468 -4.66485 l -0.2145,-4.65412 -0.3217,-4.65413 -0.3217,-4.6434 -0.5362,-4.63267 -0.6434,-4.62196 -0.7507,-4.6005 -0.8579,-4.58978 -0.9651,-4.55761 -1.0724,-4.53616 -1.1796,-4.504 -1.2869,-4.48254 -1.3941,-4.43965 -1.5013,-4.4182 -1.6086,-4.36458 -1.823,-4.33241 -1.8231,-4.27879 -1.9302,-4.24662 -2.0376,-4.18228 -2.1447,-4.13938 -2.252,-4.08576 -2.3592,-4.03215 -2.4665,-3.9678 -2.4665,-3.903455 -2.6809,-3.84984 -2.681,-3.774773 -2.8954,-3.710431 -2.8954,-3.646088 -3.0027,-3.560297 -3.1099,-3.495955 -3.1099,-3.420889 -3.3244,-3.335098 -3.3243,-3.249307 -3.4316,-3.174242 -3.4317,-3.08845 -3.5388,-3.002661 -3.6461,-2.91687 -3.7533,-2.820357 -3.7534,-2.734566 -3.8605,-2.638051 -3.8606,-2.541538 -4.075,-2.445024 -3.9678,-2.348509 -4.0751,-2.241272 -4.1822,-2.155481 -4.1823,-2.03752 -4.1823,-1.941006 -4.2895,-1.844491 -4.3968,-1.72653 -4.2895,-1.630016 -4.504,-1.512054 -4.3967,-1.404816 -4.504,-1.297578 -4.504,-1.190341 -4.504,-1.083102 -4.6112,-0.965141 -4.504,-0.84718 -4.6112,-0.739941 -4.6113,-0.632704 -4.7184,-0.514741 -4.6113,-0.39678 -4.6112,-0.289543 -4.7185,-0.17158 z"
     id="case"
     style="display:inline;fill:#2b303b;fill-opacity:1;stroke-width:23.6221;stroke-dasharray:none" /><path
     fill="none"
     fill-opacity="1"
     fill-rule="evenodd"
     stroke="#000000"
     stroke-width="0.937501"
     stroke-linecap="round"
     stroke-linejoin="bevel"
     stroke-dasharray="none"
     stroke-opacity="1"
     d="m 3868.076,711.72061 0.1072,-1.70508 0.1073,-1.69436 0.1072,-1.69436 0.3217,-1.68363 0.3217,-1.67291 0.3218,-1.65146 0.5361,-1.64074 0.5362,-1.6193 0.5362,-1.58712 0.6435,-1.56567 0.7506,-1.5335 0.8579,-1.51206 0.8579,-1.46915 0.8579,-1.42627 1.0724,-1.39409 0.9651,-1.34047 1.1797,-1.30831 1.0723,-1.24396 1.1797,-1.21178 1.2868,-1.14745 1.2869,-1.09383 1.3941,-1.05093 1.3941,-0.97586 1.394,-0.92225 1.5014,-0.86862 1.5013,-0.79356 1.5013,-0.73995 1.6086,-0.66487 1.6086,-0.60053 1.6085,-0.53619 1.6086,-0.46113 1.6086,-0.39678 1.7158,-0.32171 1.7158,-0.24665 1.7158,-0.1823 1.6086,-0.10724 1.7158,-0.0429 1.7158,0.0429 1.7158,0.10724 1.7158,0.1823 1.6086,0.24665 1.7158,0.32171 1.6085,0.39678 1.7158,0.46113 1.6086,0.53619 1.6086,0.60053 1.5013,0.66487 1.6086,0.73995 1.5013,0.79356 1.3941,0.86862 1.5013,0.92225 1.3941,0.97586 1.2869,1.05093 1.2868,1.09383 1.2869,1.14745 1.1796,1.21178 1.1796,1.24396 1.0724,1.30831 1.0724,1.34047 0.9651,1.39409 0.9652,1.42627 0.8579,1.46915 0.7506,1.51206 0.7507,1.5335 0.6434,1.56567 0.6434,1.58712 0.5362,1.6193 0.429,1.64074 0.4289,1.65146 0.3217,1.67291 0.2145,1.68363 0.2145,1.69436 0.1072,1.69436 v 1.70508 1.70509 l -0.1072,1.69435 -0.2145,1.69436 -0.2145,1.68364 -0.3217,1.67291 -0.4289,1.65146 -0.429,1.64074 -0.5362,1.61929 -0.6434,1.59785 -0.6434,1.56567 -0.7507,1.5335 -0.7506,1.50133 -0.8579,1.46916 -0.9652,1.42627 -0.9651,1.39409 -1.0724,1.35119 -1.0724,1.29758 -1.1796,1.25469 -1.1796,1.20106 -1.2869,1.14745 -1.2868,1.10455 -1.2869,1.0402 -1.3941,0.98659 -1.5013,0.92225 -1.3941,0.8579 -1.5013,0.79356 -1.6086,0.73994 -1.5013,0.66488 -1.6086,0.60053 -1.6086,0.53619 -1.7158,0.46112 -1.6085,0.39678 -1.7158,0.32172 -1.6086,0.25737 -1.7158,0.17158 -1.7158,0.10723 -1.7158,0.0429 -1.7158,-0.0429 -1.6086,-0.10723 -1.7158,-0.17158 -1.7158,-0.25737 -1.7158,-0.32172 -1.6086,-0.39678 -1.6086,-0.46112 -1.6085,-0.53619 -1.6086,-0.60053 -1.6086,-0.66488 -1.5013,-0.73994 -1.5013,-0.79356 -1.5014,-0.8579 -1.394,-0.92225 -1.3941,-0.98659 -1.3941,-1.0402 -1.2869,-1.10455 -1.2868,-1.14745 -1.1797,-1.20106 -1.0723,-1.25469 -1.1797,-1.29758 -0.9651,-1.35119 -1.0724,-1.39409 -0.8579,-1.42627 -0.8579,-1.46916 -0.8579,-1.50133 -0.7506,-1.5335 -0.6435,-1.56567 -0.5362,-1.59785 -0.5362,-1.61929 -0.5361,-1.64074 -0.3218,-1.65146 -0.3217,-1.67291 -0.3217,-1.68364 -0.1072,-1.69436 -0.1073,-1.69435 z"
     id="board_led"
     style="fill:#1c1f26;fill-opacity:1;stroke-width:23.6221;stroke-dasharray:none" /><path
     fill="none"
     fill-opacity="1"
     fill-rule="evenodd"
     stroke="#000000"
     stroke-width="0.937501"
     stroke-linecap="round"
     stroke-linejoin="bevel"
     stroke-dasharray="none"
     stroke-opacity="1"
     d="m 907.77438,1903.541 -0.10724,-2.6166 -0.10723,-2.6166 -0.10724,-2.6166 -0.32171,-2.6059 -0.32172,-2.5952 -0.32171,-2.5844 -0.53619,-2.5737 -0.53619,-2.563 -0.53619,-2.5522 -0.75067,-2.5201 -0.75066,-2.5094 -0.75067,-2.4879 -0.8579,-2.4665 -0.96514,-2.4343 -1.07238,-2.4128 -1.07238,-2.3807 -1.17961,-2.3593 -1.17962,-2.3163 -1.28685,-2.2842 -1.28686,-2.252 -1.39409,-2.2091 -1.50133,-2.1662 -1.50133,-2.134 -1.60857,-2.0911 -1.60857,-2.0376 -1.71581,-1.9946 -1.7158,-1.9517 -1.82305,-1.8981 -1.82304,-1.8552 -1.93028,-1.8016 -1.93028,-1.748 -2.03752,-1.6836 -2.03752,-1.6408 -2.03752,-1.5764 -2.14476,-1.5228 -2.25199,-1.4584 -2.14476,-1.4048 -2.252,-1.3405 -2.25199,-1.2761 -2.35924,-1.2118 -2.35923,-1.1475 -2.35923,-1.0938 -2.46647,-1.008 -2.35924,-0.9544 -2.46647,-0.8901 -2.57371,-0.815 -2.46647,-0.74 -2.57371,-0.6756 -2.46647,-0.6112 -2.57371,-0.5362 -2.57371,-0.4718 -2.57371,-0.3968 -2.68094,-0.3217 -2.57371,-0.2467 -2.57371,-0.1823 -2.68095,-0.1072 -2.57371,-0.043 -2.57371,0.043 -2.68094,0.1072 -2.57371,0.1823 -2.57371,0.2467 -2.68095,0.3217 -2.57371,0.3968 -2.57371,0.4718 -2.57371,0.5362 -2.46647,0.6112 -2.57371,0.6756 -2.46647,0.74 -2.57371,0.815 -2.46647,0.8901 -2.35923,0.9544 -2.46647,1.008 -2.35924,1.0938 -2.35923,1.1475 -2.35923,1.2118 -2.252,1.2761 -2.25199,1.3405 -2.14476,1.4048 -2.252,1.4584 -2.14475,1.5228 -2.03752,1.5764 -2.03752,1.6408 -2.03752,1.6836 -1.93029,1.748 -1.93028,1.8016 -1.82304,1.8552 -1.82305,1.8981 -1.7158,1.9517 -1.71581,1.9946 -1.60857,2.0376 -1.60856,2.0911 -1.50133,2.134 -1.3941,2.1662 -1.50133,2.2091 -1.28685,2.252 -1.28686,2.2842 -1.17961,2.3163 -1.17962,2.3593 -1.07238,2.3807 -1.07238,2.4128 -0.8579,2.4343 -0.96514,2.4665 -0.75067,2.4879 -0.75066,2.5094 -0.75067,2.5201 -0.53619,2.5522 -0.53619,2.563 -0.53618,2.5737 -0.32172,2.5844 -0.32171,2.5952 -0.32172,2.6059 -0.10723,2.6166 -0.10724,2.6166 -0.10724,2.6166 0.10724,2.6166 0.10724,2.6166 0.10723,2.6059 0.32172,2.6059 0.32171,2.5951 0.32172,2.5844 0.53618,2.5845 0.53619,2.563 0.53619,2.5415 0.75067,2.5308 0.75066,2.5094 0.75067,2.4879 0.96514,2.4558 0.8579,2.445 1.07238,2.4128 1.07238,2.3807 1.17962,2.3485 1.17961,2.3164 1.28686,2.2841 1.28685,2.252 1.50133,2.2091 1.3941,2.1769 1.50133,2.1234 1.60856,2.0911 1.60857,2.0375 1.71581,2.0054 1.7158,1.941 1.82305,1.9088 1.82304,1.8445 1.93028,1.8016 1.93029,1.748 2.03752,1.6943 2.03752,1.63 2.03752,1.5764 2.14475,1.5228 2.252,1.4692 2.14476,1.3941 2.25199,1.3404 2.252,1.2762 2.35923,1.2118 2.35923,1.1581 2.35924,1.0831 2.46647,1.0188 2.35923,0.9437 2.46647,0.8901 2.57371,0.815 2.46647,0.7506 2.57371,0.6756 2.46647,0.6006 2.57371,0.5362 2.57371,0.4718 2.57371,0.3968 2.68095,0.3217 2.57371,0.2574 2.57371,0.1715 2.68094,0.1073 2.57371,0.043 2.57371,-0.043 2.68095,-0.1073 2.57371,-0.1715 2.57371,-0.2574 2.68094,-0.3217 2.57371,-0.3968 2.57371,-0.4718 2.57371,-0.5362 2.46647,-0.6006 2.57371,-0.6756 2.46647,-0.7506 2.57371,-0.815 2.46647,-0.8901 2.35924,-0.9437 2.46647,-1.0188 2.35923,-1.0831 2.35923,-1.1581 2.35924,-1.2118 2.25199,-1.2762 2.252,-1.3404 2.14476,-1.3941 2.25199,-1.4692 2.14476,-1.5228 2.03752,-1.5764 2.03752,-1.63 2.03752,-1.6943 1.93028,-1.748 1.93028,-1.8016 1.82304,-1.8445 1.82305,-1.9088 1.7158,-1.941 1.71581,-2.0054 1.60857,-2.0375 1.60857,-2.0911 1.50133,-2.1234 1.50133,-2.1769 1.39409,-2.2091 1.28686,-2.252 1.28685,-2.2841 1.17962,-2.3164 1.17961,-2.3485 1.07238,-2.3807 1.07238,-2.4128 0.96514,-2.445 0.8579,-2.4558 0.75067,-2.4879 0.75066,-2.5094 0.75067,-2.5308 0.53619,-2.5415 0.53619,-2.563 0.53619,-2.5845 0.32171,-2.5844 0.32172,-2.5951 0.32171,-2.6059 0.10724,-2.6059 0.10723,-2.6166 z"
     id="pin07"
     style="fill:#1c1f26;fill-opacity:1;stroke-width:23.6221;stroke-dasharray:none" /><path
     fill="none"
     fill-opacity="1"
     fill-rule="evenodd"
     stroke="#000000"
     stroke-width="0.937501"
     stroke-linecap="round"
     stroke-linejoin="bevel"
     stroke-dasharray="none"
     stroke-opacity="1"
     d="m 423.38088,1903.541 -0.10724,-2.6166 -0.10723,-2.6166 -0.10724,-2.6166 -0.32172,-2.6059 -0.32171,-2.5952 -0.32171,-2.5844 -0.53619,-2.5737 -0.53619,-2.563 -0.53619,-2.5522 -0.75067,-2.5201 -0.75066,-2.5094 -0.75067,-2.4879 -0.96514,-2.4665 -0.8579,-2.4343 -1.07238,-2.4128 -1.07238,-2.3807 -1.17961,-2.3593 -1.17962,-2.3163 -1.28686,-2.2842 -1.39409,-2.252 -1.39409,-2.2091 -1.39409,-2.1662 -1.50133,-2.134 -1.60857,-2.0911 -1.60857,-2.0376 -1.71581,-1.9946 -1.7158,-1.9517 -1.82305,-1.8981 -1.82304,-1.8552 -1.93028,-1.8016 -1.93028,-1.748 -2.03752,-1.6836 -2.03752,-1.6408 -2.14476,-1.5764 -2.03752,-1.5228 -2.252,-1.4584 -2.14475,-1.4048 -2.252,-1.3405 -2.35923,-1.2761 -2.252,-1.2118 -2.35923,-1.1475 -2.35923,-1.0938 -2.46648,-1.008 -2.46647,-0.9544 -2.46647,-0.8901 -2.46647,-0.815 -2.46647,-0.74 -2.57371,-0.6756 -2.46647,-0.6112 -2.57371,-0.5362 -2.57371,-0.4718 -2.57371,-0.3968 -2.68094,-0.3217 -2.57371,-0.2467 -2.57371,-0.1823 -2.68095,-0.1072 -2.57371,-0.043 -2.68095,0.043 -2.5737,0.1072 -2.57371,0.1823 -2.68095,0.2467 -2.57371,0.3217 -2.57371,0.3968 -2.57371,0.4718 -2.57371,0.5362 -2.57371,0.6112 -2.46647,0.6756 -2.46647,0.74 -2.57371,0.815 -2.46647,0.8901 -2.35923,0.9544 -2.46647,1.008 -2.35924,1.0938 -2.35923,1.1475 -2.35923,1.2118 -2.252,1.2761 -2.25199,1.3405 -2.252,1.4048 -2.14476,1.4584 -2.14476,1.5228 -2.03752,1.5764 -2.03751,1.6408 -2.03752,1.6836 -1.93029,1.748 -1.93028,1.8016 -1.82304,1.8552 -1.82305,1.8981 -1.7158,1.9517 -1.71581,1.9946 -1.60857,2.0376 -1.60856,2.0911 -1.50133,2.134 -1.50134,2.1662 -1.39409,2.2091 -1.28685,2.252 -1.28686,2.2842 -1.17961,2.3163 -1.17962,2.3593 -1.07238,2.3807 -1.07238,2.4128 -0.96514,2.4343 -0.8579,2.4665 -0.75067,2.4879 -0.75066,2.5094 -0.75067,2.5201 -0.53619,2.5522 -0.53619,2.563 -0.53619,2.5737 -0.32171,2.5844 -0.32171,2.5952 -0.32172,2.6059 -0.10723,2.6166 -0.10724,2.6166 -0.10724,2.6166 0.10724,2.6166 0.10724,2.6166 0.10723,2.6059 0.32172,2.6059 0.32171,2.5951 0.32171,2.5844 0.53619,2.5845 0.53619,2.563 0.53619,2.5415 0.75067,2.5308 0.75066,2.5094 0.75067,2.4879 0.8579,2.4558 0.96514,2.445 1.07238,2.4128 1.07238,2.3807 1.17962,2.3485 1.17961,2.3164 1.28686,2.2841 1.28685,2.252 1.39409,2.2091 1.50134,2.1769 1.50133,2.1234 1.60856,2.0911 1.60857,2.0375 1.71581,2.0054 1.7158,1.941 1.82305,1.9088 1.82304,1.8445 1.93028,1.8016 1.93029,1.748 2.03752,1.6943 2.03751,1.63 2.03752,1.5764 2.14476,1.5228 2.14476,1.4692 2.252,1.3941 2.25199,1.3404 2.252,1.2762 2.35923,1.2118 2.35923,1.1581 2.35924,1.0831 2.46647,1.0188 2.35923,0.9437 2.46647,0.8901 2.57371,0.815 2.46647,0.7506 2.46647,0.6756 2.57371,0.6006 2.57371,0.5362 2.57371,0.4718 2.57371,0.3968 2.57371,0.3217 2.68095,0.2574 2.57371,0.1715 2.5737,0.1073 2.68095,0.043 2.57371,-0.043 2.68095,-0.1073 2.57371,-0.1715 2.57371,-0.2574 2.68094,-0.3217 2.57371,-0.3968 2.57371,-0.4718 2.57371,-0.5362 2.46647,-0.6006 2.57371,-0.6756 2.46647,-0.7506 2.46647,-0.815 2.46647,-0.8901 2.46647,-0.9437 2.46648,-1.0188 2.35923,-1.0831 2.35923,-1.1581 2.252,-1.2118 2.35923,-1.2762 2.252,-1.3404 2.14475,-1.3941 2.252,-1.4692 2.03752,-1.5228 2.14476,-1.5764 2.03752,-1.63 2.03752,-1.6943 1.93028,-1.748 1.93028,-1.8016 1.82304,-1.8445 1.82305,-1.9088 1.7158,-1.941 1.71581,-2.0054 1.60857,-2.0375 1.60857,-2.0911 1.50133,-2.1234 1.39409,-2.1769 1.39409,-2.2091 1.39409,-2.252 1.28686,-2.2841 1.17962,-2.3164 1.17961,-2.3485 1.07238,-2.3807 1.07238,-2.4128 0.8579,-2.445 0.96514,-2.4558 0.75067,-2.4879 0.75066,-2.5094 0.75067,-2.5308 0.53619,-2.5415 0.53619,-2.563 0.53619,-2.5845 0.32171,-2.5844 0.32171,-2.5951 0.32172,-2.6059 0.10724,-2.6059 0.10723,-2.6166 z"
     id="pin08"
     style="fill:#1c1f26;fill-opacity:1;stroke-width:23.6221;stroke-dasharray:none" /><path
     fill="none"
     fill-opacity="1"
     fill-rule="evenodd"
     stroke="#000000"
     stroke-width="0.937501"
     stroke-linecap="round"
     stroke-linejoin="bevel"
     stroke-dasharray="none"
     stroke-opacity="1"
     d="m 2360.9549,1903.541 v -2.6166 l -0.1072,-2.6166 -0.2145,-2.6166 -0.2144,-2.6059 -0.3218,-2.5952 -0.4289,-2.5844 -0.429,-2.5737 -0.5361,-2.563 -0.6435,-2.5522 -0.6434,-2.5201 -0.7507,-2.5094 -0.8579,-2.4879 -0.8579,-2.4665 -0.9651,-2.4343 -0.9652,-2.4128 -1.1796,-2.3807 -1.0724,-2.3593 -1.2868,-2.3163 -1.1796,-2.2842 -1.3941,-2.252 -1.3941,-2.2091 -1.5013,-2.1662 -1.5014,-2.134 -1.6085,-2.0911 -1.6086,-2.0376 -1.7158,-1.9946 -1.7158,-1.9517 -1.8231,-1.8981 -1.823,-1.8552 -1.9303,-1.8016 -1.9303,-1.748 -1.9303,-1.6836 -2.1447,-1.6408 -2.0375,-1.5764 -2.1448,-1.5228 -2.1447,-1.4584 -2.252,-1.4048 -2.252,-1.3405 -2.252,-1.2761 -2.3593,-1.2118 -2.3592,-1.1475 -2.3592,-1.0938 -2.3593,-1.008 -2.4664,-0.9544 -2.4665,-0.8901 -2.4665,-0.815 -2.5737,-0.74 -2.4665,-0.6756 -2.5737,-0.6112 -2.5737,-0.5362 -2.5737,-0.4718 -2.5737,-0.3968 -2.5737,-0.3217 -2.5737,-0.2467 -2.681,-0.1823 -2.5737,-0.1072 -2.6809,-0.043 -2.5737,0.043 -2.5737,0.1072 -2.681,0.1823 -2.5737,0.2467 -2.5737,0.3217 -2.5737,0.3968 -2.5737,0.4718 -2.5737,0.5362 -2.5737,0.6112 -2.5737,0.6756 -2.4665,0.74 -2.4665,0.815 -2.4665,0.8901 -2.4664,0.9544 -2.3593,1.008 -2.4664,1.0938 -2.252,1.1475 -2.3593,1.2118 -2.252,1.2761 -2.252,1.3405 -2.2519,1.4048 -2.1448,1.4584 -2.1448,1.5228 -2.1447,1.5764 -2.0375,1.6408 -1.9303,1.6836 -1.9303,1.748 -1.9303,1.8016 -1.823,1.8552 -1.8231,1.8981 -1.7158,1.9517 -1.7158,1.9946 -1.6086,2.0376 -1.6085,2.0911 -1.5014,2.134 -1.5013,2.1662 -1.3941,2.2091 -1.3941,2.252 -1.1796,2.2842 -1.2868,2.3163 -1.1797,2.3593 -1.0723,2.3807 -0.9652,2.4128 -0.9651,2.4343 -0.8579,2.4665 -0.8579,2.4879 -0.7507,2.5094 -0.6434,2.5201 -0.6434,2.5522 -0.5362,2.563 -0.429,2.5737 -0.4289,2.5844 -0.3217,2.5952 -0.2145,2.6059 -0.2145,2.6166 -0.1072,2.6166 v 2.6166 2.6166 l 0.1072,2.6166 0.2145,2.6059 0.2145,2.6059 0.3217,2.5951 0.4289,2.5844 0.429,2.5845 0.5362,2.563 0.6434,2.5415 0.6434,2.5308 0.7507,2.5094 0.8579,2.4879 0.8579,2.4558 0.9651,2.445 0.9652,2.4128 1.0723,2.3807 1.1797,2.3485 1.2868,2.3164 1.1796,2.2841 1.3941,2.252 1.3941,2.2091 1.5013,2.1769 1.5014,2.1234 1.6085,2.0911 1.6086,2.0375 1.7158,2.0054 1.7158,1.941 1.8231,1.9088 1.823,1.8445 1.9303,1.8016 1.9303,1.748 1.9303,1.6943 2.0375,1.63 2.1447,1.5764 2.1448,1.5228 2.1448,1.4692 2.2519,1.3941 2.252,1.3404 2.252,1.2762 2.3593,1.2118 2.252,1.1581 2.4664,1.0831 2.3593,1.0188 2.4664,0.9437 2.4665,0.8901 2.4665,0.815 2.4665,0.7506 2.5737,0.6756 2.5737,0.6006 2.5737,0.5362 2.5737,0.4718 2.5737,0.3968 2.5737,0.3217 2.5737,0.2574 2.681,0.1715 2.5737,0.1073 2.5737,0.043 2.6809,-0.043 2.5737,-0.1073 2.681,-0.1715 2.5737,-0.2574 2.5737,-0.3217 2.5737,-0.3968 2.5737,-0.4718 2.5737,-0.5362 2.5737,-0.6006 2.4665,-0.6756 2.5737,-0.7506 2.4665,-0.815 2.4665,-0.8901 2.4664,-0.9437 2.3593,-1.0188 2.3592,-1.0831 2.3592,-1.1581 2.3593,-1.2118 2.252,-1.2762 2.252,-1.3404 2.252,-1.3941 2.1447,-1.4692 2.1448,-1.5228 2.0375,-1.5764 2.1447,-1.63 1.9303,-1.6943 1.9303,-1.748 1.9303,-1.8016 1.823,-1.8445 1.8231,-1.9088 1.7158,-1.941 1.7158,-2.0054 1.6086,-2.0375 1.6085,-2.0911 1.5014,-2.1234 1.5013,-2.1769 1.3941,-2.2091 1.3941,-2.252 1.1796,-2.2841 1.2868,-2.3164 1.0724,-2.3485 1.1796,-2.3807 0.9652,-2.4128 0.9651,-2.445 0.8579,-2.4558 0.8579,-2.4879 0.7507,-2.5094 0.6434,-2.5308 0.6435,-2.5415 0.5361,-2.563 0.429,-2.5845 0.4289,-2.5844 0.3218,-2.5951 0.2144,-2.6059 0.2145,-2.6059 0.1072,-2.6166 z"
     id="pin04"
     style="fill:#1c1f26;fill-opacity:1;stroke-width:23.6221;stroke-dasharray:none" /><path
     fill="none"
     fill-opacity="1"
     fill-rule="evenodd"
     stroke="#000000"
     stroke-width="0.937501"
     stroke-linecap="round"
     stroke-linejoin="bevel"
     stroke-dasharray="none"
     stroke-opacity="1"
     d="m 3796.3339,711.72061 v -2.36995 l -0.1073,-2.36996 -0.2145,-2.35923 -0.2144,-2.35924 -0.3217,-2.34851 -0.429,-2.33778 -0.4289,-2.32706 -0.5362,-2.30562 -0.6435,-2.29489 -0.6434,-2.27344 -0.7507,-2.24127 -0.8579,-2.23055 -0.8579,-2.19838 -0.9651,-2.17693 -0.9651,-2.14476 -1.0724,-2.11258 -1.1796,-2.08042 -1.1797,-2.04824 -1.2868,-2.00535 -1.2869,-1.96245 -1.3941,-1.93028 -1.3941,-1.87667 -1.5013,-1.84449 -1.6085,-1.79087 -1.6086,-1.74798 -1.6086,-1.69436 -1.7158,-1.64074 -1.823,-1.59784 -1.7158,-1.5335 -1.9303,-1.47988 -1.8231,-1.42627 -1.9302,-1.36192 -2.0376,-1.3083 -2.0375,-1.25469 -2.0375,-1.17961 -2.0375,-1.126 -2.1448,-1.06165 -2.1447,-0.98659 -2.1448,-0.93297 -2.252,-0.85791 -2.252,-0.79356 -2.252,-0.72921 -2.252,-0.65415 -2.252,-0.58981 -2.3592,-0.51474 -2.3592,-0.4504 -2.3593,-0.37534 -2.252,-0.30026 -2.3592,-0.23593 -2.4665,-0.16085 -2.3592,-0.0858 -2.3592,-0.0214 -2.3593,0.0536 -2.3592,0.12868 -2.3592,0.19303 -2.3593,0.2681 -2.3592,0.34316 -2.3592,0.4075 -2.252,0.48257 -2.3593,0.55764 -2.252,0.62198 -2.252,0.68632 -2.252,0.76139 -2.252,0.82573 -2.1447,0.9008 -2.1448,0.95442 -2.1447,1.02948 -2.1448,1.09383 -2.0375,1.14744 -2.0375,1.22251 -2.0375,1.27614 -1.9303,1.34047 -1.9303,1.39409 -1.8231,1.44771 -1.9302,1.51206 -1.7158,1.56567 -1.7158,1.61929 -1.7159,1.67291 -1.6085,1.71581 -1.6086,1.76942 -1.5013,1.81232 -1.5013,1.86594 -1.3941,1.89811 -1.3941,1.95173 -1.2869,1.9839 -1.1796,2.0268 -1.1796,2.05897 -1.0724,2.10186 -1.0724,2.12331 -0.9651,2.1662 -0.9652,2.18766 -0.8579,2.2091 -0.7506,2.24127 -0.6435,2.26272 -0.6434,2.28417 -0.6434,2.30561 -0.429,2.31634 -0.4289,2.32706 -0.429,2.34851 -0.2144,2.34851 -0.2145,2.35923 -0.2145,2.36996 v 2.36996 2.36995 2.36996 l 0.2145,2.35923 0.2145,2.35924 0.2144,2.35923 0.429,2.33779 0.4289,2.33778 0.429,2.31634 0.6434,2.29489 0.6434,2.28417 0.6435,2.26272 0.7506,2.24127 0.8579,2.2091 0.9652,2.19838 0.9651,2.15548 1.0724,2.12331 1.0724,2.10186 1.1796,2.05897 1.1796,2.02679 1.2869,1.9839 1.3941,1.95173 1.3941,1.90884 1.5013,1.85521 1.5013,1.81232 1.6086,1.76943 1.6085,1.72653 1.7159,1.66218 1.7158,1.6193 1.7158,1.56567 1.9302,1.51205 1.8231,1.45844 1.9303,1.39409 1.9303,1.34047 2.0375,1.27614 2.0375,1.21178 2.0375,1.15817 2.1448,1.08311 2.1447,1.02948 2.1448,0.96514 2.1447,0.89007 2.252,0.82574 2.252,0.76138 2.252,0.69705 2.252,0.62198 2.3593,0.54691 2.252,0.48257 2.3592,0.40751 2.3592,0.34316 2.3593,0.26809 2.3592,0.20376 2.3592,0.11796 2.3593,0.0536 2.3592,-0.0107 2.3592,-0.0965 2.4665,-0.16086 2.3592,-0.2252 2.252,-0.31099 2.3593,-0.37533 2.3592,-0.4504 2.3592,-0.51474 2.252,-0.58981 2.252,-0.65415 2.252,-0.72922 2.252,-0.79356 2.252,-0.8579 2.1448,-0.92225 2.1447,-0.99731 2.1448,-1.06165 2.0375,-1.11528 2.0375,-1.19034 2.0375,-1.24396 2.0376,-1.3083 1.9302,-1.37264 1.8231,-1.42627 1.9303,-1.47988 1.7158,-1.5335 1.823,-1.58712 1.7158,-1.65147 1.6086,-1.69436 1.6086,-1.74797 1.6085,-1.79088 1.5013,-1.83376 1.3941,-1.88739 1.3941,-1.91956 1.2869,-1.97317 1.2868,-2.00535 1.1797,-2.04825 1.1796,-2.06969 1.0724,-2.11258 0.9651,-2.14476 0.9651,-2.17693 0.8579,-2.19838 0.8579,-2.23054 0.7507,-2.252 0.6434,-2.27344 0.6435,-2.29489 0.5362,-2.30562 0.4289,-2.32706 0.429,-2.33779 0.3217,-2.34851 0.2144,-2.35923 0.2145,-2.35923 0.1073,-2.36996 z"
     id="boot"
     style="fill:#1c1f26;fill-opacity:1;stroke-width:23.6221;stroke-dasharray:none" /><path
     fill="none"
     fill-opacity="1"
     fill-rule="evenodd"
     stroke="#000000"
     stroke-width="0.937501"
     stroke-linecap="round"
     stroke-linejoin="bevel"
     stroke-dasharray="none"
     stroke-opacity="1"
     d="m 1392.1679,1903.541 v -2.6166 l -0.1072,-2.6166 -0.2145,-2.6166 -0.2144,-2.6059 -0.3218,-2.5952 -0.4289,-2.5844 -0.5362,-2.5737 -0.5362,-2.563 -0.5362,-2.5522 -0.7506,-2.5201 -0.6435,-2.5094 -0.8579,-2.4879 -0.8579,-2.4665 -0.9651,-2.4343 -1.0724,-2.4128 -1.0724,-2.3807 -1.1796,-2.3593 -1.1796,-2.3163 -1.2869,-2.2842 -1.2868,-2.252 -1.3941,-2.2091 -1.5013,-2.1662 -1.5014,-2.134 -1.6085,-2.0911 -1.6086,-2.0376 -1.7158,-1.9946 -1.7158,-1.9517 -1.8231,-1.8981 -1.823,-1.8552 -1.9303,-1.8016 -1.9303,-1.748 -2.0375,-1.6836 -2.0375,-1.6408 -2.0375,-1.5764 -2.1448,-1.5228 -2.1447,-1.4584 -2.252,-1.4048 -2.252,-1.3405 -2.252,-1.2761 -2.3593,-1.2118 -2.3592,-1.1475 -2.3592,-1.0938 -2.4665,-1.008 -2.3592,-0.9544 -2.4665,-0.8901 -2.4665,-0.815 -2.5737,-0.74 -2.4665,-0.6756 -2.5737,-0.6112 -2.5737,-0.5362 -2.5737,-0.4718 -2.5737,-0.3968 -2.5737,-0.3217 -2.681,-0.2467 -2.5737,-0.1823 -2.5737,-0.1072 -2.6809,-0.043 -2.5737,0.043 -2.681,0.1072 -2.5737,0.1823 -2.5737,0.2467 -2.5737,0.3217 -2.6809,0.3968 -2.5738,0.4718 -2.5737,0.5362 -2.4664,0.6112 -2.5737,0.6756 -2.4665,0.74 -2.4665,0.815 -2.4665,0.8901 -2.4664,0.9544 -2.4665,1.008 -2.3592,1.0938 -2.3593,1.1475 -2.252,1.2118 -2.3592,1.2761 -2.252,1.3405 -2.1447,1.4048 -2.252,1.4584 -2.0376,1.5228 -2.1447,1.5764 -2.0375,1.6408 -2.0376,1.6836 -1.9302,1.748 -1.8231,1.8016 -1.9303,1.8552 -1.7158,1.8981 -1.823,1.9517 -1.7158,1.9946 -1.6086,2.0376 -1.5013,2.0911 -1.6086,2.134 -1.3941,2.1662 -1.3941,2.2091 -1.3941,2.252 -1.2868,2.2842 -1.1796,2.3163 -1.1797,2.3593 -1.0723,2.3807 -0.9652,2.4128 -0.9651,2.4343 -0.9652,2.4665 -0.7506,2.4879 -0.7507,2.5094 -0.6434,2.5201 -0.6434,2.5522 -0.5362,2.563 -0.429,2.5737 -0.4289,2.5844 -0.3218,2.5952 -0.3217,2.6059 -0.1072,2.6166 -0.1072,2.6166 -0.1073,2.6166 0.1073,2.6166 0.1072,2.6166 0.1072,2.6059 0.3217,2.6059 0.3218,2.5951 0.4289,2.5844 0.429,2.5845 0.5362,2.563 0.6434,2.5415 0.6434,2.5308 0.7507,2.5094 0.7506,2.4879 0.9652,2.4558 0.9651,2.445 0.9652,2.4128 1.0723,2.3807 1.1797,2.3485 1.1796,2.3164 1.2868,2.2841 1.3941,2.252 1.3941,2.2091 1.3941,2.1769 1.6086,2.1234 1.5013,2.0911 1.6086,2.0375 1.7158,2.0054 1.823,1.941 1.7158,1.9088 1.9303,1.8445 1.8231,1.8016 1.9302,1.748 2.0376,1.6943 2.0375,1.63 2.1447,1.5764 2.0376,1.5228 2.252,1.4692 2.1447,1.3941 2.252,1.3404 2.3592,1.2762 2.252,1.2118 2.3593,1.1581 2.3592,1.0831 2.4665,1.0188 2.4664,0.9437 2.4665,0.8901 2.4665,0.815 2.4665,0.7506 2.5737,0.6756 2.4664,0.6006 2.5737,0.5362 2.5738,0.4718 2.6809,0.3968 2.5737,0.3217 2.5737,0.2574 2.5737,0.1715 2.681,0.1073 2.5737,0.043 2.6809,-0.043 2.5737,-0.1073 2.5737,-0.1715 2.681,-0.2574 2.5737,-0.3217 2.5737,-0.3968 2.5737,-0.4718 2.5737,-0.5362 2.5737,-0.6006 2.4665,-0.6756 2.5737,-0.7506 2.4665,-0.815 2.4665,-0.8901 2.3592,-0.9437 2.4665,-1.0188 2.3592,-1.0831 2.3592,-1.1581 2.3593,-1.2118 2.252,-1.2762 2.252,-1.3404 2.252,-1.3941 2.1447,-1.4692 2.1448,-1.5228 2.0375,-1.5764 2.0375,-1.63 2.0375,-1.6943 1.9303,-1.748 1.9303,-1.8016 1.823,-1.8445 1.8231,-1.9088 1.7158,-1.941 1.7158,-2.0054 1.6086,-2.0375 1.6085,-2.0911 1.5014,-2.1234 1.5013,-2.1769 1.3941,-2.2091 1.2868,-2.252 1.2869,-2.2841 1.1796,-2.3164 1.1796,-2.3485 1.0724,-2.3807 1.0724,-2.4128 0.9651,-2.445 0.8579,-2.4558 0.8579,-2.4879 0.6435,-2.5094 0.7506,-2.5308 0.5362,-2.5415 0.5362,-2.563 0.5362,-2.5845 0.4289,-2.5844 0.3218,-2.5951 0.2144,-2.6059 0.2145,-2.6059 0.1072,-2.6166 z"
     id="pin06"
     style="fill:#1c1f26;fill-opacity:1;stroke-width:23.6221;stroke-dasharray:none" /><path
     fill="none"
     fill-opacity="1"
     fill-rule="evenodd"
     stroke="#000000"
     stroke-width="0.937501"
     stroke-linecap="round"
     stroke-linejoin="bevel"
     stroke-dasharray="none"
     stroke-opacity="1"
     d="m 4020.0321,711.72061 0.1072,-2.36995 0.1073,-2.36996 0.1072,-2.35923 0.3217,-2.35924 0.3217,-2.34851 0.3217,-2.33778 0.5362,-2.32706 0.5362,-2.30562 0.5362,-2.29489 0.7507,-2.27344 0.7506,-2.24127 0.7507,-2.23055 0.8579,-2.19838 0.9651,-2.17693 1.0724,-2.14476 1.0724,-2.11258 1.0724,-2.08042 1.1796,-2.04824 1.2868,-2.00535 1.3941,-1.96245 1.2869,-1.93028 1.5013,-1.87667 1.5014,-1.84449 1.5013,-1.79087 1.6086,-1.74798 1.7158,-1.69436 1.7158,-1.64074 1.7158,-1.59784 1.823,-1.5335 1.8231,-1.47988 1.9302,-1.42627 1.9303,-1.36192 1.9303,-1.3083 2.0375,-1.25469 2.0375,-1.17961 2.1448,-1.126 2.0375,-1.06165 2.1448,-0.98659 2.252,-0.93297 2.1447,-0.85791 2.252,-0.79356 2.252,-0.72921 2.3593,-0.65415 2.2519,-0.58981 2.252,-0.51474 2.3593,-0.4504 2.3592,-0.37534 2.3592,-0.30026 2.3593,-0.23593 2.3592,-0.16085 2.3592,-0.0858 2.3593,-0.0214 2.3592,0.0536 2.3592,0.12868 2.3593,0.19303 2.3592,0.2681 2.3592,0.34316 2.3593,0.4075 2.3592,0.48257 2.252,0.55764 2.252,0.62198 2.3592,0.68632 2.252,0.76139 2.1448,0.82573 2.252,0.9008 2.1447,0.95442 2.1448,1.02948 2.0375,1.09383 2.1448,1.14744 2.0375,1.22251 1.9303,1.27614 2.0375,1.34047 1.823,1.39409 1.9303,1.44771 1.8231,1.51206 1.823,1.56567 1.7158,1.61929 1.6086,1.67291 1.7158,1.71581 1.5013,1.76942 1.6086,1.81232 1.3941,1.86594 1.3941,1.89811 1.3941,1.95173 1.2868,1.9839 1.2869,2.0268 1.0724,2.05897 1.1796,2.10186 1.0724,2.12331 0.9651,2.1662 0.8579,2.18766 0.8579,2.2091 0.7507,2.24127 0.7506,2.26272 0.6435,2.28417 0.5361,2.30561 0.5362,2.31634 0.429,2.32706 0.3217,2.34851 0.3217,2.34851 0.2145,2.35923 0.1072,2.36996 0.1073,2.36996 v 2.36995 l -0.1073,2.36996 -0.1072,2.35923 -0.2145,2.35924 -0.3217,2.35923 -0.3217,2.33779 -0.429,2.33778 -0.5362,2.31634 -0.5361,2.29489 -0.6435,2.28417 -0.7506,2.26272 -0.7507,2.24127 -0.8579,2.2091 -0.8579,2.19838 -0.9651,2.15548 -1.0724,2.12331 -1.1796,2.10186 -1.0724,2.05897 -1.2869,2.02679 -1.2868,1.9839 -1.3941,1.95173 -1.3941,1.90884 -1.3941,1.85521 -1.6086,1.81232 -1.5013,1.76943 -1.7158,1.72653 -1.6086,1.66218 -1.7158,1.6193 -1.823,1.56567 -1.8231,1.51205 -1.9303,1.45844 -1.823,1.39409 -2.0375,1.34047 -1.9303,1.27614 -2.0375,1.21178 -2.1448,1.15817 -2.0375,1.08311 -2.1448,1.02948 -2.1447,0.96514 -2.252,0.89007 -2.1448,0.82574 -2.252,0.76138 -2.3592,0.69705 -2.252,0.62198 -2.252,0.54691 -2.3592,0.48257 -2.3593,0.40751 -2.3592,0.34316 -2.3592,0.26809 -2.3593,0.20376 -2.3592,0.11796 -2.3592,0.0536 -2.3593,-0.0107 -2.3592,-0.0965 -2.3592,-0.16086 -2.3593,-0.2252 -2.3592,-0.31099 -2.3592,-0.37533 -2.3593,-0.4504 -2.252,-0.51474 -2.2519,-0.58981 -2.3593,-0.65415 -2.252,-0.72922 -2.252,-0.79356 -2.1447,-0.8579 -2.252,-0.92225 -2.1448,-0.99731 -2.0375,-1.06165 -2.1448,-1.11528 -2.0375,-1.19034 -2.0375,-1.24396 -1.9303,-1.3083 -1.9303,-1.37264 -1.9302,-1.42627 -1.8231,-1.47988 -1.823,-1.5335 -1.7158,-1.58712 -1.7158,-1.65147 -1.7158,-1.69436 -1.6086,-1.74797 -1.5013,-1.79088 -1.5014,-1.83376 -1.5013,-1.88739 -1.2869,-1.91956 -1.3941,-1.97317 -1.2868,-2.00535 -1.1796,-2.04825 -1.0724,-2.06969 -1.0724,-2.11258 -1.0724,-2.14476 -0.9651,-2.17693 -0.8579,-2.19838 -0.7507,-2.23054 -0.7506,-2.252 -0.7507,-2.27344 -0.5362,-2.29489 -0.5362,-2.30562 -0.5362,-2.32706 -0.3217,-2.33779 -0.3217,-2.34851 -0.3217,-2.35923 -0.1072,-2.35923 -0.1073,-2.36996 z"
     id="reset"
     style="fill:#1c1f26;fill-opacity:1;stroke-width:23.6221;stroke-dasharray:none" /><path
     fill="none"
     fill-opacity="1"
     fill-rule="evenodd"
     stroke="#000000"
     stroke-width="0.937501"
     stroke-linecap="round"
     stroke-linejoin="bevel"
     stroke-dasharray="none"
     stroke-opacity="1"
     d="m 1876.5614,1903.541 v -2.6166 l -0.1072,-2.6166 -0.2145,-2.6166 -0.2144,-2.6059 -0.3218,-2.5952 -0.4289,-2.5844 -0.429,-2.5737 -0.5362,-2.563 -0.6434,-2.5522 -0.6434,-2.5201 -0.7507,-2.5094 -0.8579,-2.4879 -0.8579,-2.4665 -0.9651,-2.4343 -1.0724,-2.4128 -1.0724,-2.3807 -1.0724,-2.3593 -1.2868,-2.3163 -1.2869,-2.2842 -1.2868,-2.252 -1.3941,-2.2091 -1.5013,-2.1662 -1.5014,-2.134 -1.6085,-2.0911 -1.6086,-2.0376 -1.7158,-1.9946 -1.7158,-1.9517 -1.8231,-1.8981 -1.823,-1.8552 -1.9303,-1.8016 -1.9303,-1.748 -2.0375,-1.6836 -2.0375,-1.6408 -2.0375,-1.5764 -2.1448,-1.5228 -2.1447,-1.4584 -2.252,-1.4048 -2.252,-1.3405 -2.252,-1.2761 -2.3593,-1.2118 -2.3592,-1.1475 -2.3592,-1.0938 -2.3593,-1.008 -2.4664,-0.9544 -2.4665,-0.8901 -2.4665,-0.815 -2.5737,-0.74 -2.4665,-0.6756 -2.5737,-0.6112 -2.5737,-0.5362 -2.5737,-0.4718 -2.5737,-0.3968 -2.5737,-0.3217 -2.681,-0.2467 -2.5737,-0.1823 -2.5737,-0.1072 -2.6809,-0.043 -2.5737,0.043 -2.5737,0.1072 -2.681,0.1823 -2.5737,0.2467 -2.5737,0.3217 -2.5737,0.3968 -2.5737,0.4718 -2.5737,0.5362 -2.5737,0.6112 -2.5737,0.6756 -2.4665,0.74 -2.4665,0.815 -2.4665,0.8901 -2.4664,0.9544 -2.3593,1.008 -2.4664,1.0938 -2.3593,1.1475 -2.252,1.2118 -2.3592,1.2761 -2.1448,1.3405 -2.2519,1.4048 -2.1448,1.4584 -2.1448,1.5228 -2.1447,1.5764 -2.0375,1.6408 -1.9303,1.6836 -2.0375,1.748 -1.8231,1.8016 -1.9303,1.8552 -1.7158,1.8981 -1.823,1.9517 -1.6086,1.9946 -1.7158,2.0376 -1.5013,2.0911 -1.6086,2.134 -1.3941,2.1662 -1.3941,2.2091 -1.3941,2.252 -1.2868,2.2842 -1.1796,2.3163 -1.1797,2.3593 -1.0723,2.3807 -0.9652,2.4128 -0.9651,2.4343 -0.8579,2.4665 -0.8579,2.4879 -0.7507,2.5094 -0.6434,2.5201 -0.6434,2.5522 -0.5362,2.563 -0.429,2.5737 -0.4289,2.5844 -0.3217,2.5952 -0.2145,2.6059 -0.2145,2.6166 -0.1072,2.6166 v 2.6166 2.6166 l 0.1072,2.6166 0.2145,2.6059 0.2145,2.6059 0.3217,2.5951 0.4289,2.5844 0.429,2.5845 0.5362,2.563 0.6434,2.5415 0.6434,2.5308 0.7507,2.5094 0.8579,2.4879 0.8579,2.4558 0.9651,2.445 0.9652,2.4128 1.0723,2.3807 1.1797,2.3485 1.1796,2.3164 1.2868,2.2841 1.3941,2.252 1.3941,2.2091 1.3941,2.1769 1.6086,2.1234 1.5013,2.0911 1.7158,2.0375 1.6086,2.0054 1.823,1.941 1.7158,1.9088 1.9303,1.8445 1.8231,1.8016 2.0375,1.748 1.9303,1.6943 2.0375,1.63 2.1447,1.5764 2.1448,1.5228 2.1448,1.4692 2.2519,1.3941 2.1448,1.3404 2.3592,1.2762 2.252,1.2118 2.3593,1.1581 2.4664,1.0831 2.3593,1.0188 2.4664,0.9437 2.4665,0.8901 2.4665,0.815 2.4665,0.7506 2.5737,0.6756 2.5737,0.6006 2.5737,0.5362 2.5737,0.4718 2.5737,0.3968 2.5737,0.3217 2.5737,0.2574 2.681,0.1715 2.5737,0.1073 2.5737,0.043 2.6809,-0.043 2.5737,-0.1073 2.5737,-0.1715 2.681,-0.2574 2.5737,-0.3217 2.5737,-0.3968 2.5737,-0.4718 2.5737,-0.5362 2.5737,-0.6006 2.4665,-0.6756 2.5737,-0.7506 2.4665,-0.815 2.4665,-0.8901 2.4664,-0.9437 2.3593,-1.0188 2.3592,-1.0831 2.3592,-1.1581 2.3593,-1.2118 2.252,-1.2762 2.252,-1.3404 2.252,-1.3941 2.1447,-1.4692 2.1448,-1.5228 2.0375,-1.5764 2.0375,-1.63 2.0375,-1.6943 1.9303,-1.748 1.9303,-1.8016 1.823,-1.8445 1.8231,-1.9088 1.7158,-1.941 1.7158,-2.0054 1.6086,-2.0375 1.6085,-2.0911 1.5014,-2.1234 1.5013,-2.1769 1.3941,-2.2091 1.2868,-2.252 1.2869,-2.2841 1.2868,-2.3164 1.0724,-2.3485 1.0724,-2.3807 1.0724,-2.4128 0.9651,-2.445 0.8579,-2.4558 0.8579,-2.4879 0.7507,-2.5094 0.6434,-2.5308 0.6434,-2.5415 0.5362,-2.563 0.429,-2.5845 0.4289,-2.5844 0.3218,-2.5951 0.2144,-2.6059 0.2145,-2.6059 0.1072,-2.6166 z"
     id="pin05"
     style="fill:#1c1f26;fill-opacity:1;stroke-width:23.6221;stroke-dasharray:none" /><path
     fill="none"
     fill-opacity="1"
     fill-rule="evenodd"
     stroke="#000000"
     stroke-width="0.937501"
     stroke-linecap="round"
     stroke-linejoin="bevel"
     stroke-dasharray="none"
     stroke-opacity="1"
     d="m 2420.4719,218.66229 v 557.22947 1.5764 l -0.1073,1.58712 -0.2144,1.57639 -0.2145,1.56568 -0.3217,1.54422 -0.3217,1.54423 -0.429,1.52278 -0.5362,1.50133 -0.6434,1.46916 -0.5362,1.44771 -0.7507,1.42626 -0.7506,1.38337 -0.8579,1.36192 -0.8579,1.3083 -0.9652,1.28686 -0.9651,1.23323 -1.0724,1.19034 -1.0724,1.13672 -1.1796,1.10455 -1.1796,1.04021 -1.1796,0.98659 -1.2869,0.94369 -1.2868,0.87935 -1.3941,0.82574 -1.3941,0.76139 -1.3941,0.69704 -1.5013,0.63271 -1.5014,0.57908 -1.5013,0.50402 -1.5013,0.4504 -1.5014,0.37533 -1.6085,0.31099 -1.5014,0.23592 -1.6085,0.17158 -1.6086,0.10724 -1.5013,0.0322 h -557.2081 l -1.6085,-0.0322 -1.6086,-0.10724 -1.6086,-0.17158 -1.5013,-0.23592 -1.6086,-0.31099 -1.5013,-0.37533 -1.5013,-0.4504 -1.5013,-0.50402 -1.5014,-0.57908 -1.5013,-0.63271 -1.3941,-0.69704 -1.3941,-0.76139 -1.2868,-0.82574 -1.3941,-0.87935 -1.2869,-0.94369 -1.1796,-0.98659 -1.1796,-1.04021 -1.1796,-1.10455 -1.0724,-1.13672 -1.0724,-1.19034 -0.9651,-1.23323 -0.9652,-1.28686 -0.8579,-1.3083 -0.8579,-1.36192 -0.7507,-1.38337 -0.6434,-1.42626 -0.6434,-1.44771 -0.6434,-1.46916 -0.429,-1.50133 -0.4289,-1.52278 -0.429,-1.54423 -0.3217,-1.54422 -0.2145,-1.56568 -0.2145,-1.57639 -0.1072,-1.58712 v -1.5764 -557.22947 -1.58712 l 0.1072,-1.5764 0.2145,-1.57639 0.2145,-1.56568 0.3217,-1.55494 0.429,-1.53351 0.4289,-1.52277 0.429,-1.50133 0.6434,-1.47989 0.6434,-1.44771 0.6434,-1.41554 0.7507,-1.39409 0.8579,-1.3512 0.8579,-1.31902 0.9652,-1.27613 0.9651,-1.23324 1.0724,-1.19034 1.0724,-1.14745 1.1796,-1.09382 1.1796,-1.05093 1.1796,-0.98659 1.2869,-0.93297 1.3941,-0.87935 1.2868,-0.82573 1.3941,-0.76139 1.3941,-0.69705 1.5013,-0.64343 1.5014,-0.56836 1.5013,-0.51474 1.5013,-0.43967 1.5013,-0.37534 1.6086,-0.31099 1.5013,-0.24664 1.6086,-0.17158 1.6086,-0.0965 1.6085,-0.0429 h 557.2081 l 1.5013,0.0429 1.6086,0.0965 1.6085,0.17158 1.5014,0.24664 1.6085,0.31099 1.5014,0.37534 1.5013,0.43967 1.5013,0.51474 1.5014,0.56836 1.5013,0.64343 1.3941,0.69705 1.3941,0.76139 1.3941,0.82573 1.2868,0.87935 1.2869,0.93297 1.1796,0.98659 1.1796,1.05093 1.1796,1.09382 1.0724,1.14745 1.0724,1.19034 0.9651,1.23324 0.9652,1.27613 0.8579,1.31902 0.8579,1.3512 0.7506,1.39409 0.7507,1.41554 0.5362,1.44771 0.6434,1.47989 0.5362,1.50133 0.429,1.52277 0.3217,1.53351 0.3217,1.55494 0.2145,1.56568 0.2144,1.57639 0.1073,1.5764 z"
     id="pin28"
     style="fill:#1c1f26;fill-opacity:1;stroke-width:23.6221;stroke-dasharray:none" /><path
     fill="none"
     fill-opacity="1"
     fill-rule="evenodd"
     stroke="#000000"
     stroke-width="0.937501"
     stroke-linecap="round"
     stroke-linejoin="bevel"
     stroke-dasharray="none"
     stroke-opacity="1"
     d="M 2594.8407,1177.9802 V 620.75072 619.1636 l 0.1072,-1.5764 0.2145,-1.57639 0.2144,-1.56568 0.3218,-1.55495 0.4289,-1.5335 0.429,-1.52278 0.4289,-1.50133 0.6434,-1.47988 0.6435,-1.44771 0.6434,-1.41554 0.7507,-1.39409 0.8579,-1.3512 0.8579,-1.31903 0.9651,-1.27613 0.9652,-1.23323 1.0723,-1.19034 1.0724,-1.14745 1.1796,-1.09382 1.1796,-1.04021 1.1797,-0.99731 1.2868,-0.93297 1.3941,-0.87935 1.2869,-0.82574 1.3941,-0.76138 1.394,-0.69705 1.5014,-0.64343 1.5013,-0.56836 1.5013,-0.51474 1.5014,-0.43968 1.5013,-0.37533 1.6086,-0.31099 1.5013,-0.23592 1.6086,-0.18231 1.6085,-0.0965 1.6086,-0.0322 h 557.208 l 1.6086,0.0322 1.5013,0.0965 1.6086,0.18231 1.6086,0.23592 1.5013,0.31099 1.5013,0.37533 1.6086,0.43968 1.5013,0.51474 1.3941,0.56836 1.5013,0.64343 1.3941,0.69705 1.3941,0.76138 1.3941,0.82574 1.2869,0.87935 1.2868,0.93297 1.1796,0.99731 1.1797,1.04021 1.1796,1.09382 1.0724,1.14745 1.0723,1.19034 0.9652,1.23323 0.9651,1.27613 0.8579,1.31903 0.8579,1.3512 0.7507,1.39409 0.7507,1.41554 0.6434,1.44771 0.5362,1.47988 0.5362,1.50133 0.4289,1.52278 0.3217,1.5335 0.3217,1.55495 0.2145,1.56568 0.2145,1.57639 0.1072,1.5764 v 1.58712 557.22948 1.5871 l -0.1072,1.5764 -0.2145,1.5764 -0.2145,1.5657 -0.3217,1.555 -0.3217,1.5335 -0.4289,1.5227 -0.5362,1.5014 -0.5362,1.4691 -0.6434,1.4585 -0.7507,1.4155 -0.7507,1.3941 -0.8579,1.3512 -0.8579,1.319 -0.9651,1.2761 -0.9652,1.2333 -1.0723,1.1903 -1.0724,1.1475 -1.1796,1.0938 -1.1797,1.0402 -1.1796,0.9973 -1.2868,0.933 -1.2869,0.8793 -1.3941,0.8258 -1.3941,0.7614 -1.3941,0.697 -1.5013,0.6434 -1.3941,0.5684 -1.5013,0.5147 -1.6086,0.4397 -1.5013,0.3753 -1.5013,0.311 -1.6086,0.236 -1.6086,0.1715 -1.5013,0.1073 -1.6086,0.032 h -557.208 l -1.6086,-0.032 -1.6085,-0.1073 -1.6086,-0.1715 -1.5013,-0.236 -1.6086,-0.311 -1.5013,-0.3753 -1.5014,-0.4397 -1.5013,-0.5147 -1.5013,-0.5684 -1.5014,-0.6434 -1.394,-0.697 -1.3941,-0.7614 -1.2869,-0.8258 -1.3941,-0.8793 -1.2868,-0.933 -1.1797,-0.9973 -1.1796,-1.0402 -1.1796,-1.0938 -1.0724,-1.1475 -1.0723,-1.1903 -0.9652,-1.2333 -0.9651,-1.2761 -0.8579,-1.319 -0.8579,-1.3512 -0.7507,-1.3941 -0.6434,-1.4155 -0.6435,-1.4585 -0.6434,-1.4691 -0.4289,-1.5014 -0.429,-1.5227 -0.4289,-1.5335 -0.3218,-1.555 -0.2144,-1.5657 -0.2145,-1.5764 -0.1072,-1.5764 z"
     id="pin15"
     style="fill:#1c1f26;fill-opacity:1;stroke-width:23.6221;stroke-dasharray:none" /><path
     fill="none"
     fill-opacity="1"
     fill-rule="evenodd"
     stroke="#000000"
     stroke-width="0.937501"
     stroke-linecap="round"
     stroke-linejoin="bevel"
     stroke-dasharray="none"
     stroke-opacity="1"
     d="m 1580.0486,1616.3794 h -557.3153 l -1.5013,-0.043 -1.6086,-0.096 -1.6085,-0.1716 -1.5014,-0.2466 -1.6085,-0.311 -1.5014,-0.3754 -1.5013,-0.4396 -1.5013,-0.5148 -1.5014,-0.5683 -1.5013,-0.6435 -1.3941,-0.697 -1.3941,-0.7614 -1.2868,-0.8257 -1.3941,-0.8794 -1.2869,-0.933 -1.17955,-0.9865 -1.1796,-1.051 -1.17961,-1.0938 -1.07238,-1.1474 -1.07238,-1.1904 -0.96514,-1.2332 -0.96514,-1.2762 -0.85791,-1.319 -0.8579,-1.3512 -0.75066,-1.3941 -0.64343,-1.4155 -0.64343,-1.4477 -0.64343,-1.4799 -0.42895,-1.5013 -0.53619,-1.5228 -0.32171,-1.5335 -0.32171,-1.555 -0.21448,-1.5656 -0.21448,-1.5764 -0.10723,-1.5764 v -1.5871 -557.2296 -1.5764 l 0.10723,-1.5871 0.21448,-1.5764 0.21448,-1.5657 0.32171,-1.5549 0.32171,-1.5335 0.53619,-1.5228 0.42895,-1.5013 0.64343,-1.4692 0.64343,-1.4477 0.64343,-1.4263 0.75066,-1.3833 0.8579,-1.3619 0.85791,-1.3191 0.96514,-1.2761 0.96514,-1.23316 1.07238,-1.19039 1.07238,-1.14745 1.17961,-1.09383 1.1796,-1.0402 1.17955,-0.99732 1.2869,-0.93297 1.3941,-0.87935 1.2868,-0.82573 1.3941,-0.76139 1.3941,-0.69704 1.5013,-0.63271 1.5014,-0.57908 1.5013,-0.50402 1.5013,-0.4504 1.5014,-0.37533 1.6085,-0.31099 1.5014,-0.23592 1.6085,-0.17158 1.6086,-0.10724 1.5013,-0.0322 h 557.3153 l 1.5013,0.0322 1.6086,0.10724 1.6086,0.17158 1.5013,0.23592 1.6086,0.31099 1.5013,0.37533 1.5013,0.4504 1.5014,0.50402 1.5013,0.57908 1.5013,0.63271 1.3941,0.69704 1.3941,0.76139 1.3941,0.82573 1.2869,0.87935 1.2868,0.93297 1.1796,0.99732 1.1796,1.0402 1.1797,1.09383 1.0723,1.14745 1.0724,1.19039 0.9652,1.23316 0.9651,1.2761 0.8579,1.3191 0.8579,1.3619 0.7507,1.3833 0.6434,1.4263 0.6434,1.4477 0.6435,1.4692 0.5361,1.5013 0.429,1.5228 0.3217,1.5335 0.3217,1.5549 0.2145,1.5657 0.2145,1.5764 0.1072,1.5871 v 1.5764 557.2296 1.5871 l -0.1072,1.5764 -0.2145,1.5764 -0.2145,1.5656 -0.3217,1.555 -0.3217,1.5335 -0.429,1.5228 -0.5361,1.5013 -0.6435,1.4799 -0.6434,1.4477 -0.6434,1.4155 -0.7507,1.3941 -0.8579,1.3512 -0.8579,1.319 -0.9651,1.2762 -0.9652,1.2332 -1.0724,1.1904 -1.0723,1.1474 -1.1797,1.0938 -1.1796,1.051 -1.1796,0.9865 -1.2868,0.933 -1.2869,0.8794 -1.3941,0.8257 -1.3941,0.7614 -1.3941,0.697 -1.5013,0.6435 -1.5013,0.5683 -1.5014,0.5148 -1.5013,0.4396 -1.5013,0.3754 -1.6086,0.311 -1.5013,0.2466 -1.6086,0.1716 -1.6086,0.096 z"
     id="pin13"
     style="fill:#1c1f26;fill-opacity:1;stroke-width:23.6221;stroke-dasharray:none" /><path
     fill="none"
     fill-opacity="1"
     fill-rule="evenodd"
     stroke="#000000"
     stroke-width="0.937501"
     stroke-linecap="round"
     stroke-linejoin="bevel"
     stroke-dasharray="none"
     stroke-opacity="1"
     d="m 1790.6638,1580.0687 v -557.2296 -1.5764 l 0.1072,-1.5871 0.2145,-1.5764 0.2145,-1.5657 0.3217,-1.5549 0.429,-1.5335 0.4289,-1.5228 0.429,-1.5013 0.6434,-1.4692 0.6434,-1.4477 0.6434,-1.4263 0.7507,-1.3833 0.8579,-1.3619 0.8579,-1.3191 0.9652,-1.2761 0.9651,-1.23316 1.0724,-1.19039 1.0724,-1.14745 1.1796,-1.09383 1.1796,-1.0402 1.1796,-0.99732 1.2869,-0.93297 1.3941,-0.87935 1.2868,-0.82573 1.3941,-0.76139 1.3941,-0.69704 1.5013,-0.63271 1.5014,-0.57908 1.5013,-0.50402 1.5013,-0.4504 1.5013,-0.37533 1.6086,-0.31099 1.5013,-0.23592 1.6086,-0.17158 1.6086,-0.10724 1.6085,-0.0322 h 557.2081 l 1.5013,0.0322 1.6086,0.10724 1.6085,0.17158 1.5014,0.23592 1.6085,0.31099 1.5014,0.37533 1.5013,0.4504 1.5013,0.50402 1.5014,0.57908 1.5013,0.63271 1.3941,0.69704 1.3941,0.76139 1.3941,0.82573 1.2868,0.87935 1.2869,0.93297 1.1796,0.99732 1.1796,1.0402 1.1796,1.09383 1.0724,1.14745 1.0724,1.19039 0.9651,1.23316 0.9652,1.2761 0.8579,1.3191 0.8579,1.3619 0.7506,1.3833 0.7507,1.4263 0.5362,1.4477 0.6434,1.4692 0.5362,1.5013 0.429,1.5228 0.3217,1.5335 0.3217,1.5549 0.2145,1.5657 0.2144,1.5764 0.1073,1.5871 v 1.5764 557.2296 1.5871 l -0.1073,1.5764 -0.2144,1.5764 -0.2145,1.5656 -0.3217,1.555 -0.3217,1.5335 -0.429,1.5228 -0.5362,1.5013 -0.6434,1.4799 -0.5362,1.4477 -0.7507,1.4155 -0.7506,1.3941 -0.8579,1.3512 -0.8579,1.319 -0.9652,1.2762 -0.9651,1.2332 -1.0724,1.1904 -1.0724,1.1474 -1.1796,1.0938 -1.1796,1.051 -1.1796,0.9865 -1.2869,0.933 -1.2868,0.8794 -1.3941,0.8257 -1.3941,0.7614 -1.3941,0.697 -1.5013,0.6435 -1.5014,0.5683 -1.5013,0.5148 -1.5013,0.4396 -1.5014,0.3754 -1.6085,0.311 -1.5014,0.2466 -1.6085,0.1716 -1.6086,0.096 -1.5013,0.043 h -557.2081 l -1.6085,-0.043 -1.6086,-0.096 -1.6086,-0.1716 -1.5013,-0.2466 -1.6086,-0.311 -1.5013,-0.3754 -1.5013,-0.4396 -1.5013,-0.5148 -1.5014,-0.5683 -1.5013,-0.6435 -1.3941,-0.697 -1.3941,-0.7614 -1.2868,-0.8257 -1.3941,-0.8794 -1.2869,-0.933 -1.1796,-0.9865 -1.1796,-1.051 -1.1796,-1.0938 -1.0724,-1.1474 -1.0724,-1.1904 -0.9651,-1.2332 -0.9652,-1.2762 -0.8579,-1.319 -0.8579,-1.3512 -0.7507,-1.3941 -0.6434,-1.4155 -0.6434,-1.4477 -0.6434,-1.4799 -0.429,-1.5013 -0.4289,-1.5228 -0.429,-1.5335 -0.3217,-1.555 -0.2145,-1.5656 -0.2145,-1.5764 -0.1072,-1.5764 z"
     id="pin12"
     style="fill:#1c1f26;fill-opacity:1;stroke-width:23.6221;stroke-dasharray:none" /><path
     fill="none"
     fill-opacity="1"
     fill-rule="evenodd"
     stroke="#000000"
     stroke-width="0.937501"
     stroke-linecap="round"
     stroke-linejoin="bevel"
     stroke-dasharray="none"
     stroke-opacity="1"
     d="M 775.87179,1616.3794 H 218.55653 l -1.50133,-0.043 -1.60857,-0.096 -1.60856,-0.1716 -1.50133,-0.2466 -1.60857,-0.311 -1.50133,-0.3754 -1.50133,-0.4396 -1.50133,-0.5148 -1.50133,-0.5683 -1.50133,-0.6435 -1.3941,-0.697 -1.39409,-0.7614 -1.28685,-0.8257 -1.3941,-0.8794 -1.28685,-0.933 -1.17962,-0.9865 -1.17961,-1.051 -1.17962,-1.0938 -1.07238,-1.1474 -1.07238,-1.1904 -0.96514,-1.2332 -0.96514,-1.2762 -0.8579,-1.319 -0.85791,-1.3512 -0.75066,-1.3941 -0.64343,-1.4155 -0.64343,-1.4477 -0.64342,-1.4799 -0.42895,-1.5013 -0.53619,-1.5228 -0.32172,-1.5335 -0.32171,-1.555 -0.21448,-1.5656 -0.21447,-1.5764 -0.10724,-1.5764 v -1.5871 -557.2296 -1.5764 l 0.10724,-1.5871 0.21447,-1.5764 0.21448,-1.5657 0.32171,-1.5549 0.32172,-1.5335 0.53619,-1.5228 0.42895,-1.5013 0.64342,-1.4692 0.64343,-1.4477 0.64343,-1.4263 0.75066,-1.3833 0.85791,-1.3619 0.8579,-1.3191 0.96514,-1.2761 0.96514,-1.23316 1.07238,-1.19039 1.07238,-1.14745 1.17962,-1.09383 1.17961,-1.0402 1.17962,-0.99732 1.28685,-0.93297 1.3941,-0.87935 1.28685,-0.82573 1.39409,-0.76139 1.3941,-0.69704 1.50133,-0.63271 1.50133,-0.57908 1.50133,-0.50402 1.50133,-0.4504 1.50133,-0.37533 1.60857,-0.31099 1.50133,-0.23592 1.60856,-0.17158 1.60857,-0.10724 1.50133,-0.0322 h 557.31526 l 1.50133,0.0322 1.60857,0.10724 1.60857,0.17158 1.50133,0.23592 1.60857,0.31099 1.50133,0.37533 1.50133,0.4504 1.50133,0.50402 1.50133,0.57908 1.50133,0.63271 1.39409,0.69704 1.39409,0.76139 1.28686,0.82573 1.39409,0.87935 1.28685,0.93297 1.17962,0.99732 1.17962,1.0402 1.17961,1.09383 1.07238,1.14745 1.07238,1.19039 0.96514,1.23316 0.96514,1.2761 0.85791,1.3191 0.8579,1.3619 0.75066,1.3833 0.64343,1.4263 0.64343,1.4477 0.64343,1.4692 0.42895,1.5013 0.53619,1.5228 0.32171,1.5335 0.32172,1.5549 0.21447,1.5657 0.21448,1.5764 0.10723,1.5871 v 1.5764 557.2296 1.5871 l -0.10723,1.5764 -0.21448,1.5764 -0.21447,1.5656 -0.32172,1.555 -0.32171,1.5335 -0.53619,1.5228 -0.42895,1.5013 -0.64343,1.4799 -0.64343,1.4477 -0.64343,1.4155 -0.75066,1.3941 -0.8579,1.3512 -0.85791,1.319 -0.96514,1.2762 -0.96514,1.2332 -1.07238,1.1904 -1.07238,1.1474 -1.17961,1.0938 -1.17962,1.051 -1.17962,0.9865 -1.28685,0.933 -1.39409,0.8794 -1.28686,0.8257 -1.39409,0.7614 -1.39409,0.697 -1.50133,0.6435 -1.50133,0.5683 -1.50133,0.5148 -1.50133,0.4396 -1.50133,0.3754 -1.60857,0.311 -1.50133,0.2466 -1.60857,0.1716 -1.60857,0.096 z"
     id="pin14"
     style="fill:#1c1f26;fill-opacity:1;stroke-width:23.6221;stroke-dasharray:none" /><path
     fill="none"
     fill-opacity="1"
     fill-rule="evenodd"
     stroke="#000000"
     stroke-width="0.937501"
     stroke-linecap="round"
     stroke-linejoin="bevel"
     stroke-dasharray="none"
     stroke-opacity="1"
     d="m 1580.0486,812.19178 h -557.3153 l -1.5013,-0.0322 -1.6086,-0.10724 -1.6085,-0.17158 -1.5014,-0.23592 -1.6085,-0.31099 -1.5014,-0.37533 -1.5013,-0.4504 -1.5013,-0.50402 -1.5014,-0.57908 -1.5013,-0.63271 -1.3941,-0.69704 -1.3941,-0.76139 -1.2868,-0.82574 -1.3941,-0.87935 -1.2869,-0.94369 -1.17955,-0.98659 -1.1796,-1.04021 -1.17961,-1.10455 -1.07238,-1.13672 -1.07238,-1.19034 -0.96514,-1.23323 -0.96514,-1.28686 -0.85791,-1.3083 -0.8579,-1.36192 -0.75066,-1.38337 -0.64343,-1.42626 -0.64343,-1.44771 -0.64343,-1.46916 -0.42895,-1.50133 -0.53619,-1.52278 -0.32171,-1.54423 -0.32171,-1.54422 -0.21448,-1.56568 -0.21448,-1.57639 -0.10723,-1.58712 v -1.5764 -557.22947 -1.58712 l 0.10723,-1.5764 0.21448,-1.57639 0.21448,-1.56568 0.32171,-1.55494 0.32171,-1.53351 0.53619,-1.52277 0.42895,-1.50133 0.64343,-1.47989 0.64343,-1.44771 0.64343,-1.41554 0.75066,-1.39409 0.8579,-1.3512 0.85791,-1.31902 0.96514,-1.27613 0.96514,-1.23324 1.07238,-1.19034 1.07238,-1.14745 1.17961,-1.09382 1.1796,-1.05093 1.17955,-0.98659 1.2869,-0.93297 1.3941,-0.87935 1.2868,-0.82573 1.3941,-0.76139 1.3941,-0.69705 1.5013,-0.64343 1.5014,-0.56836 1.5013,-0.51474 1.5013,-0.43967 1.5014,-0.37534 1.6085,-0.31099 1.5014,-0.24664 1.6085,-0.17158 1.6086,-0.0965 1.5013,-0.0429 h 557.3153 l 1.5013,0.0429 1.6086,0.0965 1.6086,0.17158 1.5013,0.24664 1.6086,0.31099 1.5013,0.37534 1.5013,0.43967 1.5014,0.51474 1.5013,0.56836 1.5013,0.64343 1.3941,0.69705 1.3941,0.76139 1.3941,0.82573 1.2869,0.87935 1.2868,0.93297 1.1796,0.98659 1.1796,1.05093 1.1797,1.09382 1.0723,1.14745 1.0724,1.19034 0.9652,1.23324 0.9651,1.27613 0.8579,1.31902 0.8579,1.3512 0.7507,1.39409 0.6434,1.41554 0.6434,1.44771 0.6435,1.47989 0.5361,1.50133 0.429,1.52277 0.3217,1.53351 0.3217,1.55494 0.2145,1.56568 0.2145,1.57639 0.1072,1.5764 v 1.58712 557.22947 1.5764 l -0.1072,1.58712 -0.2145,1.57639 -0.2145,1.56568 -0.3217,1.54422 -0.3217,1.54423 -0.429,1.52278 -0.5361,1.50133 -0.6435,1.46916 -0.6434,1.44771 -0.6434,1.42626 -0.7507,1.38337 -0.8579,1.36192 -0.8579,1.3083 -0.9651,1.28686 -0.9652,1.23323 -1.0724,1.19034 -1.0723,1.13672 -1.1797,1.10455 -1.1796,1.04021 -1.1796,0.98659 -1.2868,0.94369 -1.2869,0.87935 -1.3941,0.82574 -1.3941,0.76139 -1.3941,0.69704 -1.5013,0.63271 -1.5013,0.57908 -1.5014,0.50402 -1.5013,0.4504 -1.5013,0.37533 -1.6086,0.31099 -1.5013,0.23592 -1.6086,0.17158 -1.6086,0.10724 z"
     id="pin27"
     style="fill:#1c1f26;fill-opacity:1;stroke-width:23.6221;stroke-dasharray:none" /><path
     fill="none"
     fill-opacity="1"
     fill-rule="evenodd"
     stroke="#000000"
     stroke-width="0.937501"
     stroke-linecap="round"
     stroke-linejoin="bevel"
     stroke-dasharray="none"
     stroke-opacity="1"
     d="m 6305.9147,1423.4263 -196.3525,-521.49786 -0.5362,-1.49061 -0.429,-1.52277 -0.3217,-1.53351 -0.429,-1.54422 -0.2144,-1.56567 -0.2145,-1.5764 -0.1072,-1.5764 v -1.58712 -1.5764 l 0.1072,-1.58712 0.1072,-1.57639 0.2145,-1.56568 0.3217,-1.55495 0.3217,-1.54422 0.429,-1.52278 0.5362,-1.51205 0.5362,-1.47989 0.6434,-1.45843 0.6434,-1.42626 0.7507,-1.3941 0.8579,-1.36192 0.8579,-1.32975 0.8579,-1.28685 1.0724,-1.24396 0.9651,-1.20107 1.0724,-1.15817 1.1796,-1.11527 1.1796,-1.05093 1.1796,-1.00804 1.2869,-0.94369 1.2869,-0.9008 1.394,-0.83645 1.3941,-0.77212 1.3941,-0.71849 1.3941,-0.65415 1.5014,-0.58981 521.4978,-196.32038 1.5013,-0.52547 1.5013,-0.46112 1.5013,-0.39678 1.6086,-0.32172 1.5013,-0.25737 1.6086,-0.19303 1.6086,-0.11796 1.6086,-0.0536 1.5013,0.0107 1.6086,0.0858 1.6085,0.16085 1.5013,0.2252 1.6086,0.28955 1.5013,0.35388 1.5014,0.42895 1.6085,0.4933 1.3941,0.55763 1.5014,0.62198 1.3941,0.68633 1.3941,0.75066 1.394,0.80428 1.2869,0.86863 1.2869,0.92225 1.2868,0.97586 1.1796,1.02949 1.1796,1.0831 1.0724,1.13672 1.0724,1.17962 1.0724,1.22251 0.8579,1.26541 0.9651,1.3083 0.8579,1.34047 0.7507,1.38337 0.6434,1.41554 0.7507,1.43699 0.5362,1.46916 196.3525,521.4978 0.5362,1.5014 0.429,1.512 0.4289,1.5335 0.3217,1.555 0.2145,1.5549 0.2145,1.5764 0.1072,1.5764 v 1.5871 1.5872 1.5764 l -0.2144,1.5763 -0.2145,1.5657 -0.3217,1.555 -0.3218,1.5442 -0.4289,1.5335 -0.5362,1.5013 -0.5362,1.4799 -0.6434,1.4584 -0.6434,1.4263 -0.7507,1.3941 -0.8579,1.3726 -0.8579,1.3191 -0.8579,1.2868 -0.9652,1.2547 -1.0723,1.2011 -1.0724,1.1474 -1.1796,1.1153 -1.1796,1.0509 -1.1797,1.0081 -1.2868,0.9544 -1.2869,0.8901 -1.3941,0.8364 -1.2868,0.7828 -1.5013,0.7078 -1.3941,0.6542 -1.5014,0.5898 -521.4978,196.3311 -1.5013,0.5255 -1.5013,0.4503 -1.5014,0.3968 -1.6085,0.3325 -1.5014,0.2573 -1.6085,0.1823 -1.6086,0.1287 -1.5013,0.043 -1.6086,-0.011 -1.6086,-0.086 -1.6085,-0.1608 -1.5014,-0.2252 -1.6085,-0.2896 -1.5014,-0.3539 -1.5013,-0.4289 -1.5013,-0.4933 -1.5014,-0.5577 -1.5013,-0.6219 -1.3941,-0.6864 -1.3941,-0.7399 -1.3941,-0.815 -1.2868,-0.8579 -1.2869,-0.9223 -1.2868,-0.9865 -1.1796,-1.0295 -1.1797,-1.0831 -1.0723,-1.126 -1.0724,-1.1796 -0.9652,-1.2226 -0.9651,-1.2761 -0.9651,-1.3083 -0.7507,-1.3405 -0.8579,-1.3833 -0.6434,-1.4048 -0.6435,-1.4478 z"
     id="pin03"
     style="fill:#1c1f26;fill-opacity:1;stroke-width:23.6221;stroke-dasharray:none" /><path
     fill="none"
     fill-opacity="1"
     fill-rule="evenodd"
     stroke="#000000"
     stroke-width="0.937501"
     stroke-linecap="round"
     stroke-linejoin="bevel"
     stroke-dasharray="none"
     stroke-opacity="1"
     d="m 5946.4533,963.3543 196.3526,521.4978 0.4289,1.4906 0.5362,1.5228 0.3217,1.5335 0.3218,1.5442 0.3217,1.5657 0.2145,1.5764 0.1072,1.5764 v 1.5871 1.5764 l -0.1072,1.5872 -0.1073,1.5764 -0.2145,1.5656 -0.3217,1.555 -0.3217,1.5442 -0.4289,1.5228 -0.5362,1.512 -0.5362,1.4799 -0.6434,1.4584 -0.6435,1.4263 -0.7506,1.3941 -0.8579,1.3619 -0.8579,1.3298 -0.8579,1.2868 -1.0724,1.244 -0.9652,1.2011 -1.0723,1.1581 -1.1797,1.1046 -1.1796,1.0616 -1.1796,1.0081 -1.2869,0.9437 -1.2868,0.9008 -1.3941,0.8364 -1.3941,0.7721 -1.3941,0.7185 -1.3941,0.6542 -1.5013,0.5898 -521.4978,196.3204 -1.5013,0.5254 -1.5014,0.4612 -1.5013,0.3967 -1.6086,0.3217 -1.5013,0.2574 -1.6086,0.193 -1.6085,0.118 -1.6086,0.054 -1.5013,-0.011 -1.6086,-0.097 -1.6086,-0.1501 -1.5013,-0.2252 -1.6086,-0.2896 -1.5013,-0.3646 -1.6086,-0.4182 -1.5013,-0.4933 -1.3941,-0.5577 -1.5013,-0.6219 -1.3941,-0.6864 -1.3941,-0.7506 -1.3941,-0.8043 -1.2869,-0.8686 -1.2868,-0.9223 -1.2869,-0.9758 -1.1796,-1.0295 -1.1796,-1.0831 -1.0724,-1.1368 -1.0724,-1.1796 -1.0723,-1.2225 -0.8579,-1.2654 -0.9652,-1.3083 -0.8579,-1.3405 -0.7506,-1.3833 -0.6435,-1.4156 -0.7506,-1.437 -0.5362,-1.4691 -196.3526,-521.4978 -0.5362,-1.5014 -0.4289,-1.512 -0.429,-1.5335 -0.3217,-1.555 -0.2145,-1.5549 -0.2144,-1.5764 -0.1073,-1.5764 -0.1072,-1.5871 0.1072,-1.5871 v -1.5764 l 0.2145,-1.5764 0.2145,-1.5657 0.3217,-1.5657 0.3217,-1.5335 0.429,-1.5335 0.5361,-1.5013 0.5362,-1.4799 0.6435,-1.4584 0.6434,-1.4263 0.7506,-1.4048 0.858,-1.3619 0.8579,-1.3191 0.8579,-1.2868 0.9651,-1.2547 1.0724,-1.2011 1.0724,-1.1581 1.1796,-1.1046 1.1796,-1.0509 1.1796,-1.0081 1.2869,-0.9544 1.2868,-0.89 1.3941,-0.8365 1.2869,-0.7828 1.5013,-0.7078 1.3941,-0.6542 1.5013,-0.5898 521.4978,-196.33111 1.5014,-0.52546 1.5013,-0.46113 1.5013,-0.38605 1.6086,-0.33244 1.5013,-0.25737 1.6086,-0.18231 1.6085,-0.12868 1.5014,-0.0536 1.6085,0.0214 1.6086,0.0858 1.6086,0.16085 1.5013,0.21448 1.6086,0.30027 1.5013,0.35388 1.5013,0.42895 1.5014,0.4933 1.5013,0.55763 1.5013,0.62198 1.3941,0.68633 1.3941,0.73994 1.3941,0.81501 1.2869,0.8579 1.2868,0.92224 1.2869,0.98659 1.1796,1.02949 1.1796,1.0831 1.0724,1.126 1.0724,1.17961 0.9651,1.22252 0.9651,1.2654 0.9652,1.3083 0.7507,1.3512 0.8579,1.38337 0.6434,1.40482 0.6434,1.44771 z"
     id="pin02"
     style="fill:#1c1f26;fill-opacity:1;stroke-width:23.6221;stroke-dasharray:none" /><path
     fill="none"
     fill-opacity="1"
     fill-rule="evenodd"
     stroke="#000000"
     stroke-width="0.937501"
     stroke-linecap="round"
     stroke-linejoin="bevel"
     stroke-dasharray="none"
     stroke-opacity="1"
     d="m 2631.1944,1388.6276 h 557.208 l 1.6086,0.032 1.5013,0.1072 1.6086,0.1716 1.6086,0.2466 1.5013,0.3003 1.5013,0.3753 1.6086,0.4504 1.5013,0.504 1.3941,0.5791 1.5013,0.6327 1.3941,0.7078 1.3941,0.7614 1.3941,0.815 1.2869,0.8793 1.2868,0.9437 1.1796,0.9866 1.1797,1.0402 1.1796,1.1046 1.0724,1.1367 1.0723,1.1903 0.9652,1.244 0.9651,1.2761 0.8579,1.3083 0.8579,1.362 0.7507,1.3833 0.7507,1.4263 0.6434,1.4477 0.5362,1.4799 0.5362,1.4906 0.4289,1.5228 0.3217,1.5442 0.3217,1.5549 0.2145,1.5657 0.2145,1.5657 0.1072,1.5871 v 1.5764 557.2295 1.5871 l -0.1072,1.5764 -0.2145,1.5764 -0.2145,1.5657 -0.3217,1.5549 -0.3217,1.5442 -0.4289,1.5121 -0.5362,1.5013 -0.5362,1.4799 -0.6434,1.4477 -0.7507,1.4263 -0.7507,1.3834 -0.8579,1.3511 -0.8579,1.3191 -0.9651,1.2761 -0.9652,1.2332 -1.0723,1.2011 -1.0724,1.1367 -1.1796,1.0939 -1.1797,1.0509 -1.1796,0.9866 -1.2868,0.9437 -1.2869,0.8793 -1.3941,0.815 -1.3941,0.7614 -1.3941,0.7078 -1.5013,0.6327 -1.3941,0.5791 -1.5013,0.504 -1.6086,0.4397 -1.5013,0.386 -1.5013,0.3003 -1.6086,0.2466 -1.6086,0.1716 -1.5013,0.1073 -1.6086,0.032 h -557.208 l -1.6086,-0.032 -1.6085,-0.1073 -1.6086,-0.1716 -1.5013,-0.2466 -1.6086,-0.3003 -1.5013,-0.386 -1.5014,-0.4397 -1.5013,-0.504 -1.5013,-0.5791 -1.5014,-0.6327 -1.394,-0.7078 -1.3941,-0.7614 -1.2869,-0.815 -1.3941,-0.8793 -1.2868,-0.9437 -1.1797,-0.9866 -1.1796,-1.0509 -1.1796,-1.0939 -1.0724,-1.1367 -1.0723,-1.2011 -0.9652,-1.2332 -0.9651,-1.2761 -0.8579,-1.3191 -0.8579,-1.3511 -0.7507,-1.3834 -0.6434,-1.4263 -0.6435,-1.4477 -0.6434,-1.4799 -0.4289,-1.5013 -0.429,-1.5121 -0.4289,-1.5442 -0.3218,-1.5549 -0.2144,-1.5657 -0.2145,-1.5764 -0.1072,-1.5764 v -1.5871 -557.2295 -1.5764 l 0.1072,-1.5871 0.2145,-1.5657 0.2144,-1.5657 0.3218,-1.5549 0.4289,-1.5442 0.429,-1.5228 0.4289,-1.4906 0.6434,-1.4799 0.6435,-1.4477 0.6434,-1.4263 0.7507,-1.3833 0.8579,-1.362 0.8579,-1.3083 0.9651,-1.2761 0.9652,-1.244 1.0723,-1.1903 1.0724,-1.1367 1.1796,-1.1046 1.1796,-1.0402 1.1797,-0.9866 1.2868,-0.9437 1.3941,-0.8793 1.2869,-0.815 1.3941,-0.7614 1.394,-0.7078 1.5014,-0.6327 1.5013,-0.5791 1.5013,-0.504 1.5014,-0.4504 1.5013,-0.3753 1.6086,-0.3003 1.5013,-0.2466 1.6086,-0.1716 1.6085,-0.1072 z"
     id="pin09"
     style="fill:#1c1f26;fill-opacity:1;stroke-width:23.6221;stroke-dasharray:none" /><path
     fill="none"
     fill-opacity="1"
     fill-rule="evenodd"
     stroke="#000000"
     stroke-width="0.937501"
     stroke-linecap="round"
     stroke-linejoin="bevel"
     stroke-dasharray="none"
     stroke-opacity="1"
     d="m 5193.858,1246.6875 196.2453,521.4978 0.5362,1.4906 0.5362,1.5121 0.3217,1.5335 0.3217,1.5549 0.3217,1.5657 0.1073,1.5657 0.2145,1.5871 v 1.5764 1.5871 l -0.1073,1.5764 -0.1072,1.5764 -0.2145,1.5764 -0.3217,1.555 -0.429,1.5442 -0.3217,1.5228 -0.5362,1.5013 -0.5362,1.4799 -0.6434,1.4584 -0.6434,1.4263 -0.7507,1.4048 -0.8579,1.3619 -0.8579,1.3298 -0.9651,1.2868 -0.9652,1.244 -0.9651,1.2011 -1.0724,1.1581 -1.1796,1.1046 -1.1796,1.0616 -1.1796,0.9973 -1.2869,0.9545 -1.2868,0.89 -1.3941,0.8365 -1.3941,0.7828 -1.3941,0.7185 -1.3941,0.6542 -1.5013,0.5898 -521.4978,196.3204 -1.5014,0.5254 -1.5013,0.4612 -1.6086,0.386 -1.5013,0.3324 -1.6086,0.2574 -1.5013,0.193 -1.6086,0.118 -1.6085,0.054 -1.6086,-0.021 -1.5013,-0.086 -1.6086,-0.1501 -1.6086,-0.2252 -1.5013,-0.2896 -1.5013,-0.3646 -1.6086,-0.4289 -1.5013,-0.4933 -1.5014,-0.5577 -1.3941,-0.622 -1.3941,-0.6863 -1.5013,-0.7399 -1.2868,-0.8043 -1.3941,-0.8686 -1.2869,-0.9223 -1.1796,-0.9758 -1.1796,-1.0295 -1.1796,-1.0831 -1.1797,-1.1368 -0.9651,-1.1796 -1.0724,-1.2225 -0.9651,-1.2654 -0.8579,-1.3083 -0.8579,-1.3512 -0.7507,-1.3726 -0.7506,-1.4156 -0.6435,-1.4477 -0.5362,-1.4691 -196.3525,-521.4978 -0.5362,-1.4907 -0.429,-1.512 -0.4289,-1.5442 -0.3217,-1.5443 -0.2145,-1.5656 -0.2145,-1.5657 -0.1072,-1.5871 -0.1073,-1.5764 v -1.5871 l 0.1073,-1.5872 0.2145,-1.5764 0.2144,-1.5656 0.3217,-1.555 0.3218,-1.5442 0.4289,-1.5228 0.429,-1.5013 0.6434,-1.4906 0.5362,-1.4477 0.7506,-1.437 0.7507,-1.3941 0.7507,-1.3619 0.8579,-1.3298 0.9651,-1.2868 0.9652,-1.244 1.0723,-1.2011 1.0724,-1.1581 1.0724,-1.1046 1.1796,-1.0616 1.2869,-1.0081 1.2868,-0.9437 1.2869,-0.9008 1.2868,-0.8364 1.3941,-0.7721 1.3941,-0.7185 1.5013,-0.6542 1.5014,-0.5898 521.4978,-196.3204 1.3941,-0.5254 1.6085,-0.4612 1.5014,-0.3967 1.5013,-0.3218 1.6086,-0.2573 1.6085,-0.1931 1.5014,-0.1179 1.6085,-0.054 1.6086,0.021 1.6086,0.086 1.5013,0.1501 1.6086,0.2252 1.5013,0.2896 1.6086,0.3646 1.5013,0.4289 1.5013,0.4933 1.5014,0.5577 1.5013,0.6219 1.3941,0.6756 1.3941,0.7507 1.3941,0.8043 1.2868,0.8686 1.2869,0.9223 1.2868,0.9758 1.1797,1.0295 1.1796,1.0831 1.0723,1.1367 1.0724,1.1797 0.9652,1.2225 0.9651,1.2654 0.8579,1.3083 0.8579,1.3405 0.7507,1.3833 0.7506,1.4156 0.6435,1.4369 z"
     id="pin01"
     style="fill:#1c1f26;fill-opacity:1;stroke-width:23.6221;stroke-dasharray:none" /><path
     fill="none"
     fill-opacity="1"
     fill-rule="evenodd"
     stroke="#000000"
     stroke-width="0.937501"
     stroke-linecap="round"
     stroke-linejoin="bevel"
     stroke-dasharray="none"
     stroke-opacity="1"
     d="m 5663.1309,210.73741 196.3525,521.49781 0.429,1.49061 0.5362,1.52277 0.3217,1.53351 0.3217,1.54422 0.3217,1.56567 0.2145,1.5764 0.1072,1.5764 v 1.57639 1.58713 l -0.1072,1.58712 -0.1073,1.57639 -0.2144,1.56568 -0.3218,1.55494 -0.3217,1.54423 -0.4289,1.52278 -0.5362,1.51205 -0.5362,1.47989 -0.6434,1.45843 -0.6435,1.42626 -0.7506,1.3941 -0.8579,1.36192 -0.8579,1.32975 -0.8579,1.28685 -1.0724,1.24396 -0.9651,1.20107 -1.0724,1.15816 -1.1796,1.10455 -1.1797,1.06166 -1.1796,1.00804 -1.2868,0.94369 -1.2869,0.9008 -1.3941,0.83645 -1.3941,0.77212 -1.3941,0.71849 -1.3941,0.65415 -1.5013,0.58981 -521.4978,196.32038 -1.5013,0.52547 -1.5013,0.46112 -1.5014,0.39678 -1.6085,0.32172 -1.5014,0.25737 -1.6085,0.19303 -1.6086,0.11796 -1.6086,0.0536 -1.5013,-0.0215 -1.6086,-0.0858 -1.6086,-0.15013 -1.5013,-0.2252 -1.6085,-0.28955 -1.5014,-0.36461 -1.6085,-0.41822 -1.5014,-0.4933 -1.3941,-0.55763 -1.5013,-0.62198 -1.3941,-0.68633 -1.3941,-0.75066 -1.3941,-0.80429 -1.2868,-0.86862 -1.2869,-0.92225 -1.2868,-0.97586 -1.1797,-1.02949 -1.1796,-1.0831 -1.0724,-1.13672 -1.0723,-1.17962 -1.0724,-1.22251 -0.8579,-1.26541 -0.9652,-1.3083 -0.8579,-1.34047 -0.7506,-1.38337 -0.7507,-1.41554 -0.6434,-1.43699 -0.5362,-1.46916 -196.3526,-521.4978 -0.5362,-1.50133 -0.4289,-1.51206 -0.429,-1.5335 -0.3217,-1.55495 -0.2144,-1.55495 -0.2145,-1.5764 -0.1073,-1.57639 -0.1072,-1.58712 0.1072,-1.58712 v -1.5764 l 0.2145,-1.5764 0.2145,-1.56567 0.3217,-1.56567 0.3217,-1.5335 0.429,-1.53351 0.5362,-1.50133 0.5362,-1.47988 0.6434,-1.45843 0.6434,-1.42627 0.7507,-1.40481 0.7506,-1.36193 0.9652,-1.31902 0.8579,-1.28686 0.9651,-1.25468 1.0724,-1.20106 1.0724,-1.15817 1.1796,-1.10455 1.1796,-1.06166 1.1796,-0.99731 1.2869,-0.95442 1.2868,-0.89007 1.2869,-0.83646 1.3941,-0.78283 1.5013,-0.7185 1.3941,-0.64342 1.5013,-0.60054 521.4978,-196.32038 1.5014,-0.52547 1.5013,-0.46112 1.5013,-0.38606 1.6086,-0.33243 1.5013,-0.25738 1.6086,-0.19302 1.5013,-0.11797 1.6086,-0.0536 1.6086,0.0214 1.6085,0.0858 1.5014,0.15014 1.6085,0.2252 1.6086,0.30026 1.5013,0.35389 1.5014,0.42895 1.5013,0.49329 1.5013,0.55764 1.5014,0.62198 1.394,0.68632 1.3941,0.73994 1.3941,0.81501 1.2869,0.8579 1.2868,0.92225 1.2869,0.97587 1.1796,1.0402 1.1796,1.08311 1.0724,1.12599 1.0724,1.17962 0.9651,1.22251 0.9652,1.26541 0.8579,1.3083 0.8579,1.3512 0.8579,1.37264 0.6434,1.41554 0.6434,1.44771 z"
     id="pin00"
     style="fill:#1c1f26;fill-opacity:1;stroke-width:23.6221;stroke-dasharray:none" /><path
     fill="none"
     fill-opacity="1"
     fill-rule="evenodd"
     stroke="#000000"
     stroke-width="0.937501"
     stroke-linecap="round"
     stroke-linejoin="bevel"
     stroke-dasharray="none"
     stroke-opacity="1"
     d="M 775.87179,812.19178 H 218.55653 l -1.50133,-0.0322 -1.60857,-0.10724 -1.60856,-0.17158 -1.50133,-0.23592 -1.60857,-0.31099 -1.50133,-0.37533 -1.50133,-0.4504 -1.50133,-0.50402 -1.50133,-0.57908 -1.50133,-0.63271 -1.3941,-0.69704 -1.39409,-0.76139 -1.28685,-0.82574 -1.3941,-0.87935 -1.28685,-0.94369 -1.17962,-0.98659 -1.17961,-1.04021 -1.17962,-1.10455 -1.07238,-1.13672 -1.07238,-1.19034 -0.96514,-1.23323 -0.96514,-1.28686 -0.8579,-1.3083 -0.85791,-1.36192 -0.75066,-1.38337 -0.64343,-1.42626 -0.64343,-1.44771 -0.64342,-1.46916 -0.42895,-1.50133 -0.53619,-1.52278 -0.32172,-1.54423 -0.32171,-1.54422 -0.21448,-1.56568 -0.21447,-1.57639 -0.10724,-1.58712 v -1.5764 -557.22947 -1.58712 l 0.10724,-1.5764 0.21447,-1.57639 0.21448,-1.56568 0.32171,-1.55494 0.32172,-1.53351 0.53619,-1.52277 0.42895,-1.50133 0.64342,-1.47989 0.64343,-1.44771 0.64343,-1.41554 0.75066,-1.39409 0.85791,-1.3512 0.8579,-1.31902 0.96514,-1.27613 0.96514,-1.23324 1.07238,-1.19034 1.07238,-1.14745 1.17962,-1.09382 1.17961,-1.05093 1.17962,-0.98659 1.28685,-0.93297 1.3941,-0.87935 1.28685,-0.82573 1.39409,-0.76139 1.3941,-0.69705 1.50133,-0.64343 1.50133,-0.56836 1.50133,-0.51474 1.50133,-0.43967 1.50133,-0.37534 1.60857,-0.31099 1.50133,-0.24664 1.60856,-0.17158 1.60857,-0.0965 1.50133,-0.0429 h 557.31526 l 1.50133,0.0429 1.60857,0.0965 1.60857,0.17158 1.50133,0.24664 1.60857,0.31099 1.50133,0.37534 1.50133,0.43967 1.50133,0.51474 1.50133,0.56836 1.50133,0.64343 1.39409,0.69705 1.39409,0.76139 1.28686,0.82573 1.39409,0.87935 1.28685,0.93297 1.17962,0.98659 1.17962,1.05093 1.17961,1.09382 1.07238,1.14745 1.07238,1.19034 0.96514,1.23324 0.96514,1.27613 0.85791,1.31902 0.8579,1.3512 0.75066,1.39409 0.64343,1.41554 0.64343,1.44771 0.64343,1.47989 0.42895,1.50133 0.53619,1.52277 0.32171,1.53351 0.32172,1.55494 0.21447,1.56568 0.21448,1.57639 0.10723,1.5764 v 1.58712 557.22947 1.5764 l -0.10723,1.58712 -0.21448,1.57639 -0.21447,1.56568 -0.32172,1.54422 -0.32171,1.54423 -0.53619,1.52278 -0.42895,1.50133 -0.64343,1.46916 -0.64343,1.44771 -0.64343,1.42626 -0.75066,1.38337 -0.8579,1.36192 -0.85791,1.3083 -0.96514,1.28686 -0.96514,1.23323 -1.07238,1.19034 -1.07238,1.13672 -1.17961,1.10455 -1.17962,1.04021 -1.17962,0.98659 -1.28685,0.94369 -1.39409,0.87935 -1.28686,0.82574 -1.39409,0.76139 -1.39409,0.69704 -1.50133,0.63271 -1.50133,0.57908 -1.50133,0.50402 -1.50133,0.4504 -1.50133,0.37533 -1.60857,0.31099 -1.50133,0.23592 -1.60857,0.17158 -1.60857,0.10724 z"
     id="pin26"
     style="fill:#1c1f26;fill-opacity:1;stroke-width:23.6221;stroke-dasharray:none" /><path
     fill="none"
     stroke="#000000"
     stroke-width="22.3609"
     stroke-dasharray="none"
     d="m 4363.1478,1827.2391 h -887.3944 a 63.385296,63.385296 0 0 1 -63.3853,-63.3854 v -422.6215 a 63.385296,63.385296 0 0 1 63.3853,-63.3854 h 887.3944 a 63.385296,63.385296 0 0 1 63.3853,63.3854 v 422.6215 a 63.385296,63.385296 0 0 1 -63.3853,63.3854 z"
     id="oled"
     style="fill:#000000;fill-opacity:1;stroke-width:23.6221;stroke-dasharray:none"
     inkscape:label="oled" /><path
     fill="none"
     stroke="#000000"
     d="m 4018.888,1651.9817 a 140.62598,140.62598 0 1 0 0,-198.8752 l -198.8752,198.873 a 140.62607,140.62607 0 1 1 0,-198.8753"
     id="path7"
     style="fill:none;fill-opacity:1;stroke:#d8dee9;stroke-width:23.6221;stroke-linecap:round;stroke-dasharray:none;stroke-opacity:1" /></svg>
