<?xml version="1.0" encoding="UTF-8" standalone="no"?>
<svg
   viewBox="0 0 633.21898 195.92914"
   width="633.21899"
   height="195.92914"
   version="1.1"
   id="svg169"
   sodipodi:docname="fbmx-merged.svg"
   inkscape:version="1.4.4 (dcaf3e7d9e, 2026-05-05)"
   xmlns:inkscape="http://www.inkscape.org/namespaces/inkscape"
   xmlns:sodipodi="http://sodipodi.sourceforge.net/DTD/sodipodi-0.dtd"
   xmlns="http://www.w3.org/2000/svg"
   xmlns:svg="http://www.w3.org/2000/svg">
  <sodipodi:namedview
     id="namedview169"
     pagecolor="#ffffff"
     bordercolor="#000000"
     borderopacity="0.25"
     inkscape:showpageshadow="2"
     inkscape:pageopacity="0.0"
     inkscape:pagecheckerboard="0"
     inkscape:deskcolor="#d1d1d1"
     inkscape:zoom="1.6534232"
     inkscape:cx="330.82879"
     inkscape:cy="75.903132"
     inkscape:window-width="2560"
     inkscape:window-height="1440"
     inkscape:window-x="0"
     inkscape:window-y="0"
     inkscape:window-maximized="0"
     inkscape:current-layer="svg169" />
  <desc
     id="desc1">fbmx.dxf - scale = 1.000000, origin = (0.000000, 0.000000), method = manual</desc>
  <defs
     id="defs4">
    <marker
       id="DistanceX"
       orient="auto"
       refX="0"
       refY="0"
       style="overflow:visible">
      <path
         d="M 3,-3 -3,3 M 0,-5 V 5"
         style="stroke:#000000;stroke-width:0.5"
         id="path1" />
    </marker>
    <pattern
       id="Hatch"
       patternUnits="userSpaceOnUse"
       width="8"
       height="8"
       x="0"
       y="0">
      <path
         d="M8 4 l-4,4"
         stroke="#000000"
         stroke-width="0.25"
         linecap="square"
         id="path2" />
      <path
         d="M6 2 l-4,4"
         stroke="#000000"
         stroke-width="0.25"
         linecap="square"
         id="path3" />
      <path
         d="M4 0 l-4,4"
         stroke="#000000"
         stroke-width="0.25"
         linecap="square"
         id="path4" />
    </pattern>
    <symbol
       id="*MODEL_SPACE" />
    <symbol
       id="*PAPER_SPACE" />
  </defs>
  <path
     fill="none"
     stroke="#000000"
     stroke-width="2"
     stroke-dasharray="none"
     d="m 259.465,1060.06 v 160.92 a 17.0079 17.0079 0 0 1 -17.0079 17.0079 H -355.746 a 17.0079 17.0079 0 0 1 -17.0079 -17.0079 V 1060.06 a 17.0079 17.0079 0 0 1 17.0079 -17.0079 H 242.457 a 17.0079 17.0079 0 0 1 17.0079 17.0079 Z"
     id="case"
     style="fill:#2b303b;fill-opacity:1"
     transform="translate(373.254,-1042.5551)" />
  <path
     transform="translate(373.254,-1042.5551)"
     fill="none"
     stroke="#000000"
     stroke-width="2"
     stroke-dasharray="none"
     d="m -173.486,1222.0708 a 3.250394,3.250394 0 0 0 4.18716,-1.8968 l 17.577 -46.69 a 3.250394 3.250394 0 0 0 -1.8968 -4.1871 l -46.691 -17.58 a 3.250394 3.250394 0 0 0 -4.18715 1.8968 l -17.578 46.69 a 3.250394 3.250394 0 0 0 1.89679 4.1872 l 46.691 17.58 Z"
     id="pin26"
     style="fill:#d8dee9;fill-opacity:1" />
  <path
     transform="translate(373.254,-1042.5551)"
     fill="none"
     stroke="#000000"
     stroke-width="2"
     stroke-dasharray="none"
     d="m -289.45693,1174.9395 a 3.250394,3.250394 0 0 0 1.8968,4.1871 l 46.691 17.57 a 3.250394 3.250394 0 0 0 4.18715 -1.8968 l 17.577 -46.69 a 3.250394 3.250394 0 0 0 -1.8968 -4.1872 l -46.691 -17.58 a 3.250394 3.250394 0 0 0 -4.18715 1.8968 l -17.577 46.69 Z"
     id="pin27"
     style="fill:#d8dee9;fill-opacity:1" />
  <path
     transform="translate(373.254,-1042.5551)"
     fill="none"
     stroke="#000000"
     stroke-width="2"
     stroke-dasharray="none"
     d="m 240.98268,1212.4252 a 9.86457,9.86457 0 0 0 -19.72914,0 9.86457,9.86457 0 0 0 19.72914,0 z"
     id="pin13"
     style="fill:#1c1f26;fill-opacity:1" />
  <path
     transform="translate(373.254,-1042.5551)"
     fill="none"
     stroke="#000000"
     stroke-width="2"
     stroke-dasharray="none"
     d="m 110.87244,1212.4252 a 9.864567,9.864567 0 0 0 -19.729133,0 9.864567,9.864567 0 0 0 19.729133,0 z"
     id="pin10"
     style="fill:#1c1f26;fill-opacity:1" />
  <path
     transform="translate(373.254,-1042.5551)"
     fill="none"
     stroke="#000000"
     stroke-width="2"
     stroke-dasharray="none"
     d="m 187.80472,1183.4646 a 3.250394,3.250394 0 0 0 3.2504,3.2504 h 49.89 a 3.250394 3.250394 0 0 0 3.2504 -3.2504 v -49.89 a 3.250394 3.250394 0 0 0 -3.2504 -3.2504 h -49.89 a 3.250394 3.250394 0 0 0 -3.2504 3.2504 v 49.89 Z"
     id="pin08"
     style="fill:#ab37c8" />
  <path
     transform="translate(373.254,-1042.5551)"
     fill="none"
     stroke="#000000"
     stroke-width="2"
     stroke-dasharray="none"
     d="m 67.502362,1212.4252 a 9.864567,9.864567 0 0 0 -19.729134,0 9.864567,9.864567 0 0 0 19.729134,0 z"
     id="pin09"
     style="fill:#1c1f26;fill-opacity:1" />
  <path
     transform="translate(373.254,-1042.5551)"
     fill="none"
     stroke="#000000"
     stroke-width="2"
     stroke-dasharray="none"
     d="m 187.80472,1111.4646 a 3.250394,3.250394 0 0 0 3.2504,3.2504 h 49.89 a 3.250394 3.250394 0 0 0 3.2504 -3.2504 v -49.89 a 3.250394 3.250394 0 0 0 -3.2504 -3.2504 h -49.89 a 3.250394 3.250394 0 0 0 -3.2504 3.2504 v 49.89 Z"
     id="pin04"
     style="fill:#c87137" />
  <path
     transform="translate(373.254,-1042.5551)"
     fill="none"
     stroke="#000000"
     stroke-width="2"
     stroke-dasharray="none"
     d="m 197.6126,1212.4252 a 9.86457,9.86457 0 0 0 -19.72914,0 9.86457,9.86457 0 0 0 19.72914,0 z"
     id="pin12"
     style="fill:#1c1f26;fill-opacity:1" />
  <path
     transform="translate(373.254,-1042.5551)"
     fill="none"
     stroke="#000000"
     stroke-width="2"
     stroke-dasharray="none"
     d="m 115.80472,1183.4646 a 3.250394,3.250394 0 0 0 3.2504,3.2504 h 49.89 a 3.250394 3.250394 0 0 0 3.2504 -3.2504 v -49.89 a 3.250394 3.250394 0 0 0 -3.2504 -3.2504 h -49.89 a 3.250394 3.250394 0 0 0 -3.2504 3.2504 v 49.89 Z"
     id="pin07"
     style="fill:#5fbcd3" />
  <path
     transform="translate(373.254,-1042.5551)"
     fill="none"
     stroke="#000000"
     stroke-width="2"
     stroke-dasharray="none"
     d="m 28.1953,1147.46 v -49.89 a 3.250394 3.250394 0 0 0 -3.250394 -3.2504 H -24.9449 a 3.250394 3.250394 0 0 0 -3.250394 3.2504 v 49.89 a 3.250394 3.250394 0 0 0 3.250394 3.2504 H 24.9449 a 3.250394 3.250394 0 0 0 3.250394 -3.2504 Z"
     id="pin01"
     style="fill:#3771c8" />
  <path
     fill="none"
     stroke="#000000"
     stroke-width="2"
     stroke-dasharray="none"
     d="m -195.635,1076.55 -46.691,-17.58 a 3.250394 3.250394 0 0 0 -4.18716 1.8968 l -17.577 46.69 a 3.250394 3.250394 0 0 0 1.8968 4.1872 l 46.691 17.58 a 3.250394 3.250394 0 0 0 4.18715 -1.8968 l 17.577 -46.69 a 3.250394 3.250394 0 0 0 -1.89679 -4.1872 Z"
     id="pin29"
     style="fill:#d8dee9;fill-opacity:1"
     transform="translate(373.254,-1042.5551)" />
  <path
     fill="none"
     stroke="#000000"
     stroke-width="2"
     stroke-dasharray="none"
     d="m 84.8684,76.0105 -46.691,-17.58 a 3.250394,3.250394 0 0 0 -4.18716,1.8968 l -17.577,46.69 a 3.250394,3.250394 0 0 0 1.8968,4.1872 l 46.691,17.58 a 3.250394,3.250394 0 0 0 4.18715,-1.8968 l 17.577,-46.69 A 3.250394,3.250394 0 0 0 84.8684,76.0105 Z"
     id="pin28"
     style="display:inline;fill:#d8dee9;fill-opacity:1" />
  <path
     transform="translate(373.254,-1042.5551)"
     fill="none"
     stroke="#000000"
     stroke-width="2"
     stroke-dasharray="none"
     d="m 115.80472,1111.4646 a 3.250394,3.250394 0 0 0 3.2504,3.2504 h 49.89 a 3.250394 3.250394 0 0 0 3.2504 -3.2504 v -49.89 a 3.250394 3.250394 0 0 0 -3.2504 -3.2504 h -49.89 a 3.250394 3.250394 0 0 0 -3.2504 3.2504 v 49.89 Z"
     id="pin03"
     style="fill:#7137c8" />
  <path
     transform="translate(373.254,-1042.5551)"
     fill="none"
     stroke="#000000"
     stroke-width="2"
     stroke-dasharray="none"
     d="m 100.19528,1133.5748 a 3.250394,3.250394 0 0 0 -3.250398,-3.2504 H 47.0551 a 3.250394 3.250394 0 0 0 -3.250394 3.2504 v 49.89 a 3.250394 3.250394 0 0 0 3.250394 3.2504 H 96.9449 a 3.250394 3.250394 0 0 0 3.250398 -3.2504 v -49.89 Z"
     id="pin06"
     style="fill:#c83737" />
  <path
     transform="translate(373.254,-1042.5551)"
     fill="none"
     stroke="#000000"
     stroke-width="2"
     stroke-dasharray="none"
     d="m 43.8047,1061.57 v 49.89 a 3.250394 3.250394 0 0 0 3.250394 3.2504 H 96.9449 a 3.250394 3.250394 0 0 0 3.250398 -3.2504 v -49.89 a 3.250394 3.250394 0 0 0 -3.250398 -3.2504 H 47.0551 a 3.250394 3.250394 0 0 0 -3.250394 3.2504 Z"
     id="pin02"
     style="fill:#c8ab37" />
  <path
     transform="translate(373.254,-1042.5551)"
     fill="none"
     stroke="#000000"
     stroke-width="2"
     stroke-dasharray="none"
     d="m -84.857541,1105.7197 a 4.535433,4.535433 0 0 0 -9.070866,0 4.535433,4.535433 0 0 0 9.070866,0 z"
     id="board-led"
     style="fill:#1c1f26;fill-opacity:1" />
  <path
     transform="translate(373.254,-1042.5551)"
     fill="none"
     stroke="#000000"
     stroke-width="2"
     stroke-dasharray="none"
     d="m 28.195276,1169.5748 a 3.250394,3.250394 0 0 0 -3.250394,-3.2504 H -24.9449 a 3.250394 3.250394 0 0 0 -3.250394 3.2504 v 49.89 a 3.250394 3.250394 0 0 0 3.250394 3.2504 H 24.9449 a 3.250394 3.250394 0 0 0 3.250394 -3.2504 v -49.89 Z"
     id="pin05"
     style="fill:#37c837" />
  <path
     transform="translate(373.254,-1042.5551)"
     fill="none"
     stroke="#000000"
     stroke-width="2"
     stroke-dasharray="none"
     d="m -129.078,1205.56 h 79.3701 a 5.669291 5.669291 0 0 0 5.669292 -5.6693 v -37.8 a 5.669291 5.669291 0 0 0 -5.669292 -5.6693 H -129.078 a 5.669291 5.669291 0 0 0 -5.66929 5.6693 v 37.8 a 5.669291 5.669291 0 0 0 5.66929 5.6693 Z"
     id="oled"
     style="fill:#1c1f26;fill-opacity:1"
     inkscape:label="oled" />
  <path
     transform="translate(373.254,-1042.5551)"
     fill="none"
     stroke="#000000"
     stroke-width="2"
     stroke-dasharray="none"
     d="m 154.24252,1212.4252 a 9.864567,9.864567 0 0 0 -19.72913,0 9.864567,9.864567 0 0 0 19.72913,0 z"
     id="pin11"
     style="fill:#1c1f26;fill-opacity:1" />
  <path
     fill="none"
     stroke="#000000"
     stroke-width="2"
     stroke-dasharray="none"
     d="m -97.707935,1105.7197 a 8.6929135,8.6929135 0 0 0 -17.385825,0 8.6929135,8.6929135 0 0 0 17.385825,0 z"
     id="boot"
     style="fill:#1c1f26;fill-opacity:1"
     transform="translate(373.254,-1042.5551)" />
  <path
     transform="translate(373.254,-1042.5551)"
     fill="none"
     stroke="#000000"
     stroke-width="2"
     stroke-dasharray="none"
     d="m -63.692187,1105.7197 a 8.6929135,8.6929135 0 0 0 -17.385827,0 8.6929135,8.6929135 0 0 0 17.385827,0 z"
     id="reset"
     style="fill:#1c1f26;fill-opacity:1"
     inkscape:label="reset" />
</svg>
