<?xml version="1.0" encoding="UTF-8" standalone="no"?>
<svg
   viewBox="0 0 610.22398 222.22001"
   width="610.224"
   height="222.22"
   version="1.1"
   id="svg178"
   sodipodi:docname="springboard-merged.svg"
   inkscape:version="1.4.4 (dcaf3e7d9e, 2026-05-05)"
   xmlns:inkscape="http://www.inkscape.org/namespaces/inkscape"
   xmlns:sodipodi="http://sodipodi.sourceforge.net/DTD/sodipodi-0.dtd"
   xmlns="http://www.w3.org/2000/svg"
   xmlns:svg="http://www.w3.org/2000/svg">
  <sodipodi:namedview
     id="namedview178"
     pagecolor="#ffffff"
     bordercolor="#000000"
     borderopacity="0.25"
     inkscape:showpageshadow="2"
     inkscape:pageopacity="0.0"
     inkscape:pagecheckerboard="0"
     inkscape:deskcolor="#d1d1d1"
     inkscape:zoom="1.1691468"
     inkscape:cx="332.72128"
     inkscape:cy="189.88206"
     inkscape:window-width="1901"
     inkscape:window-height="1061"
     inkscape:window-x="0"
     inkscape:window-y="0"
     inkscape:window-maximized="0"
     inkscape:current-layer="svg178"
     showguides="false" />
  <desc
     id="desc1">springboard.dxf - scale = 1.000000, origin = (0.000000, 0.000000), method = manual</desc>
  <defs
     id="defs4">
    <marker
       id="DistanceX"
       orient="auto"
       refX="0"
       refY="0"
       style="overflow:visible">
      <path
         d="M 3,-3 -3,3 M 0,-5 V 5"
         style="stroke:#000000;stroke-width:0.5"
         id="path1" />
    </marker>
    <pattern
       id="Hatch"
       patternUnits="userSpaceOnUse"
       width="8"
       height="8"
       x="0"
       y="0">
      <path
         d="M8 4 l-4,4"
         stroke="#000000"
         stroke-width="0.25"
         linecap="square"
         id="path2" />
      <path
         d="M6 2 l-4,4"
         stroke="#000000"
         stroke-width="0.25"
         linecap="square"
         id="path3" />
      <path
         d="M4 0 l-4,4"
         stroke="#000000"
         stroke-width="0.25"
         linecap="square"
         id="path4" />
    </pattern>
    <symbol
       id="*MODEL_SPACE" />
    <symbol
       id="*PAPER_SPACE" />
  </defs>
  <path
     transform="translate(305.112,-1011.41)"
     fill="none"
     stroke="#000000"
     d="m -304.612,1028.92 v 187.2 a 17.007874,17.007874 0 0 0 17.00787,17.0079 H 287.604 a 17.007874,17.007874 0 0 0 17.00787,-17.0079 v -187.2 A 17.007874,17.007874 0 0 0 287.604,1011.9121 h -575.208 a 17.007874,17.007874 0 0 0 -17.00787,17.0079 z"
     id="path18"
     style="fill:#2b303b;fill-opacity:1;stroke-width:2;stroke-dasharray:none" />
  <path
     transform="translate(305.112,-1011.41)"
     fill="none"
     stroke="#000000"
     d="m -214.172,1102.59 -44.539,-11.93 a 5.66929,5.66929 0 0 1 -4.0088,-6.9435 l 11.934,-44.54 a 5.66929,5.66929 0 0 1 6.94344,-4.0088 l 44.539,11.93 a 5.66929,5.66929 0 0 1 4.00879,6.9434 l -11.934,44.54 a 5.66929,5.66929 0 0 1 -6.94343,4.0088 z"
     id="pin27"
     style="fill:#2a2aff;stroke-width:2;stroke-dasharray:none" />
  <path
     transform="translate(305.112,-1011.41)"
     fill="none"
     stroke="#000000"
     d="m -125.748,1072.68 -11.934,44.54 a 5.66929,5.66929 0 0 1 -6.94343,4.0088 l -44.539,-11.94 a 5.66929,5.66929 0 0 1 -4.0088,-6.9435 l 11.934,-44.54 a 5.66929,5.66929 0 0 1 6.94344,-4.0087 l 44.539,11.94 a 5.66929,5.66929 0 0 1 4.00879,6.9434 z"
     id="pin28"
     style="fill:#d8dee9;fill-opacity:1;stroke-width:2;stroke-dasharray:none" />
  <path
     transform="translate(305.112,-1011.41)"
     fill="none"
     stroke="#000000"
     d="m 281.93474,1201.0031 a 9.44882,9.44882 0 0 0 -18.89764,0 9.44882,9.44882 0 0 0 18.89764,0 z"
     id="pin09"
     style="fill:#1c1f26;fill-opacity:1;stroke-width:2;stroke-dasharray:none" />
  <path
     transform="translate(305.112,-1011.41)"
     fill="none"
     stroke="#000000"
     d="m 250.786,1039.18 11.934,44.54 a 5.66929,5.66929 0 0 1 -4.0088,6.9435 l -44.539,11.93 a 5.66929,5.66929 0 0 1 -6.94343,-4.0088 l -11.934,-44.54 a 5.66929,5.66929 0 0 1 4.00879,-6.9434 l 44.539,-11.93 a 5.66929,5.66929 0 0 1 6.94344,4.0088 z"
     id="pin04"
     style="fill:#7137c8;stroke-width:2;stroke-dasharray:none" />
  <path
     transform="translate(305.112,-1011.41)"
     fill="none"
     stroke="#000000"
     d="m 269.421,1108.72 11.934,44.54 a 5.66929,5.66929 0 0 1 -4.0088,6.9434 l -44.539,11.93 a 5.66929,5.66929 0 0 1 -6.94343,-4.0087 L 213.93,1123.59 a 5.66929,5.66929 0 0 1 4.0088,-6.9434 l 44.539,-11.94 a 5.66929,5.66929 0 0 1 6.94344,4.0088 z"
     id="pin07"
     style="fill:#c83737;stroke-width:2;stroke-dasharray:none" />
  <path
     transform="translate(305.112,-1011.41)"
     fill="none"
     stroke="#000000"
     d="m 244.13946,1201.0031 a 9.44882,9.44882 0 0 0 -18.89764,0 9.44882,9.44882 0 0 0 18.89764,0 z"
     id="pin08"
     style="fill:#1c1f26;fill-opacity:1;stroke-width:2;stroke-dasharray:none" />
  <path
     transform="translate(305.112,-1011.41)"
     fill="none"
     stroke="#000000"
     d="m 156.317,1186.77 -11.934,-44.54 a 5.66929,5.66929 0 0 1 4.0088,-6.9435 l 44.539,-11.93 a 5.66929,5.66929 0 0 1 6.94344,4.0088 l 11.934,44.54 a 5.66929,5.66929 0 0 1 -4.0088,6.9434 l -44.539,11.93 a 5.66929,5.66929 0 0 1 -6.94343,-4.0088 z"
     id="pin06"
     style="fill:#37c837;stroke-width:2;stroke-dasharray:none" />
  <path
     transform="translate(305.112,-1011.41)"
     fill="none"
     stroke="#000000"
     d="m -225.24182,1201.0031 a 9.44882,9.44882 0 0 0 -18.89764,0 9.44882,9.44882 0 0 0 18.89764,0 z"
     id="pin13"
     style="fill:#1c1f26;fill-opacity:1;stroke-width:2;stroke-dasharray:none" />
  <path
     transform="translate(305.112,-1011.41)"
     fill="none"
     stroke="#000000"
     d="m 86.7704,1205.4 -11.9342,-44.54 a 5.66929,5.66929 0 0 1 4.00879,-6.9434 l 44.539,-11.94 a 5.66929,5.66929 0 0 1 6.94343,4.0088 l 11.934,44.54 a 5.66929,5.66929 0 0 1 -4.0088,6.9435 l -44.5392,11.93 a 5.66929,5.66929 0 0 1 -6.94344,-4.0088 z"
     id="pin05"
     style="fill:#2a2aff;stroke-width:2;stroke-dasharray:none" />
  <path
     transform="translate(305.112,-1011.41)"
     fill="none"
     stroke="#000000"
     d="m 189.165,1109.29 -44.539,11.94 a 5.66929,5.66929 0 0 1 -6.94343,-4.0088 l -11.934,-44.54 a 5.66929,5.66929 0 0 1 4.00879,-6.9434 l 44.539,-11.94 a 5.66929,5.66929 0 0 1 6.94344,4.0087 l 11.934,44.54 a 5.66929,5.66929 0 0 1 -4.0088,6.9435 z"
     id="pin03"
     style="fill:#c8ab37;stroke-width:2;stroke-dasharray:none" />
  <path
     transform="translate(305.112,-1011.41)"
     fill="none"
     stroke="#000000"
     d="m -45.354331,1191.5543 a 5.669291,5.669291 0 0 0 5.669292,5.6693 h 79.37 a 5.669291,5.669291 0 0 0 5.669292,-5.6693 v -39.68 a 5.669291,5.669291 0 0 0 -5.669292,-5.6693 h -79.37 a 5.669291,5.669291 0 0 0 -5.669292,5.6693 z"
     id="path15"
     style="fill:#1c1f26;fill-opacity:1;stroke-width:2;stroke-dasharray:none" />
  <path
     transform="translate(305.112,-1011.41)"
     fill="none"
     stroke="#000000"
     d="m -142.262,1190.53 11.934,-44.54 a 5.66929,5.66929 0 0 1 6.94343,-4.0088 l 44.539,11.94 a 5.66929,5.66929 0 0 1 4.00879,6.9434 l -11.9342,44.54 a 5.66929,5.66929 0 0 1 -6.94344,4.0088 l -44.5392,-11.93 a 5.66929,5.66929 0 0 1 -4.0088,-6.9435 z"
     id="pin26"
     style="fill:#d8dee9;fill-opacity:1;stroke-width:2;stroke-dasharray:none" />
  <path
     transform="translate(305.112,-1011.41)"
     fill="none"
     stroke="#000000"
     d="m -104.749,1072.44 44.539,11.93 a 5.66929,5.66929 0 0 1 4.00879,6.9435 l -11.9342,44.54 a 5.66929,5.66929 0 0 1 -6.94344,4.0088 l -44.5391,-11.93 a 5.66929,5.66929 0 0 1 -4.0088,-6.9434 l 11.934,-44.53 a 5.66929,5.66929 0 0 1 6.94344,-4.0088 z"
     id="pin29"
     style="fill:#37abc8;stroke-width:2;stroke-dasharray:none" />
  <path
     transform="translate(305.112,-1011.41)"
     fill="none"
     stroke="#000000"
     d="m -144.383,1142.23 -11.934,44.54 a 5.66929,5.66929 0 0 1 -6.94343,4.0088 L -207.8,1178.84 a 5.66929,5.66929 0 0 1 -4.0088,-6.9434 l 11.934,-44.54 a 5.66929,5.66929 0 0 1 6.94344,-4.0088 l 44.539,11.93 a 5.66929,5.66929 0 0 1 4.0088,6.9435 z"
     id="pin15"
     style="fill:#d8dee9;fill-opacity:1;stroke-width:2;stroke-dasharray:none" />
  <path
     transform="translate(305.112,-1011.41)"
     fill="none"
     stroke="#000000"
     d="m 68.1354,1135.85 -11.9342,-44.54 a 5.66929,5.66929 0 0 1 4.00879,-6.9435 l 44.539,-11.93 a 5.66929,5.66929 0 0 1 6.94344,4.0088 l 11.934,44.53 a 5.66929,5.66929 0 0 1 -4.0088,6.9434 l -44.5391,11.93 a 5.66929,5.66929 0 0 1 -6.94344,-4.0088 z"
     id="pin02"
     style="fill:#ab37c8;stroke-width:2;stroke-dasharray:none" />
  <path
     transform="translate(305.112,-1011.41)"
     fill="none"
     stroke="#000000"
     d="m -263.0371,1201.0031 a 9.44882,9.44882 0 0 0 -18.89764,0 9.44882,9.44882 0 0 0 18.89764,0 z"
     id="pin12"
     style="fill:#1c1f26;fill-opacity:1;stroke-width:2;stroke-dasharray:none" />
  <path
     transform="translate(305.112,-1011.41)"
     fill="none"
     stroke="#000000"
     d="m -11.338583,1078.43 a 5.669291,5.669291 0 0 0 -11.338582,0 5.669291,5.669291 0 0 0 11.338582,0 z"
     id="path22"
     style="fill:#1c1f26;fill-opacity:1;stroke-width:2;stroke-dasharray:none" />
  <path
     transform="translate(305.112,-1011.41)"
     fill="none"
     stroke="#000000"
     d="m -232.80716,1172.1393 a 5.669291,5.669291 0 0 0 6.94343,-4.0087 l 11.934,-44.54 a 5.669291,5.669291 0 0 0 -4.0088,-6.9434 l -44.539,-11.94 a 5.669291,5.669291 0 0 0 -6.94344,4.0088 l -11.934,44.54 a 5.669291,5.669291 0 0 0 4.0088,6.9434 l 44.539,11.93 z"
     id="pin14"
     style="fill:#d8dee9;fill-opacity:1;stroke-width:2;stroke-dasharray:none" />
  <path
     transform="translate(305.112,-1011.41)"
     fill="none"
     stroke="#000000"
     d="m 22.677165,1078.43 a 5.669291,5.669291 0 0 0 -11.338582,0 5.669291,5.669291 0 0 0 11.338582,0 z"
     id="path24"
     style="fill:#1c1f26;fill-opacity:1;stroke-width:2;stroke-dasharray:none" />
  <path
     transform="translate(305.112,-1011.41)"
     fill="none"
     stroke="#000000"
     d="m 77.480315,1044.0363 a 9.448819,9.448819 0 0 0 -18.897638,0 9.448819,9.448819 0 0 0 18.897638,0 z"
     id="pin01"
     style="fill:#1c1f26;fill-opacity:1;stroke-width:2;stroke-dasharray:none" />
</svg>
