<?xml version="1.0" encoding="UTF-8" standalone="no"?>
<svg
   width="600"
   height="186.38078"
   viewBox="0 0 600 186.38078"
   version="1.2"
   id="svg1060"
   sodipodi:docname="board.svg"
   inkscape:version="1.4.4 (dcaf3e7d9e, 2026-05-05)"
   xml:space="preserve"
   xmlns:inkscape="http://www.inkscape.org/namespaces/inkscape"
   xmlns:sodipodi="http://sodipodi.sourceforge.net/DTD/sodipodi-0.dtd"
   xmlns="http://www.w3.org/2000/svg"
   xmlns:svg="http://www.w3.org/2000/svg"><sodipodi:namedview
     id="namedview1060"
     pagecolor="#ffffff"
     bordercolor="#000000"
     borderopacity="0.25"
     inkscape:showpageshadow="2"
     inkscape:pageopacity="0.0"
     inkscape:pagecheckerboard="0"
     inkscape:deskcolor="#d1d1d1"
     inkscape:document-units="px"
     inkscape:zoom="2.2752165"
     inkscape:cx="203.49712"
     inkscape:cy="59.554773"
     inkscape:window-width="2560"
     inkscape:window-height="1440"
     inkscape:window-x="0"
     inkscape:window-y="0"
     inkscape:window-maximized="0"
     inkscape:current-layer="svg1060"
     showgrid="false" /><defs
     id="defs1"><marker
       id="DistanceX"
       orient="auto"
       refX="0"
       refY="0"
       style="overflow:visible"><path
         d="M 3,-3 -3,3 M 0,-5 V 5"
         style="stroke:#000000;stroke-width:0.5"
         id="path1" /></marker><pattern
       id="Hatch"
       patternUnits="userSpaceOnUse"
       width="8"
       height="8"
       x="0"
       y="0"><path
         d="M8 4 l-4,4"
         stroke="#000000"
         stroke-width="0.25"
         linecap="square"
         id="path2" /><path
         d="M6 2 l-4,4"
         stroke="#000000"
         stroke-width="0.25"
         linecap="square"
         id="path3" /><path
         d="M4 0 l-4,4"
         stroke="#000000"
         stroke-width="0.25"
         linecap="square"
         id="path4" /></pattern><symbol
       id="*MODEL_SPACE" /><symbol
       id="*PAPER_SPACE" /></defs><path
     fill="none"
     fill-opacity="1"
     fill-rule="evenodd"
     stroke="#000000"
     stroke-width="0.937501"
     stroke-linecap="round"
     stroke-linejoin="bevel"
     stroke-dasharray="none"
     stroke-opacity="1"
     d="M 582.90713,1.0002339 H 17.074707 l -0.399593,0.00454 -0.390511,0.014531 -0.390511,0.024521 -0.399593,0.033602 -0.390511,0.043592 -0.390511,0.053582 -0.390511,0.062663 -0.390511,0.071745 -0.38143,0.081735 -0.381429,0.091725 -0.390511,0.1008064 -0.372348,0.109888 -0.38143,0.1189696 L 11.65296,1.9401851 11.280612,2.0782263 10.917346,2.2244409 10.55408,2.3806453 10.199895,2.5450233 9.8366294,2.7175747 9.4915265,2.9001159 9.1464236,3.0899225 8.8013207,3.2888107 8.4652997,3.4958724 8.1383603,3.7111076 7.8114207,3.9345162 7.4935628,4.1660984 7.175705,4.4049459 6.8669288,4.6519669 6.5672342,4.9062532 6.2675397,5.1678048 5.9769268,5.4366218 5.6953954,5.7117958 5.4229459,5.9942353 5.1504962,6.2839401 4.89621,6.580002 4.6419236,6.8815128 4.3876374,7.1902891 4.1515144,7.5045143 3.924473,7.8241885 3.6974317,8.1502198 3.479472,8.4807917 3.2796756,8.8168128 3.0798792,9.1582834 2.8891646,9.5042942 2.7075314,9.8548458 2.53498,10.209031 l -0.1725514,0.359633 -0.1543881,0.362358 -0.1453064,0.366899 -0.1362249,0.369623 -0.1271431,0.374164 -0.1180615,0.37598 -0.1089799,0.379613 -0.099898,0.381431 -0.090816,0.384153 -0.081735,0.385971 -0.072653,0.388694 -0.063571,0.389603 -0.05449,0.39142 -0.045408,0.392327 -0.036327,0.393235 -0.018163,0.394144 -0.0181634,0.394144 v 0.395052 152.205785 0.39506 l 0.0181634,0.39414 0.018163,0.39414 0.036327,0.39324 0.045408,0.39233 0.05449,0.39142 0.063571,0.3896 0.072653,0.38869 0.081735,0.38598 0.090816,0.38415 0.099898,0.38234 0.1089799,0.37871 0.1180615,0.37688 0.1271431,0.37326 0.1362249,0.36962 0.1453064,0.3669 0.1543881,0.36327 0.1725514,0.35872 0.1725514,0.35509 0.1816332,0.34965 0.1907146,0.34601 0.1997964,0.34147 0.1997964,0.33602 0.2179597,0.33148 0.2270413,0.32513 0.2270414,0.31966 0.236123,0.31424 0.2542862,0.30877 0.2542864,0.30151 0.2542862,0.29606 0.2724497,0.28971 0.2724495,0.28244 0.2815314,0.27517 0.2906129,0.26882 0.2996945,0.26155 0.2996946,0.25429 0.3087762,0.24701 0.3178578,0.23885 0.3178579,0.23159 0.3269396,0.2234 0.3269394,0.21524 0.336021,0.20706 0.3451029,0.19889 0.3451029,0.19072 0.3451029,0.18162 0.3632656,0.17347 0.354185,0.16438 0.363266,0.1553 0.363266,0.14621 0.372348,0.13804 0.372347,0.12804 0.38143,0.11898 0.372348,0.1108 0.390511,0.0999 0.381429,0.0917 0.38143,0.0817 0.390511,0.0718 0.390511,0.0636 0.390511,0.0527 0.390511,0.0436 0.399593,0.0336 0.390511,0.0245 0.390511,0.0145 0.399593,0.005 H 582.90713 l 0.39051,-0.005 0.39959,-0.0145 0.39051,-0.0245 0.39052,-0.0336 0.39959,-0.0436 0.39051,-0.0527 0.39051,-0.0636 0.38143,-0.0718 0.39051,-0.0817 0.38143,-0.0917 0.38143,-0.0999 0.38143,-0.1108 0.37234,-0.11898 0.38143,-0.12804 0.36327,-0.13804 0.37235,-0.14621 0.36327,-0.1553 0.35418,-0.16438 0.35419,-0.17347 0.35418,-0.18162 0.3451,-0.19072 0.33603,-0.19889 0.3451,-0.20706 0.32694,-0.21524 0.32693,-0.2234 0.31787,-0.23159 0.31785,-0.23885 0.30878,-0.24701 0.29969,-0.25429 0.29062,-0.26155 0.29061,-0.26882 0.28153,-0.27517 0.28153,-0.28244 0.26337,-0.28971 0.26337,-0.29606 0.25429,-0.30151 0.2452,-0.30877 0.2452,-0.31424 0.22705,-0.31966 0.22703,-0.32513 0.20888,-0.33148 0.20889,-0.33602 0.19979,-0.34147 0.19071,-0.34601 0.18163,-0.34965 0.17256,-0.35509 0.16346,-0.35872 0.1544,-0.36327 0.15438,-0.3669 0.13623,-0.36962 0.12714,-0.37326 0.11806,-0.37688 0.10898,-0.37871 0.0999,-0.38234 0.0908,-0.38415 0.0817,-0.38598 0.0726,-0.38869 0.0636,-0.3896 0.0545,-0.39142 0.0454,-0.39233 0.0272,-0.39324 0.0272,-0.39414 0.0182,-0.39414 V 169.29326 17.087475 16.692423 l -0.0182,-0.394144 -0.0272,-0.394144 -0.0272,-0.393235 -0.0454,-0.392327 -0.0545,-0.39142 -0.0636,-0.389603 -0.0726,-0.388694 -0.0817,-0.385971 -0.0908,-0.384153 -0.0999,-0.381431 -0.10898,-0.379613 -0.11806,-0.37598 -0.12714,-0.374164 -0.13623,-0.369623 -0.15438,-0.366899 -0.1544,-0.362358 -0.16346,-0.359633 -0.17256,-0.3541852 -0.18163,-0.3505516 -0.19071,-0.3460108 -0.19979,-0.3414706 -0.20889,-0.3360211 -0.20888,-0.3305719 -0.22703,-0.3260313 -0.22705,-0.3196742 -0.2452,-0.3142252 -0.2452,-0.3087763 -0.25429,-0.3015108 -0.26337,-0.2960619 -0.26337,-0.2897048 -0.28153,-0.2824395 -0.28153,-0.275174 -0.29061,-0.268817 -0.29062,-0.2615516 -0.29969,-0.2542863 -0.30878,-0.247021 -0.31785,-0.2388475 -0.31787,-0.2315822 -0.32693,-0.2234086 -0.32694,-0.2152352 -0.3451,-0.2070617 -0.33603,-0.1988882 -0.3451,-0.1898066 -0.35418,-0.1825412 -0.35419,-0.1725514 -0.35418,-0.164378 -0.36327,-0.1562044 -0.37235,-0.1462146 -0.36327,-0.1380412 -0.38143,-0.1280513 -0.37234,-0.1189696 -0.38143,-0.109888 -0.38143,-0.1008064 -0.38143,-0.091725 -0.39051,-0.081735 -0.38143,-0.071745 -0.39051,-0.062663 -0.39051,-0.053582 -0.39959,-0.043592 -0.39052,-0.033602 -0.39051,-0.024521 -0.39959,-0.014531 z"
     id="case"
     style="display:inline;fill:#2b303b;fill-opacity:1;stroke-width:2.00048;stroke-dasharray:none" /><path
     fill="none"
     fill-opacity="1"
     fill-rule="evenodd"
     stroke="#000000"
     stroke-width="0.937501"
     stroke-linecap="round"
     stroke-linejoin="bevel"
     stroke-dasharray="none"
     stroke-opacity="1"
     d="m 327.56736,60.273471 0.009,-0.144398 0.009,-0.14349 0.009,-0.143491 0.0272,-0.142581 0.0272,-0.141674 0.0272,-0.139857 0.0454,-0.138949 0.0454,-0.137134 0.0454,-0.134409 0.0545,-0.132591 0.0636,-0.129868 0.0727,-0.128052 0.0727,-0.124418 0.0726,-0.120786 0.0908,-0.118061 0.0817,-0.113521 0.0999,-0.110797 0.0908,-0.105347 0.0999,-0.102622 0.10898,-0.09717 0.10898,-0.09263 0.11806,-0.089 0.11806,-0.08264 0.11806,-0.0781 0.12715,-0.07356 0.12714,-0.06721 0.12714,-0.06266 0.13623,-0.05631 0.13622,-0.05086 0.13622,-0.04541 0.13623,-0.03905 0.13623,-0.0336 0.1453,-0.02724 0.14531,-0.02089 0.14531,-0.01544 0.13622,-0.0091 0.14531,-0.0036 0.1453,0.0036 0.14531,0.0091 0.14531,0.01544 0.13622,0.02089 0.14531,0.02724 0.13622,0.0336 0.14531,0.03905 0.13622,0.04541 0.13623,0.05086 0.12714,0.05631 0.13623,0.06266 0.12714,0.06721 0.11806,0.07356 0.12714,0.0781 0.11806,0.08264 0.10899,0.089 0.10897,0.09263 0.10899,0.09717 0.0999,0.102622 0.0999,0.105347 0.0908,0.110797 0.0908,0.113521 0.0817,0.118061 0.0817,0.120786 0.0727,0.124418 0.0636,0.128052 0.0636,0.129868 0.0545,0.132591 0.0545,0.134409 0.0454,0.137134 0.0363,0.138949 0.0363,0.139857 0.0272,0.141674 0.0182,0.142581 0.0182,0.143491 0.009,0.14349 v 0.144398 0.144399 l -0.009,0.143489 -0.0182,0.143491 -0.0182,0.142582 -0.0272,0.141674 -0.0363,0.139857 -0.0363,0.138949 -0.0454,0.137133 -0.0545,0.135317 -0.0545,0.132592 -0.0636,0.129867 -0.0636,0.127144 -0.0727,0.124418 -0.0817,0.120787 -0.0817,0.118061 -0.0908,0.114428 -0.0908,0.109889 -0.0999,0.106255 -0.0999,0.101715 -0.10899,0.09717 -0.10897,0.09354 -0.10899,0.08809 -0.11806,0.08355 -0.12714,0.0781 -0.11806,0.07265 -0.12714,0.0672 -0.13623,0.06266 -0.12714,0.05631 -0.13623,0.05086 -0.13622,0.04541 -0.14531,0.03905 -0.13622,0.0336 -0.14531,0.02725 -0.13622,0.0218 -0.14531,0.01453 -0.14531,0.0091 -0.1453,0.0036 -0.14531,-0.0036 -0.13622,-0.0091 -0.14531,-0.01453 -0.14531,-0.0218 -0.1453,-0.02725 -0.13623,-0.0336 -0.13623,-0.03905 -0.13622,-0.04541 -0.13622,-0.05086 -0.13623,-0.05631 -0.12714,-0.06266 -0.12714,-0.0672 -0.12715,-0.07265 -0.11806,-0.0781 -0.11806,-0.08355 -0.11806,-0.08809 -0.10898,-0.09354 -0.10898,-0.09717 -0.0999,-0.101715 -0.0908,-0.106255 -0.0999,-0.109889 -0.0817,-0.114428 -0.0908,-0.118061 -0.0726,-0.120787 -0.0727,-0.124418 -0.0727,-0.127144 -0.0636,-0.129867 -0.0545,-0.132592 -0.0454,-0.135317 -0.0454,-0.137133 -0.0454,-0.138949 -0.0272,-0.139857 -0.0272,-0.141674 -0.0272,-0.142582 -0.009,-0.143491 -0.009,-0.143489 z"
     id="board-led"
     style="fill:#1c1f26;fill-opacity:1;stroke-width:2.00048;stroke-dasharray:none" /><path
     fill="none"
     fill-opacity="1"
     fill-rule="evenodd"
     stroke="#000000"
     stroke-width="0.937501"
     stroke-linecap="round"
     stroke-linejoin="bevel"
     stroke-dasharray="none"
     stroke-opacity="1"
     d="m 76.868314,161.20516 -0.0091,-0.2216 -0.0091,-0.22159 -0.0091,-0.22159 -0.02724,-0.22069 -0.02725,-0.21978 -0.02725,-0.21886 -0.04541,-0.21796 -0.04541,-0.21705 -0.04541,-0.21614 -0.06357,-0.21342 -0.06357,-0.21251 -0.06357,-0.2107 -0.07265,-0.20888 -0.08173,-0.20615 -0.09082,-0.20433 -0.09082,-0.20162 -0.0999,-0.1998 -0.0999,-0.19616 -0.108979,-0.19344 -0.108981,-0.19072 -0.118061,-0.18708 -0.127143,-0.18345 -0.127143,-0.18072 -0.136225,-0.17709 -0.136225,-0.17256 -0.145307,-0.16891 -0.145306,-0.16529 -0.154388,-0.16074 -0.154388,-0.15711 -0.16347,-0.15258 -0.163469,-0.14803 -0.172552,-0.14258 -0.172551,-0.13895 -0.172552,-0.1335 -0.181633,-0.12896 -0.190714,-0.12351 -0.181634,-0.11897 -0.190715,-0.11352 -0.190714,-0.10807 -0.199797,-0.10262 -0.199796,-0.0972 -0.199796,-0.0926 -0.208878,-0.0854 -0.199797,-0.0808 -0.208878,-0.0754 -0.21796,-0.069 -0.208878,-0.0627 -0.217959,-0.0572 -0.208878,-0.0518 -0.21796,-0.0454 -0.21796,-0.04 -0.217959,-0.0336 -0.227041,-0.0272 -0.21796,-0.0209 -0.21796,-0.0154 -0.227041,-0.009 -0.21796,-0.004 -0.21796,0.004 -0.227041,0.009 -0.217959,0.0154 -0.21796,0.0209 -0.227042,0.0272 -0.21796,0.0336 -0.217959,0.04 -0.21796,0.0454 -0.208878,0.0518 -0.21796,0.0572 -0.208878,0.0627 -0.217959,0.069 -0.208878,0.0754 -0.199796,0.0808 -0.208878,0.0854 -0.199797,0.0926 -0.199796,0.0972 -0.199797,0.10262 -0.190715,0.10807 -0.190714,0.11352 -0.181633,0.11897 -0.190715,0.12351 -0.181633,0.12896 -0.172551,0.1335 -0.172552,0.13895 -0.172551,0.14258 -0.16347,0.14803 -0.16347,0.15258 -0.154388,0.15711 -0.154388,0.16074 -0.145306,0.16529 -0.145307,0.16891 -0.136225,0.17256 -0.136224,0.17709 -0.127143,0.18072 -0.118063,0.18345 -0.127143,0.18708 -0.108979,0.19072 -0.10898,0.19344 -0.0999,0.19616 -0.0999,0.1998 -0.09082,0.20162 -0.09082,0.20433 -0.07265,0.20615 -0.08174,0.20888 -0.06357,0.2107 -0.06357,0.21251 -0.06357,0.21342 -0.04541,0.21614 -0.04541,0.21705 -0.04541,0.21796 -0.02725,0.21886 -0.02725,0.21978 -0.02725,0.22069 -0.0091,0.22159 -0.0091,0.22159 -0.0091,0.2216 0.0091,0.22159 0.0091,0.22159 0.0091,0.22069 0.02725,0.22068 0.02725,0.21977 0.02725,0.21887 0.04541,0.21887 0.04541,0.21705 0.04541,0.21524 0.06357,0.21432 0.06357,0.21252 0.06357,0.21069 0.08174,0.20797 0.07265,0.20706 0.09082,0.20434 0.09082,0.20161 0.0999,0.19889 0.0999,0.19617 0.10898,0.19343 0.108979,0.19071 0.127143,0.18709 0.118063,0.18435 0.127143,0.17983 0.136224,0.17709 0.136225,0.17255 0.145307,0.16983 0.145306,0.16437 0.154388,0.16165 0.154388,0.15621 0.16347,0.15257 0.16347,0.14803 0.172551,0.14349 0.172552,0.13804 0.172551,0.1335 0.181633,0.12896 0.190715,0.12442 0.181633,0.11807 0.190714,0.11351 0.190715,0.10808 0.199797,0.10262 0.199796,0.0981 0.199797,0.0917 0.208878,0.0863 0.199796,0.0799 0.208878,0.0754 0.217959,0.069 0.208878,0.0636 0.21796,0.0572 0.208878,0.0509 0.21796,0.0454 0.217959,0.04 0.21796,0.0336 0.227042,0.0272 0.21796,0.0218 0.217959,0.0145 0.227041,0.009 0.21796,0.004 0.21796,-0.004 0.227041,-0.009 0.21796,-0.0145 0.21796,-0.0218 0.227041,-0.0272 0.217959,-0.0336 0.21796,-0.04 0.21796,-0.0454 0.208878,-0.0509 0.217959,-0.0572 0.208878,-0.0636 0.21796,-0.069 0.208878,-0.0754 0.199797,-0.0799 0.208878,-0.0863 0.199796,-0.0917 0.199796,-0.0981 0.199797,-0.10262 0.190714,-0.10808 0.190715,-0.11351 0.181634,-0.11807 0.190714,-0.12442 0.181633,-0.12896 0.172552,-0.1335 0.172551,-0.13804 0.172552,-0.14349 0.163469,-0.14803 0.16347,-0.15257 0.154388,-0.15621 0.154388,-0.16165 0.145306,-0.16437 0.145307,-0.16983 0.136225,-0.17255 0.136225,-0.17709 0.127143,-0.17983 0.127143,-0.18435 0.118061,-0.18709 0.108981,-0.19071 0.108979,-0.19343 0.0999,-0.19617 0.0999,-0.19889 0.09082,-0.20161 0.09082,-0.20434 0.08173,-0.20706 0.07265,-0.20797 0.06357,-0.21069 0.06357,-0.21252 0.06357,-0.21432 0.04541,-0.21524 0.04541,-0.21705 0.04541,-0.21887 0.02725,-0.21887 0.02725,-0.21977 0.02724,-0.22068 0.0091,-0.22069 0.0091,-0.22159 z"
     id="pin07"
     style="fill:#1c1f26;fill-opacity:1;stroke-width:2.00048;stroke-dasharray:none" /><path
     fill="none"
     fill-opacity="1"
     fill-rule="evenodd"
     stroke="#000000"
     stroke-width="0.937501"
     stroke-linecap="round"
     stroke-linejoin="bevel"
     stroke-dasharray="none"
     stroke-opacity="1"
     d="m 35.846485,161.20516 -0.0091,-0.2216 -0.0091,-0.22159 -0.0091,-0.22159 -0.02725,-0.22069 -0.02725,-0.21978 -0.02725,-0.21886 -0.04541,-0.21796 -0.04541,-0.21705 -0.04541,-0.21614 -0.06357,-0.21342 -0.06357,-0.21251 -0.06357,-0.2107 -0.08173,-0.20888 -0.07265,-0.20615 -0.09082,-0.20433 -0.09082,-0.20162 -0.0999,-0.1998 -0.0999,-0.19616 -0.10898,-0.19344 -0.118062,-0.19072 -0.118061,-0.18708 -0.118061,-0.18345 -0.127143,-0.18072 -0.136225,-0.17709 -0.136225,-0.17256 -0.145307,-0.16891 -0.145306,-0.16529 -0.154389,-0.16074 -0.154387,-0.15711 -0.16347,-0.15258 -0.16347,-0.14803 -0.172551,-0.14258 -0.172551,-0.13895 -0.181634,-0.1335 -0.172551,-0.12896 -0.190715,-0.12351 -0.181633,-0.11897 -0.190715,-0.11352 -0.199796,-0.10807 -0.190715,-0.10262 -0.199796,-0.0972 -0.199796,-0.0926 -0.208879,-0.0854 -0.208878,-0.0808 -0.208878,-0.0754 -0.208878,-0.069 -0.208878,-0.0627 -0.217959,-0.0572 -0.208878,-0.0518 -0.21796,-0.0454 -0.21796,-0.04 -0.21796,-0.0336 -0.22704,-0.0272 -0.21796,-0.0209 -0.21796,-0.0154 -0.227042,-0.009 -0.217959,-0.004 -0.227042,0.004 -0.217959,0.009 -0.21796,0.0154 -0.227041,0.0209 -0.21796,0.0272 -0.21796,0.0336 -0.217959,0.04 -0.21796,0.0454 -0.21796,0.0518 -0.208878,0.0572 -0.208878,0.0627 -0.21796,0.069 -0.208877,0.0754 -0.199797,0.0808 -0.208878,0.0854 -0.199796,0.0926 -0.199797,0.0972 -0.199796,0.10262 -0.190715,0.10807 -0.190714,0.11352 -0.190715,0.11897 -0.181633,0.12351 -0.181634,0.12896 -0.172551,0.1335 -0.172551,0.13895 -0.172551,0.14258 -0.163471,0.14803 -0.163469,0.15258 -0.154388,0.15711 -0.154389,0.16074 -0.145306,0.16529 -0.145306,0.16891 -0.136225,0.17256 -0.136224,0.17709 -0.127144,0.18072 -0.127144,0.18345 -0.118061,0.18708 -0.108979,0.19072 -0.108981,0.19344 -0.0999,0.19616 -0.0999,0.1998 -0.09082,0.20162 -0.09082,0.20433 -0.08173,0.20615 -0.07265,0.20888 -0.06357,0.2107 -0.06357,0.21251 -0.06357,0.21342 -0.04541,0.21614 -0.04541,0.21705 -0.04541,0.21796 -0.02724,0.21886 -0.02724,0.21978 -0.02725,0.22069 -0.0091,0.22159 -0.0091,0.22159 -0.0091,0.2216 0.0091,0.22159 0.0091,0.22159 0.0091,0.22069 0.02725,0.22068 0.02724,0.21977 0.02724,0.21887 0.04541,0.21887 0.04541,0.21705 0.04541,0.21524 0.06357,0.21432 0.06357,0.21252 0.06357,0.21069 0.07265,0.20797 0.08173,0.20706 0.09082,0.20434 0.09082,0.20161 0.0999,0.19889 0.0999,0.19617 0.108981,0.19343 0.108979,0.19071 0.118061,0.18709 0.127144,0.18435 0.127144,0.17983 0.136224,0.17709 0.136225,0.17255 0.145306,0.16983 0.145306,0.16437 0.154389,0.16165 0.154388,0.15621 0.163469,0.15257 0.163471,0.14803 0.172551,0.14349 0.172551,0.13804 0.172551,0.1335 0.181634,0.12896 0.181633,0.12442 0.190715,0.11807 0.190714,0.11351 0.190715,0.10808 0.199796,0.10262 0.199797,0.0981 0.199796,0.0917 0.208878,0.0863 0.199797,0.0799 0.208877,0.0754 0.21796,0.069 0.208878,0.0636 0.208878,0.0572 0.21796,0.0509 0.21796,0.0454 0.217959,0.04 0.21796,0.0336 0.21796,0.0272 0.227041,0.0218 0.21796,0.0145 0.217959,0.009 0.227042,0.004 0.217959,-0.004 0.227042,-0.009 0.21796,-0.0145 0.21796,-0.0218 0.22704,-0.0272 0.21796,-0.0336 0.21796,-0.04 0.21796,-0.0454 0.208878,-0.0509 0.217959,-0.0572 0.208878,-0.0636 0.208878,-0.069 0.208878,-0.0754 0.208878,-0.0799 0.208879,-0.0863 0.199796,-0.0917 0.199796,-0.0981 0.190715,-0.10262 0.199796,-0.10808 0.190715,-0.11351 0.181633,-0.11807 0.190715,-0.12442 0.172551,-0.12896 0.181634,-0.1335 0.172551,-0.13804 0.172551,-0.14349 0.16347,-0.14803 0.16347,-0.15257 0.154387,-0.15621 0.154389,-0.16165 0.145306,-0.16437 0.145307,-0.16983 0.136225,-0.17255 0.136225,-0.17709 0.127143,-0.17983 0.118061,-0.18435 0.118061,-0.18709 0.118062,-0.19071 0.10898,-0.19343 0.0999,-0.19617 0.0999,-0.19889 0.09082,-0.20161 0.09082,-0.20434 0.07265,-0.20706 0.08173,-0.20797 0.06357,-0.21069 0.06357,-0.21252 0.06357,-0.21432 0.04541,-0.21524 0.04541,-0.21705 0.04541,-0.21887 0.02725,-0.21887 0.02725,-0.21977 0.02725,-0.22068 0.0091,-0.22069 0.0091,-0.22159 z"
     id="pin08"
     style="fill:#1c1f26;fill-opacity:1;stroke-width:2.00048;stroke-dasharray:none" /><path
     fill="none"
     fill-opacity="1"
     fill-rule="evenodd"
     stroke="#000000"
     stroke-width="0.937501"
     stroke-linecap="round"
     stroke-linejoin="bevel"
     stroke-dasharray="none"
     stroke-opacity="1"
     d="m 199.9338,161.20516 v -0.2216 l -0.009,-0.22159 -0.0182,-0.22159 -0.0182,-0.22069 -0.0272,-0.21978 -0.0363,-0.21886 -0.0363,-0.21796 -0.0454,-0.21705 -0.0545,-0.21614 -0.0545,-0.21342 -0.0636,-0.21251 -0.0726,-0.2107 -0.0727,-0.20888 -0.0817,-0.20615 -0.0817,-0.20433 -0.0999,-0.20162 -0.0908,-0.1998 -0.10898,-0.19616 -0.0999,-0.19344 -0.11806,-0.19072 -0.11806,-0.18708 -0.12714,-0.18345 -0.12715,-0.18072 -0.13622,-0.17709 -0.13623,-0.17256 -0.1453,-0.16891 -0.14531,-0.16529 -0.15439,-0.16074 -0.15439,-0.15711 -0.16347,-0.15258 -0.16347,-0.14803 -0.16347,-0.14258 -0.18163,-0.13895 -0.17255,-0.1335 -0.18163,-0.12896 -0.18163,-0.12351 -0.19072,-0.11897 -0.19071,-0.11352 -0.19072,-0.10807 -0.1998,-0.10262 -0.19979,-0.0972 -0.1998,-0.0926 -0.1998,-0.0854 -0.20887,-0.0808 -0.20888,-0.0754 -0.20888,-0.069 -0.21796,-0.0627 -0.20888,-0.0572 -0.21796,-0.0518 -0.21796,-0.0454 -0.21796,-0.04 -0.21796,-0.0336 -0.21796,-0.0272 -0.21795,-0.0209 -0.22705,-0.0154 -0.21796,-0.009 -0.22704,-0.004 -0.21796,0.004 -0.21795,0.009 -0.22705,0.0154 -0.21796,0.0209 -0.21796,0.0272 -0.21796,0.0336 -0.21796,0.04 -0.21796,0.0454 -0.21795,0.0518 -0.21796,0.0572 -0.20888,0.0627 -0.20888,0.069 -0.20888,0.0754 -0.20888,0.0808 -0.1998,0.0854 -0.20887,0.0926 -0.19072,0.0972 -0.1998,0.10262 -0.19071,0.10807 -0.19072,0.11352 -0.1907,0.11897 -0.18164,0.12351 -0.18164,0.12896 -0.18163,0.1335 -0.17255,0.13895 -0.16347,0.14258 -0.16347,0.14803 -0.16347,0.15258 -0.15438,0.15711 -0.1544,0.16074 -0.1453,0.16529 -0.14531,0.16891 -0.13623,0.17256 -0.13622,0.17709 -0.12714,0.18072 -0.12714,0.18345 -0.11807,0.18708 -0.11806,0.19072 -0.0999,0.19344 -0.10897,0.19616 -0.0999,0.1998 -0.0908,0.20162 -0.0817,0.20433 -0.0817,0.20615 -0.0726,0.20888 -0.0727,0.2107 -0.0636,0.21251 -0.0545,0.21342 -0.0545,0.21614 -0.0454,0.21705 -0.0363,0.21796 -0.0363,0.21886 -0.0272,0.21978 -0.0182,0.22069 -0.0182,0.22159 -0.009,0.22159 v 0.2216 0.22159 l 0.009,0.22159 0.0182,0.22069 0.0182,0.22068 0.0272,0.21977 0.0363,0.21887 0.0363,0.21887 0.0454,0.21705 0.0545,0.21524 0.0545,0.21432 0.0636,0.21252 0.0727,0.21069 0.0726,0.20797 0.0817,0.20706 0.0817,0.20434 0.0908,0.20161 0.0999,0.19889 0.10897,0.19617 0.0999,0.19343 0.11806,0.19071 0.11807,0.18709 0.12714,0.18435 0.12714,0.17983 0.13622,0.17709 0.13623,0.17255 0.14531,0.16983 0.1453,0.16437 0.1544,0.16165 0.15438,0.15621 0.16347,0.15257 0.16347,0.14803 0.16347,0.14349 0.17255,0.13804 0.18163,0.1335 0.18164,0.12896 0.18164,0.12442 0.1907,0.11807 0.19072,0.11351 0.19071,0.10808 0.1998,0.10262 0.19072,0.0981 0.20887,0.0917 0.1998,0.0863 0.20888,0.0799 0.20888,0.0754 0.20888,0.069 0.20888,0.0636 0.21796,0.0572 0.21795,0.0509 0.21796,0.0454 0.21796,0.04 0.21796,0.0336 0.21796,0.0272 0.21796,0.0218 0.22705,0.0145 0.21795,0.009 0.21796,0.004 0.22704,-0.004 0.21796,-0.009 0.22705,-0.0145 0.21795,-0.0218 0.21796,-0.0272 0.21796,-0.0336 0.21796,-0.04 0.21796,-0.0454 0.21796,-0.0509 0.20888,-0.0572 0.21796,-0.0636 0.20888,-0.069 0.20888,-0.0754 0.20887,-0.0799 0.1998,-0.0863 0.1998,-0.0917 0.19979,-0.0981 0.1998,-0.10262 0.19072,-0.10808 0.19071,-0.11351 0.19072,-0.11807 0.18163,-0.12442 0.18163,-0.12896 0.17255,-0.1335 0.18163,-0.13804 0.16347,-0.14349 0.16347,-0.14803 0.16347,-0.15257 0.15439,-0.15621 0.15439,-0.16165 0.14531,-0.16437 0.1453,-0.16983 0.13623,-0.17255 0.13622,-0.17709 0.12715,-0.17983 0.12714,-0.18435 0.11806,-0.18709 0.11806,-0.19071 0.0999,-0.19343 0.10898,-0.19617 0.0908,-0.19889 0.0999,-0.20161 0.0817,-0.20434 0.0817,-0.20706 0.0727,-0.20797 0.0726,-0.21069 0.0636,-0.21252 0.0545,-0.21432 0.0545,-0.21524 0.0454,-0.21705 0.0363,-0.21887 0.0363,-0.21887 0.0272,-0.21977 0.0182,-0.22068 0.0182,-0.22069 0.009,-0.22159 z"
     id="pin04"
     style="fill:#1c1f26;fill-opacity:1;stroke-width:2.00048;stroke-dasharray:none" /><path
     fill="none"
     fill-opacity="1"
     fill-rule="evenodd"
     stroke="#000000"
     stroke-width="0.937501"
     stroke-linecap="round"
     stroke-linejoin="bevel"
     stroke-dasharray="none"
     stroke-opacity="1"
     d="m 321.49173,60.273471 v -0.200704 l -0.009,-0.200705 -0.0182,-0.199796 -0.0181,-0.199797 -0.0272,-0.198888 -0.0363,-0.19798 -0.0363,-0.197071 -0.0454,-0.195256 -0.0545,-0.194348 -0.0545,-0.192531 -0.0636,-0.189806 -0.0727,-0.188899 -0.0727,-0.186174 -0.0817,-0.184357 -0.0817,-0.181634 -0.0908,-0.178908 -0.0999,-0.176184 -0.0999,-0.17346 -0.10897,-0.169827 -0.10899,-0.166194 -0.11806,-0.163469 -0.11806,-0.15893 -0.12714,-0.156204 -0.13622,-0.151663 -0.13623,-0.148032 -0.13623,-0.14349 -0.1453,-0.138949 -0.15439,-0.135316 -0.1453,-0.129868 -0.16347,-0.125327 -0.1544,-0.120786 -0.16346,-0.115337 -0.17256,-0.110796 -0.17255,-0.106256 -0.17255,-0.0999 -0.17255,-0.09536 -0.18163,-0.08991 -0.18163,-0.08355 -0.18164,-0.07901 -0.19071,-0.07265 -0.19072,-0.0672 -0.19071,-0.06175 -0.19072,-0.0554 -0.19071,-0.04995 -0.1998,-0.04359 -0.19979,-0.03814 -0.1998,-0.03179 -0.19072,-0.02543 -0.19979,-0.01998 -0.20888,-0.01362 -0.19979,-0.0073 -0.1998,-0.0018 -0.1998,0.0045 -0.19979,0.0109 -0.1998,0.01635 -0.1998,0.02271 -0.19979,0.02906 -0.1998,0.03451 -0.19071,0.04087 -0.1998,0.04722 -0.19072,0.05267 -0.19071,0.05812 -0.19072,0.06448 -0.19071,0.06993 -0.18163,0.07629 -0.18164,0.08083 -0.18163,0.08718 -0.18163,0.09263 -0.17255,0.09717 -0.17255,0.10353 -0.17255,0.108073 -0.16347,0.11352 -0.16348,0.118062 -0.15439,0.122602 -0.16346,0.128052 -0.14531,0.132591 -0.1453,0.137133 -0.14532,0.141674 -0.13622,0.145307 -0.13622,0.149847 -0.12715,0.15348 -0.12714,0.15802 -0.11806,0.160746 -0.11806,0.165286 -0.10898,0.16801 -0.0999,0.171644 -0.0999,0.174368 -0.0908,0.178 -0.0908,0.179817 -0.0817,0.183449 -0.0817,0.185266 -0.0727,0.187082 -0.0636,0.189807 -0.0545,0.191623 -0.0545,0.193439 -0.0545,0.195255 -0.0363,0.196164 -0.0363,0.197072 -0.0363,0.198888 -0.0182,0.198888 -0.0182,0.199796 -0.0182,0.200705 v 0.200705 0.200704 0.200705 l 0.0182,0.199796 0.0182,0.199797 0.0182,0.199796 0.0363,0.19798 0.0363,0.19798 0.0363,0.196164 0.0545,0.194347 0.0545,0.19344 0.0545,0.191622 0.0636,0.189807 0.0727,0.187082 0.0817,0.186174 0.0817,0.182541 0.0908,0.179817 0.0908,0.178 0.0999,0.174368 0.0999,0.171643 0.10898,0.16801 0.11806,0.165287 0.11806,0.161653 0.12714,0.157113 0.12715,0.15348 0.13622,0.149847 0.13622,0.146215 0.14532,0.140765 0.1453,0.137134 0.14531,0.132591 0.16346,0.128051 0.15439,0.123511 0.16348,0.118062 0.16347,0.11352 0.17255,0.108072 0.17255,0.102622 0.17255,0.09808 0.18163,0.09173 0.18163,0.08718 0.18164,0.08174 0.18163,0.07538 0.19071,0.06993 0.19072,0.06448 0.19071,0.05903 0.19072,0.05267 0.1998,0.04632 0.19071,0.04087 0.1998,0.03451 0.19979,0.02906 0.1998,0.0227 0.1998,0.01726 0.19979,0.01 0.1998,0.0045 0.1998,-9.07e-4 0.19979,-0.0082 0.20888,-0.01362 0.19979,-0.01907 0.19072,-0.02634 0.1998,-0.03179 0.19979,-0.03814 0.1998,-0.04359 0.19071,-0.04995 0.19072,-0.0554 0.19071,-0.06176 0.19072,-0.0672 0.19071,-0.07265 0.18164,-0.0781 0.18163,-0.08446 0.18163,-0.08991 0.17255,-0.09445 0.17255,-0.100806 0.17255,-0.105347 0.17256,-0.110796 0.16346,-0.116245 0.1544,-0.120786 0.16347,-0.125327 0.1453,-0.129867 0.15439,-0.134409 0.1453,-0.139858 0.13623,-0.14349 0.13623,-0.148031 0.13622,-0.151664 0.12714,-0.155295 0.11806,-0.159838 0.11806,-0.162562 0.10899,-0.167101 0.10897,-0.169827 0.0999,-0.173461 0.0999,-0.175275 0.0908,-0.178908 0.0817,-0.181634 0.0817,-0.184357 0.0727,-0.186175 0.0727,-0.188897 0.0636,-0.190715 0.0545,-0.192531 0.0545,-0.194348 0.0454,-0.195256 0.0363,-0.197071 0.0363,-0.197981 0.0272,-0.198888 0.0181,-0.199796 0.0182,-0.199796 0.009,-0.200705 z"
     id="boot"
     style="fill:#1c1f26;fill-opacity:1;stroke-width:2.00048;stroke-dasharray:none" /><path
     fill="none"
     fill-opacity="1"
     fill-rule="evenodd"
     stroke="#000000"
     stroke-width="0.937501"
     stroke-linecap="round"
     stroke-linejoin="bevel"
     stroke-dasharray="none"
     stroke-opacity="1"
     d="m 117.89014,161.20516 v -0.2216 l -0.009,-0.22159 -0.0182,-0.22159 -0.0182,-0.22069 -0.0272,-0.21978 -0.0363,-0.21886 -0.0454,-0.21796 -0.0454,-0.21705 -0.0454,-0.21614 -0.0636,-0.21342 -0.0545,-0.21251 -0.0727,-0.2107 -0.0727,-0.20888 -0.0817,-0.20615 -0.0908,-0.20433 -0.0908,-0.20162 -0.0999,-0.1998 -0.0999,-0.19616 -0.10898,-0.19344 -0.10898,-0.19072 -0.11806,-0.18708 -0.12714,-0.18345 -0.12715,-0.18072 -0.13622,-0.17709 -0.13622,-0.17256 -0.14531,-0.16891 -0.14531,-0.16529 -0.15439,-0.16074 -0.15438,-0.15711 -0.16348,-0.15258 -0.16347,-0.14803 -0.17255,-0.14258 -0.17255,-0.13895 -0.17255,-0.1335 -0.18163,-0.12896 -0.18163,-0.12351 -0.19072,-0.11897 -0.19071,-0.11352 -0.19072,-0.10807 -0.1998,-0.10262 -0.19979,-0.0972 -0.1998,-0.0926 -0.20888,-0.0854 -0.19979,-0.0808 -0.20888,-0.0754 -0.20888,-0.069 -0.21796,-0.0627 -0.20888,-0.0572 -0.21796,-0.0518 -0.21796,-0.0454 -0.21796,-0.04 -0.21796,-0.0336 -0.21795,-0.0272 -0.22705,-0.0209 -0.21796,-0.0154 -0.21796,-0.009 -0.22704,-0.004 -0.21795,0.004 -0.22705,0.009 -0.21796,0.0154 -0.21796,0.0209 -0.21796,0.0272 -0.22703,0.0336 -0.21797,0.04 -0.21796,0.0454 -0.20887,0.0518 -0.21796,0.0572 -0.20888,0.0627 -0.20888,0.069 -0.20888,0.0754 -0.20887,0.0808 -0.20889,0.0854 -0.19979,0.0926 -0.1998,0.0972 -0.19072,0.10262 -0.19979,0.10807 -0.19071,0.11352 -0.18163,0.11897 -0.19072,0.12351 -0.17256,0.12896 -0.18162,0.1335 -0.17255,0.13895 -0.17256,0.14258 -0.16347,0.14803 -0.15439,0.15258 -0.16347,0.15711 -0.14531,0.16074 -0.15438,0.16529 -0.14531,0.16891 -0.13622,0.17256 -0.12714,0.17709 -0.13623,0.18072 -0.11806,0.18345 -0.11807,0.18708 -0.11806,0.19072 -0.10897,0.19344 -0.0999,0.19616 -0.0999,0.1998 -0.0908,0.20162 -0.0817,0.20433 -0.0817,0.20615 -0.0817,0.20888 -0.0636,0.2107 -0.0636,0.21251 -0.0545,0.21342 -0.0545,0.21614 -0.0454,0.21705 -0.0363,0.21796 -0.0363,0.21886 -0.0273,0.21978 -0.0272,0.22069 -0.009,0.22159 -0.009,0.22159 -0.009,0.2216 0.009,0.22159 0.009,0.22159 0.009,0.22069 0.0272,0.22068 0.0273,0.21977 0.0363,0.21887 0.0363,0.21887 0.0454,0.21705 0.0545,0.21524 0.0545,0.21432 0.0636,0.21252 0.0636,0.21069 0.0817,0.20797 0.0817,0.20706 0.0817,0.20434 0.0908,0.20161 0.0999,0.19889 0.0999,0.19617 0.10897,0.19343 0.11806,0.19071 0.11807,0.18709 0.11806,0.18435 0.13623,0.17983 0.12714,0.17709 0.13622,0.17255 0.14531,0.16983 0.15438,0.16437 0.14531,0.16165 0.16347,0.15621 0.15439,0.15257 0.16347,0.14803 0.17256,0.14349 0.17255,0.13804 0.18162,0.1335 0.17256,0.12896 0.19072,0.12442 0.18163,0.11807 0.19071,0.11351 0.19979,0.10808 0.19072,0.10262 0.1998,0.0981 0.19979,0.0917 0.20889,0.0863 0.20887,0.0799 0.20888,0.0754 0.20888,0.069 0.20888,0.0636 0.21796,0.0572 0.20887,0.0509 0.21796,0.0454 0.21797,0.04 0.22703,0.0336 0.21796,0.0272 0.21796,0.0218 0.21796,0.0145 0.22705,0.009 0.21795,0.004 0.22704,-0.004 0.21796,-0.009 0.21796,-0.0145 0.22705,-0.0218 0.21795,-0.0272 0.21796,-0.0336 0.21796,-0.04 0.21796,-0.0454 0.21796,-0.0509 0.20888,-0.0572 0.21796,-0.0636 0.20888,-0.069 0.20888,-0.0754 0.19979,-0.0799 0.20888,-0.0863 0.1998,-0.0917 0.19979,-0.0981 0.1998,-0.10262 0.19072,-0.10808 0.19071,-0.11351 0.19072,-0.11807 0.18163,-0.12442 0.18163,-0.12896 0.17255,-0.1335 0.17255,-0.13804 0.17255,-0.14349 0.16347,-0.14803 0.16348,-0.15257 0.15438,-0.15621 0.15439,-0.16165 0.14531,-0.16437 0.14531,-0.16983 0.13622,-0.17255 0.13622,-0.17709 0.12715,-0.17983 0.12714,-0.18435 0.11806,-0.18709 0.10898,-0.19071 0.10898,-0.19343 0.0999,-0.19617 0.0999,-0.19889 0.0908,-0.20161 0.0908,-0.20434 0.0817,-0.20706 0.0727,-0.20797 0.0727,-0.21069 0.0545,-0.21252 0.0636,-0.21432 0.0454,-0.21524 0.0454,-0.21705 0.0454,-0.21887 0.0363,-0.21887 0.0272,-0.21977 0.0182,-0.22068 0.0182,-0.22069 0.009,-0.22159 z"
     id="pin06"
     style="fill:#1c1f26;fill-opacity:1;stroke-width:2.00048;stroke-dasharray:none" /><path
     fill="none"
     fill-opacity="1"
     fill-rule="evenodd"
     stroke="#000000"
     stroke-width="0.937501"
     stroke-linecap="round"
     stroke-linejoin="bevel"
     stroke-dasharray="none"
     stroke-opacity="1"
     d="m 340.43606,60.273471 0.009,-0.200704 0.009,-0.200705 0.009,-0.199796 0.0272,-0.199797 0.0272,-0.198888 0.0272,-0.19798 0.0454,-0.197071 0.0454,-0.195256 0.0454,-0.194348 0.0636,-0.192531 0.0636,-0.189806 0.0636,-0.188899 0.0727,-0.186174 0.0817,-0.184357 0.0908,-0.181634 0.0908,-0.178908 0.0908,-0.176184 0.0999,-0.17346 0.10897,-0.169827 0.11806,-0.166194 0.10899,-0.163469 0.12714,-0.15893 0.12715,-0.156204 0.12714,-0.151663 0.13623,-0.148032 0.1453,-0.14349 0.14531,-0.138949 0.1453,-0.135316 0.15439,-0.129868 0.15439,-0.125327 0.16346,-0.120786 0.16347,-0.115337 0.16348,-0.110796 0.17255,-0.106256 0.17255,-0.0999 0.18163,-0.09536 0.17255,-0.08991 0.18164,-0.08355 0.19071,-0.07901 0.18163,-0.07265 0.19072,-0.0672 0.19071,-0.06175 0.1998,-0.0554 0.19071,-0.04995 0.19072,-0.04359 0.1998,-0.03814 0.19979,-0.03179 0.1998,-0.02543 0.1998,-0.01998 0.19979,-0.01362 0.19979,-0.0073 0.19981,-0.0018 0.19979,0.0045 0.19979,0.0109 0.19981,0.01635 0.19979,0.02271 0.19979,0.02906 0.1998,0.03451 0.1998,0.04087 0.19071,0.04722 0.19072,0.05267 0.19979,0.05812 0.19072,0.06448 0.18163,0.06993 0.19072,0.07629 0.18163,0.08083 0.18163,0.08718 0.17255,0.09263 0.18164,0.09717 0.17255,0.10353 0.16347,0.108073 0.17255,0.11352 0.15439,0.118062 0.16347,0.122602 0.15439,0.128052 0.15438,0.132591 0.14531,0.137133 0.13623,0.141674 0.1453,0.145307 0.12714,0.149847 0.13623,0.15348 0.11806,0.15802 0.11807,0.160746 0.11806,0.165286 0.10897,0.16801 0.10899,0.171644 0.0908,0.174368 0.0999,0.178 0.0908,0.179817 0.0817,0.183449 0.0727,0.185266 0.0727,0.187082 0.0636,0.189807 0.0636,0.191623 0.0545,0.193439 0.0454,0.195255 0.0454,0.196164 0.0363,0.197072 0.0273,0.198888 0.0272,0.198888 0.0182,0.199796 0.009,0.200705 0.009,0.200705 v 0.200704 l -0.009,0.200705 -0.009,0.199796 -0.0182,0.199797 -0.0272,0.199796 -0.0273,0.19798 -0.0363,0.19798 -0.0454,0.196164 -0.0454,0.194347 -0.0545,0.19344 -0.0636,0.191622 -0.0636,0.189807 -0.0727,0.187082 -0.0727,0.186174 -0.0817,0.182541 -0.0908,0.179817 -0.0999,0.178 -0.0908,0.174368 -0.10899,0.171643 -0.10897,0.16801 -0.11806,0.165287 -0.11807,0.161653 -0.11806,0.157113 -0.13623,0.15348 -0.12714,0.149847 -0.1453,0.146215 -0.13623,0.140765 -0.14531,0.137134 -0.15438,0.132591 -0.15439,0.128051 -0.16347,0.123511 -0.15439,0.118062 -0.17255,0.11352 -0.16347,0.108072 -0.17255,0.102622 -0.18164,0.09808 -0.17255,0.09173 -0.18163,0.08718 -0.18163,0.08174 -0.19072,0.07538 -0.18163,0.06993 -0.19072,0.06448 -0.19979,0.05903 -0.19072,0.05267 -0.19071,0.04632 -0.1998,0.04087 -0.1998,0.03451 -0.19979,0.02906 -0.19979,0.0227 -0.19981,0.01726 -0.19979,0.01 -0.19979,0.0045 -0.19981,-9.07e-4 -0.19979,-0.0082 -0.19979,-0.01362 -0.1998,-0.01907 -0.1998,-0.02634 -0.19979,-0.03179 -0.1998,-0.03814 -0.19072,-0.04359 -0.19071,-0.04995 -0.1998,-0.0554 -0.19071,-0.06176 -0.19072,-0.0672 -0.18163,-0.07265 -0.19071,-0.0781 -0.18164,-0.08446 -0.17255,-0.08991 -0.18163,-0.09445 -0.17255,-0.100806 -0.17255,-0.105347 -0.16348,-0.110796 -0.16347,-0.116245 -0.16346,-0.120786 -0.15439,-0.125327 -0.15439,-0.129867 -0.1453,-0.134409 -0.14531,-0.139858 -0.1453,-0.14349 -0.13623,-0.148031 -0.12714,-0.151664 -0.12715,-0.155295 -0.12714,-0.159838 -0.10899,-0.162562 -0.11806,-0.167101 -0.10897,-0.169827 -0.0999,-0.173461 -0.0908,-0.175275 -0.0908,-0.178908 -0.0908,-0.181634 -0.0817,-0.184357 -0.0727,-0.186175 -0.0636,-0.188897 -0.0636,-0.190715 -0.0636,-0.192531 -0.0454,-0.194348 -0.0454,-0.195256 -0.0454,-0.197071 -0.0272,-0.197981 -0.0272,-0.198888 -0.0272,-0.199796 -0.009,-0.199796 -0.009,-0.200705 z"
     id="reset"
     style="fill:#1c1f26;fill-opacity:1;stroke-width:2.00048;stroke-dasharray:none" /><path
     fill="none"
     fill-opacity="1"
     fill-rule="evenodd"
     stroke="#000000"
     stroke-width="0.937501"
     stroke-linecap="round"
     stroke-linejoin="bevel"
     stroke-dasharray="none"
     stroke-opacity="1"
     d="m 158.91197,161.20516 v -0.2216 l -0.009,-0.22159 -0.0182,-0.22159 -0.0182,-0.22069 -0.0273,-0.21978 -0.0363,-0.21886 -0.0363,-0.21796 -0.0454,-0.21705 -0.0545,-0.21614 -0.0545,-0.21342 -0.0636,-0.21251 -0.0727,-0.2107 -0.0727,-0.20888 -0.0817,-0.20615 -0.0908,-0.20433 -0.0908,-0.20162 -0.0908,-0.1998 -0.10898,-0.19616 -0.10898,-0.19344 -0.10898,-0.19072 -0.11806,-0.18708 -0.12714,-0.18345 -0.12715,-0.18072 -0.13622,-0.17709 -0.13623,-0.17256 -0.1453,-0.16891 -0.14531,-0.16529 -0.15439,-0.16074 -0.15438,-0.15711 -0.16348,-0.15258 -0.16347,-0.14803 -0.17255,-0.14258 -0.17255,-0.13895 -0.17255,-0.1335 -0.18163,-0.12896 -0.18163,-0.12351 -0.19072,-0.11897 -0.19071,-0.11352 -0.19072,-0.10807 -0.1998,-0.10262 -0.19979,-0.0972 -0.1998,-0.0926 -0.1998,-0.0854 -0.20887,-0.0808 -0.20888,-0.0754 -0.20888,-0.069 -0.21796,-0.0627 -0.20888,-0.0572 -0.21796,-0.0518 -0.21796,-0.0454 -0.21796,-0.04 -0.21796,-0.0336 -0.21796,-0.0272 -0.22704,-0.0209 -0.21796,-0.0154 -0.21796,-0.009 -0.22704,-0.004 -0.21795,0.004 -0.21796,0.009 -0.22705,0.0154 -0.21796,0.0209 -0.21796,0.0272 -0.21796,0.0336 -0.21796,0.04 -0.21795,0.0454 -0.21796,0.0518 -0.21796,0.0572 -0.20888,0.0627 -0.20888,0.069 -0.20888,0.0754 -0.20888,0.0808 -0.1998,0.0854 -0.20887,0.0926 -0.1998,0.0972 -0.19072,0.10262 -0.19979,0.10807 -0.18164,0.11352 -0.1907,0.11897 -0.18164,0.12351 -0.18164,0.12896 -0.18163,0.1335 -0.17254,0.13895 -0.16348,0.14258 -0.17255,0.14803 -0.15439,0.15258 -0.16347,0.15711 -0.14531,0.16074 -0.15438,0.16529 -0.13623,0.16891 -0.1453,0.17256 -0.12714,0.17709 -0.13623,0.18072 -0.11806,0.18345 -0.11807,0.18708 -0.11806,0.19072 -0.10897,0.19344 -0.0999,0.19616 -0.0999,0.1998 -0.0908,0.20162 -0.0817,0.20433 -0.0817,0.20615 -0.0727,0.20888 -0.0726,0.2107 -0.0636,0.21251 -0.0545,0.21342 -0.0545,0.21614 -0.0454,0.21705 -0.0363,0.21796 -0.0363,0.21886 -0.0272,0.21978 -0.0182,0.22069 -0.0182,0.22159 -0.009,0.22159 v 0.2216 0.22159 l 0.009,0.22159 0.0182,0.22069 0.0182,0.22068 0.0272,0.21977 0.0363,0.21887 0.0363,0.21887 0.0454,0.21705 0.0545,0.21524 0.0545,0.21432 0.0636,0.21252 0.0726,0.21069 0.0727,0.20797 0.0817,0.20706 0.0817,0.20434 0.0908,0.20161 0.0999,0.19889 0.0999,0.19617 0.10897,0.19343 0.11806,0.19071 0.11807,0.18709 0.11806,0.18435 0.13623,0.17983 0.12714,0.17709 0.1453,0.17255 0.13623,0.16983 0.15438,0.16437 0.14531,0.16165 0.16347,0.15621 0.15439,0.15257 0.17255,0.14803 0.16348,0.14349 0.17254,0.13804 0.18163,0.1335 0.18164,0.12896 0.18164,0.12442 0.1907,0.11807 0.18164,0.11351 0.19979,0.10808 0.19072,0.10262 0.1998,0.0981 0.20887,0.0917 0.1998,0.0863 0.20888,0.0799 0.20888,0.0754 0.20888,0.069 0.20888,0.0636 0.21796,0.0572 0.21796,0.0509 0.21795,0.0454 0.21796,0.04 0.21796,0.0336 0.21796,0.0272 0.21796,0.0218 0.22705,0.0145 0.21796,0.009 0.21795,0.004 0.22704,-0.004 0.21796,-0.009 0.21796,-0.0145 0.22704,-0.0218 0.21796,-0.0272 0.21796,-0.0336 0.21796,-0.04 0.21796,-0.0454 0.21796,-0.0509 0.20888,-0.0572 0.21796,-0.0636 0.20888,-0.069 0.20888,-0.0754 0.20887,-0.0799 0.1998,-0.0863 0.1998,-0.0917 0.19979,-0.0981 0.1998,-0.10262 0.19072,-0.10808 0.19071,-0.11351 0.19072,-0.11807 0.18163,-0.12442 0.18163,-0.12896 0.17255,-0.1335 0.17255,-0.13804 0.17255,-0.14349 0.16347,-0.14803 0.16348,-0.15257 0.15438,-0.15621 0.15439,-0.16165 0.14531,-0.16437 0.1453,-0.16983 0.13623,-0.17255 0.13622,-0.17709 0.12715,-0.17983 0.12714,-0.18435 0.11806,-0.18709 0.10898,-0.19071 0.10898,-0.19343 0.10898,-0.19617 0.0908,-0.19889 0.0908,-0.20161 0.0908,-0.20434 0.0817,-0.20706 0.0727,-0.20797 0.0727,-0.21069 0.0636,-0.21252 0.0545,-0.21432 0.0545,-0.21524 0.0454,-0.21705 0.0363,-0.21887 0.0363,-0.21887 0.0273,-0.21977 0.0182,-0.22068 0.0182,-0.22069 0.009,-0.22159 z"
     id="pin05"
     style="fill:#1c1f26;fill-opacity:1;stroke-width:2.00048;stroke-dasharray:none" /><path
     fill="none"
     fill-opacity="1"
     fill-rule="evenodd"
     stroke="#000000"
     stroke-width="0.937501"
     stroke-linecap="round"
     stroke-linejoin="bevel"
     stroke-dasharray="none"
     stroke-opacity="1"
     d="m 204.97412,18.517844 v 47.190089 0.1335 l -0.009,0.134409 -0.0182,0.133499 -0.0182,0.132593 -0.0272,0.130775 -0.0272,0.130777 -0.0363,0.128959 -0.0454,0.127143 -0.0545,0.124419 -0.0454,0.122602 -0.0636,0.120786 -0.0636,0.117154 -0.0726,0.115336 -0.0727,0.110796 -0.0817,0.108981 -0.0817,0.104438 -0.0908,0.100807 -0.0908,0.09627 -0.0999,0.09354 -0.0999,0.08809 -0.0999,0.08355 -0.10898,0.07992 -0.10898,0.07447 -0.11806,0.06993 -0.11806,0.06448 -0.11806,0.05903 -0.12715,0.05358 -0.12714,0.04904 -0.12715,0.04268 -0.12714,0.03814 -0.12714,0.03178 -0.13622,0.02634 -0.12715,0.01998 -0.13622,0.01453 -0.13623,0.0091 -0.12714,0.0027 h -47.18828 l -0.13622,-0.0027 -0.13623,-0.0091 -0.13622,-0.01453 -0.12714,-0.01998 -0.13623,-0.02634 -0.12714,-0.03178 -0.12714,-0.03814 -0.12714,-0.04268 -0.12715,-0.04904 -0.12714,-0.05358 -0.11806,-0.05903 -0.11807,-0.06448 -0.10897,-0.06993 -0.11806,-0.07447 -0.10899,-0.07992 -0.0999,-0.08355 -0.0999,-0.08809 -0.0999,-0.09354 -0.0908,-0.09627 -0.0908,-0.100807 -0.0817,-0.104438 -0.0817,-0.108981 -0.0727,-0.110796 -0.0726,-0.115336 -0.0636,-0.117154 -0.0545,-0.120786 -0.0545,-0.122602 -0.0545,-0.124419 -0.0363,-0.127143 -0.0363,-0.128959 -0.0363,-0.130777 -0.0272,-0.130775 -0.0182,-0.132593 -0.0182,-0.133499 -0.009,-0.134409 v -0.1335 -47.190089 -0.134408 l 0.009,-0.133501 0.0182,-0.1335 0.0182,-0.132592 0.0272,-0.131683 0.0363,-0.129869 0.0363,-0.128959 0.0363,-0.127143 0.0545,-0.125327 0.0545,-0.122602 0.0545,-0.119878 0.0636,-0.118061 0.0726,-0.11443 0.0727,-0.111703 0.0817,-0.108072 0.0817,-0.104439 0.0908,-0.100807 0.0908,-0.09717 0.0999,-0.09263 0.0999,-0.089 0.0999,-0.08355 0.10899,-0.07901 0.11806,-0.07447 0.10897,-0.06993 0.11807,-0.06448 0.11806,-0.05903 0.12714,-0.05449 0.12715,-0.04813 0.12714,-0.04359 0.12714,-0.03723 0.12714,-0.03179 0.13623,-0.02634 0.12714,-0.02089 0.13622,-0.01453 0.13623,-0.0082 0.13622,-0.0036 h 47.18828 l 0.12714,0.0036 0.13623,0.0082 0.13622,0.01453 0.12715,0.02089 0.13622,0.02634 0.12714,0.03179 0.12714,0.03723 0.12715,0.04359 0.12714,0.04813 0.12715,0.05449 0.11806,0.05903 0.11806,0.06448 0.11806,0.06993 0.10898,0.07447 0.10898,0.07901 0.0999,0.08355 0.0999,0.089 0.0999,0.09263 0.0908,0.09717 0.0908,0.100807 0.0817,0.104439 0.0817,0.108072 0.0727,0.111703 0.0726,0.11443 0.0636,0.118061 0.0636,0.119878 0.0454,0.122602 0.0545,0.125327 0.0454,0.127143 0.0363,0.128959 0.0272,0.129869 0.0272,0.131683 0.0182,0.132592 0.0182,0.1335 0.009,0.133501 z"
     id="pin28"
     style="fill:#1c1f26;fill-opacity:1;stroke-width:2.00048;stroke-dasharray:none" /><path
     fill="none"
     fill-opacity="1"
     fill-rule="evenodd"
     stroke="#000000"
     stroke-width="0.937501"
     stroke-linecap="round"
     stroke-linejoin="bevel"
     stroke-dasharray="none"
     stroke-opacity="1"
     d="m 219.74089,99.759594 v -47.19009 -0.134408 l 0.009,-0.133501 0.0182,-0.133499 0.0182,-0.132593 0.0272,-0.131684 0.0363,-0.129868 0.0363,-0.128959 0.0363,-0.127143 0.0545,-0.125327 0.0545,-0.122602 0.0545,-0.119878 0.0636,-0.118061 0.0727,-0.114429 0.0727,-0.111705 0.0817,-0.108072 0.0817,-0.104438 0.0908,-0.100806 0.0908,-0.09718 0.0999,-0.09263 0.0999,-0.08809 0.0999,-0.08446 0.10897,-0.07901 0.11806,-0.07447 0.10899,-0.06993 0.11806,-0.06448 0.11805,-0.05903 0.12715,-0.05449 0.12714,-0.04813 0.12714,-0.04359 0.12715,-0.03724 0.12714,-0.03178 0.13623,-0.02634 0.12714,-0.01998 0.13623,-0.01544 0.13622,-0.0082 0.13623,-0.0027 h 47.18827 l 0.13622,0.0027 0.12714,0.0082 0.13623,0.01544 0.13623,0.01998 0.12714,0.02634 0.12714,0.03178 0.13623,0.03724 0.12714,0.04359 0.11806,0.04813 0.12714,0.05449 0.11806,0.05903 0.11806,0.06448 0.11807,0.06993 0.10898,0.07447 0.10898,0.07901 0.0999,0.08446 0.0999,0.08809 0.0999,0.09263 0.0908,0.09718 0.0908,0.100806 0.0817,0.104438 0.0817,0.108072 0.0727,0.111705 0.0727,0.114429 0.0636,0.118061 0.0636,0.119878 0.0545,0.122602 0.0454,0.125327 0.0454,0.127143 0.0363,0.128959 0.0272,0.129868 0.0272,0.131684 0.0182,0.132593 0.0182,0.133499 0.009,0.133501 v 0.134408 47.19009 0.134406 l -0.009,0.1335 -0.0182,0.1335 -0.0182,0.1326 -0.0272,0.13168 -0.0272,0.12987 -0.0363,0.12895 -0.0454,0.12715 -0.0454,0.12442 -0.0545,0.12351 -0.0636,0.11988 -0.0636,0.11806 -0.0727,0.11443 -0.0727,0.1117 -0.0817,0.10807 -0.0817,0.10444 -0.0908,0.10081 -0.0908,0.0972 -0.0999,0.0926 -0.0999,0.0881 -0.0999,0.0845 -0.10898,0.079 -0.10898,0.0745 -0.11807,0.0699 -0.11806,0.0645 -0.11806,0.059 -0.12714,0.0545 -0.11806,0.0481 -0.12714,0.0436 -0.13623,0.0372 -0.12714,0.0318 -0.12714,0.0263 -0.13623,0.02 -0.13623,0.0145 -0.12714,0.009 -0.13622,0.003 h -47.18827 l -0.13623,-0.003 -0.13622,-0.009 -0.13623,-0.0145 -0.12714,-0.02 -0.13623,-0.0263 -0.12714,-0.0318 -0.12715,-0.0372 -0.12714,-0.0436 -0.12714,-0.0481 -0.12715,-0.0545 -0.11805,-0.059 -0.11806,-0.0645 -0.10899,-0.0699 -0.11806,-0.0745 -0.10897,-0.079 -0.0999,-0.0845 -0.0999,-0.0881 -0.0999,-0.0926 -0.0908,-0.0972 -0.0908,-0.10081 -0.0817,-0.10444 -0.0817,-0.10807 -0.0727,-0.1117 -0.0727,-0.11443 -0.0636,-0.11806 -0.0545,-0.11988 -0.0545,-0.12351 -0.0545,-0.12442 -0.0363,-0.12715 -0.0363,-0.12895 -0.0363,-0.12987 -0.0272,-0.13168 -0.0182,-0.1326 -0.0182,-0.1335 -0.009,-0.1335 z"
     id="pin15"
     style="fill:#1c1f26;fill-opacity:1;stroke-width:2.00048;stroke-dasharray:none" /><path
     fill="none"
     fill-opacity="1"
     fill-rule="evenodd"
     stroke="#000000"
     stroke-width="0.937501"
     stroke-linecap="round"
     stroke-linejoin="bevel"
     stroke-dasharray="none"
     stroke-opacity="1"
     d="M 133.8012,136.8863 H 86.603839 l -0.12714,-0.004 -0.136228,-0.008 -0.136219,-0.0145 -0.127149,-0.0209 -0.136219,-0.0263 -0.127149,-0.0318 -0.127141,-0.0372 -0.12714,-0.0436 -0.127149,-0.0481 -0.127141,-0.0545 -0.118062,-0.059 -0.118062,-0.0645 -0.108975,-0.0699 -0.118063,-0.0745 -0.108983,-0.079 -0.09989,-0.0836 -0.0999,-0.089 -0.0999,-0.0926 -0.09082,-0.0972 -0.09082,-0.10081 -0.08174,-0.10444 -0.08173,-0.10808 -0.07265,-0.1117 -0.07265,-0.11443 -0.06357,-0.11806 -0.05449,-0.11988 -0.05449,-0.1226 -0.05449,-0.12532 -0.03633,-0.12715 -0.04541,-0.12896 -0.02725,-0.12986 -0.02724,-0.13169 -0.01816,-0.13259 -0.01816,-0.1335 -0.0091,-0.1335 v -0.13441 -47.190096 -0.1335 l 0.0091,-0.134407 0.01816,-0.133501 0.01816,-0.132594 0.02724,-0.13168 0.02725,-0.129867 0.04541,-0.128962 0.03633,-0.12714 0.05449,-0.124422 0.05449,-0.122602 0.05449,-0.120789 0.06357,-0.117147 0.07265,-0.115336 0.07265,-0.11171 0.08173,-0.108069 0.08174,-0.104433 0.09082,-0.10081 0.09082,-0.09717 0.0999,-0.09263 0.0999,-0.08809 0.09989,-0.08446 0.108983,-0.07901 0.118063,-0.07447 0.108975,-0.06993 0.118062,-0.06448 0.118062,-0.05903 0.127141,-0.05358 0.127149,-0.04904 0.12714,-0.04268 0.127141,-0.03814 0.127149,-0.03179 0.136219,-0.02634 0.127149,-0.01998 0.136219,-0.01453 0.136228,-0.0091 0.12714,-0.0027 H 133.8012 l 0.12714,0.0027 0.13622,0.0091 0.13623,0.01453 0.12714,0.01998 0.13623,0.02634 0.12714,0.03179 0.12714,0.03814 0.12715,0.04268 0.12714,0.04904 0.12714,0.05358 0.11806,0.05903 0.11807,0.06448 0.11806,0.06993 0.10898,0.07447 0.10898,0.07901 0.0999,0.08446 0.0999,0.08809 0.0999,0.09263 0.0908,0.09717 0.0908,0.10081 0.0817,0.104433 0.0817,0.108069 0.0727,0.11171 0.0727,0.115336 0.0636,0.117147 0.0545,0.120789 0.0545,0.122602 0.0545,0.124422 0.0454,0.12714 0.0363,0.128962 0.0272,0.129867 0.0273,0.13168 0.0182,0.132594 0.0182,0.133501 0.009,0.134407 v 0.1335 47.190096 0.13441 l -0.009,0.1335 -0.0182,0.1335 -0.0182,0.13259 -0.0273,0.13169 -0.0272,0.12986 -0.0363,0.12896 -0.0454,0.12715 -0.0545,0.12532 -0.0545,0.1226 -0.0545,0.11988 -0.0636,0.11806 -0.0727,0.11443 -0.0727,0.1117 -0.0817,0.10808 -0.0817,0.10444 -0.0908,0.10081 -0.0908,0.0972 -0.0999,0.0926 -0.0999,0.089 -0.0999,0.0836 -0.10898,0.079 -0.10898,0.0745 -0.11806,0.0699 -0.11807,0.0645 -0.11806,0.059 -0.12714,0.0545 -0.12714,0.0481 -0.12715,0.0436 -0.12714,0.0372 -0.12714,0.0318 -0.13623,0.0263 -0.12714,0.0209 -0.13623,0.0145 -0.13622,0.008 z"
     id="pin13"
     style="fill:#1c1f26;fill-opacity:1;stroke-width:2.00048;stroke-dasharray:none" /><path
     fill="none"
     fill-opacity="1"
     fill-rule="evenodd"
     stroke="#000000"
     stroke-width="0.937501"
     stroke-linecap="round"
     stroke-linejoin="bevel"
     stroke-dasharray="none"
     stroke-opacity="1"
     d="m 151.63756,133.81126 v -47.1901 -0.1335 l 0.009,-0.134407 0.0182,-0.1335 0.0182,-0.132595 0.0272,-0.13168 0.0363,-0.129867 0.0363,-0.128962 0.0363,-0.12714 0.0545,-0.124422 0.0545,-0.122602 0.0545,-0.120789 0.0636,-0.117147 0.0726,-0.115335 0.0727,-0.111711 0.0817,-0.108069 0.0817,-0.104433 0.0908,-0.10081 0.0908,-0.09717 0.0999,-0.09263 0.0999,-0.08809 0.0999,-0.08446 0.10899,-0.07901 0.11806,-0.07447 0.10897,-0.06993 0.11807,-0.06448 0.11806,-0.05903 0.12714,-0.05358 0.12715,-0.04904 0.12714,-0.04268 0.12714,-0.03814 0.12714,-0.03179 0.13623,-0.02634 0.12714,-0.01998 0.13622,-0.01453 0.13623,-0.0091 0.13622,-0.0027 h 47.18828 l 0.12714,0.0027 0.13623,0.0091 0.13622,0.01453 0.12715,0.01998 0.13622,0.02634 0.12714,0.03179 0.12714,0.03814 0.12715,0.04268 0.12714,0.04904 0.12715,0.05358 0.11806,0.05903 0.11806,0.06448 0.11806,0.06993 0.10898,0.07447 0.10898,0.07901 0.0999,0.08446 0.0999,0.08809 0.0999,0.09263 0.0908,0.09717 0.0908,0.10081 0.0817,0.104433 0.0817,0.108069 0.0727,0.111711 0.0726,0.115335 0.0636,0.117147 0.0636,0.120789 0.0454,0.122602 0.0545,0.124422 0.0454,0.12714 0.0363,0.128962 0.0272,0.129867 0.0272,0.13168 0.0182,0.132595 0.0182,0.1335 0.009,0.134407 v 0.1335 47.1901 0.13441 l -0.009,0.1335 -0.0182,0.1335 -0.0182,0.13258 -0.0272,0.13169 -0.0272,0.12987 -0.0363,0.12896 -0.0454,0.12714 -0.0545,0.12533 -0.0454,0.1226 -0.0636,0.11988 -0.0636,0.11806 -0.0726,0.11443 -0.0727,0.1117 -0.0817,0.10808 -0.0817,0.10443 -0.0908,0.10081 -0.0908,0.0972 -0.0999,0.0926 -0.0999,0.089 -0.0999,0.0835 -0.10898,0.079 -0.10898,0.0745 -0.11806,0.0699 -0.11806,0.0645 -0.11806,0.059 -0.12715,0.0545 -0.12714,0.0481 -0.12715,0.0436 -0.12714,0.0372 -0.12714,0.0318 -0.13622,0.0263 -0.12715,0.0209 -0.13622,0.0145 -0.13623,0.008 -0.12714,0.004 h -47.18828 l -0.13622,-0.004 -0.13623,-0.008 -0.13622,-0.0145 -0.12714,-0.0209 -0.13623,-0.0263 -0.12714,-0.0318 -0.12714,-0.0372 -0.12714,-0.0436 -0.12715,-0.0481 -0.12714,-0.0545 -0.11806,-0.059 -0.11807,-0.0645 -0.10897,-0.0699 -0.11806,-0.0745 -0.10899,-0.079 -0.0999,-0.0835 -0.0999,-0.089 -0.0999,-0.0926 -0.0908,-0.0972 -0.0908,-0.10081 -0.0817,-0.10443 -0.0817,-0.10808 -0.0727,-0.1117 -0.0726,-0.11443 -0.0636,-0.11806 -0.0545,-0.11988 -0.0545,-0.1226 -0.0545,-0.12533 -0.0363,-0.12714 -0.0363,-0.12896 -0.0363,-0.12987 -0.0272,-0.13169 -0.0182,-0.13258 -0.0182,-0.1335 -0.009,-0.1335 z"
     id="pin12"
     style="fill:#1c1f26;fill-opacity:1;stroke-width:2.00048;stroke-dasharray:none" /><path
     fill="none"
     fill-opacity="1"
     fill-rule="evenodd"
     stroke="#000000"
     stroke-width="0.937501"
     stroke-linecap="round"
     stroke-linejoin="bevel"
     stroke-dasharray="none"
     stroke-opacity="1"
     d="M 65.69788,136.8863 H 18.500526 l -0.127143,-0.004 -0.136225,-0.008 -0.136224,-0.0145 -0.127143,-0.0209 -0.136225,-0.0263 -0.127143,-0.0318 -0.127143,-0.0372 -0.127143,-0.0436 -0.127143,-0.0481 -0.127144,-0.0545 -0.118062,-0.059 -0.118061,-0.0645 -0.108979,-0.0699 -0.118063,-0.0745 -0.108979,-0.079 -0.0999,-0.0836 -0.0999,-0.089 -0.0999,-0.0926 -0.09082,-0.0972 -0.09082,-0.10081 -0.08174,-0.10444 -0.08173,-0.10808 -0.07265,-0.1117 -0.07265,-0.11443 -0.06357,-0.11806 -0.05449,-0.11988 -0.05449,-0.1226 -0.05449,-0.12532 -0.03633,-0.12715 -0.04541,-0.12896 -0.02724,-0.12986 -0.02725,-0.13169 -0.01816,-0.13259 -0.01816,-0.1335 -0.0091,-0.1335 v -0.13441 -47.190096 -0.1335 l 0.0091,-0.134407 0.01816,-0.133501 0.01816,-0.132594 0.02725,-0.13168 0.02724,-0.129867 0.04541,-0.128962 0.03633,-0.12714 0.05449,-0.124422 0.05449,-0.122602 0.05449,-0.120789 0.06357,-0.117147 0.07265,-0.115336 0.07265,-0.11171 0.08173,-0.108069 0.08174,-0.104433 0.09082,-0.10081 0.09082,-0.09717 0.0999,-0.09263 0.0999,-0.08809 0.0999,-0.08446 0.108979,-0.07901 0.118063,-0.07447 0.108979,-0.06993 0.118061,-0.06448 0.118062,-0.05903 0.127144,-0.05358 0.127143,-0.04904 0.127143,-0.04268 0.127143,-0.03814 0.127143,-0.03179 0.136225,-0.02634 0.127143,-0.01998 0.136224,-0.01453 0.136225,-0.0091 0.127143,-0.0027 H 65.69788 l 0.127143,0.0027 0.136225,0.0091 0.136225,0.01453 0.127143,0.01998 0.136225,0.02634 0.127143,0.03179 0.127143,0.03814 0.127144,0.04268 0.127143,0.04904 0.127143,0.05358 0.118061,0.05903 0.118061,0.06448 0.108981,0.06993 0.118061,0.07447 0.108979,0.07901 0.0999,0.08446 0.0999,0.08809 0.0999,0.09263 0.09082,0.09717 0.09082,0.10081 0.08174,0.104433 0.08173,0.108069 0.07265,0.11171 0.07265,0.115336 0.06357,0.117147 0.05449,0.120789 0.05449,0.122602 0.05449,0.124422 0.03633,0.12714 0.04541,0.128962 0.02725,0.129867 0.02724,0.13168 0.01816,0.132594 0.01816,0.133501 0.0091,0.134407 v 0.1335 47.190096 0.13441 l -0.0091,0.1335 -0.01816,0.1335 -0.01816,0.13259 -0.02724,0.13169 -0.02725,0.12986 -0.04541,0.12896 -0.03633,0.12715 -0.05449,0.12532 -0.05449,0.1226 -0.05449,0.11988 -0.06357,0.11806 -0.07265,0.11443 -0.07265,0.1117 -0.08173,0.10808 -0.08174,0.10444 -0.09082,0.10081 -0.09082,0.0972 -0.0999,0.0926 -0.0999,0.089 -0.0999,0.0836 -0.108979,0.079 -0.118061,0.0745 -0.108981,0.0699 -0.118061,0.0645 -0.118061,0.059 -0.127143,0.0545 -0.127143,0.0481 -0.127144,0.0436 -0.127143,0.0372 -0.127143,0.0318 -0.136225,0.0263 -0.127143,0.0209 -0.136225,0.0145 -0.136225,0.008 z"
     id="pin14"
     style="fill:#1c1f26;fill-opacity:1;stroke-width:2.00048;stroke-dasharray:none" /><path
     fill="none"
     fill-opacity="1"
     fill-rule="evenodd"
     stroke="#000000"
     stroke-width="0.937501"
     stroke-linecap="round"
     stroke-linejoin="bevel"
     stroke-dasharray="none"
     stroke-opacity="1"
     d="M 133.8012,68.782072 H 86.603839 l -0.12714,-0.0027 -0.136228,-0.0091 -0.136219,-0.01453 -0.127149,-0.01998 -0.136219,-0.02634 -0.127149,-0.03179 -0.127141,-0.03814 -0.12714,-0.04268 -0.127149,-0.04904 -0.127141,-0.05358 -0.118062,-0.05903 -0.118062,-0.06448 -0.108975,-0.06993 -0.118063,-0.07447 -0.108983,-0.07992 -0.09989,-0.08355 -0.0999,-0.08809 -0.0999,-0.09354 -0.09082,-0.09627 -0.09082,-0.100806 -0.08174,-0.104439 -0.08173,-0.10898 -0.07265,-0.110796 -0.07265,-0.115337 -0.06357,-0.117153 -0.05449,-0.120786 -0.05449,-0.122602 -0.05449,-0.124419 -0.03633,-0.127143 -0.04541,-0.12896 -0.02725,-0.130776 -0.02724,-0.130775 -0.01816,-0.132593 -0.01816,-0.1335 -0.0091,-0.134408 V 65.70793 18.517842 18.383433 l 0.0091,-0.1335 0.01816,-0.1335 0.01816,-0.132593 0.02724,-0.131683 0.02725,-0.129868 0.04541,-0.128959 0.03633,-0.127143 0.05449,-0.125328 0.05449,-0.122602 0.05449,-0.119878 0.06357,-0.118061 0.07265,-0.114429 0.07265,-0.111704 0.08173,-0.108072 0.08174,-0.104439 0.09082,-0.100806 0.09082,-0.09717 0.0999,-0.09263 0.0999,-0.089 0.09989,-0.08355 0.108983,-0.07901 0.118063,-0.07447 0.108975,-0.06993 0.118062,-0.06448 0.118062,-0.05903 0.127141,-0.05449 0.127149,-0.04813 0.12714,-0.04359 0.127141,-0.03723 0.127149,-0.03179 0.136219,-0.02634 0.127149,-0.02089 0.136219,-0.01453 0.136228,-0.0082 0.12714,-0.0036 H 133.8012 l 0.12714,0.0036 0.13622,0.0082 0.13623,0.01453 0.12714,0.02089 0.13623,0.02634 0.12714,0.03179 0.12714,0.03723 0.12715,0.04359 0.12714,0.04813 0.12714,0.05449 0.11806,0.05903 0.11807,0.06448 0.11806,0.06993 0.10898,0.07447 0.10898,0.07901 0.0999,0.08355 0.0999,0.089 0.0999,0.09263 0.0908,0.09717 0.0908,0.100806 0.0817,0.104439 0.0817,0.108072 0.0727,0.111704 0.0727,0.114429 0.0636,0.118061 0.0545,0.119878 0.0545,0.122602 0.0545,0.125328 0.0454,0.127143 0.0363,0.128959 0.0272,0.129868 0.0273,0.131683 0.0182,0.132593 0.0182,0.1335 0.009,0.1335 v 0.134409 47.190088 0.133501 l -0.009,0.134408 -0.0182,0.1335 -0.0182,0.132593 -0.0273,0.130775 -0.0272,0.130776 -0.0363,0.12896 -0.0454,0.127143 -0.0545,0.124419 -0.0545,0.122602 -0.0545,0.120786 -0.0636,0.117153 -0.0727,0.115337 -0.0727,0.110796 -0.0817,0.10898 -0.0817,0.104439 -0.0908,0.100806 -0.0908,0.09627 -0.0999,0.09354 -0.0999,0.08809 -0.0999,0.08355 -0.10898,0.07992 -0.10898,0.07447 -0.11806,0.06993 -0.11807,0.06448 -0.11806,0.05903 -0.12714,0.05358 -0.12714,0.04904 -0.12715,0.04268 -0.12714,0.03814 -0.12714,0.03179 -0.13623,0.02634 -0.12714,0.01998 -0.13623,0.01453 -0.13622,0.0091 z"
     id="pin27"
     style="fill:#1c1f26;fill-opacity:1;stroke-width:2.00048;stroke-dasharray:none" /><path
     fill="none"
     fill-opacity="1"
     fill-rule="evenodd"
     stroke="#000000"
     stroke-width="0.937501"
     stroke-linecap="round"
     stroke-linejoin="bevel"
     stroke-dasharray="none"
     stroke-opacity="1"
     d="m 534.02059,120.54569 -16.62851,-44.16409 -0.0454,-0.126235 -0.0363,-0.128959 -0.0272,-0.129868 -0.0363,-0.130776 -0.0182,-0.132592 -0.0182,-0.1335 -0.009,-0.133501 V 75.331761 75.19826 l 0.009,-0.134408 0.009,-0.1335 0.0182,-0.132593 0.0272,-0.131684 0.0272,-0.130775 0.0363,-0.12896 0.0454,-0.128051 0.0454,-0.125327 0.0545,-0.12351 0.0545,-0.120786 0.0636,-0.118062 0.0727,-0.115337 0.0726,-0.112612 0.0727,-0.10898 0.0908,-0.105347 0.0817,-0.101715 0.0908,-0.09808 0.0999,-0.09445 0.0999,-0.089 0.0999,-0.08537 0.10898,-0.07992 0.10898,-0.07629 0.11806,-0.07084 0.11806,-0.06539 0.11806,-0.06085 0.11806,-0.0554 0.12715,-0.04995 44.16408,-16.625783 0.12714,-0.0445 0.12714,-0.03905 0.12714,-0.0336 0.13623,-0.02725 0.12714,-0.0218 0.13623,-0.01635 0.13623,-0.01 0.13623,-0.0045 0.12714,9.07e-4 0.13622,0.0073 0.13622,0.01362 0.12714,0.01907 0.13623,0.02452 0.12714,0.02997 0.12715,0.03633 0.13622,0.04178 0.11806,0.04722 0.12715,0.05267 0.11806,0.05812 0.11806,0.06357 0.11806,0.06811 0.10898,0.07356 0.10899,0.0781 0.10897,0.08264 0.0999,0.08718 0.0999,0.09172 0.0908,0.09627 0.0908,0.0999 0.0908,0.10353 0.0726,0.107164 0.0817,0.110796 0.0727,0.11352 0.0636,0.117154 0.0545,0.119878 0.0636,0.121694 0.0454,0.124419 16.62851,44.164088 0.0454,0.12714 0.0363,0.12805 0.0363,0.12987 0.0272,0.13169 0.0182,0.13168 0.0182,0.1335 0.009,0.1335 v 0.1344 0.13442 0.1335 l -0.0182,0.13349 -0.0182,0.1326 -0.0272,0.13169 -0.0272,0.13077 -0.0363,0.12987 -0.0454,0.12714 -0.0454,0.12533 -0.0545,0.1235 -0.0545,0.12079 -0.0636,0.11806 -0.0727,0.11625 -0.0726,0.11171 -0.0727,0.10897 -0.0817,0.10626 -0.0908,0.10172 -0.0908,0.0972 -0.0999,0.0944 -0.0999,0.089 -0.0999,0.0854 -0.10898,0.0808 -0.10898,0.0754 -0.11806,0.0708 -0.10898,0.0663 -0.12714,0.0599 -0.11806,0.0554 -0.12715,0.05 -44.16408,16.62669 -0.12714,0.0445 -0.12714,0.0381 -0.12715,0.0336 -0.13622,0.0282 -0.12715,0.0218 -0.13622,0.0154 -0.13623,0.0109 -0.12714,0.004 -0.13623,-9.3e-4 -0.13622,-0.007 -0.13622,-0.0136 -0.12715,-0.0191 -0.13622,-0.0245 -0.12715,-0.03 -0.12714,-0.0363 -0.12714,-0.0418 -0.12715,-0.0472 -0.12714,-0.0527 -0.11806,-0.0581 -0.11806,-0.0627 -0.11807,-0.069 -0.10897,-0.0727 -0.10899,-0.0781 -0.10897,-0.0836 -0.0999,-0.0872 -0.0999,-0.0917 -0.0908,-0.0954 -0.0908,-0.0999 -0.0817,-0.10354 -0.0817,-0.10807 -0.0817,-0.1108 -0.0636,-0.11352 -0.0726,-0.11715 -0.0545,-0.11896 -0.0545,-0.12261 z"
     id="pin03"
     style="fill:#1c1f26;fill-opacity:1;stroke-width:2.00048;stroke-dasharray:none" /><path
     fill="none"
     fill-opacity="1"
     fill-rule="evenodd"
     stroke="#000000"
     stroke-width="0.937501"
     stroke-linecap="round"
     stroke-linejoin="bevel"
     stroke-dasharray="none"
     stroke-opacity="1"
     d="m 503.57888,81.583572 16.62851,44.164078 0.0363,0.12624 0.0454,0.12896 0.0272,0.12987 0.0272,0.13077 0.0272,0.13259 0.0182,0.1335 0.009,0.1335 v 0.13441 0.1335 l -0.009,0.13442 -0.009,0.1335 -0.0182,0.13258 -0.0272,0.13169 -0.0272,0.13078 -0.0363,0.12896 -0.0454,0.12804 -0.0454,0.12533 -0.0545,0.12351 -0.0545,0.12079 -0.0636,0.11806 -0.0727,0.11534 -0.0727,0.11261 -0.0727,0.10898 -0.0908,0.10535 -0.0817,0.10172 -0.0908,0.0981 -0.0999,0.0936 -0.0999,0.0899 -0.0999,0.0854 -0.10898,0.0799 -0.10897,0.0763 -0.11807,0.0708 -0.11806,0.0654 -0.11806,0.0609 -0.11806,0.0554 -0.12714,0.0499 -44.16408,16.62578 -0.12714,0.0445 -0.12715,0.0391 -0.12714,0.0336 -0.13623,0.0272 -0.12714,0.0218 -0.13623,0.0164 -0.13622,0.01 -0.13623,0.005 -0.12714,-9.3e-4 -0.13622,-0.008 -0.13623,-0.0127 -0.12714,-0.0191 -0.13623,-0.0245 -0.12714,-0.0309 -0.13623,-0.0354 -0.12714,-0.0418 -0.11806,-0.0472 -0.12714,-0.0527 -0.11806,-0.0581 -0.11807,-0.0636 -0.11806,-0.0681 -0.10898,-0.0736 -0.10898,-0.0781 -0.10898,-0.0826 -0.0999,-0.0872 -0.0999,-0.0917 -0.0908,-0.0963 -0.0908,-0.0999 -0.0908,-0.10353 -0.0726,-0.10716 -0.0817,-0.1108 -0.0727,-0.11352 -0.0636,-0.11715 -0.0545,-0.11988 -0.0636,-0.1217 -0.0454,-0.12441 -16.62852,-44.16408 -0.0454,-0.12715 -0.0363,-0.12805 -0.0363,-0.129865 -0.0272,-0.131688 -0.0182,-0.13168 -0.0181,-0.133501 -0.009,-0.1335 -0.009,-0.134407 0.009,-0.134407 v -0.1335 l 0.0182,-0.133501 0.0182,-0.132594 0.0272,-0.132595 0.0272,-0.129867 0.0363,-0.129868 0.0454,-0.12714 0.0454,-0.125329 0.0545,-0.123507 0.0545,-0.120789 0.0636,-0.118969 0.0727,-0.115335 0.0727,-0.11171 0.0727,-0.108976 0.0817,-0.106256 0.0908,-0.101718 0.0908,-0.09808 0.0999,-0.09355 0.0999,-0.089 0.0999,-0.08537 0.10899,-0.08082 0.10897,-0.07537 0.11806,-0.07084 0.10899,-0.06629 0.12714,-0.05994 0.11806,-0.0554 0.12714,-0.04995 44.16408,-16.626691 0.12715,-0.0445 0.12714,-0.03905 0.12714,-0.03269 0.13623,-0.02815 0.12714,-0.02179 0.13623,-0.01544 0.13622,-0.0109 0.12715,-0.0045 0.13622,0.0018 0.13622,0.0073 0.13623,0.01362 0.12714,0.01816 0.13623,0.02543 0.12714,0.02997 0.12714,0.03633 0.12715,0.04178 0.12714,0.04722 0.12714,0.05267 0.11806,0.05812 0.11806,0.06266 0.11807,0.06902 0.10898,0.07265 0.10898,0.0781 0.10898,0.08355 0.0999,0.08718 0.0999,0.09172 0.0908,0.09536 0.0908,0.0999 0.0817,0.103532 0.0817,0.107163 0.0817,0.110796 0.0636,0.114429 0.0727,0.117153 0.0545,0.11897 0.0545,0.122602 z"
     id="pin02"
     style="fill:#1c1f26;fill-opacity:1;stroke-width:2.00048;stroke-dasharray:none" /><path
     fill="none"
     fill-opacity="1"
     fill-rule="evenodd"
     stroke="#000000"
     stroke-width="0.937501"
     stroke-linecap="round"
     stroke-linejoin="bevel"
     stroke-dasharray="none"
     stroke-opacity="1"
     d="m 222.81957,117.59869 h 47.18827 l 0.13623,0.003 0.12714,0.009 0.13623,0.0145 0.13623,0.0209 0.12714,0.0254 0.12714,0.0318 0.13623,0.0381 0.12714,0.0427 0.11806,0.0491 0.12714,0.0536 0.11806,0.0599 0.11806,0.0645 0.11807,0.069 0.10898,0.0745 0.10897,0.0799 0.0999,0.0836 0.0999,0.0881 0.0999,0.0935 0.0908,0.0963 0.0908,0.1008 0.0817,0.10535 0.0817,0.10807 0.0727,0.11079 0.0727,0.11535 0.0636,0.11715 0.0636,0.12078 0.0545,0.12261 0.0454,0.12532 0.0454,0.12624 0.0363,0.12896 0.0272,0.13077 0.0272,0.13168 0.0182,0.1326 0.0182,0.13259 0.009,0.13441 v 0.1335 47.19009 0.13441 l -0.009,0.1335 -0.0182,0.1335 -0.0182,0.13259 -0.0272,0.13168 -0.0272,0.13078 -0.0363,0.12805 -0.0454,0.12714 -0.0454,0.12533 -0.0545,0.1226 -0.0636,0.12079 -0.0636,0.11716 -0.0727,0.11442 -0.0727,0.11171 -0.0817,0.10807 -0.0817,0.10443 -0.0908,0.10172 -0.0908,0.0963 -0.0999,0.0926 -0.0999,0.089 -0.0999,0.0836 -0.10897,0.0799 -0.10898,0.0745 -0.11807,0.069 -0.11806,0.0645 -0.11806,0.0599 -0.12714,0.0536 -0.11806,0.049 -0.12714,0.0427 -0.13623,0.0372 -0.12714,0.0327 -0.12714,0.0254 -0.13623,0.0209 -0.13623,0.0145 -0.12714,0.009 -0.13623,0.003 h -47.18827 l -0.13622,-0.003 -0.13622,-0.009 -0.13623,-0.0145 -0.12714,-0.0209 -0.13623,-0.0254 -0.12714,-0.0327 -0.12715,-0.0372 -0.12714,-0.0427 -0.12714,-0.049 -0.12715,-0.0536 -0.11805,-0.0599 -0.11806,-0.0645 -0.10899,-0.069 -0.11806,-0.0745 -0.10898,-0.0799 -0.0999,-0.0836 -0.0999,-0.089 -0.0999,-0.0926 -0.0908,-0.0963 -0.0908,-0.10172 -0.0817,-0.10443 -0.0817,-0.10807 -0.0727,-0.11171 -0.0726,-0.11442 -0.0636,-0.11716 -0.0545,-0.12079 -0.0545,-0.1226 -0.0545,-0.12533 -0.0363,-0.12714 -0.0363,-0.12805 -0.0363,-0.13078 -0.0272,-0.13168 -0.0182,-0.13259 -0.0182,-0.1335 -0.009,-0.1335 v -0.13441 -47.19009 -0.1335 l 0.009,-0.13441 0.0182,-0.13259 0.0182,-0.1326 0.0272,-0.13168 0.0363,-0.13077 0.0363,-0.12896 0.0363,-0.12624 0.0545,-0.12532 0.0545,-0.12261 0.0545,-0.12078 0.0636,-0.11715 0.0726,-0.11535 0.0727,-0.11079 0.0817,-0.10807 0.0817,-0.10535 0.0908,-0.1008 0.0908,-0.0963 0.0999,-0.0935 0.0999,-0.0881 0.0999,-0.0836 0.10898,-0.0799 0.11806,-0.0745 0.10899,-0.069 0.11806,-0.0645 0.11805,-0.0599 0.12715,-0.0536 0.12714,-0.0491 0.12714,-0.0427 0.12715,-0.0381 0.12714,-0.0318 0.13623,-0.0254 0.12714,-0.0209 0.13623,-0.0145 0.13622,-0.009 z"
     id="pin09"
     style="fill:#1c1f26;fill-opacity:1;stroke-width:2.00048;stroke-dasharray:none" /><path
     fill="none"
     fill-opacity="1"
     fill-rule="evenodd"
     stroke="#000000"
     stroke-width="0.937501"
     stroke-linecap="round"
     stroke-linejoin="bevel"
     stroke-dasharray="none"
     stroke-opacity="1"
     d="m 439.84385,105.57821 16.61942,44.16408 0.0454,0.12623 0.0454,0.12806 0.0273,0.12987 0.0272,0.13168 0.0272,0.13259 0.009,0.13259 0.0182,0.13441 v 0.1335 0.13441 l -0.009,0.1335 -0.009,0.1335 -0.0182,0.1335 -0.0272,0.13169 -0.0363,0.13077 -0.0272,0.12896 -0.0454,0.12714 -0.0454,0.12533 -0.0545,0.12351 -0.0545,0.12079 -0.0636,0.11897 -0.0727,0.11533 -0.0727,0.11262 -0.0817,0.10897 -0.0817,0.10536 -0.0817,0.10171 -0.0908,0.0981 -0.0999,0.0935 -0.0999,0.0899 -0.0999,0.0845 -0.10898,0.0808 -0.10898,0.0754 -0.11806,0.0708 -0.11806,0.0663 -0.11806,0.0608 -0.11807,0.0554 -0.12714,0.0499 -44.16408,16.62579 -0.12715,0.0445 -0.12714,0.0391 -0.13622,0.0327 -0.12715,0.0282 -0.13622,0.0218 -0.12714,0.0163 -0.13623,0.01 -0.13622,0.005 -0.13623,-0.002 -0.12714,-0.007 -0.13623,-0.0127 -0.13622,-0.0191 -0.12714,-0.0245 -0.12714,-0.0309 -0.13623,-0.0363 -0.12714,-0.0418 -0.12715,-0.0472 -0.11806,-0.0527 -0.11807,-0.0581 -0.12714,-0.0627 -0.10897,-0.0681 -0.11806,-0.0736 -0.10899,-0.0781 -0.0999,-0.0826 -0.0999,-0.0872 -0.0999,-0.0917 -0.0999,-0.0963 -0.0817,-0.0999 -0.0908,-0.10353 -0.0817,-0.10716 -0.0727,-0.1108 -0.0726,-0.11443 -0.0636,-0.11624 -0.0636,-0.11988 -0.0545,-0.1226 -0.0454,-0.12442 -16.6285,-44.16408 -0.0454,-0.12624 -0.0363,-0.12805 -0.0363,-0.13077 -0.0272,-0.13078 -0.0182,-0.13259 -0.0182,-0.13259 -0.009,-0.13441 -0.009,-0.1335 v -0.13441 l 0.009,-0.13441 0.0182,-0.1335 0.0182,-0.13259 0.0272,-0.13169 0.0272,-0.13077 0.0363,-0.12896 0.0363,-0.12714 0.0545,-0.12624 0.0454,-0.1226 0.0636,-0.12169 0.0636,-0.11806 0.0636,-0.11534 0.0727,-0.11262 0.0817,-0.10897 0.0817,-0.10535 0.0908,-0.10172 0.0908,-0.0981 0.0908,-0.0935 0.0999,-0.0899 0.10898,-0.0854 0.10898,-0.0799 0.10898,-0.0763 0.10897,-0.0708 0.11807,-0.0654 0.11806,-0.0609 0.12714,-0.0554 0.12715,-0.05 44.16408,-16.62579 0.11806,-0.0445 0.13622,-0.0391 0.12715,-0.0336 0.12714,-0.0272 0.13623,-0.0218 0.13622,-0.0164 0.12715,-0.01 0.13621,-0.005 0.13623,0.002 0.13623,0.007 0.12714,0.0127 0.13623,0.0191 0.12714,0.0245 0.13623,0.0309 0.12714,0.0363 0.12714,0.0418 0.12715,0.0472 0.12714,0.0527 0.11806,0.0572 0.11806,0.0636 0.11806,0.0681 0.10898,0.0736 0.10898,0.0781 0.10898,0.0826 0.0999,0.0872 0.0999,0.0917 0.0908,0.0963 0.0908,0.0999 0.0817,0.10353 0.0817,0.10716 0.0727,0.1108 0.0726,0.11352 0.0636,0.11715 0.0636,0.11988 0.0545,0.12169 z"
     id="pin01"
     style="fill:#1c1f26;fill-opacity:1;stroke-width:2.00048;stroke-dasharray:none" /><path
     fill="none"
     fill-opacity="1"
     fill-rule="evenodd"
     stroke="#000000"
     stroke-width="0.937501"
     stroke-linecap="round"
     stroke-linejoin="bevel"
     stroke-dasharray="none"
     stroke-opacity="1"
     d="m 479.58516,17.84671 16.6285,44.164082 0.0363,0.126235 0.0454,0.128959 0.0273,0.129868 0.0272,0.130775 0.0272,0.132592 0.0182,0.133501 0.009,0.1335 v 0.1335 0.134409 l -0.009,0.134409 -0.009,0.1335 -0.0181,0.132592 -0.0273,0.131683 -0.0272,0.130777 -0.0363,0.128959 -0.0454,0.128051 -0.0454,0.125328 -0.0545,0.12351 -0.0545,0.120785 -0.0636,0.118063 -0.0727,0.115336 -0.0727,0.112613 -0.0727,0.108979 -0.0908,0.105348 -0.0817,0.101715 -0.0908,0.09808 -0.0999,0.09354 -0.0999,0.08991 -0.0999,0.08537 -0.10897,0.07992 -0.10899,0.07629 -0.11806,0.07084 -0.11806,0.06539 -0.11806,0.06085 -0.11806,0.0554 -0.12714,0.04995 -44.16409,16.625782 -0.12714,0.0445 -0.12714,0.03905 -0.12715,0.0336 -0.13621,0.02725 -0.12715,0.0218 -0.13622,0.01635 -0.13623,0.01 -0.13623,0.0045 -0.12714,-0.0018 -0.13623,-0.0073 -0.13622,-0.01271 -0.12714,-0.01907 -0.13622,-0.02452 -0.12715,-0.03088 -0.13622,-0.03542 -0.12715,-0.04178 -0.11806,-0.04722 -0.12714,-0.05267 -0.11806,-0.05812 -0.11807,-0.06357 -0.11806,-0.06811 -0.10897,-0.07356 -0.10899,-0.0781 -0.10897,-0.08264 -0.0999,-0.08718 -0.0999,-0.09172 -0.0908,-0.09627 -0.0908,-0.0999 -0.0908,-0.10353 -0.0727,-0.107164 -0.0817,-0.110796 -0.0727,-0.11352 -0.0636,-0.117154 -0.0636,-0.119878 -0.0545,-0.121694 -0.0454,-0.124419 -16.62852,-44.164081 -0.0454,-0.127143 -0.0363,-0.128051 -0.0363,-0.129868 -0.0272,-0.131684 -0.0182,-0.131684 -0.0182,-0.133501 -0.009,-0.133499 -0.009,-0.134409 0.009,-0.134408 v -0.133501 l 0.0182,-0.1335 0.0182,-0.132592 0.0272,-0.132592 0.0272,-0.129868 0.0363,-0.129868 0.0454,-0.127143 0.0454,-0.125327 0.0545,-0.12351 0.0545,-0.120786 0.0636,-0.118969 0.0636,-0.115338 0.0817,-0.111704 0.0726,-0.10898 0.0817,-0.106255 0.0908,-0.101715 0.0908,-0.09808 0.0999,-0.09354 0.0999,-0.08991 0.0999,-0.08446 0.10899,-0.08083 0.10897,-0.07538 0.10899,-0.07084 0.11806,-0.0663 0.12714,-0.06085 0.11806,-0.05449 0.12714,-0.05086 44.16408,-16.625783 0.12715,-0.0445 0.12714,-0.03905 0.12714,-0.03269 0.13623,-0.02815 0.12714,-0.0218 0.13623,-0.01635 0.12714,-0.01 0.13623,-0.0045 0.13622,0.0018 0.13622,0.0073 0.12715,0.01272 0.13622,0.01907 0.13623,0.02543 0.12714,0.02997 0.12715,0.03633 0.12714,0.04178 0.12714,0.04722 0.12715,0.05267 0.11805,0.05812 0.11806,0.06266 0.11807,0.06902 0.10898,0.07265 0.10897,0.0781 0.10899,0.08264 0.0999,0.08809 0.0999,0.09173 0.0908,0.09536 0.0908,0.0999 0.0817,0.103531 0.0817,0.107164 0.0727,0.110796 0.0727,0.114429 0.0727,0.116245 0.0545,0.119878 0.0545,0.122602 z"
     id="pin00"
     style="fill:#1c1f26;fill-opacity:1;stroke-width:2.00048;stroke-dasharray:none" /><path
     fill="none"
     fill-opacity="1"
     fill-rule="evenodd"
     stroke="#000000"
     stroke-width="0.937501"
     stroke-linecap="round"
     stroke-linejoin="bevel"
     stroke-dasharray="none"
     stroke-opacity="1"
     d="M 65.69788,68.782072 H 18.500526 l -0.127143,-0.0027 -0.136225,-0.0091 -0.136224,-0.01453 -0.127143,-0.01998 -0.136225,-0.02634 -0.127143,-0.03179 -0.127143,-0.03814 -0.127143,-0.04268 -0.127143,-0.04904 -0.127144,-0.05358 -0.118062,-0.05903 -0.118061,-0.06448 -0.108979,-0.06993 -0.118063,-0.07447 -0.108979,-0.07992 -0.0999,-0.08355 -0.0999,-0.08809 -0.0999,-0.09354 -0.09082,-0.09627 -0.09082,-0.100806 -0.08174,-0.104439 -0.08173,-0.10898 -0.07265,-0.110796 -0.07265,-0.115337 -0.06357,-0.117153 -0.05449,-0.120786 -0.05449,-0.122602 -0.05449,-0.124419 -0.03633,-0.127143 -0.04541,-0.12896 -0.02724,-0.130776 -0.02725,-0.130775 -0.01816,-0.132593 -0.01816,-0.1335 -0.0091,-0.134408 V 65.70793 18.517842 18.383433 l 0.0091,-0.1335 0.01816,-0.1335 0.01816,-0.132593 0.02725,-0.131683 0.02724,-0.129868 0.04541,-0.128959 0.03633,-0.127143 0.05449,-0.125328 0.05449,-0.122602 0.05449,-0.119878 0.06357,-0.118061 0.07265,-0.114429 0.07265,-0.111704 0.08173,-0.108072 0.08174,-0.104439 0.09082,-0.100806 0.09082,-0.09717 0.0999,-0.09263 0.0999,-0.089 0.0999,-0.08355 0.108979,-0.07901 0.118063,-0.07447 0.108979,-0.06993 0.118061,-0.06448 0.118062,-0.05903 0.127144,-0.05449 0.127143,-0.04813 0.127143,-0.04359 0.127143,-0.03723 0.127143,-0.03179 0.136225,-0.02634 0.127143,-0.02089 0.136224,-0.01453 0.136225,-0.0082 0.127143,-0.0036 H 65.69788 l 0.127143,0.0036 0.136225,0.0082 0.136225,0.01453 0.127143,0.02089 0.136225,0.02634 0.127143,0.03179 0.127143,0.03723 0.127144,0.04359 0.127143,0.04813 0.127143,0.05449 0.118061,0.05903 0.118061,0.06448 0.108981,0.06993 0.118061,0.07447 0.108979,0.07901 0.0999,0.08355 0.0999,0.089 0.0999,0.09263 0.09082,0.09717 0.09082,0.100806 0.08174,0.104439 0.08173,0.108072 0.07265,0.111704 0.07265,0.114429 0.06357,0.118061 0.05449,0.119878 0.05449,0.122602 0.05449,0.125328 0.03633,0.127143 0.04541,0.128959 0.02725,0.129868 0.02724,0.131683 0.01816,0.132593 0.01816,0.1335 0.0091,0.1335 v 0.134409 47.190088 0.133501 l -0.0091,0.134408 -0.01816,0.1335 -0.01816,0.132593 -0.02724,0.130775 -0.02725,0.130776 -0.04541,0.12896 -0.03633,0.127143 -0.05449,0.124419 -0.05449,0.122602 -0.05449,0.120786 -0.06357,0.117153 -0.07265,0.115337 -0.07265,0.110796 -0.08173,0.10898 -0.08174,0.104439 -0.09082,0.100806 -0.09082,0.09627 -0.0999,0.09354 -0.0999,0.08809 -0.0999,0.08355 -0.108979,0.07992 -0.118061,0.07447 -0.108981,0.06993 -0.118061,0.06448 -0.118061,0.05903 -0.127143,0.05358 -0.127143,0.04904 -0.127144,0.04268 -0.127143,0.03814 -0.127143,0.03179 -0.136225,0.02634 -0.127143,0.01998 -0.136225,0.01453 -0.136225,0.0091 z"
     id="pin26"
     style="fill:#1c1f26;fill-opacity:1;stroke-width:2.00048;stroke-dasharray:none" /><path
     fill="none"
     stroke="#000000"
     stroke-width="22.3609"
     stroke-dasharray="none"
     d="m 369.4935,154.74338 h -75.15076 a 5.3679101,5.3679101 0 0 1 -5.36791,-5.36792 v -35.79055 a 5.3679101,5.3679101 0 0 1 5.36791,-5.36791 h 75.15076 a 5.3679101,5.3679101 0 0 1 5.36791,5.36791 v 35.79055 a 5.3679101,5.3679101 0 0 1 -5.36791,5.36792 z"
     id="oled"
     style="fill:#000000;fill-opacity:1;stroke-width:2.00048;stroke-dasharray:none"
     inkscape:label="oled" /><path
     fill="none"
     stroke="#000000"
     d="m 340.33917,139.90136 a 11.909191,11.909191 0 1 0 0,-16.84215 l -16.84214,16.84196 a 11.909199,11.909199 0 1 1 0,-16.84215"
     id="path7"
     style="fill:none;fill-opacity:1;stroke:#d8dee9;stroke-width:2.00048;stroke-linecap:round;stroke-dasharray:none;stroke-opacity:1" /></svg>
